%
T1C0.0180F200S100
X087860Y111270
X092700Y131750
X092790Y137380
X093230Y129430
X093510Y137260
X093760Y132810
X094190Y135470
X094410Y127030
X094880Y136970
X095050Y128460
X095290Y133080
X095970Y134810
X098300Y132820
X099120Y124610
X099120Y135390
X099960Y124580
X100050Y132540
X100460Y133440
X100900Y135270
X103140Y129670
X104020Y134750
X104130Y134070
X104720Y133990
X105320Y129680
X105340Y123370
X106100Y133010
X107000Y123270
X107581Y139571
X108120Y133020
X108600Y138970
X108765Y122375
X109260Y121350
X109710Y097150
X110490Y123820
X110770Y097590
X112520Y130770
X113030Y133770
X113350Y100390
X113570Y134660
X115280Y133080
X116620Y136020
X119310Y120850
X120160Y118590
X120680Y136010
X120960Y125490
X121090Y126970
X122330Y127170
X123000Y120800
X127560Y120990
X128610Y124160
X129130Y120460
X129380Y120960
X129580Y128570
X130600Y131720
X130860Y126280
X130900Y124120
X130910Y129000
X130990Y127730
X131510Y137060
X132480Y122480
X132490Y125080
X132490Y132700
X132560Y131310
X132570Y125750
X132600Y127200
X132600Y129080
X132670Y134320
X132780Y113810
X132850Y136430
X132900Y112980
X133260Y127320
X132900Y130800
X133780Y112940
X133870Y125860
X134260Y124260
X134290Y113320
X134570Y132560
X134710Y114050
X134730Y134550
X134820Y127070
X134830Y109760
X134840Y130860
X134890Y122370
X134920Y118310
X135220Y136500
X135290Y129200
X135310Y132040
X135320Y127470
X135409Y134369
X135610Y123980
X135760Y131420
X135760Y137900
X135790Y122510
X136000Y113990
X136060Y112970
X136390Y123950
X136410Y134500
X136510Y125480
X136780Y124980
X137000Y125530
X137030Y124100
X137070Y128910
X137440Y113400
X137470Y122400
X137630Y134580
X137810Y117850
X137820Y115420
X137860Y124190
X137930Y109760
X137968Y136348
X138000Y119730
X138000Y131690
X138360Y132430
X138362Y134452
X138420Y131000
X138520Y124190
X138650Y112930
X138660Y137890
X138670Y113960
X138830Y115870
X139110Y127430
X139120Y126730
X139180Y124010
X139210Y125540
X139330Y128000
X139440Y136280
X139670Y113150
X139860Y120350
X139990Y134430
X140110Y118210
X140130Y123940
X140150Y111110
X140330Y122480
X140480Y133000
X140690Y109740
X140710Y128680
X140710Y136160
X140830Y134610
X140880Y139560
X140920Y129400
X141030Y132860
X141080Y113620
X141090Y124030
X141730Y133410
X141760Y124990
X141860Y109600
X141980Y116480
X141990Y112980
X142010Y117420
X142840Y113810
X142890Y136360
X142970Y113160
X143090Y130070
X143170Y128630
X143190Y124930
X143200Y131420
X143210Y127210
X143220Y132550
X143270Y126450
X143280Y130600
X143330Y128000
X143640Y122990
X144580Y134880
X144660Y124140
X144680Y126630
X144790Y110590
X144800Y129370
X145230Y132860
X145560Y109350
X146400Y109310
X147090Y129030
X148240Y132090
X148600Y113210
X153030Y138720
X153650Y138850
X154120Y141020
X154270Y138990
X154380Y133980
X154590Y135980
X155420Y137830
X161660Y140910
X163140Y141400
T2C0.0250F200S100
X087990Y097090
X091670Y119970
X091940Y118850
X093600Y124890
X094410Y140690
X096070Y107250
X096350Y104120
X096520Y139750
X096600Y126720
X097310Y132540
X098050Y123310
X098120Y127490
X098200Y140870
X098230Y132120
X098290Y105630
X098390Y104580
X099020Y099160
X100120Y119170
X101120Y131340
X101220Y137730
X101250Y125140
X101270Y136560
X101580Y119960
X101700Y111350
X101780Y140510
X102050Y137150
X103440Y120380
X103460Y110960
X103860Y123700
X104200Y131100
X105550Y139580
X105580Y131380
X106590Y121490
X107410Y117260
X107620Y119680
X107650Y115450
X107860Y113460
X108950Y119760
X110270Y118760
X110310Y116460
X110710Y117540
X111190Y113890
X112310Y119900
X114900Y139310
X115050Y127290
X115360Y129210
X115990Y110530
X116740Y102180
X117020Y134950
X117170Y133430
X119010Y139000
X119090Y129530
X119140Y132720
X122140Y109430
X123050Y133750
X123110Y135380
X123320Y109560
X123630Y099080
X124490Y109520
X124630Y101300
X125690Y109510
X126870Y109500
X127760Y104380
X134970Y106020
X134980Y108300
X135180Y098540
X135470Y107160
X138240Y106790
X140370Y108300
X148390Y111010
X149070Y118680
X149270Y112720
X150270Y117080
X153150Y100570
X153530Y123570
X153660Y104260
X153790Y120420
X153800Y121730
X158990Y138420
X160250Y135260
T7C0.0370F200S100
X088850Y125330
X088850Y126330
X088850Y127330
X088850Y128330
X088850Y129330
X088850Y130330
X088850Y131330
X088850Y132330
X088850Y133330
X089850Y125330
X089850Y126330
X089850Y127330
X089850Y128330
X089850Y129330
X089850Y130330
X089850Y131330
X089850Y132330
X089850Y133330
X139330Y100670
X139330Y101670
X139330Y102670
T13C0.1260F200S100
X089228Y120450
X089228Y138952
X118690Y100150
X118690Y113050
X131190Y100150
X131190Y113050
X161269Y120450
X161269Y138952
T8C0.0400F200S100
X088760Y136040
X089760Y136040
X089790Y104760
X090550Y114850
X090550Y115850
X090760Y136040
X090790Y104760
X091790Y104760
X102540Y115520
X103540Y115520
X104540Y115520
X122890Y107050
X122890Y108050
X123890Y107050
X123890Y108050
X124890Y107050
X124890Y108050
X125890Y107050
X125890Y108050
X126890Y107050
X126890Y108050
X142730Y104270
X142730Y105270
X142730Y106270
X145110Y112150
X145110Y113150
X145110Y114150
X145110Y115150
X145110Y116150
X145110Y117150
X148140Y108550
X148150Y106440
X153610Y113150
X153610Y114150
X153610Y115150
X153610Y116150
X155140Y108550
X155150Y106440
X159210Y113160
X159210Y114160
X159210Y115160
X159210Y116160
T4C0.0310F200S100
X086720Y108300
X086720Y109300
X086720Y110300
X114840Y126330
X114840Y128330
X114850Y122780
X114850Y124780
X115840Y126330
X115840Y128330
X115850Y122780
X115850Y124780
X116840Y126330
X116840Y128330
X116850Y122780
X116850Y124780
X118840Y126330
X118840Y128330
X118850Y122780
X118850Y124780
X140170Y097570
X141170Y097570
X160600Y142580
X162600Y142580
T12C0.1000F200S100
X088150Y113850
X088150Y117850
T11C0.0700F200S100
X086520Y097330
X086520Y106330
X160210Y112160
X160210Y117160
T9C0.0450F200S100
X156880Y130180
X157880Y130180
X158880Y130180
X159880Y130180
X160880Y130180
X161880Y130180
T3C0.0280F200S100
X129620Y137424
X129620Y138014
X129620Y138605
X129620Y139195
X129620Y139786
X129620Y140376
X132264Y138616
X132855Y138616
X133445Y138616
X134036Y138616
X148490Y135930
X148490Y136520
X148490Y137111
X148490Y137701
T6C0.0360F200S100
X137280Y101610
T5C0.0340F200S100
X124880Y126650
X124880Y129650
X124880Y132650
X127880Y126650
X127880Y129650
X127880Y132650
X159850Y106580
X159850Y106830
X159850Y107080
X160700Y108830
X160950Y108830
X161200Y108830
X162100Y106580
X162100Y106830
X162100Y107080
T10C0.0470F200S100
X159420Y099350
X159470Y101350
X159420Y103350
X159570Y099350
X159620Y101350
X159570Y103350
X159720Y099350
X159770Y101350
X159720Y103350
X161420Y099350
X161570Y099350
X161570Y101350
X161420Y101350
X161420Y103350
X161570Y103350
X161720Y099350
X161720Y101350
X161720Y103350
M30
