*
G04 Mass Parameters ***
*
G04 Image ***
*
%INF:\MUSHTAQ PCB\SAJJAD HUSSAIN\DDL\ICCC-PD-24-PCBR0500A\DATA LOGGER-68.SSB*%
%ICAS*%
%MOIN*%
%IPPOS*%
%ASAXBY*%
G74*%FSLAN2X34Y34*%
*
G04 Aperture Definitions ***
*
%ADD10C,0.0600*%
%ADD11R,0.0600X0.0600*%
%ADD12R,0.0320X0.0380*%
%ADD13R,0.0500X0.0500*%
%ADD14R,0.0380X0.0320*%
%ADD15R,0.0800X0.0800*%
%ADD16R,0.1400X0.0800*%
%ADD17R,0.2000X0.4000*%
%ADD18R,0.0800X0.1400*%
%ADD19R,0.1500X0.1500*%
%ADD20R,0.0520X0.0500*%
%ADD21C,0.0700*%
%ADD22R,0.0700X0.0700*%
%ADD23R,0.0900X0.1000*%
%ADD24R,0.0750X0.1100*%
%ADD25R,0.0300X0.0600*%
%ADD26C,0.1000*%
%ADD27R,0.1000X0.1000*%
%ADD28R,0.1200X0.0800*%
%ADD29C,0.0900*%
%ADD30C,0.0300*%
%ADD31R,0.0300X0.0300*%
%ADD32O,0.0800X0.1500*%
%ADD33O,0.1500X0.0800*%
%ADD34C,0.1260*%
%ADD35C,0.1200*%
%ADD36R,0.2300X0.1200*%
%ADD37O,0.1500X0.0900*%
%ADD38C,0.0550*%
%ADD39R,0.0900X0.0500*%
%ADD40R,0.0900X0.1200*%
%ADD41R,0.0500X0.0900*%
%ADD42O,0.1000X0.0240*%
%ADD43R,0.1000X0.0240*%
%ADD44O,0.0240X0.1000*%
%ADD45R,0.0240X0.1000*%
%ADD46R,0.1968X0.5905*%
%ADD47R,0.0880X0.0480*%
%ADD48R,0.0450X0.1500*%
%ADD49R,0.4400X0.3500*%
%ADD50O,0.0700X0.0110*%
%ADD51R,0.0700X0.0110*%
%ADD52O,0.0110X0.0700*%
%ADD53R,0.0110X0.0700*%
%ADD54O,0.0650X0.0160*%
%ADD55R,0.0650X0.0160*%
%ADD56R,0.0201X0.1600*%
%ADD57O,0.1000X0.0250*%
%ADD58R,0.1000X0.0250*%
%ADD59R,0.1400X0.0600*%
%ADD60R,0.1200X0.0900*%
%ADD61O,0.0940X0.0250*%
%ADD62R,0.0940X0.0250*%
%ADD63O,0.0500X0.0150*%
%ADD64R,0.0500X0.0150*%
%ADD65R,0.0870X0.0420*%
%ADD66R,0.3250X0.4250*%
%ADD67O,0.0250X0.0940*%
%ADD68R,0.0250X0.0940*%
%ADD69R,0.0500X0.0200*%
%ADD70R,0.0350X0.0150*%
%ADD71R,0.0580X0.0580*%
%ADD72C,0.0250*%
%ADD73C,0.0120*%
%ADD74C,0.0200*%
%ADD75C,0.0300*%
%ADD76C,0.0500*%
%ADD77C,0.0250*%
%ADD78C,0.0150*%
%ADD79C,0.0100*%
%ADD80C,0.0500*%
%ADD81C,0.0500*%
%ADD82C,0.0600*%
%ADD83R,0.0600X0.0600*%
%ADD84R,0.0500X0.0500*%
%ADD85R,0.0800X0.0800*%
%ADD86R,0.0380X0.0320*%
%ADD87C,0.0700*%
%ADD88R,0.0700X0.0700*%
%ADD89C,0.1000*%
%ADD90R,0.1000X0.1000*%
%ADD91R,0.0600X0.0800*%
%ADD92C,0.0900*%
%ADD93C,0.0300*%
%ADD94R,0.0300X0.0300*%
%ADD95O,0.0800X0.1500*%
%ADD96O,0.1500X0.0800*%
%ADD97C,0.1260*%
%ADD98C,0.1200*%
%ADD99R,0.0320X0.0380*%
%ADD100O,0.1500X0.0900*%
%ADD101C,0.0550*%
%ADD102R,0.0200X0.0500*%
%ADD103O,0.0250X0.0940*%
%ADD104R,0.0250X0.0940*%
%ADD105O,0.0900X0.0160*%
%ADD106R,0.0900X0.0160*%
%ADD107O,0.0250X0.0860*%
%ADD108R,0.0250X0.0860*%
%ADD109R,0.0580X0.0580*%
%ADD110C,0.0250*%
%ADD111C,0.0250*%
%ADD112C,0.0060*%
%ADD113C,0.0080*%
%ADD114C,0.0500*%
%ADD115C,0.0250*%
%ADD116R,0.1400X0.0800*%
%ADD117R,0.2000X0.4000*%
%ADD118R,0.0800X0.1400*%
%ADD119R,0.1500X0.1500*%
%ADD120R,0.0520X0.0500*%
%ADD121C,0.0850*%
%ADD122R,0.0850X0.0850*%
%ADD123R,0.0900X0.1000*%
%ADD124R,0.0750X0.1100*%
%ADD125R,0.0300X0.0600*%
%ADD126R,0.1200X0.1200*%
%ADD127R,0.1200X0.0800*%
%ADD128C,0.0750*%
%ADD129C,0.1100*%
%ADD130C,0.0400*%
%ADD131R,0.0400X0.0400*%
%ADD132O,0.0900X0.1600*%
%ADD133O,0.1600X0.0900*%
%ADD134C,0.1500*%
%ADD135R,0.2300X0.1200*%
%ADD136O,0.1600X0.1000*%
%ADD137R,0.0900X0.0500*%
%ADD138R,0.0900X0.1200*%
%ADD139O,0.1000X0.0240*%
%ADD140R,0.1000X0.0240*%
%ADD141O,0.0240X0.1000*%
%ADD142R,0.0240X0.1000*%
%ADD143R,0.1968X0.5905*%
%ADD144R,0.0880X0.0480*%
%ADD145R,0.0450X0.1500*%
%ADD146R,0.4400X0.3500*%
%ADD147O,0.0700X0.0110*%
%ADD148R,0.0700X0.0110*%
%ADD149O,0.0110X0.0700*%
%ADD150R,0.0110X0.0700*%
%ADD151O,0.0650X0.0160*%
%ADD152R,0.0650X0.0160*%
%ADD153R,0.0201X0.1600*%
%ADD154O,0.1000X0.0250*%
%ADD155R,0.1000X0.0250*%
%ADD156R,0.1400X0.0600*%
%ADD157R,0.0500X0.0900*%
%ADD158R,0.1200X0.0900*%
%ADD159O,0.0940X0.0250*%
%ADD160R,0.0940X0.0250*%
%ADD161O,0.0500X0.0150*%
%ADD162R,0.0500X0.0150*%
%ADD163R,0.0870X0.0420*%
%ADD164R,0.3250X0.4250*%
%ADD165R,0.0500X0.0200*%
%ADD166R,0.0350X0.0150*%
%ADD167C,0.0800*%
%ADD168C,0.0600*%
%ADD169C,0.0300*%
%ADD170C,0.0600*%
%ADD171C,0.0300*%
%ADD172C,0.0050*%
%ADD173C,0.0040*%
%ADD174C,0.0010*%
*
G04 Plot Data ***
*
G54D79*
G01X0137675Y0129445D02*
X0136775D01*
X0136725Y0129695D02*
X0137725D01*
Y0127095D01*
X0136725D01*
Y0129695D01*
G54D112*
G01X0155363Y0138776D02*
X0155390Y0138720D01*
Y0138664D01*
X0155363Y0138609D01*
X0155196D01*
X0155168Y0138664D01*
Y0138720D01*
X0155196Y0138776D01*
X0155363D01*
X0155390Y0138831D01*
Y0138887D01*
X0155363Y0138942D01*
X0155196D01*
X0155168Y0138887D01*
Y0138831D01*
X0155196Y0138776D01*
X0154826Y0138942D02*
Y0138609D01*
X0154798Y0138942D02*
X0154965D01*
X0155020Y0138831D01*
Y0138720D01*
X0154965Y0138609D01*
X0154798D01*
X0155363Y0138776D02*
X0155390Y0138720D01*
Y0138664D01*
X0155363Y0138609D01*
X0155196D01*
X0155168Y0138664D01*
Y0138720D01*
X0155196Y0138776D01*
X0155363D01*
X0155390Y0138831D01*
Y0138887D01*
X0155363Y0138942D01*
X0155196D01*
X0155168Y0138887D01*
Y0138831D01*
X0155196Y0138776D01*
X0154826Y0138942D02*
Y0138609D01*
X0154798Y0138942D02*
X0154965D01*
X0155020Y0138831D01*
Y0138720D01*
X0154965Y0138609D01*
X0154798D01*
X0122107Y0130520D02*
X0122374D01*
X0122241Y0130387D02*
Y0130653D01*
X0142587Y0107820D02*
Y0108042D01*
X0142365Y0107820D01*
X0142309D01*
X0142254Y0107848D01*
Y0108015D01*
X0142309Y0108042D01*
X0142587Y0108190D02*
Y0108412D01*
X0142365Y0108190D01*
X0142309D01*
X0142254Y0108218D01*
Y0108385D01*
X0142309Y0108412D01*
X0142587Y0108560D02*
Y0108671D01*
Y0108616D02*
X0142254D01*
X0142309Y0108671D01*
X0142421Y0108958D02*
X0142587Y0108874D01*
X0142421Y0109097D02*
Y0108930D01*
X0142365Y0108874D01*
X0142309D01*
X0142254Y0108930D01*
Y0109097D01*
X0142587D01*
X0137986Y0117714D02*
Y0117937D01*
X0137764Y0117826D01*
Y0117770D01*
X0138097D01*
X0137931Y0118112D02*
X0137875Y0118084D01*
X0137819D01*
X0137764Y0118112D01*
Y0118279D01*
X0137819Y0118307D01*
X0137875D01*
X0137931Y0118279D01*
Y0118112D01*
X0137986Y0118084D01*
X0138042D01*
X0138097Y0118112D01*
Y0118279D01*
X0138042Y0118307D01*
X0137986D01*
X0137931Y0118279D01*
X0138042Y0118454D02*
X0138097Y0118482D01*
Y0118649D01*
X0138042Y0118677D01*
X0137819D01*
X0137764Y0118649D01*
Y0118482D01*
X0137819Y0118454D01*
X0133647Y0117667D02*
X0133314Y0117500D01*
Y0117722D01*
X0133647Y0118009D02*
X0133592Y0118065D01*
X0133536Y0118092D01*
X0133425D01*
X0133369Y0118065D01*
X0133314Y0118009D01*
Y0117953D01*
X0133369Y0117898D01*
X0133425Y0117870D01*
X0133536D01*
X0133592Y0117898D01*
X0133647Y0117953D01*
Y0118009D01*
Y0118240D02*
Y0118351D01*
Y0118296D02*
X0133314D01*
X0133369Y0118351D01*
X0133481Y0118638D02*
X0133647Y0118554D01*
X0133481Y0118777D02*
Y0118610D01*
X0133425Y0118554D01*
X0133369D01*
X0133314Y0118610D01*
Y0118777D01*
X0133647D01*
X0154145Y0135721D02*
X0154312D01*
X0154340Y0135776D01*
Y0135832D01*
X0154312Y0135887D01*
X0154145D01*
X0154117Y0135832D01*
Y0135776D01*
X0154229Y0135554D01*
X0153970Y0135887D02*
X0153747D01*
X0153970Y0135665D01*
Y0135609D01*
X0153942Y0135554D01*
X0153775D01*
X0153747Y0135609D01*
X0153600Y0135887D02*
X0153489D01*
X0153544D02*
Y0135554D01*
X0153489Y0135609D01*
X0153202Y0135721D02*
X0153285Y0135887D01*
X0153063Y0135721D02*
X0153230D01*
X0153285Y0135665D01*
Y0135609D01*
X0153230Y0135554D01*
X0153063D01*
Y0135887D01*
X0121321Y0128779D02*
Y0128612D01*
X0121376Y0128584D01*
X0121432D01*
X0121487Y0128612D01*
Y0128779D01*
X0121432Y0128807D01*
X0121376D01*
X0121154Y0128696D01*
X0121321Y0129149D02*
Y0128982D01*
X0121376Y0128954D01*
X0121432D01*
X0121487Y0128982D01*
Y0129149D01*
X0121432Y0129177D01*
X0121376D01*
X0121154Y0129066D01*
X0121432Y0129324D02*
X0121487Y0129352D01*
Y0129519D01*
X0121432Y0129547D01*
X0121209D01*
X0121154Y0129519D01*
Y0129352D01*
X0121209Y0129324D01*
X0117610Y0125817D02*
X0117387D01*
X0117610Y0125595D01*
Y0125539D01*
X0117582Y0125484D01*
X0117415D01*
X0117387Y0125539D01*
X0117101Y0125817D02*
X0117045Y0125762D01*
X0117017Y0125706D01*
Y0125595D01*
X0117045Y0125539D01*
X0117101Y0125484D01*
X0117156D01*
X0117212Y0125539D01*
X0117240Y0125595D01*
Y0125706D01*
X0117212Y0125762D01*
X0117156Y0125817D01*
X0117101D01*
X0116870D02*
X0116759D01*
X0116814D02*
Y0125484D01*
X0116759Y0125539D01*
X0116472Y0125651D02*
X0116555Y0125817D01*
X0116333Y0125651D02*
X0116500D01*
X0116555Y0125595D01*
Y0125539D01*
X0116500Y0125484D01*
X0116333D01*
Y0125817D01*
X0141001Y0126357D02*
X0140945Y0126302D01*
X0140917Y0126246D01*
Y0126135D01*
X0140945Y0126079D01*
X0141001Y0126024D01*
X0141056D01*
X0141112Y0126079D01*
X0141140Y0126135D01*
Y0126246D01*
X0141112Y0126302D01*
X0141056Y0126357D01*
X0141001D01*
X0140770D02*
X0140547D01*
X0140770Y0126135D01*
Y0126079D01*
X0140742Y0126024D01*
X0140575D01*
X0140547Y0126079D01*
X0140400Y0126357D02*
X0140289D01*
X0140344D02*
Y0126024D01*
X0140289Y0126079D01*
X0140002Y0126191D02*
X0140085Y0126357D01*
X0139863Y0126191D02*
X0140030D01*
X0140085Y0126135D01*
Y0126079D01*
X0140030Y0126024D01*
X0139863D01*
Y0126357D01*
X0140816Y0128621D02*
X0140650D01*
X0140622Y0128565D01*
Y0128509D01*
X0140650Y0128454D01*
X0140816D01*
X0140844Y0128509D01*
Y0128565D01*
X0140733Y0128787D01*
X0140474D02*
X0140363D01*
X0140419D02*
Y0128454D01*
X0140363Y0128509D01*
X0140160Y0128787D02*
X0140049D01*
X0140104D02*
Y0128454D01*
X0140049Y0128509D01*
X0139762Y0128621D02*
X0139845Y0128787D01*
X0139623Y0128621D02*
X0139790D01*
X0139845Y0128565D01*
Y0128509D01*
X0139790Y0128454D01*
X0139623D01*
Y0128787D01*
X0142932Y0117462D02*
X0142987Y0117407D01*
Y0117296D01*
X0142932Y0117240D01*
X0142876D01*
X0142765Y0117351D01*
X0142654Y0117240D01*
Y0117462D01*
X0142987Y0117610D02*
Y0117832D01*
X0142765Y0117610D01*
X0142709D01*
X0142654Y0117638D01*
Y0117805D01*
X0142709Y0117832D01*
X0142987Y0117980D02*
Y0118091D01*
Y0118036D02*
X0142654D01*
X0142709Y0118091D01*
X0142821Y0118378D02*
X0142987Y0118294D01*
X0142821Y0118517D02*
Y0118350D01*
X0142765Y0118294D01*
X0142709D01*
X0142654Y0118350D01*
Y0118517D01*
X0142987D01*
X0140317Y0107966D02*
Y0108077D01*
Y0108021D02*
X0139984D01*
X0140039Y0108077D01*
X0140317Y0108280D02*
Y0108502D01*
X0140095Y0108280D01*
X0140039D01*
X0139984Y0108308D01*
Y0108475D01*
X0140039Y0108502D01*
X0140317Y0108650D02*
Y0108761D01*
Y0108706D02*
X0139984D01*
X0140039Y0108761D01*
X0140151Y0109048D02*
X0140317Y0108964D01*
X0140151Y0109187D02*
Y0109020D01*
X0140095Y0108964D01*
X0140039D01*
X0139984Y0109020D01*
Y0109187D01*
X0140317D01*
X0139221Y0107994D02*
X0139165Y0107966D01*
X0139109D01*
X0139054Y0107994D01*
Y0108160D01*
X0139109Y0108188D01*
X0139165D01*
X0139221Y0108160D01*
Y0107994D01*
X0139276Y0107966D01*
X0139332D01*
X0139387Y0107994D01*
Y0108160D01*
X0139332Y0108188D01*
X0139276D01*
X0139221Y0108160D01*
X0139387Y0108336D02*
Y0108447D01*
Y0108391D02*
X0139054D01*
X0139109Y0108447D01*
X0139387Y0108650D02*
Y0108761D01*
Y0108706D02*
X0139054D01*
X0139109Y0108761D01*
X0139221Y0109048D02*
X0139387Y0108964D01*
X0139221Y0109187D02*
Y0109020D01*
X0139165Y0108964D01*
X0139109D01*
X0139054Y0109020D01*
Y0109187D01*
X0139387D01*
X0135517Y0116295D02*
X0135462Y0116350D01*
X0135406Y0116378D01*
X0135295D01*
X0135239Y0116350D01*
X0135184Y0116295D01*
Y0116239D01*
X0135239Y0116184D01*
X0135295Y0116156D01*
X0135406D01*
X0135462Y0116184D01*
X0135517Y0116239D01*
Y0116295D01*
Y0116526D02*
Y0116637D01*
Y0116581D02*
X0135184D01*
X0135239Y0116637D01*
X0135517Y0116840D02*
Y0116951D01*
Y0116896D02*
X0135184D01*
X0135239Y0116951D01*
X0135351Y0117238D02*
X0135517Y0117154D01*
X0135351Y0117377D02*
Y0117210D01*
X0135295Y0117154D01*
X0135239D01*
X0135184Y0117210D01*
Y0117377D01*
X0135517D01*
X0143872Y0110668D02*
X0143845Y0110613D01*
X0143678D01*
X0143650Y0110668D01*
Y0110779D01*
X0143706Y0110835D01*
X0143872D01*
Y0110946D01*
X0143650D01*
X0144020Y0110613D02*
X0144242D01*
X0144020Y0110835D01*
Y0110890D01*
X0144048Y0110946D01*
X0144215D01*
X0144242Y0110890D01*
X0144390Y0110613D02*
X0144501D01*
X0144446D02*
Y0110946D01*
X0144501Y0110890D01*
X0144788Y0110779D02*
X0144704Y0110613D01*
X0144927Y0110779D02*
X0144760D01*
X0144704Y0110835D01*
Y0110890D01*
X0144760Y0110946D01*
X0144927D01*
Y0110613D01*
X0132071Y0116815D02*
Y0116648D01*
X0132126Y0116620D01*
X0132182D01*
X0132237Y0116648D01*
Y0116815D01*
X0132182Y0116842D01*
X0132126D01*
X0131904Y0116731D01*
X0132237Y0117129D02*
X0132182Y0117185D01*
X0132126Y0117212D01*
X0132015D01*
X0131959Y0117185D01*
X0131904Y0117129D01*
Y0117073D01*
X0131959Y0117018D01*
X0132015Y0116990D01*
X0132126D01*
X0132182Y0117018D01*
X0132237Y0117073D01*
Y0117129D01*
Y0117360D02*
Y0117471D01*
Y0117416D02*
X0131904D01*
X0131959Y0117471D01*
X0132071Y0117758D02*
X0132237Y0117674D01*
X0132071Y0117897D02*
Y0117730D01*
X0132015Y0117674D01*
X0131959D01*
X0131904Y0117730D01*
Y0117897D01*
X0132237D01*
X0135583Y0110728D02*
Y0110617D01*
Y0110673D02*
X0135916D01*
X0135860Y0110617D01*
X0135583Y0110414D02*
Y0110303D01*
Y0110359D02*
X0135916D01*
X0135860Y0110303D01*
X0135583Y0110100D02*
Y0109989D01*
Y0110044D02*
X0135916D01*
X0135860Y0109989D01*
X0135749Y0109702D02*
X0135583Y0109785D01*
X0135749Y0109563D02*
Y0109730D01*
X0135805Y0109785D01*
X0135860D01*
X0135916Y0109730D01*
Y0109563D01*
X0135583D01*
X0134321Y0107898D02*
Y0108065D01*
X0134265Y0108092D01*
X0134209D01*
X0134154Y0108065D01*
Y0107898D01*
X0134209Y0107870D01*
X0134265D01*
X0134487Y0107981D01*
Y0108379D02*
X0134432Y0108435D01*
X0134376Y0108462D01*
X0134265D01*
X0134209Y0108435D01*
X0134154Y0108379D01*
Y0108323D01*
X0134209Y0108268D01*
X0134265Y0108240D01*
X0134376D01*
X0134432Y0108268D01*
X0134487Y0108323D01*
Y0108379D01*
Y0108610D02*
Y0108721D01*
Y0108666D02*
X0134154D01*
X0134209Y0108721D01*
X0134321Y0109008D02*
X0134487Y0108924D01*
X0134321Y0109147D02*
Y0108980D01*
X0134265Y0108924D01*
X0134209D01*
X0134154Y0108980D01*
Y0109147D01*
X0134487D01*
X0132260Y0128027D02*
Y0128294D01*
X0132393Y0128161D02*
X0132127D01*
X0134085Y0127417D02*
X0133863D01*
X0134085Y0127195D01*
Y0127139D01*
X0134058Y0127084D01*
X0133891D01*
X0133863Y0127139D01*
X0133549Y0127417D02*
X0133715Y0127084D01*
X0133493D01*
X0133345Y0127362D02*
X0133318Y0127417D01*
X0133151D01*
X0133123Y0127362D01*
Y0127139D01*
X0133151Y0127084D01*
X0133318D01*
X0133345Y0127139D01*
X0139819Y0137768D02*
X0139875Y0137795D01*
X0139930D01*
X0139986Y0137768D01*
Y0137601D01*
X0139930Y0137573D01*
X0139875D01*
X0139819Y0137601D01*
Y0137768D01*
X0139764Y0137795D01*
X0139708D01*
X0139653Y0137768D01*
Y0137601D01*
X0139708Y0137573D01*
X0139764D01*
X0139819Y0137601D01*
Y0137398D02*
X0139875Y0137425D01*
X0139930D01*
X0139986Y0137398D01*
Y0137231D01*
X0139930Y0137203D01*
X0139875D01*
X0139819Y0137231D01*
Y0137398D01*
X0139764Y0137425D01*
X0139708D01*
X0139653Y0137398D01*
Y0137231D01*
X0139708Y0137203D01*
X0139764D01*
X0139819Y0137231D01*
X0139708Y0137055D02*
X0139653Y0137028D01*
Y0136861D01*
X0139708Y0136833D01*
X0139930D01*
X0139986Y0136861D01*
Y0137028D01*
X0139930Y0137055D01*
X0136409Y0131267D02*
X0136575Y0130934D01*
X0136353D01*
X0136039Y0131267D02*
X0136205Y0130934D01*
X0135983D01*
X0135835Y0131212D02*
X0135808Y0131267D01*
X0135641D01*
X0135613Y0131212D01*
Y0130989D01*
X0135641Y0130934D01*
X0135808D01*
X0135835Y0130989D01*
X0142637Y0135014D02*
Y0135237D01*
X0142415Y0135014D01*
X0142359D01*
X0142304Y0135042D01*
Y0135209D01*
X0142359Y0135237D01*
X0142471Y0135412D02*
Y0135579D01*
X0142415Y0135607D01*
X0142359D01*
X0142304Y0135579D01*
Y0135412D01*
X0142359Y0135384D01*
X0142415D01*
X0142637Y0135496D01*
X0142582Y0135754D02*
X0142637Y0135782D01*
Y0135949D01*
X0142582Y0135977D01*
X0142359D01*
X0142304Y0135949D01*
Y0135782D01*
X0142359Y0135754D01*
X0139742Y0134617D02*
X0139797Y0134589D01*
Y0134422D01*
X0139742Y0134394D01*
X0139631D01*
X0139575Y0134450D01*
Y0134617D01*
X0139464D01*
Y0134394D01*
X0139631Y0134792D02*
X0139575Y0134764D01*
X0139519D01*
X0139464Y0134792D01*
Y0134959D01*
X0139519Y0134987D01*
X0139575D01*
X0139631Y0134959D01*
Y0134792D01*
X0139686Y0134764D01*
X0139742D01*
X0139797Y0134792D01*
Y0134959D01*
X0139742Y0134987D01*
X0139686D01*
X0139631Y0134959D01*
X0139742Y0135134D02*
X0139797Y0135162D01*
Y0135329D01*
X0139742Y0135357D01*
X0139519D01*
X0139464Y0135329D01*
Y0135162D01*
X0139519Y0135134D01*
X0141953Y0130443D02*
X0142009Y0130498D01*
X0142037Y0130554D01*
Y0130665D01*
X0142009Y0130720D01*
X0141953Y0130776D01*
X0141898D01*
X0141842Y0130720D01*
X0141814Y0130665D01*
Y0130554D01*
X0141842Y0130498D01*
X0141898Y0130443D01*
X0141953D01*
X0142212Y0130609D02*
X0142379D01*
X0142407Y0130665D01*
Y0130720D01*
X0142379Y0130776D01*
X0142212D01*
X0142184Y0130720D01*
Y0130665D01*
X0142296Y0130443D01*
X0142554Y0130498D02*
X0142582Y0130443D01*
X0142749D01*
X0142777Y0130498D01*
Y0130720D01*
X0142749Y0130776D01*
X0142582D01*
X0142554Y0130720D01*
X0141882Y0132799D02*
X0142049D01*
X0142077Y0132855D01*
Y0132910D01*
X0142049Y0132966D01*
X0141882D01*
X0141854Y0132910D01*
Y0132855D01*
X0141966Y0132633D01*
X0142252Y0132799D02*
X0142224Y0132855D01*
Y0132910D01*
X0142252Y0132966D01*
X0142419D01*
X0142447Y0132910D01*
Y0132855D01*
X0142419Y0132799D01*
X0142252D01*
X0142224Y0132744D01*
Y0132688D01*
X0142252Y0132633D01*
X0142419D01*
X0142447Y0132688D01*
Y0132744D01*
X0142419Y0132799D01*
X0142594Y0132688D02*
X0142622Y0132633D01*
X0142789D01*
X0142817Y0132688D01*
Y0132910D01*
X0142789Y0132966D01*
X0142622D01*
X0142594Y0132910D01*
X0134444Y0131485D02*
X0134500Y0131540D01*
X0134528Y0131596D01*
Y0131707D01*
X0134500Y0131763D01*
X0134444Y0131818D01*
X0134389D01*
X0134333Y0131763D01*
X0134305Y0131707D01*
Y0131596D01*
X0134333Y0131540D01*
X0134389Y0131485D01*
X0134444D01*
X0134842D02*
X0134675Y0131818D01*
X0134898D01*
X0135045Y0131540D02*
X0135073Y0131485D01*
X0135240D01*
X0135268Y0131540D01*
Y0131763D01*
X0135240Y0131818D01*
X0135073D01*
X0135045Y0131763D01*
X0142107Y0130038D02*
X0142051Y0129983D01*
X0141940D01*
X0141884Y0130038D01*
Y0130094D01*
X0141996Y0130205D01*
X0141884Y0130316D01*
X0142107D01*
X0142282Y0130149D02*
X0142449D01*
X0142477Y0130205D01*
Y0130260D01*
X0142449Y0130316D01*
X0142282D01*
X0142254Y0130260D01*
Y0130205D01*
X0142366Y0129983D01*
X0142624Y0130038D02*
X0142652Y0129983D01*
X0142819D01*
X0142847Y0130038D01*
Y0130260D01*
X0142819Y0130316D01*
X0142652D01*
X0142624Y0130260D01*
X0136079Y0123948D02*
X0136135Y0123975D01*
X0136190D01*
X0136246Y0123948D01*
Y0123781D01*
X0136190Y0123753D01*
X0136135D01*
X0136079Y0123781D01*
Y0123948D01*
X0136024Y0123975D01*
X0135968D01*
X0135913Y0123948D01*
Y0123781D01*
X0135968Y0123753D01*
X0136024D01*
X0136079Y0123781D01*
X0135913Y0123439D02*
X0136246Y0123605D01*
Y0123383D01*
X0135968Y0123235D02*
X0135913Y0123208D01*
Y0123041D01*
X0135968Y0123013D01*
X0136190D01*
X0136246Y0123041D01*
Y0123208D01*
X0136190Y0123235D01*
X0142079Y0125349D02*
X0141912D01*
X0141884Y0125294D01*
Y0125238D01*
X0141912Y0125183D01*
X0142079D01*
X0142107Y0125238D01*
Y0125294D01*
X0141996Y0125516D01*
X0142282Y0125349D02*
X0142449D01*
X0142477Y0125405D01*
Y0125460D01*
X0142449Y0125516D01*
X0142282D01*
X0142254Y0125460D01*
Y0125405D01*
X0142366Y0125183D01*
X0142624Y0125238D02*
X0142652Y0125183D01*
X0142819D01*
X0142847Y0125238D01*
Y0125460D01*
X0142819Y0125516D01*
X0142652D01*
X0142624Y0125460D01*
X0141884Y0127794D02*
X0142107D01*
X0141996Y0128016D01*
X0141940D01*
Y0127683D01*
X0142282Y0127849D02*
X0142449D01*
X0142477Y0127905D01*
Y0127960D01*
X0142449Y0128016D01*
X0142282D01*
X0142254Y0127960D01*
Y0127905D01*
X0142366Y0127683D01*
X0142624Y0127738D02*
X0142652Y0127683D01*
X0142819D01*
X0142847Y0127738D01*
Y0127960D01*
X0142819Y0128016D01*
X0142652D01*
X0142624Y0127960D01*
X0139698Y0123280D02*
Y0123113D01*
X0139754Y0123085D01*
X0139809D01*
X0139865Y0123113D01*
Y0123280D01*
X0139809Y0123308D01*
X0139754D01*
X0139532Y0123197D01*
X0139698Y0123483D02*
X0139643Y0123455D01*
X0139587D01*
X0139532Y0123483D01*
Y0123650D01*
X0139587Y0123678D01*
X0139643D01*
X0139698Y0123650D01*
Y0123483D01*
X0139754Y0123455D01*
X0139809D01*
X0139865Y0123483D01*
Y0123650D01*
X0139809Y0123678D01*
X0139754D01*
X0139698Y0123650D01*
X0139809Y0123825D02*
X0139865Y0123853D01*
Y0124020D01*
X0139809Y0124048D01*
X0139587D01*
X0139532Y0124020D01*
Y0123853D01*
X0139587Y0123825D01*
X0142107Y0126438D02*
X0142079Y0126383D01*
X0141912D01*
X0141884Y0126438D01*
Y0126549D01*
X0141940Y0126605D01*
X0142107D01*
Y0126716D01*
X0141884D01*
X0142282Y0126549D02*
X0142449D01*
X0142477Y0126605D01*
Y0126660D01*
X0142449Y0126716D01*
X0142282D01*
X0142254Y0126660D01*
Y0126605D01*
X0142366Y0126383D01*
X0142624Y0126438D02*
X0142652Y0126383D01*
X0142819D01*
X0142847Y0126438D01*
Y0126660D01*
X0142819Y0126716D01*
X0142652D01*
X0142624Y0126660D01*
X0132260Y0129667D02*
Y0129934D01*
X0132393Y0129801D02*
X0132127D01*
X0134040Y0131007D02*
X0133929D01*
X0133984D02*
Y0130674D01*
X0133929Y0130729D01*
X0133559Y0131007D02*
X0133725Y0130674D01*
X0133503D01*
X0133355Y0130952D02*
X0133328Y0131007D01*
X0133161D01*
X0133133Y0130952D01*
Y0130729D01*
X0133161Y0130674D01*
X0133328D01*
X0133355Y0130729D01*
X0136116Y0132924D02*
Y0133147D01*
X0135894Y0133036D01*
Y0132980D01*
X0136227D01*
Y0133461D02*
X0135894Y0133294D01*
Y0133517D01*
X0136172Y0133664D02*
X0136227Y0133692D01*
Y0133859D01*
X0136172Y0133887D01*
X0135949D01*
X0135894Y0133859D01*
Y0133692D01*
X0135949Y0133664D01*
X0138453Y0123870D02*
Y0123759D01*
Y0123814D02*
X0138786D01*
X0138730Y0123759D01*
X0138619Y0123528D02*
X0138675Y0123555D01*
X0138730D01*
X0138786Y0123528D01*
Y0123361D01*
X0138730Y0123333D01*
X0138675D01*
X0138619Y0123361D01*
Y0123528D01*
X0138564Y0123555D01*
X0138508D01*
X0138453Y0123528D01*
Y0123361D01*
X0138508Y0123333D01*
X0138564D01*
X0138619Y0123361D01*
X0138508Y0123185D02*
X0138453Y0123158D01*
Y0122991D01*
X0138508Y0122963D01*
X0138730D01*
X0138786Y0122991D01*
Y0123158D01*
X0138730Y0123185D01*
X0138147Y0134533D02*
X0138092Y0134589D01*
X0138036Y0134617D01*
X0137925D01*
X0137869Y0134589D01*
X0137814Y0134533D01*
Y0134478D01*
X0137869Y0134422D01*
X0137925Y0134394D01*
X0138036D01*
X0138092Y0134422D01*
X0138147Y0134478D01*
Y0134533D01*
X0137981Y0134792D02*
X0137925Y0134764D01*
X0137869D01*
X0137814Y0134792D01*
Y0134959D01*
X0137869Y0134987D01*
X0137925D01*
X0137981Y0134959D01*
Y0134792D01*
X0138036Y0134764D01*
X0138092D01*
X0138147Y0134792D01*
Y0134959D01*
X0138092Y0134987D01*
X0138036D01*
X0137981Y0134959D01*
X0138092Y0135134D02*
X0138147Y0135162D01*
Y0135329D01*
X0138092Y0135357D01*
X0137869D01*
X0137814Y0135329D01*
Y0135162D01*
X0137869Y0135134D01*
X0142151Y0123483D02*
X0141984Y0123816D01*
X0142207D01*
X0142382Y0123649D02*
X0142549D01*
X0142577Y0123705D01*
Y0123760D01*
X0142549Y0123816D01*
X0142382D01*
X0142354Y0123760D01*
Y0123705D01*
X0142466Y0123483D01*
X0142724Y0123538D02*
X0142752Y0123483D01*
X0142919D01*
X0142947Y0123538D01*
Y0123760D01*
X0142919Y0123816D01*
X0142752D01*
X0142724Y0123760D01*
X0123585Y0128368D02*
X0123918Y0128534D01*
Y0128312D01*
X0123752Y0127970D02*
Y0128137D01*
X0123696Y0128164D01*
X0123640D01*
X0123585Y0128137D01*
Y0127970D01*
X0123640Y0127942D01*
X0123696D01*
X0123918Y0128053D01*
X0123640Y0127794D02*
X0123585Y0127767D01*
Y0127600D01*
X0123640Y0127572D01*
X0123863D01*
X0123918Y0127600D01*
Y0127767D01*
X0123863Y0127794D01*
X0140905Y0123221D02*
Y0123332D01*
Y0123277D02*
X0140572D01*
X0140627Y0123332D01*
X0140738Y0123563D02*
Y0123730D01*
X0140683Y0123758D01*
X0140627D01*
X0140572Y0123730D01*
Y0123563D01*
X0140627Y0123535D01*
X0140683D01*
X0140905Y0123647D01*
X0140849Y0123905D02*
X0140905Y0123933D01*
Y0124100D01*
X0140849Y0124128D01*
X0140627D01*
X0140572Y0124100D01*
Y0123933D01*
X0140627Y0123905D01*
X0137523Y0123635D02*
Y0123413D01*
X0137745Y0123635D01*
X0137800D01*
X0137856Y0123608D01*
Y0123441D01*
X0137800Y0123413D01*
X0137689Y0123238D02*
X0137745Y0123265D01*
X0137800D01*
X0137856Y0123238D01*
Y0123071D01*
X0137800Y0123043D01*
X0137745D01*
X0137689Y0123071D01*
Y0123238D01*
X0137634Y0123265D01*
X0137578D01*
X0137523Y0123238D01*
Y0123071D01*
X0137578Y0123043D01*
X0137634D01*
X0137689Y0123071D01*
X0137578Y0122895D02*
X0137523Y0122868D01*
Y0122701D01*
X0137578Y0122673D01*
X0137800D01*
X0137856Y0122701D01*
Y0122868D01*
X0137800Y0122895D01*
X0134618Y0123893D02*
X0134563Y0123921D01*
Y0124088D01*
X0134618Y0124115D01*
X0134729D01*
X0134785Y0124060D01*
Y0123893D01*
X0134896D01*
Y0124115D01*
X0134563Y0123579D02*
X0134896Y0123745D01*
Y0123523D01*
X0134618Y0123375D02*
X0134563Y0123348D01*
Y0123181D01*
X0134618Y0123153D01*
X0134840D01*
X0134896Y0123181D01*
Y0123348D01*
X0134840Y0123375D01*
X0137356Y0107976D02*
Y0108198D01*
X0137134Y0108087D01*
Y0108031D01*
X0137467D01*
Y0108346D02*
Y0108457D01*
Y0108401D02*
X0137134D01*
X0137189Y0108457D01*
X0137467Y0108660D02*
Y0108771D01*
Y0108716D02*
X0137134D01*
X0137189Y0108771D01*
X0137301Y0109058D02*
X0137467Y0108974D01*
X0137301Y0109197D02*
Y0109030D01*
X0137245Y0108974D01*
X0137189D01*
X0137134Y0109030D01*
Y0109197D01*
X0137467D01*
X0143606Y0107830D02*
Y0108052D01*
X0143384Y0107941D01*
Y0107886D01*
X0143717D01*
Y0108200D02*
Y0108422D01*
X0143495Y0108200D01*
X0143439D01*
X0143384Y0108228D01*
Y0108395D01*
X0143439Y0108422D01*
X0143717Y0108570D02*
Y0108681D01*
Y0108626D02*
X0143384D01*
X0143439Y0108681D01*
X0143551Y0108968D02*
X0143717Y0108884D01*
X0143551Y0109107D02*
Y0108940D01*
X0143495Y0108884D01*
X0143439D01*
X0143384Y0108940D01*
Y0109107D01*
X0143717D01*
X0144810Y0131547D02*
Y0131814D01*
X0144943Y0131681D02*
X0144677D01*
X0146208Y0130771D02*
X0146041D01*
X0146013Y0130715D01*
Y0130659D01*
X0146041Y0130604D01*
X0146208D01*
X0146235Y0130659D01*
Y0130715D01*
X0146124Y0130937D01*
X0145838Y0130771D02*
X0145671D01*
X0145643Y0130715D01*
Y0130659D01*
X0145671Y0130604D01*
X0145838D01*
X0145865Y0130659D01*
Y0130715D01*
X0145754Y0130937D01*
X0145495Y0130882D02*
X0145468Y0130937D01*
X0145301D01*
X0145273Y0130882D01*
Y0130659D01*
X0145301Y0130604D01*
X0145468D01*
X0145495Y0130659D01*
X0138627Y0122500D02*
X0138894D01*
X0138761Y0122367D02*
Y0122633D01*
X0139162Y0118597D02*
X0139217Y0118541D01*
Y0118430D01*
X0139162Y0118374D01*
X0139106D01*
X0138995Y0118486D01*
X0138884Y0118374D01*
Y0118597D01*
X0139051Y0118772D02*
X0138995Y0118744D01*
X0138939D01*
X0138884Y0118772D01*
Y0118939D01*
X0138939Y0118967D01*
X0138995D01*
X0139051Y0118939D01*
Y0118772D01*
X0139106Y0118744D01*
X0139162D01*
X0139217Y0118772D01*
Y0118939D01*
X0139162Y0118967D01*
X0139106D01*
X0139051Y0118939D01*
X0139162Y0119114D02*
X0139217Y0119142D01*
Y0119309D01*
X0139162Y0119337D01*
X0138939D01*
X0138884Y0119309D01*
Y0119142D01*
X0138939Y0119114D01*
X0136642Y0117768D02*
X0136697Y0117712D01*
Y0117601D01*
X0136642Y0117546D01*
X0136586D01*
X0136475Y0117657D01*
X0136364Y0117546D01*
Y0117768D01*
X0136697Y0117916D02*
Y0118027D01*
Y0117971D02*
X0136364D01*
X0136419Y0118027D01*
X0136697Y0118230D02*
Y0118341D01*
Y0118286D02*
X0136364D01*
X0136419Y0118341D01*
X0136531Y0118628D02*
X0136697Y0118544D01*
X0136531Y0118767D02*
Y0118600D01*
X0136475Y0118544D01*
X0136419D01*
X0136364Y0118600D01*
Y0118767D01*
X0136697D01*
X0136977Y0122500D02*
X0137244D01*
X0137111Y0122367D02*
Y0122633D01*
X0137181Y0118372D02*
Y0118539D01*
X0137125Y0118567D01*
X0137069D01*
X0137014Y0118539D01*
Y0118372D01*
X0137069Y0118344D01*
X0137125D01*
X0137347Y0118456D01*
Y0118881D02*
X0137014Y0118714D01*
Y0118937D01*
X0137292Y0119084D02*
X0137347Y0119112D01*
Y0119279D01*
X0137292Y0119307D01*
X0137069D01*
X0137014Y0119279D01*
Y0119112D01*
X0137069Y0119084D01*
X0134996Y0126303D02*
X0135218D01*
X0134996Y0126525D01*
Y0126580D01*
X0135024Y0126636D01*
X0135190D01*
X0135218Y0126580D01*
X0135366Y0126303D02*
X0135477D01*
X0135421D02*
Y0126636D01*
X0135477Y0126580D01*
X0135680Y0126303D02*
X0135791D01*
X0135736D02*
Y0126636D01*
X0135791Y0126580D01*
X0136078Y0126469D02*
X0135994Y0126303D01*
X0136217Y0126469D02*
X0136050D01*
X0135994Y0126525D01*
Y0126580D01*
X0136050Y0126636D01*
X0136217D01*
Y0126303D01*
X0138808Y0132262D02*
X0138753Y0132290D01*
Y0132456D01*
X0138808Y0132484D01*
X0138919D01*
X0138975Y0132428D01*
Y0132262D01*
X0139086D01*
Y0132484D01*
X0138753Y0132114D02*
Y0132003D01*
Y0132059D02*
X0139086D01*
X0139030Y0132003D01*
X0138753Y0131800D02*
Y0131689D01*
Y0131744D02*
X0139086D01*
X0139030Y0131689D01*
X0138919Y0131402D02*
X0138753Y0131485D01*
X0138919Y0131263D02*
Y0131430D01*
X0138975Y0131485D01*
X0139030D01*
X0139086Y0131430D01*
Y0131263D01*
X0138753D01*
X0133798Y0133351D02*
X0133631D01*
X0133603Y0133295D01*
Y0133239D01*
X0133631Y0133184D01*
X0133798D01*
X0133825Y0133239D01*
Y0133295D01*
X0133714Y0133517D01*
X0133261Y0133351D02*
X0133428D01*
X0133455Y0133406D01*
Y0133462D01*
X0133428Y0133517D01*
X0133261D01*
X0133233Y0133462D01*
Y0133406D01*
X0133344Y0133184D01*
X0133085Y0133462D02*
X0133058Y0133517D01*
X0132891D01*
X0132863Y0133462D01*
Y0133239D01*
X0132891Y0133184D01*
X0133058D01*
X0133085Y0133239D01*
X0133523Y0125782D02*
X0133579Y0125837D01*
X0133690D01*
X0133745Y0125782D01*
Y0125726D01*
X0133634Y0125615D01*
X0133745Y0125504D01*
X0133523D01*
X0133209Y0125837D02*
X0133375Y0125504D01*
X0133153D01*
X0133005Y0125782D02*
X0132978Y0125837D01*
X0132811D01*
X0132783Y0125782D01*
Y0125559D01*
X0132811Y0125504D01*
X0132978D01*
X0133005Y0125559D01*
X0144870Y0129667D02*
Y0129934D01*
X0145003Y0129801D02*
X0144737D01*
X0136082Y0101194D02*
Y0101361D01*
X0136026Y0101389D01*
X0135970D01*
X0135915Y0101361D01*
Y0101194D01*
X0135970Y0101166D01*
X0136026D01*
X0136248Y0101278D01*
X0135915Y0101019D02*
Y0100908D01*
Y0100963D02*
X0136248D01*
X0136193Y0100908D01*
X0135970Y0100704D02*
X0135915Y0100677D01*
Y0100510D01*
X0135970Y0100482D01*
X0136193D01*
X0136248Y0100510D01*
Y0100677D01*
X0136193Y0100704D01*
X0143831Y0117612D02*
X0143775Y0117584D01*
X0143719D01*
X0143664Y0117612D01*
Y0117779D01*
X0143719Y0117807D01*
X0143775D01*
X0143831Y0117779D01*
Y0117612D01*
X0143886Y0117584D01*
X0143942D01*
X0143997Y0117612D01*
Y0117779D01*
X0143942Y0117807D01*
X0143886D01*
X0143831Y0117779D01*
Y0117982D02*
Y0118149D01*
X0143775Y0118177D01*
X0143719D01*
X0143664Y0118149D01*
Y0117982D01*
X0143719Y0117954D01*
X0143775D01*
X0143997Y0118066D01*
X0143942Y0118324D02*
X0143997Y0118352D01*
Y0118519D01*
X0143942Y0118547D01*
X0143719D01*
X0143664Y0118519D01*
Y0118352D01*
X0143719Y0118324D01*
X0133271Y0107898D02*
X0133215Y0107870D01*
X0133159D01*
X0133104Y0107898D01*
Y0108065D01*
X0133159Y0108092D01*
X0133215D01*
X0133271Y0108065D01*
Y0107898D01*
X0133326Y0107870D01*
X0133382D01*
X0133437Y0107898D01*
Y0108065D01*
X0133382Y0108092D01*
X0133326D01*
X0133271Y0108065D01*
X0133437Y0108379D02*
X0133382Y0108435D01*
X0133326Y0108462D01*
X0133215D01*
X0133159Y0108435D01*
X0133104Y0108379D01*
Y0108323D01*
X0133159Y0108268D01*
X0133215Y0108240D01*
X0133326D01*
X0133382Y0108268D01*
X0133437Y0108323D01*
Y0108379D01*
Y0108610D02*
Y0108721D01*
Y0108666D02*
X0133104D01*
X0133159Y0108721D01*
X0133271Y0109008D02*
X0133437Y0108924D01*
X0133271Y0109147D02*
Y0108980D01*
X0133215Y0108924D01*
X0133159D01*
X0133104Y0108980D01*
Y0109147D01*
X0133437D01*
X0137053Y0101274D02*
Y0101163D01*
Y0101219D02*
X0137386D01*
X0137330Y0101163D01*
X0137053Y0100960D02*
Y0100849D01*
Y0100904D02*
X0137386D01*
X0137330Y0100849D01*
X0137108Y0100645D02*
X0137053Y0100618D01*
Y0100451D01*
X0137108Y0100423D01*
X0137330D01*
X0137386Y0100451D01*
Y0100618D01*
X0137330Y0100645D01*
X0096110Y0135433D02*
X0096221D01*
X0096166D02*
Y0135766D01*
X0096221Y0135710D01*
X0096619Y0135599D02*
X0096452D01*
X0096424Y0135544D01*
Y0135488D01*
X0096452Y0135433D01*
X0096619D01*
X0096647Y0135488D01*
Y0135544D01*
X0096536Y0135766D01*
X0096794Y0135488D02*
X0096822Y0135433D01*
X0096989D01*
X0097017Y0135488D01*
Y0135710D01*
X0096989Y0135766D01*
X0096822D01*
X0096794Y0135710D01*
X0129541Y0128372D02*
X0129485Y0128344D01*
X0129429D01*
X0129374Y0128372D01*
Y0128539D01*
X0129429Y0128567D01*
X0129485D01*
X0129541Y0128539D01*
Y0128372D01*
X0129596Y0128344D01*
X0129652D01*
X0129707Y0128372D01*
Y0128539D01*
X0129652Y0128567D01*
X0129596D01*
X0129541Y0128539D01*
Y0128909D02*
Y0128742D01*
X0129596Y0128714D01*
X0129652D01*
X0129707Y0128742D01*
Y0128909D01*
X0129652Y0128937D01*
X0129596D01*
X0129374Y0128826D01*
X0129652Y0129084D02*
X0129707Y0129112D01*
Y0129279D01*
X0129652Y0129307D01*
X0129429D01*
X0129374Y0129279D01*
Y0129112D01*
X0129429Y0129084D01*
X0140389Y0130910D02*
Y0131076D01*
X0140334Y0131104D01*
X0140278D01*
X0140223Y0131076D01*
Y0130910D01*
X0140278Y0130882D01*
X0140334D01*
X0140556Y0130993D01*
X0140223Y0130734D02*
Y0130623D01*
Y0130679D02*
X0140556D01*
X0140500Y0130623D01*
X0140223Y0130420D02*
Y0130309D01*
Y0130364D02*
X0140556D01*
X0140500Y0130309D01*
X0140389Y0130022D02*
X0140223Y0130105D01*
X0140389Y0129883D02*
Y0130050D01*
X0140445Y0130105D01*
X0140500D01*
X0140556Y0130050D01*
Y0129883D01*
X0140223D01*
X0143676Y0109613D02*
X0143787D01*
X0143731D02*
Y0109946D01*
X0143787Y0109890D01*
X0144129Y0109613D02*
X0144185Y0109668D01*
X0144212Y0109724D01*
Y0109835D01*
X0144185Y0109890D01*
X0144129Y0109946D01*
X0144073D01*
X0144018Y0109890D01*
X0143990Y0109835D01*
Y0109724D01*
X0144018Y0109668D01*
X0144073Y0109613D01*
X0144129D01*
X0144360D02*
X0144471D01*
X0144416D02*
Y0109946D01*
X0144471Y0109890D01*
X0144674Y0109668D02*
X0144702Y0109613D01*
X0144869D01*
X0144897Y0109668D01*
Y0109890D01*
X0144869Y0109946D01*
X0144702D01*
X0144674Y0109890D01*
X0134231Y0118089D02*
Y0117922D01*
X0134286Y0117894D01*
X0134342D01*
X0134397Y0117922D01*
Y0118089D01*
X0134342Y0118117D01*
X0134286D01*
X0134064Y0118006D01*
X0134397Y0118431D02*
X0134064Y0118264D01*
Y0118487D01*
X0134342Y0118634D02*
X0134397Y0118662D01*
Y0118829D01*
X0134342Y0118857D01*
X0134119D01*
X0134064Y0118829D01*
Y0118662D01*
X0134119Y0118634D01*
X0095655Y0134065D02*
X0095710Y0134010D01*
X0095766Y0133982D01*
X0095877D01*
X0095933Y0134010D01*
X0095988Y0134065D01*
Y0134121D01*
X0095933Y0134177D01*
X0095877Y0134204D01*
X0095766D01*
X0095710Y0134177D01*
X0095655Y0134121D01*
Y0134065D01*
X0095822Y0133640D02*
Y0133807D01*
X0095766Y0133834D01*
X0095710D01*
X0095655Y0133807D01*
Y0133640D01*
X0095710Y0133612D01*
X0095766D01*
X0095988Y0133723D01*
X0095710Y0133464D02*
X0095655Y0133437D01*
Y0133270D01*
X0095710Y0133242D01*
X0095933D01*
X0095988Y0133270D01*
Y0133437D01*
X0095933Y0133464D01*
X0138847Y0116202D02*
X0138514Y0116036D01*
Y0116258D01*
X0138847Y0116406D02*
Y0116517D01*
Y0116461D02*
X0138514D01*
X0138569Y0116517D01*
X0138847Y0116720D02*
Y0116831D01*
Y0116776D02*
X0138514D01*
X0138569Y0116831D01*
X0138681Y0117118D02*
X0138847Y0117034D01*
X0138681Y0117257D02*
Y0117090D01*
X0138625Y0117034D01*
X0138569D01*
X0138514Y0117090D01*
Y0117257D01*
X0138847D01*
X0141127Y0116431D02*
X0140794Y0116264D01*
Y0116487D01*
X0140961Y0116662D02*
X0140905Y0116634D01*
X0140849D01*
X0140794Y0116662D01*
Y0116829D01*
X0140849Y0116857D01*
X0140905D01*
X0140961Y0116829D01*
Y0116662D01*
X0141016Y0116634D01*
X0141072D01*
X0141127Y0116662D01*
Y0116829D01*
X0141072Y0116857D01*
X0141016D01*
X0140961Y0116829D01*
X0141072Y0117004D02*
X0141127Y0117032D01*
Y0117199D01*
X0141072Y0117227D01*
X0140849D01*
X0140794Y0117199D01*
Y0117032D01*
X0140849Y0117004D01*
X0146471Y0129057D02*
X0146415Y0129002D01*
X0146387Y0128946D01*
Y0128835D01*
X0146415Y0128779D01*
X0146471Y0128724D01*
X0146526D01*
X0146582Y0128779D01*
X0146610Y0128835D01*
Y0128946D01*
X0146582Y0129002D01*
X0146526Y0129057D01*
X0146471D01*
X0146101D02*
X0146045Y0129002D01*
X0146017Y0128946D01*
Y0128835D01*
X0146045Y0128779D01*
X0146101Y0128724D01*
X0146156D01*
X0146212Y0128779D01*
X0146240Y0128835D01*
Y0128946D01*
X0146212Y0129002D01*
X0146156Y0129057D01*
X0146101D01*
X0145870D02*
X0145759D01*
X0145814D02*
Y0128724D01*
X0145759Y0128779D01*
X0145555Y0129002D02*
X0145528Y0129057D01*
X0145361D01*
X0145333Y0129002D01*
Y0128779D01*
X0145361Y0128724D01*
X0145528D01*
X0145555Y0128779D01*
X0137235Y0125920D02*
X0137985D01*
Y0124320D01*
X0137235D01*
Y0125920D01*
X0153225Y0137325D02*
Y0137225D01*
X0155425D01*
Y0138425D01*
X0153225D01*
Y0138025D01*
X0153025Y0137825D01*
X0153225Y0137625D01*
Y0137325D01*
X0136075Y0110980D02*
X0136825D01*
Y0109380D01*
X0136075D01*
Y0110980D01*
X0134645Y0109380D02*
X0133895D01*
Y0110980D01*
X0134645D01*
Y0109380D01*
X0143865Y0109360D02*
X0143115D01*
Y0110960D01*
X0143865D01*
Y0109360D01*
X0137485Y0126065D02*
X0136335D01*
Y0126710D01*
X0137485D01*
Y0126065D01*
X0138255Y0125920D02*
X0139005D01*
Y0124320D01*
X0138255D01*
Y0125920D01*
X0138735Y0132620D02*
X0137985D01*
Y0134220D01*
X0138735D01*
Y0132620D01*
X0141380Y0124025D02*
Y0124775D01*
X0142980D01*
Y0124025D01*
X0141380D01*
X0123945Y0129915D02*
Y0128765D01*
X0123300D01*
Y0129915D01*
X0123945D01*
X0140425Y0125950D02*
Y0124350D01*
X0141175D01*
Y0125950D01*
X0140425D01*
X0138705Y0129975D02*
Y0131125D01*
X0139350D01*
Y0129975D01*
X0138705D01*
X0134625Y0125850D02*
X0135375D01*
Y0124250D01*
X0134625D01*
Y0125850D01*
X0137180Y0130825D02*
Y0130075D01*
X0135580D01*
Y0130825D01*
X0137180D01*
X0143265Y0133030D02*
X0142515D01*
Y0134630D01*
X0143265D01*
Y0133030D01*
X0140325Y0132620D02*
X0139575D01*
Y0134220D01*
X0140325D01*
Y0132620D01*
X0133645Y0109380D02*
X0132895D01*
Y0110980D01*
X0133645D01*
Y0109380D01*
X0141170Y0130825D02*
Y0131575D01*
X0142770D01*
Y0130825D01*
X0141170D01*
Y0131725D02*
Y0132475D01*
X0142770D01*
Y0131725D01*
X0141170D01*
X0134230Y0132165D02*
Y0131415D01*
X0132630D01*
Y0132165D01*
X0134230D01*
X0141380Y0129025D02*
Y0129775D01*
X0142980D01*
Y0129025D01*
X0141380D01*
X0135625Y0125860D02*
X0136375D01*
Y0124260D01*
X0135625D01*
Y0125860D01*
X0139565Y0129975D02*
Y0131125D01*
X0140210D01*
Y0129975D01*
X0139565D01*
X0141380Y0125625D02*
Y0126375D01*
X0142980D01*
Y0125625D01*
X0141380D01*
Y0128125D02*
Y0128875D01*
X0142980D01*
Y0128125D01*
X0141380D01*
X0139465Y0125950D02*
X0140215D01*
Y0124350D01*
X0139465D01*
Y0125950D01*
X0141380Y0126825D02*
Y0127575D01*
X0142980D01*
Y0126825D01*
X0141380D01*
X0135785Y0132620D02*
X0135035D01*
Y0134220D01*
X0135785D01*
Y0132620D01*
X0139675Y0116140D02*
X0138925D01*
Y0117740D01*
X0139675D01*
Y0116140D01*
X0134250Y0126795D02*
Y0126045D01*
X0132650D01*
Y0126795D01*
X0134250D01*
X0145180Y0110425D02*
Y0111175D01*
X0146780D01*
Y0110425D01*
X0145180D01*
X0116145Y0127625D02*
X0117295D01*
Y0126980D01*
X0116145D01*
Y0127625D01*
X0137825Y0109380D02*
X0137075D01*
Y0110980D01*
X0137825D01*
Y0109380D01*
X0137145Y0116140D02*
X0136395D01*
Y0117740D01*
X0137145D01*
Y0116140D01*
X0142865Y0109360D02*
X0142115D01*
Y0110960D01*
X0142865D01*
Y0109360D01*
X0138125Y0116140D02*
X0137375D01*
Y0117740D01*
X0138125D01*
Y0116140D01*
X0133835Y0116440D02*
X0133085D01*
Y0118040D01*
X0133835D01*
Y0116440D01*
X0140155Y0138250D02*
X0140905D01*
Y0136650D01*
X0140155D01*
Y0138250D01*
X0136530Y0098080D02*
Y0100280D01*
X0135630D01*
Y0098080D01*
X0136530D01*
X0154950Y0136855D02*
Y0136105D01*
X0153350D01*
Y0136855D01*
X0154950D01*
X0144315Y0116140D02*
X0143565D01*
Y0117740D01*
X0144315D01*
Y0116140D01*
X0141090Y0127185D02*
Y0126435D01*
X0139490D01*
Y0127185D01*
X0141090D01*
X0136785Y0100210D02*
X0137535D01*
Y0098610D01*
X0136785D01*
Y0100210D01*
X0130665Y0127840D02*
X0129915D01*
Y0129440D01*
X0130665D01*
Y0127840D01*
X0141090Y0128365D02*
Y0127615D01*
X0139490D01*
Y0128365D01*
X0141090D01*
X0134230Y0133075D02*
Y0132325D01*
X0132630D01*
Y0133075D01*
X0134230D01*
X0097200Y0135015D02*
Y0135765D01*
X0098800D01*
Y0135015D01*
X0097200D01*
X0145180Y0109425D02*
Y0110175D01*
X0146780D01*
Y0109425D01*
X0145180D01*
X0134815Y0116440D02*
X0134065D01*
Y0118040D01*
X0134815D01*
Y0116440D01*
X0096975Y0133590D02*
X0096225D01*
Y0135190D01*
X0096975D01*
Y0133590D01*
X0143355Y0116130D02*
X0142605D01*
Y0117730D01*
X0143355D01*
Y0116130D01*
X0140525Y0109370D02*
X0139775D01*
Y0110970D01*
X0140525D01*
Y0109370D01*
X0139545D02*
X0138795D01*
Y0110970D01*
X0139545D01*
Y0109370D01*
X0136175Y0117285D02*
Y0116135D01*
X0135530D01*
Y0117285D01*
X0136175D01*
X0132895Y0117805D02*
Y0116655D01*
X0132250D01*
Y0117805D01*
X0132895D01*
X0140685Y0116140D02*
X0139935D01*
Y0117740D01*
X0140685D01*
Y0116140D01*
G54D113*
G01X0138414Y0130342D02*
X0138469Y0130398D01*
X0138580D01*
X0138636Y0130342D01*
Y0130286D01*
X0138525Y0130175D01*
X0138636Y0130064D01*
X0138414D01*
X0138004Y0130342D02*
X0138059Y0130398D01*
X0138170D01*
X0138226Y0130342D01*
Y0130286D01*
X0138115Y0130175D01*
X0138226Y0130064D01*
X0138004D01*
X0137816D02*
Y0130342D01*
X0137788Y0130398D01*
X0137622D01*
X0137594Y0130342D01*
Y0130064D01*
X0158758Y0112642D02*
X0158647D01*
X0158702D02*
Y0112309D01*
X0158647Y0112364D01*
X0162866Y0118424D02*
X0162644D01*
X0162866Y0118646D01*
Y0118702D01*
X0162838Y0118758D01*
X0162671D01*
X0162644Y0118702D01*
X0162261Y0118535D02*
Y0118480D01*
X0162289Y0118424D01*
X0162400D01*
X0162428Y0118480D01*
Y0118758D01*
X0162456D02*
X0162345D01*
X0099146Y0133554D02*
Y0133721D01*
X0099090Y0133748D01*
X0099035D01*
X0098979Y0133721D01*
Y0133554D01*
X0099035Y0133526D01*
X0099090D01*
X0099313Y0133637D01*
Y0133936D02*
Y0134158D01*
X0099090Y0133936D01*
X0099035D01*
X0098979Y0133964D01*
Y0134131D01*
X0099035Y0134158D01*
X0098979Y0134346D02*
X0099257D01*
X0099313Y0134374D01*
Y0134541D01*
X0099257Y0134568D01*
X0098979D01*
X0143734Y0114350D02*
X0141734D01*
Y0112635D01*
X0143734D01*
Y0114350D01*
X0143484D02*
Y0112695D01*
X0150770Y0114865D02*
X0148270D01*
Y0115615D01*
X0150770D01*
Y0114865D01*
X0150520D02*
Y0115615D01*
X0134524Y0114370D02*
X0132524D01*
Y0112655D01*
X0134524D01*
Y0114370D01*
X0134274D02*
Y0112715D01*
X0137700Y0114365D02*
X0135700D01*
Y0112650D01*
X0137700D01*
Y0114365D01*
X0140414Y0114350D02*
X0138414D01*
Y0112635D01*
X0140414D01*
Y0114350D01*
X0140164D02*
Y0112695D01*
X0137450Y0114365D02*
Y0112710D01*
X0098525Y0134095D02*
Y0133655D01*
X0097325D01*
Y0134095D01*
X0098525D01*
X0159920Y0118010D02*
X0159910Y0111150D01*
X0164180D01*
Y0118160D01*
X0159920D01*
Y0118010D01*
G54D172*
G01X0121730Y0130290D02*
X0122930D01*
Y0127630D01*
X0121730D01*
Y0130290D01*
X0132490Y0129290D02*
Y0130490D01*
X0135150D01*
Y0129290D01*
X0132490D01*
X0138250Y0122270D02*
X0139450D01*
Y0119610D01*
X0138250D01*
Y0122270D01*
X0145100Y0129290D02*
Y0130490D01*
X0147760D01*
Y0129290D01*
X0145100D01*
X0136600Y0122270D02*
X0137800D01*
Y0119610D01*
X0136600D01*
Y0122270D01*
X0132490Y0127650D02*
Y0128850D01*
X0135150D01*
Y0127650D01*
X0132490D01*
X0145040Y0131170D02*
Y0132370D01*
X0147700D01*
Y0131170D01*
X0145040D01*
G54D173*
G01X0140992Y0110091D02*
Y0110269D01*
X0141170Y0110091D01*
X0141214D01*
X0141259Y0110113D01*
Y0110247D01*
X0141214Y0110269D01*
X0141037Y0110549D02*
X0140992Y0110504D01*
Y0110415D01*
X0141037Y0110371D01*
X0141081D01*
X0141170Y0110460D01*
X0141259Y0110371D01*
Y0110549D01*
X0140992Y0110762D02*
X0141037Y0110807D01*
X0141081Y0110829D01*
X0141170D01*
X0141214Y0110807D01*
X0141259Y0110762D01*
Y0110718D01*
X0141214Y0110673D01*
X0141170Y0110651D01*
X0141081D01*
X0141037Y0110673D01*
X0140992Y0110718D01*
Y0110762D01*
Y0110931D02*
Y0111086D01*
X0141259D01*
X0141037Y0111366D02*
X0140992Y0111344D01*
Y0111211D01*
X0141037Y0111189D01*
X0141125D01*
X0141170Y0111233D01*
Y0111366D01*
X0141259D01*
Y0111189D01*
X0140992Y0111469D02*
Y0111646D01*
X0141170Y0111469D01*
X0141214D01*
X0141259Y0111491D01*
Y0111624D01*
X0141214Y0111646D01*
X0141081Y0111749D02*
Y0111926D01*
X0140992Y0111749D02*
X0141125D01*
X0141259Y0111815D01*
Y0111860D01*
X0141125Y0111926D01*
X0140992D01*
G54D87*
X0160600Y0142580D03*
X0162600D03*
G54D88*
X0145110Y0117150D03*
G54D121*
X0160880Y0130180D03*
X0159880D03*
X0158880D03*
X0157880D03*
X0156880D03*
X0155150Y0106440D03*
X0148140Y0108550D03*
G54D128*
X0145110Y0116150D03*
Y0115150D03*
Y0114150D03*
Y0113150D03*
Y0112150D03*
X0153610Y0113150D03*
Y0114150D03*
Y0115150D03*
Y0116150D03*
X0159210Y0114160D03*
Y0115160D03*
Y0116160D03*
Y0113160D03*
G54D129*
X0160210Y0112160D03*
Y0117160D03*
G54D130*
X0129620Y0139786D03*
Y0139195D03*
Y0138605D03*
Y0138014D03*
Y0137424D03*
G54D131*
Y0140376D03*
G54D167*
X0124880Y0129650D03*
Y0126650D03*
X0127880D03*
Y0129650D03*
Y0132650D03*
M02*
