*
G04 Mass Parameters ***
*
G04 Image ***
*
%INF:\MUSHTAQ PCB\SAJJAD HUSSAIN\DDL\ICCC-PD-24-PCBR0500A\DATA LOGGER-68.SMB*%
%ICAS*%
%MOIN*%
%IPPOS*%
%ASAXBY*%
G74*%FSLAN2X34Y34*%
*
G04 Aperture Definitions ***
*
%ADD10C,0.0600*%
%ADD11R,0.0600X0.0600*%
%ADD12R,0.0320X0.0380*%
%ADD13R,0.0500X0.0500*%
%ADD14R,0.0380X0.0320*%
%ADD15R,0.0800X0.0800*%
%ADD16R,0.1400X0.0800*%
%ADD17R,0.2000X0.4000*%
%ADD18R,0.0800X0.1400*%
%ADD19R,0.1500X0.1500*%
%ADD20R,0.0520X0.0500*%
%ADD21C,0.0700*%
%ADD22R,0.0700X0.0700*%
%ADD23R,0.0900X0.1000*%
%ADD24R,0.0750X0.1100*%
%ADD25R,0.0300X0.0600*%
%ADD26C,0.1000*%
%ADD27R,0.1000X0.1000*%
%ADD28R,0.1200X0.0800*%
%ADD29C,0.0900*%
%ADD30C,0.0300*%
%ADD31R,0.0300X0.0300*%
%ADD32O,0.0800X0.1500*%
%ADD33O,0.1500X0.0800*%
%ADD34C,0.1260*%
%ADD35C,0.1200*%
%ADD36R,0.2300X0.1200*%
%ADD37O,0.1500X0.0900*%
%ADD38C,0.0550*%
%ADD39R,0.0900X0.0500*%
%ADD40R,0.0900X0.1200*%
%ADD41R,0.0500X0.0900*%
%ADD42O,0.1000X0.0240*%
%ADD43R,0.1000X0.0240*%
%ADD44O,0.0240X0.1000*%
%ADD45R,0.0240X0.1000*%
%ADD46R,0.1968X0.5905*%
%ADD47R,0.0880X0.0480*%
%ADD48R,0.0450X0.1500*%
%ADD49R,0.4400X0.3500*%
%ADD50O,0.0700X0.0110*%
%ADD51R,0.0700X0.0110*%
%ADD52O,0.0110X0.0700*%
%ADD53R,0.0110X0.0700*%
%ADD54O,0.0650X0.0160*%
%ADD55R,0.0650X0.0160*%
%ADD56R,0.0201X0.1600*%
%ADD57O,0.1000X0.0250*%
%ADD58R,0.1000X0.0250*%
%ADD59R,0.1400X0.0600*%
%ADD60R,0.1200X0.0900*%
%ADD61O,0.0940X0.0250*%
%ADD62R,0.0940X0.0250*%
%ADD63O,0.0500X0.0150*%
%ADD64R,0.0500X0.0150*%
%ADD65R,0.0870X0.0420*%
%ADD66R,0.3250X0.4250*%
%ADD67O,0.0250X0.0940*%
%ADD68R,0.0250X0.0940*%
%ADD69R,0.0500X0.0200*%
%ADD70R,0.0350X0.0150*%
%ADD71R,0.0580X0.0580*%
%ADD72C,0.0250*%
%ADD73C,0.0120*%
%ADD74C,0.0200*%
%ADD75C,0.0300*%
%ADD76C,0.0500*%
%ADD77C,0.0250*%
%ADD78C,0.0150*%
%ADD79C,0.0100*%
%ADD80C,0.0500*%
%ADD81C,0.0500*%
%ADD82C,0.0600*%
%ADD83R,0.0600X0.0600*%
%ADD84R,0.0500X0.0500*%
%ADD85R,0.0800X0.0800*%
%ADD86R,0.0380X0.0320*%
%ADD87C,0.0700*%
%ADD88R,0.0700X0.0700*%
%ADD89C,0.1000*%
%ADD90R,0.1000X0.1000*%
%ADD91R,0.0600X0.0800*%
%ADD92C,0.0900*%
%ADD93C,0.0300*%
%ADD94R,0.0300X0.0300*%
%ADD95O,0.0800X0.1500*%
%ADD96O,0.1500X0.0800*%
%ADD97C,0.1260*%
%ADD98C,0.1200*%
%ADD99R,0.0320X0.0380*%
%ADD100O,0.1500X0.0900*%
%ADD101C,0.0550*%
%ADD102R,0.0200X0.0500*%
%ADD103O,0.0250X0.0940*%
%ADD104R,0.0250X0.0940*%
%ADD105O,0.0900X0.0160*%
%ADD106R,0.0900X0.0160*%
%ADD107O,0.0250X0.0860*%
%ADD108R,0.0250X0.0860*%
%ADD109R,0.0580X0.0580*%
%ADD110C,0.0250*%
%ADD111C,0.0250*%
%ADD112C,0.0060*%
%ADD113C,0.0080*%
%ADD114C,0.0500*%
%ADD115C,0.0250*%
%ADD116R,0.1400X0.0800*%
%ADD117R,0.2000X0.4000*%
%ADD118R,0.0800X0.1400*%
%ADD119R,0.1500X0.1500*%
%ADD120R,0.0520X0.0500*%
%ADD121C,0.0850*%
%ADD122R,0.0850X0.0850*%
%ADD123R,0.0900X0.1000*%
%ADD124R,0.0750X0.1100*%
%ADD125R,0.0300X0.0600*%
%ADD126R,0.1200X0.1200*%
%ADD127R,0.1200X0.0800*%
%ADD128C,0.0750*%
%ADD129C,0.1100*%
%ADD130C,0.0400*%
%ADD131R,0.0400X0.0400*%
%ADD132O,0.0900X0.1600*%
%ADD133O,0.1600X0.0900*%
%ADD134C,0.1500*%
%ADD135R,0.2300X0.1200*%
%ADD136O,0.1600X0.1000*%
%ADD137R,0.0900X0.0500*%
%ADD138R,0.0900X0.1200*%
%ADD139O,0.1000X0.0240*%
%ADD140R,0.1000X0.0240*%
%ADD141O,0.0240X0.1000*%
%ADD142R,0.0240X0.1000*%
%ADD143R,0.1968X0.5905*%
%ADD144R,0.0880X0.0480*%
%ADD145R,0.0450X0.1500*%
%ADD146R,0.4400X0.3500*%
%ADD147O,0.0700X0.0110*%
%ADD148R,0.0700X0.0110*%
%ADD149O,0.0110X0.0700*%
%ADD150R,0.0110X0.0700*%
%ADD151O,0.0650X0.0160*%
%ADD152R,0.0650X0.0160*%
%ADD153R,0.0201X0.1600*%
%ADD154O,0.1000X0.0250*%
%ADD155R,0.1000X0.0250*%
%ADD156R,0.1400X0.0600*%
%ADD157R,0.0500X0.0900*%
%ADD158R,0.1200X0.0900*%
%ADD159O,0.0940X0.0250*%
%ADD160R,0.0940X0.0250*%
%ADD161O,0.0500X0.0150*%
%ADD162R,0.0500X0.0150*%
%ADD163R,0.0870X0.0420*%
%ADD164R,0.3250X0.4250*%
%ADD165R,0.0500X0.0200*%
%ADD166R,0.0350X0.0150*%
%ADD167C,0.0800*%
%ADD168C,0.0600*%
%ADD169C,0.0300*%
%ADD170C,0.0600*%
%ADD171C,0.0300*%
*
G04 Plot Data ***
*
G54D82*
X0137280Y0101610D03*
G54D83*
X0136080Y0099830D03*
Y0098530D03*
G54D84*
X0153730Y0136480D03*
X0154570D03*
X0146400Y0110800D03*
X0145560D03*
X0143490Y0110580D03*
Y0109740D03*
X0142980Y0117350D03*
Y0116510D03*
X0142490Y0110580D03*
Y0109740D03*
X0140150Y0110590D03*
Y0109750D03*
X0139870Y0126810D03*
X0140710D03*
X0139870Y0127990D03*
X0140710D03*
X0139170Y0110590D03*
Y0109750D03*
X0139300Y0117360D03*
Y0116520D03*
X0137450Y0110600D03*
Y0109760D03*
X0136770Y0117360D03*
Y0116520D03*
X0136450Y0109760D03*
Y0110600D03*
X0134270D03*
Y0109760D03*
X0133270Y0110600D03*
Y0109760D03*
X0133460Y0117660D03*
Y0116820D03*
X0146400Y0109800D03*
X0145560D03*
X0143940Y0117360D03*
Y0116520D03*
X0142600Y0124400D03*
X0141760D03*
X0142600Y0126000D03*
X0141760D03*
X0142600Y0127200D03*
X0141760D03*
X0142600Y0128500D03*
X0141760D03*
X0142600Y0129400D03*
X0141760D03*
X0142890Y0134250D03*
Y0133410D03*
X0140800Y0124730D03*
Y0125570D03*
X0142390Y0131200D03*
X0141550D03*
X0142390Y0132100D03*
X0141550D03*
X0140530Y0137030D03*
Y0137870D03*
X0140310Y0117360D03*
Y0116520D03*
X0139840Y0124730D03*
Y0125570D03*
X0139950Y0133840D03*
Y0133000D03*
X0137750Y0117360D03*
Y0116520D03*
X0137610Y0124690D03*
Y0125530D03*
X0138630Y0124700D03*
Y0125540D03*
X0138360Y0133840D03*
Y0133000D03*
X0136000Y0124640D03*
Y0125480D03*
X0135960Y0130450D03*
X0136800D03*
X0134440Y0117660D03*
Y0116820D03*
X0135000Y0124630D03*
Y0125470D03*
X0135410Y0133840D03*
Y0133000D03*
X0133030Y0126420D03*
X0133870D03*
X0133010Y0131790D03*
X0133850D03*
X0133010Y0132700D03*
X0133850D03*
X0130290Y0129060D03*
Y0128220D03*
X0098420Y0135390D03*
X0097580D03*
X0096600Y0134810D03*
Y0133970D03*
X0137160Y0098990D03*
Y0099830D03*
G54D85*
X0090760Y0136040D03*
X0089760D03*
X0088760D03*
X0089790Y0104760D03*
X0090790D03*
X0091790D03*
X0102540Y0115520D03*
X0103540D03*
X0104540D03*
X0142730Y0104270D03*
Y0105270D03*
Y0106270D03*
X0145770Y0129890D03*
X0147090D03*
X0145710Y0131770D03*
X0147030D03*
X0138850Y0121600D03*
Y0120280D03*
X0137200Y0121600D03*
Y0120280D03*
X0133160Y0128250D03*
X0134480D03*
X0133160Y0129890D03*
X0134480D03*
X0122330Y0129620D03*
Y0128300D03*
G54D86*
X0139890Y0130270D03*
Y0130830D03*
X0139030Y0130270D03*
Y0130830D03*
X0135850Y0116990D03*
Y0116430D03*
X0132570Y0117510D03*
Y0116950D03*
X0123620Y0129620D03*
Y0129060D03*
G54D87*
X0160600Y0142580D03*
X0162600D03*
X0116850Y0124780D03*
X0115850D03*
X0114850D03*
Y0122780D03*
X0115850D03*
X0116850D03*
X0118850D03*
X0116840Y0128330D03*
X0115840D03*
X0114840D03*
Y0126330D03*
X0115840D03*
X0116840D03*
X0118840D03*
X0139330Y0101670D03*
Y0102670D03*
X0086720Y0109300D03*
Y0108300D03*
X0140170Y0097570D03*
G54D88*
X0118850Y0124780D03*
X0118840Y0128330D03*
X0139330Y0100670D03*
X0145110Y0117150D03*
X0086720Y0110300D03*
X0141170Y0097570D03*
G54D91*
X0153725Y0137825D03*
X0154925D03*
G54D93*
X0105320Y0129680D03*
X0106100Y0133010D03*
X0103140Y0129670D03*
X0129130Y0120460D03*
X0139210Y0125540D03*
X0132850Y0136430D03*
X0130900Y0124120D03*
X0135220Y0136500D03*
X0137968Y0136348D03*
G54D97*
X0118690Y0113050D03*
X0131190D03*
X0118690Y0100150D03*
X0131190D03*
X0089228Y0138952D03*
X0161269D03*
X0089228Y0120450D03*
X0161269D03*
G54D98*
X0086520Y0106330D03*
G54D99*
X0137190Y0126390D03*
X0136630D03*
X0116440Y0127300D03*
X0117000D03*
G54D102*
X0097575Y0134445D03*
X0097945D03*
X0098315D03*
X0098305Y0133325D03*
X0097935D03*
X0097565D03*
G54D103*
X0142983Y0112011D03*
X0142483D03*
X0141983D03*
X0141984Y0114955D03*
X0142484D03*
X0142984D03*
X0143484D03*
X0139663Y0112011D03*
X0139163D03*
X0138663D03*
X0138664Y0114955D03*
X0139164D03*
X0139664D03*
X0140164D03*
X0136949Y0112026D03*
X0136449D03*
X0135949D03*
X0135950Y0114970D03*
X0136450D03*
X0136950D03*
X0137450D03*
X0133773Y0112031D03*
X0133273D03*
X0132773D03*
X0132774Y0114975D03*
X0133274D03*
X0133774D03*
X0134274D03*
G54D104*
X0143483Y0112011D03*
X0140163D03*
X0137449Y0112026D03*
X0134273Y0112031D03*
G54D105*
X0138325Y0129245D03*
Y0128995D03*
Y0128745D03*
Y0128495D03*
Y0128245D03*
Y0127995D03*
Y0127745D03*
Y0127495D03*
Y0127245D03*
X0136125D03*
Y0127495D03*
Y0127745D03*
Y0127995D03*
Y0128245D03*
Y0128495D03*
Y0128745D03*
Y0128995D03*
Y0129245D03*
Y0129495D03*
G54D106*
X0138325D03*
G54D107*
X0149770Y0114180D03*
X0149270D03*
X0148770D03*
Y0116300D03*
X0149270D03*
X0149770D03*
X0150270D03*
G54D108*
Y0114180D03*
G54D109*
X0124880Y0132650D03*
G54D121*
X0160880Y0130180D03*
X0159880D03*
X0158880D03*
X0157880D03*
X0156880D03*
X0155150Y0106440D03*
X0148140Y0108550D03*
G54D122*
X0161880Y0130180D03*
X0148150Y0106440D03*
X0155140Y0108550D03*
G54D126*
X0086520Y0097330D03*
G54D128*
X0145110Y0116150D03*
Y0115150D03*
Y0114150D03*
Y0113150D03*
Y0112150D03*
X0153610Y0113150D03*
Y0114150D03*
Y0115150D03*
Y0116150D03*
X0090550Y0115850D03*
Y0114850D03*
X0122890Y0107050D03*
Y0108050D03*
X0123890Y0107050D03*
Y0108050D03*
X0124890Y0107050D03*
Y0108050D03*
X0125890Y0107050D03*
Y0108050D03*
X0126890Y0107050D03*
Y0108050D03*
X0088850Y0133330D03*
X0089850D03*
X0088850Y0132330D03*
X0089850D03*
X0088850Y0131330D03*
X0089850D03*
X0088850Y0130330D03*
X0089850D03*
X0088850Y0129330D03*
X0089850D03*
X0088850Y0128330D03*
X0089850D03*
X0088850Y0127330D03*
X0089850D03*
X0088850Y0126330D03*
X0089850D03*
X0088850Y0125330D03*
X0089850D03*
X0159210Y0114160D03*
Y0115160D03*
Y0116160D03*
Y0113160D03*
G54D129*
X0160210Y0112160D03*
Y0117160D03*
G54D130*
X0129620Y0139786D03*
Y0139195D03*
Y0138605D03*
Y0138014D03*
Y0137424D03*
X0133445Y0138616D03*
X0132855D03*
X0132264D03*
X0148490Y0136520D03*
Y0137111D03*
Y0137701D03*
G54D131*
X0129620Y0140376D03*
X0134036Y0138616D03*
X0148490Y0135930D03*
G54D132*
X0159850Y0106830D03*
X0162100D03*
X0159850Y0106580D03*
X0162100Y0107080D03*
Y0106580D03*
X0159850Y0107080D03*
G54D133*
X0160950Y0108830D03*
X0160700D03*
X0161200D03*
G54D134*
X0088150Y0113850D03*
Y0117850D03*
G54D136*
X0159570Y0103350D03*
X0159620Y0101350D03*
X0159570Y0099350D03*
X0161570Y0103350D03*
Y0101350D03*
Y0099350D03*
X0159420Y0103350D03*
X0159770Y0101350D03*
X0159720Y0103350D03*
X0159470Y0101350D03*
X0159720Y0099350D03*
X0161720D03*
X0159420D03*
X0161420D03*
X0161720Y0101350D03*
X0161420D03*
X0161720Y0103350D03*
X0161420D03*
G54D167*
X0124880Y0129650D03*
Y0126650D03*
X0127880D03*
Y0129650D03*
Y0132650D03*
G54D168*
X0135180Y0098540D03*
X0158990Y0138420D03*
X0153790Y0120420D03*
X0117020Y0134950D03*
X0117170Y0133430D03*
X0103460Y0110960D03*
G54D169*
X0139330Y0128000D03*
X0137070Y0128910D03*
X0136000Y0113990D03*
X0134820Y0127070D03*
X0132780Y0113810D03*
X0139670Y0113150D03*
X0142970Y0113160D03*
X0138420Y0131000D03*
X0138000Y0131690D03*
X0135790Y0122510D03*
X0138000Y0119730D03*
X0138670Y0113960D03*
X0137030Y0124100D03*
X0112520Y0130770D03*
X0108765Y0122375D03*
X0133780Y0112940D03*
X0141980Y0116480D03*
X0138830Y0115870D03*
X0142010Y0117420D03*
G54D170*
X0124630Y0101300D03*
X0140370Y0108300D03*
X0150270Y0117080D03*
X0124490Y0109520D03*
X0125690Y0109510D03*
X0123320Y0109560D03*
X0122140Y0109430D03*
X0160250Y0135260D03*
X0123630Y0099080D03*
X0123110Y0135380D03*
X0119010Y0139000D03*
X0119140Y0132720D03*
X0119090Y0129530D03*
X0123050Y0133750D03*
X0153150Y0100570D03*
X0148390Y0111010D03*
X0153660Y0104260D03*
X0100120Y0119170D03*
X0116740Y0102180D03*
X0127760Y0104380D03*
X0138240Y0106790D03*
X0135470Y0107160D03*
X0134980Y0108300D03*
X0104200Y0131100D03*
X0091940Y0118850D03*
X0105550Y0139580D03*
X0091670Y0119970D03*
X0110710Y0117540D03*
X0110310Y0116460D03*
X0115050Y0127290D03*
X0115360Y0129210D03*
X0098390Y0104580D03*
X0114900Y0139310D03*
X0096070Y0107250D03*
X0096350Y0104120D03*
X0099020Y0099160D03*
X0101700Y0111350D03*
X0098290Y0105630D03*
X0107860Y0113460D03*
X0107650Y0115450D03*
X0103860Y0123700D03*
X0107410Y0117260D03*
X0101120Y0131340D03*
X0102050Y0137150D03*
X0101220Y0137730D03*
X0101270Y0136560D03*
X0101780Y0140510D03*
X0098200Y0140870D03*
X0110270Y0118760D03*
X0134970Y0106020D03*
X0097310Y0132540D03*
X0098230Y0132120D03*
X0101580Y0119960D03*
X0103440Y0120380D03*
X0112310Y0119900D03*
X0108950Y0119760D03*
X0106590Y0121490D03*
X0149070Y0118680D03*
X0111190Y0113890D03*
X0115990Y0110530D03*
X0094410Y0140690D03*
X0098120Y0127490D03*
X0098050Y0123310D03*
X0093600Y0124890D03*
X0096600Y0126720D03*
X0096520Y0139750D03*
X0101250Y0125140D03*
X0107620Y0119680D03*
X0087990Y0097090D03*
X0153800Y0121730D03*
X0153530Y0123570D03*
X0105580Y0131380D03*
X0126870Y0109500D03*
X0149270Y0112720D03*
G54D171*
X0127560Y0120990D03*
X0154270Y0138990D03*
X0154590Y0135980D03*
X0130860Y0126280D03*
X0137860Y0124190D03*
X0144800Y0129370D03*
X0143090Y0130070D03*
X0163140Y0141400D03*
X0161660Y0140910D03*
X0143330Y0128000D03*
X0148240Y0132090D03*
X0147090Y0129030D03*
X0132900Y0112980D03*
X0138650Y0112930D03*
X0141990Y0112980D03*
X0141090Y0124030D03*
X0130990Y0127730D03*
X0129580Y0128570D03*
X0143280Y0130600D03*
X0130600Y0131720D03*
X0120680Y0136010D03*
X0120160Y0118590D03*
X0132900Y0130800D03*
X0132600Y0129080D03*
X0122330Y0127170D03*
X0140110Y0118210D03*
X0137810Y0117850D03*
X0134920Y0118310D03*
X0139180Y0124010D03*
X0139860Y0120350D03*
X0146400Y0109310D03*
X0148600Y0113210D03*
X0135310Y0132040D03*
X0134840Y0130860D03*
X0135760Y0131420D03*
X0143270Y0126450D03*
X0136510Y0125480D03*
X0143190Y0124930D03*
X0141760Y0124990D03*
X0132670Y0134320D03*
X0131510Y0137060D03*
X0135610Y0123980D03*
X0137630Y0134580D03*
X0136410Y0134500D03*
X0134570Y0132560D03*
X0134730Y0134550D03*
X0140130Y0123940D03*
X0138520Y0124190D03*
X0132600Y0127200D03*
X0110770Y0097590D03*
X0113350Y0100390D03*
X0143170Y0128630D03*
X0143200Y0131420D03*
X0136060Y0112970D03*
X0135409Y0134369D03*
X0138362Y0134452D03*
X0135320Y0127470D03*
X0104020Y0134750D03*
X0104130Y0134070D03*
X0095970Y0134810D03*
X0094190Y0135470D03*
X0108600Y0138970D03*
X0093230Y0129430D03*
X0113030Y0133770D03*
X0108120Y0133020D03*
X0113570Y0134660D03*
X0136780Y0124980D03*
X0136390Y0123950D03*
X0132570Y0125750D03*
X0133870Y0125860D03*
X0137000Y0125530D03*
X0140710Y0136160D03*
X0142890Y0136360D03*
X0144580Y0134880D03*
X0143220Y0132550D03*
X0141030Y0132860D03*
X0109710Y0097150D03*
X0154380Y0133980D03*
X0154120Y0141020D03*
X0141730Y0133410D03*
X0140920Y0129400D03*
X0135760Y0137900D03*
X0140830Y0134610D03*
X0139440Y0136280D03*
X0138660Y0137890D03*
X0140880Y0139560D03*
X0115280Y0133080D03*
X0116620Y0136020D03*
X0092700Y0131750D03*
X0142840Y0113810D03*
X0140330Y0122480D03*
X0137470Y0122400D03*
X0141860Y0109600D03*
X0145560Y0109350D03*
X0137930Y0109760D03*
X0134830D03*
X0141080Y0113620D03*
X0140690Y0109740D03*
X0135290Y0129200D03*
X0128610Y0124160D03*
X0098300Y0132820D03*
X0095290Y0133080D03*
X0132490Y0132700D03*
X0134890Y0122370D03*
X0100460Y0133440D03*
X0099120Y0135390D03*
X0140710Y0128680D03*
X0145230Y0132860D03*
X0134260Y0124260D03*
X0132480Y0122480D03*
X0107000Y0123270D03*
X0144660Y0124140D03*
X0144680Y0126630D03*
X0123000Y0120800D03*
X0140480Y0133000D03*
X0138360Y0132430D03*
X0100050Y0132540D03*
X0100900Y0135270D03*
X0092790Y0137380D03*
X0109260Y0121350D03*
X0110490Y0123820D03*
X0153650Y0138850D03*
X0120960Y0125490D03*
X0121090Y0126970D03*
X0093510Y0137260D03*
X0094880Y0136970D03*
X0093760Y0132810D03*
X0105340Y0123370D03*
X0130910Y0129000D03*
X0153030Y0138720D03*
X0087860Y0111270D03*
X0137440Y0113400D03*
X0143640Y0122990D03*
X0094410Y0127030D03*
X0099120Y0124610D03*
X0104720Y0133990D03*
X0134710Y0114050D03*
X0144790Y0110590D03*
X0155420Y0137830D03*
X0137820Y0115420D03*
X0134290Y0113320D03*
X0119310Y0120850D03*
X0132490Y0125080D03*
X0107581Y0139571D03*
X0139120Y0126730D03*
X0095050Y0128460D03*
X0099960Y0124580D03*
X0139110Y0127430D03*
X0140150Y0111110D03*
X0139990Y0134430D03*
X0132560Y0131310D03*
X0133260Y0127320D03*
X0143210Y0127210D03*
X0129380Y0120960D03*
M02*
