*
G04 Mass Parameters ***
*
G04 Image ***
*
%INF:\MUSHTAQ PCB\SAJJAD HUSSAIN\DDL\ICCC-PD-24-PCBR0500\DATA LOGGER-69.BOT*%
%ICAS*%
%MOIN*%
%IPPOS*%
%ASAXBY*%
G74*%FSLAN2X34Y34*%
*
G04 Aperture Definitions ***
*
%ADD10C,0.0600*%
%ADD11R,0.0600X0.0600*%
%ADD12R,0.0320X0.0380*%
%ADD13R,0.0500X0.0500*%
%ADD14R,0.0380X0.0320*%
%ADD15R,0.0800X0.0800*%
%ADD16R,0.1400X0.0800*%
%ADD17R,0.2000X0.4000*%
%ADD18R,0.0800X0.1400*%
%ADD19R,0.1500X0.1500*%
%ADD20R,0.0520X0.0500*%
%ADD21C,0.0700*%
%ADD22R,0.0700X0.0700*%
%ADD23R,0.0900X0.1000*%
%ADD24R,0.0750X0.1100*%
%ADD25R,0.0300X0.0600*%
%ADD26C,0.1000*%
%ADD27R,0.1000X0.1000*%
%ADD28R,0.1200X0.0800*%
%ADD29C,0.0900*%
%ADD30C,0.0300*%
%ADD31R,0.0300X0.0300*%
%ADD32O,0.0800X0.1500*%
%ADD33O,0.1500X0.0800*%
%ADD34C,0.1260*%
%ADD35C,0.1200*%
%ADD36R,0.2300X0.1200*%
%ADD37O,0.1500X0.0900*%
%ADD38C,0.0550*%
%ADD39R,0.0900X0.0500*%
%ADD40R,0.0900X0.1200*%
%ADD41R,0.0500X0.0900*%
%ADD42O,0.1000X0.0240*%
%ADD43R,0.1000X0.0240*%
%ADD44O,0.0240X0.1000*%
%ADD45R,0.0240X0.1000*%
%ADD46R,0.1968X0.5905*%
%ADD47R,0.0880X0.0480*%
%ADD48R,0.0450X0.1500*%
%ADD49R,0.4400X0.3500*%
%ADD50O,0.0700X0.0110*%
%ADD51R,0.0700X0.0110*%
%ADD52O,0.0110X0.0700*%
%ADD53R,0.0110X0.0700*%
%ADD54O,0.0650X0.0160*%
%ADD55R,0.0650X0.0160*%
%ADD56R,0.0201X0.1600*%
%ADD57O,0.1000X0.0250*%
%ADD58R,0.1000X0.0250*%
%ADD59R,0.1400X0.0600*%
%ADD60R,0.1200X0.0900*%
%ADD61O,0.0940X0.0250*%
%ADD62R,0.0940X0.0250*%
%ADD63O,0.0500X0.0150*%
%ADD64R,0.0500X0.0150*%
%ADD65R,0.0870X0.0420*%
%ADD66R,0.3250X0.4250*%
%ADD67O,0.0250X0.0940*%
%ADD68R,0.0250X0.0940*%
%ADD69R,0.0500X0.0200*%
%ADD70R,0.0350X0.0150*%
%ADD71R,0.0580X0.0580*%
%ADD72C,0.0250*%
%ADD73C,0.0120*%
%ADD74C,0.0200*%
%ADD75C,0.0300*%
%ADD76C,0.0150*%
%ADD77C,0.0250*%
%ADD78C,0.0400*%
%ADD79C,0.0100*%
%ADD80C,0.0500*%
%ADD81C,0.0400*%
%ADD82C,0.0250*%
%ADD83C,0.0600*%
%ADD84R,0.0600X0.0600*%
%ADD85R,0.0500X0.0500*%
%ADD86R,0.0800X0.0800*%
%ADD87R,0.0380X0.0320*%
%ADD88C,0.0700*%
%ADD89R,0.0700X0.0700*%
%ADD90C,0.1000*%
%ADD91R,0.1000X0.1000*%
%ADD92R,0.0600X0.0800*%
%ADD93C,0.0900*%
%ADD94C,0.0300*%
%ADD95R,0.0300X0.0300*%
%ADD96O,0.0800X0.1500*%
%ADD97O,0.1500X0.0800*%
%ADD98C,0.1260*%
%ADD99C,0.1200*%
%ADD100R,0.0320X0.0380*%
%ADD101O,0.1500X0.0900*%
%ADD102C,0.0550*%
%ADD103R,0.0200X0.0500*%
%ADD104O,0.0250X0.0940*%
%ADD105R,0.0250X0.0940*%
%ADD106O,0.0900X0.0160*%
%ADD107R,0.0900X0.0160*%
%ADD108O,0.0250X0.0860*%
%ADD109R,0.0250X0.0860*%
%ADD110R,0.0580X0.0580*%
%ADD111C,0.0250*%
%ADD112C,0.0060*%
%ADD113C,0.0080*%
*
G04 Plot Data ***
*
G54D73*
G01X0122320Y0129610D02*
X0122330Y0129620D01*
X0154590Y0135980D02*
X0154570Y0136000D01*
Y0136480D01*
X0140710Y0127990D02*
Y0126810D01*
X0143484Y0114955D02*
Y0115564D01*
X0143940Y0116020D01*
Y0116520D01*
X0142890Y0134250D02*
Y0136360D01*
X0135960Y0130450D02*
X0135640D01*
X0135500Y0130310D01*
Y0129600D01*
X0135605Y0129495D01*
X0136125D01*
X0136665D01*
X0136760Y0129400D01*
Y0129240D01*
X0136755Y0129245D01*
X0136125D01*
X0133160Y0129890D02*
X0132310D01*
X0131430Y0129010D01*
X0130900D01*
X0130850Y0129060D01*
X0130290D01*
X0136125Y0129245D02*
X0136755D01*
X0136760Y0129240D01*
Y0129140D01*
X0136615Y0128995D01*
X0136125D01*
X0130860Y0126280D02*
X0131000Y0126420D01*
X0133030D01*
X0135000Y0124630D02*
Y0122480D01*
X0134890Y0122370D01*
X0134274Y0114975D02*
X0134270Y0114980D01*
Y0116120D01*
X0134440Y0116290D01*
Y0116820D01*
X0133460Y0117660D02*
Y0117370D01*
X0133590Y0117240D01*
X0134340D01*
X0134440Y0117140D01*
Y0116820D01*
X0142980Y0117350D02*
Y0117020D01*
X0143060Y0116940D01*
X0143800D01*
X0143940Y0116800D01*
Y0116520D01*
X0139300Y0117360D02*
Y0116980D01*
X0139340Y0116940D01*
X0140140D01*
X0140310Y0116770D01*
Y0116520D01*
X0140164Y0114955D02*
X0140170Y0114950D01*
Y0115730D01*
X0140310Y0115870D01*
Y0116520D01*
X0136770Y0117360D02*
Y0117090D01*
X0136920Y0116940D01*
X0137630D01*
X0137750Y0116820D01*
Y0116520D01*
X0137450Y0114970D02*
X0137440Y0114980D01*
Y0115850D01*
X0137750Y0116160D01*
Y0116520D01*
X0137470Y0122400D02*
Y0122350D01*
X0137200Y0122080D01*
Y0121600D01*
X0137610Y0124690D02*
Y0124343D01*
X0137763Y0124190D01*
X0137860D01*
X0140800Y0124730D02*
Y0124060D01*
X0140330Y0123590D01*
Y0122480D01*
X0144660Y0124140D02*
X0144550Y0124250D01*
X0143370D01*
X0143220Y0124400D01*
X0142600D01*
Y0126000D02*
X0143440D01*
X0144070Y0126630D01*
X0144680D01*
X0130290Y0129060D02*
X0130850D01*
X0130910Y0129000D01*
X0145770Y0129890D02*
X0144990D01*
X0144800Y0129700D01*
Y0129370D01*
X0144630Y0129200D01*
X0143410D01*
X0143210Y0129400D01*
X0142600D01*
X0145230Y0132860D02*
Y0132810D01*
X0144520Y0132100D01*
X0142390D01*
X0140530Y0137030D02*
Y0136640D01*
X0140710Y0136460D01*
Y0136160D01*
X0132490Y0132700D02*
X0133010D01*
X0142890Y0133410D02*
X0141730D01*
X0141550Y0132100D02*
Y0132630D01*
X0141320Y0132860D01*
X0141030D01*
X0140480Y0133000D02*
X0139950D01*
X0140480D01*
X0138360Y0132430D02*
Y0133000D01*
X0141760Y0124400D02*
Y0124990D01*
X0133850Y0132700D02*
Y0131790D01*
X0141550Y0132100D02*
Y0131200D01*
X0141760Y0129400D02*
Y0128500D01*
X0134480Y0129890D02*
Y0128250D01*
X0141760Y0128500D02*
Y0127200D01*
Y0126000D01*
X0140800Y0125570D02*
X0139840D01*
X0139210Y0125540D02*
X0138630D01*
X0138850Y0120280D02*
X0137200D01*
X0136000Y0125480D02*
X0135010D01*
X0135000Y0125470D01*
X0139840Y0125570D02*
X0139240D01*
X0139210Y0125540D01*
X0140880Y0139560D02*
X0140530Y0139210D01*
Y0137870D01*
X0143940Y0117360D02*
X0144310D01*
X0144420Y0117250D01*
Y0116280D01*
X0144550Y0116150D01*
X0145110D01*
X0129580Y0128570D02*
Y0128340D01*
X0129700Y0128220D01*
X0130290D01*
X0141550Y0132100D02*
Y0132630D01*
X0141320Y0132860D01*
X0141030D01*
X0141730Y0133410D02*
X0142890D01*
X0135410Y0133000D02*
Y0132140D01*
X0135310Y0132040D01*
X0134570Y0132560D02*
X0134430Y0132700D01*
X0133850D01*
X0141760Y0124400D02*
Y0124990D01*
X0136800Y0130450D02*
Y0131180D01*
X0136560Y0131420D01*
X0135760D01*
X0135310Y0132040D02*
X0135410Y0132140D01*
Y0133000D01*
X0134480Y0129890D02*
Y0130500D01*
X0134840Y0130860D01*
X0135760Y0131420D02*
X0136560D01*
X0136800Y0131180D01*
Y0130450D01*
X0142890Y0133410D02*
X0141730D01*
X0136000Y0125480D02*
X0136510D01*
X0137000Y0125530D02*
X0137610D01*
X0133870Y0125860D02*
Y0126420D01*
X0136510Y0125480D02*
X0136000D01*
X0133870Y0126420D02*
Y0125860D01*
X0136125Y0127245D02*
X0135415D01*
X0135320Y0127340D01*
Y0127470D01*
X0138663Y0112011D02*
Y0112943D01*
X0138650Y0112930D01*
X0136060Y0112970D02*
X0135949Y0112859D01*
Y0112026D01*
X0143210Y0127210D02*
X0142610D01*
X0142600Y0127200D01*
X0133010Y0131790D02*
X0132680D01*
X0132560Y0131670D01*
Y0131310D01*
X0133260Y0127320D02*
Y0128150D01*
X0133160Y0128250D01*
X0142600Y0127200D02*
X0142610Y0127210D01*
X0143210D01*
X0135949Y0112026D02*
Y0112859D01*
X0136060Y0112970D01*
X0135610Y0123980D02*
X0135700D01*
X0136000Y0124280D01*
Y0124640D01*
X0139840Y0124730D02*
X0139900Y0124670D01*
Y0124310D01*
X0140133Y0124076D01*
Y0123943D01*
X0140130Y0123940D01*
X0138630Y0124700D02*
Y0124300D01*
X0138520Y0124190D01*
X0138630Y0124700D02*
X0138610Y0124680D01*
Y0124310D01*
X0138520Y0124220D01*
Y0123990D01*
X0138850Y0123660D01*
Y0121600D01*
X0133260Y0127320D02*
Y0128150D01*
X0133160Y0128250D01*
X0143170Y0128630D02*
X0143040Y0128500D01*
X0142600D01*
X0143200Y0131420D02*
X0142980Y0131200D01*
X0142390D01*
X0142990D01*
X0143560Y0131770D01*
X0145710D01*
X0139990Y0134430D02*
Y0133880D01*
X0139950Y0133840D01*
X0134570Y0132560D02*
X0134430Y0132700D01*
X0133850D01*
X0135410Y0133840D02*
X0135409Y0133841D01*
X0138360Y0133840D02*
X0138362Y0133842D01*
Y0134452D01*
X0098300Y0132820D02*
X0098305Y0132815D01*
Y0133325D01*
X0141760Y0124990D02*
Y0124400D01*
X0136125Y0127245D02*
X0135415D01*
X0135320Y0127340D01*
Y0127470D01*
X0148600Y0113210D02*
X0148770Y0113380D01*
Y0114180D01*
X0148600Y0113210D02*
X0148770Y0113380D01*
Y0114180D01*
X0140310Y0117360D02*
Y0118010D01*
X0140110Y0118210D01*
X0138850Y0120280D02*
X0139740D01*
X0139810Y0120350D01*
X0139860D01*
X0140110Y0118210D02*
X0140310Y0118010D01*
Y0117360D01*
X0137750D02*
Y0117710D01*
X0137810Y0117770D01*
Y0117850D01*
X0140110Y0118210D02*
X0140310Y0118010D01*
Y0117360D01*
X0140920Y0129400D02*
X0141760D01*
X0137750Y0117360D02*
Y0117710D01*
X0137810Y0117770D01*
Y0117850D01*
X0134920Y0118310D02*
X0134660D01*
X0134440Y0118090D01*
Y0117660D01*
X0139860Y0120350D02*
X0139810D01*
X0139740Y0120280D01*
X0138850D01*
X0144680Y0126630D02*
X0144070D01*
X0143440Y0126000D01*
X0142600D01*
X0142890Y0136360D02*
Y0134250D01*
X0140710Y0128680D02*
Y0127990D01*
X0136125Y0128995D02*
X0135495D01*
X0135290Y0129200D01*
X0097945Y0134445D02*
Y0133985D01*
X0097830Y0133870D01*
X0097560D01*
Y0132790D01*
X0097565Y0132795D01*
Y0133325D01*
X0096600Y0133970D02*
X0097060D01*
X0097160Y0133870D01*
X0097560D01*
Y0132790D01*
X0097565Y0132795D01*
Y0133325D01*
X0132490Y0132700D02*
X0133010D01*
X0143484Y0114955D02*
Y0114074D01*
X0143220Y0113810D01*
X0142840D01*
X0141080Y0113620D02*
X0140650D01*
X0140164Y0114105D01*
Y0114955D01*
X0134890Y0122370D02*
X0135000Y0122480D01*
Y0124630D01*
X0141860Y0109660D02*
Y0109600D01*
X0140690Y0109740D02*
X0140680Y0109750D01*
X0140690Y0109740D01*
X0141080Y0113620D02*
X0140650D01*
X0140164Y0114105D01*
Y0114955D01*
X0137000Y0125530D02*
X0137610D01*
X0147090Y0129890D02*
Y0129030D01*
X0148240Y0132090D02*
X0147920Y0131770D01*
X0147030D01*
X0147920D01*
X0148240Y0132090D01*
X0147090Y0129030D02*
Y0129890D01*
X0138663Y0112011D02*
Y0112943D01*
X0138650Y0112930D01*
X0141990Y0112980D02*
X0141983Y0112986D01*
Y0112011D01*
X0098305Y0133325D02*
Y0132815D01*
X0098300Y0132820D01*
X0135000Y0124630D02*
Y0122480D01*
X0134890Y0122370D01*
X0097310Y0132540D02*
X0097565Y0132795D01*
Y0133325D01*
X0132773Y0112031D02*
Y0112853D01*
X0132900Y0112980D01*
X0136060Y0112970D02*
X0135949Y0112859D01*
Y0112026D01*
X0141990Y0112980D02*
X0141983Y0112986D01*
Y0112011D01*
X0136630Y0126390D02*
X0134550D01*
X0134400Y0126240D01*
Y0125550D01*
X0133940Y0125090D01*
X0132490D01*
Y0125080D01*
X0153650Y0138850D02*
Y0142200D01*
X0153980Y0142530D01*
X0160550D01*
X0160600Y0142580D01*
X0130880Y0129020D02*
X0130890Y0129010D01*
X0130900D01*
X0130850Y0129060D01*
X0130290D01*
X0140150Y0111110D02*
Y0110590D01*
X0155420Y0137830D02*
X0154925D01*
Y0137825D01*
X0134710Y0114050D02*
X0134550D01*
X0134274Y0114325D01*
Y0114975D01*
X0162600Y0142580D02*
X0162030Y0143150D01*
X0153800D01*
X0153290Y0142640D01*
Y0138980D01*
X0153030Y0138720D01*
X0137440Y0113400D02*
Y0112035D01*
X0137449Y0112026D01*
X0137820Y0115420D02*
X0137540D01*
X0137450Y0115330D01*
Y0114970D01*
X0139330Y0128000D02*
X0138330D01*
X0138325Y0127995D01*
X0133010Y0132700D02*
X0132480D01*
X0132510Y0132670D01*
X0132560D01*
X0132490Y0132700D01*
X0133010D01*
X0134290Y0113320D02*
Y0113180D01*
X0134280Y0113170D01*
Y0112038D01*
X0134273Y0112031D01*
X0143490Y0110580D02*
Y0110590D01*
X0132560Y0131310D02*
Y0131670D01*
X0132680Y0131790D01*
X0133010D01*
X0132680D01*
X0132560Y0131670D01*
Y0131310D01*
X0133260Y0127320D02*
Y0128150D01*
X0133160Y0128250D01*
X0143210Y0127210D02*
X0142610D01*
X0142600Y0127200D01*
X0138325Y0127745D02*
X0138330Y0127750D01*
X0138860D01*
X0139120Y0127490D01*
Y0127440D01*
X0139110Y0127430D01*
X0139120Y0126730D02*
Y0126890D01*
X0138765Y0127245D01*
X0138325D01*
X0129620Y0139786D02*
X0138094D01*
X0139110Y0138770D01*
Y0132810D01*
X0139890Y0132030D01*
Y0130830D01*
X0139870Y0127990D02*
X0139860Y0128000D01*
X0138330D01*
X0138325Y0127995D01*
X0138670Y0113960D02*
X0138664Y0113965D01*
Y0114955D01*
X0138000Y0131690D02*
X0137610Y0131300D01*
Y0129680D01*
X0137795Y0129495D01*
X0138325D01*
X0132490Y0125080D02*
Y0124650D01*
X0132300Y0124460D01*
X0129550D01*
X0128660Y0125350D01*
Y0138180D01*
X0129085Y0138605D01*
X0129620D01*
X0137070Y0128910D02*
X0136910Y0128750D01*
X0136130D01*
X0136125Y0128745D01*
X0138325Y0128495D02*
X0137200D01*
X0136940Y0128230D01*
Y0127130D01*
X0136650Y0126840D01*
X0135060D01*
X0134830Y0127070D01*
X0134820D01*
X0136000Y0113990D02*
X0135950Y0114040D01*
Y0114970D01*
X0142983Y0112011D02*
X0142970Y0112025D01*
Y0113160D01*
X0136950Y0114970D02*
Y0116030D01*
X0136770Y0116210D01*
Y0116520D01*
X0132780Y0113810D02*
Y0114970D01*
X0132774Y0114975D01*
X0138420Y0131000D02*
X0138590Y0130830D01*
X0139030D01*
X0134273Y0112031D02*
Y0110603D01*
X0134270Y0110600D01*
X0133774Y0114975D02*
Y0116005D01*
X0133460Y0116320D01*
Y0116820D01*
X0133274Y0114975D02*
Y0115775D01*
X0132570Y0116480D01*
Y0116950D01*
X0133773Y0112031D02*
X0133780Y0112038D01*
Y0112940D01*
X0136450Y0114970D02*
Y0115620D01*
X0135850Y0116220D01*
Y0116430D01*
X0137449Y0112026D02*
Y0110601D01*
X0137450Y0110600D01*
X0133040Y0126410D02*
X0133030Y0126420D01*
X0139870Y0126810D02*
X0139850Y0126790D01*
Y0126400D01*
X0139650Y0126200D01*
X0137950D01*
X0137580Y0126570D01*
Y0127630D01*
X0137695Y0127745D01*
X0138325D01*
X0139670Y0113150D02*
Y0112018D01*
X0139663Y0112011D01*
X0141980Y0116480D02*
Y0114960D01*
X0141984Y0114955D01*
X0129620Y0139195D02*
X0135365D01*
X0136790Y0137770D01*
Y0132020D01*
X0137370Y0131440D01*
Y0128495D01*
X0138325D01*
X0140150Y0110590D02*
Y0111998D01*
X0140163Y0112011D01*
X0143490Y0110580D02*
Y0112005D01*
X0143483Y0112011D01*
X0138000Y0119730D02*
Y0119690D01*
X0138260Y0119430D01*
Y0114740D01*
X0136960Y0113440D01*
Y0112035D01*
X0136949Y0112026D01*
X0112520Y0130770D02*
X0112492D01*
X0108795Y0127077D01*
Y0122375D01*
X0108765D01*
X0136449Y0112026D02*
Y0110601D01*
X0136450Y0110600D01*
X0137190Y0126390D02*
Y0127950D01*
X0137485Y0128245D01*
X0138325D01*
X0138830Y0115870D02*
X0139164Y0115535D01*
Y0114955D01*
X0137030Y0124100D02*
Y0123080D01*
X0135850Y0121900D01*
Y0116990D01*
X0138325Y0128995D02*
X0138915D01*
X0139030Y0129110D01*
Y0130270D01*
X0142484Y0114955D02*
Y0116945D01*
X0142010Y0117420D01*
X0139163Y0112011D02*
Y0110596D01*
X0139170Y0110590D01*
X0133273Y0112031D02*
Y0110603D01*
X0133270Y0110600D01*
X0135790Y0122510D02*
Y0122495D01*
X0132570Y0119275D01*
Y0117510D01*
X0142980Y0116510D02*
X0142984Y0116505D01*
Y0114955D01*
X0138325Y0128745D02*
X0139425D01*
X0139890Y0129210D01*
Y0130270D01*
X0142483Y0112011D02*
Y0110586D01*
X0142490Y0110580D01*
X0139664Y0114955D02*
Y0115745D01*
X0139300Y0116110D01*
Y0116520D01*
X0153725Y0137825D02*
Y0136485D01*
X0153730Y0136480D01*
G54D74*
G01X0123620Y0129620D02*
X0122330D01*
X0124880Y0129650D02*
X0124850Y0129620D01*
X0123620D01*
X0145560Y0110800D02*
Y0109800D01*
X0137450Y0109760D02*
X0136450D01*
X0134270D02*
X0133270D01*
X0140150Y0109750D02*
X0139170D01*
X0143490Y0109740D02*
X0142490D01*
X0122330Y0128300D02*
X0123350D01*
X0123620Y0128570D01*
Y0129060D01*
X0099120Y0135390D02*
X0098420D01*
X0096600Y0134810D02*
X0095970D01*
X0146400Y0109800D02*
Y0109310D01*
X0142490Y0109740D02*
X0141940D01*
X0141860Y0109660D01*
X0140680Y0109750D02*
X0140150D01*
X0140680D01*
X0122330Y0127170D02*
Y0128300D01*
X0134830Y0109760D02*
X0134270D01*
X0096600Y0134810D02*
X0095970D01*
X0137930Y0109760D02*
X0137450D01*
X0145560Y0109800D02*
Y0109350D01*
X0098120Y0127490D02*
X0098050Y0127420D01*
Y0123310D01*
X0100050Y0132540D02*
Y0135740D01*
X0099770Y0136020D01*
X0097580D01*
Y0135390D01*
X0100900Y0135270D02*
X0100050D01*
Y0135740D01*
X0099770Y0136020D01*
X0097580D01*
Y0135390D01*
Y0136020D01*
X0093760D01*
Y0137010D01*
X0093510Y0137260D01*
X0097580Y0135390D02*
Y0136020D01*
X0093760D01*
Y0132810D01*
X0117000Y0127300D02*
Y0127690D01*
X0116840Y0127850D01*
Y0128330D01*
X0098420Y0135390D02*
X0099120D01*
X0143490Y0110590D02*
X0144790D01*
X0150270Y0114180D02*
Y0115170D01*
X0150990D01*
X0152580Y0116760D01*
Y0130090D01*
X0158960Y0136470D01*
Y0138400D01*
X0158980Y0138420D01*
X0158990D01*
X0097580Y0135390D02*
X0097575D01*
Y0134445D01*
X0149770Y0114180D02*
Y0115060D01*
X0149880Y0115170D01*
X0150270D01*
Y0114180D01*
X0116840Y0126330D02*
Y0126770D01*
X0117000Y0126930D01*
Y0127300D01*
X0146400Y0110800D02*
Y0111880D01*
X0146130Y0112150D01*
X0145110D01*
G54D75*
G01X0137160Y0099830D02*
X0136080D01*
X0139330Y0100670D02*
Y0100200D01*
X0139010Y0099880D01*
X0137190D01*
X0137160Y0099850D01*
Y0099830D01*
X0136080Y0098530D02*
X0136100Y0098510D01*
X0137020D01*
X0137160Y0098650D01*
Y0098990D01*
X0093600Y0124890D02*
X0095430Y0126720D01*
X0096600D01*
X0149270Y0112720D02*
Y0114180D01*
X0150270Y0117080D02*
Y0116300D01*
Y0117080D01*
X0159850Y0106830D02*
X0158230D01*
X0157620Y0106220D01*
Y0101620D01*
X0157900Y0101340D01*
X0159610D01*
X0159620Y0101350D01*
X0159470D01*
X0159770D02*
X0159620D01*
X0159850Y0106830D02*
Y0106580D01*
Y0107080D02*
Y0106830D01*
X0135180Y0098540D02*
X0136070D01*
X0136080Y0098530D01*
X0103460Y0110960D02*
X0103420Y0111000D01*
Y0113650D01*
X0102540Y0114530D01*
Y0115520D01*
G54D79*
G01X0135409Y0133841D02*
Y0134369D01*
G54D80*
G01X0115050Y0127290D02*
X0115060Y0127300D01*
X0116440D01*
G54D112*
G01X0137973Y0113229D02*
Y0113006D01*
X0138196Y0113118D01*
Y0113173D01*
X0137862D01*
X0137918Y0112636D02*
X0137862Y0112692D01*
Y0112803D01*
X0137918Y0112859D01*
X0137973D01*
X0138084Y0112748D01*
X0138196Y0112859D01*
Y0112636D01*
Y0112489D02*
X0137918D01*
X0137862Y0112461D01*
Y0112294D01*
X0137918Y0112266D01*
X0138196D01*
X0134927Y0113244D02*
Y0113022D01*
X0135149Y0113244D01*
X0135205D01*
X0135260Y0113216D01*
Y0113050D01*
X0135205Y0113022D01*
X0134982Y0112652D02*
X0134927Y0112708D01*
Y0112819D01*
X0134982Y0112874D01*
X0135038D01*
X0135149Y0112763D01*
X0135260Y0112874D01*
Y0112652D01*
Y0112504D02*
X0134982D01*
X0134927Y0112476D01*
Y0112310D01*
X0134982Y0112282D01*
X0135260D01*
G54D113*
G01X0144233Y0113200D02*
Y0113366D01*
X0144178Y0113394D01*
X0144122D01*
X0144067Y0113366D01*
Y0113200D01*
X0144122Y0113172D01*
X0144178D01*
X0144400Y0113283D01*
X0144122Y0112762D02*
X0144067Y0112818D01*
Y0112929D01*
X0144122Y0112984D01*
X0144178D01*
X0144289Y0112873D01*
X0144400Y0112984D01*
Y0112762D01*
Y0112574D02*
X0144122D01*
X0144067Y0112546D01*
Y0112380D01*
X0144122Y0112352D01*
X0144400D01*
X0151210Y0114528D02*
X0151043Y0114861D01*
X0151266D01*
X0151676Y0114583D02*
X0151620Y0114528D01*
X0151509D01*
X0151453Y0114583D01*
Y0114639D01*
X0151565Y0114750D01*
X0151453Y0114861D01*
X0151676D01*
X0151863D02*
Y0114583D01*
X0151891Y0114528D01*
X0152058D01*
X0152086Y0114583D01*
Y0114861D01*
X0140922Y0113092D02*
X0140867Y0113120D01*
Y0113286D01*
X0140922Y0113314D01*
X0141033D01*
X0141089Y0113259D01*
Y0113092D01*
X0141200D01*
Y0113314D01*
X0140922Y0112682D02*
X0140867Y0112738D01*
Y0112849D01*
X0140922Y0112904D01*
X0140978D01*
X0141089Y0112793D01*
X0141200Y0112904D01*
Y0112682D01*
Y0112494D02*
X0140922D01*
X0140867Y0112466D01*
Y0112300D01*
X0140922Y0112272D01*
X0141200D01*
G54D77*
X0087860Y0111270D03*
X0120960Y0125490D03*
X0121090Y0126970D03*
X0119310Y0120850D03*
X0127560Y0120990D03*
X0137860Y0124190D03*
X0144800Y0129370D03*
X0135760Y0137900D03*
X0138660Y0137890D03*
X0128610Y0124160D03*
X0134260Y0124260D03*
X0132480Y0122480D03*
X0120160Y0118590D03*
X0140480Y0133000D03*
X0138360Y0132430D03*
X0132600Y0129080D03*
X0141090Y0124030D03*
X0140880Y0139560D03*
X0140830Y0134610D03*
X0139440Y0136280D03*
X0141030Y0132860D03*
X0135310Y0132040D03*
X0154120Y0141020D03*
X0109710Y0097150D03*
X0134840Y0130860D03*
X0135760Y0131420D03*
X0141730Y0133410D03*
X0143220Y0132550D03*
X0144580Y0134880D03*
X0136510Y0125480D03*
X0133870Y0125860D03*
X0132570Y0125750D03*
X0136780Y0124980D03*
X0136390Y0123950D03*
X0110490Y0123820D03*
X0113570Y0134660D03*
X0092790Y0137380D03*
X0135610Y0123980D03*
X0140130Y0123940D03*
X0138520Y0124190D03*
X0132600Y0127200D03*
X0143170Y0128630D03*
X0143200Y0131420D03*
X0110770Y0097590D03*
X0113350Y0100390D03*
X0134570Y0132560D03*
X0105340Y0123370D03*
X0135409Y0134369D03*
X0138362Y0134452D03*
X0137630Y0134580D03*
X0136410Y0134500D03*
X0100460Y0133440D03*
X0134730Y0134550D03*
X0132670Y0134320D03*
X0131510Y0137060D03*
X0135320Y0127470D03*
X0143270Y0126450D03*
X0146400Y0109310D03*
X0148600Y0113210D03*
X0140110Y0118210D03*
X0140920Y0129400D03*
X0137810Y0117850D03*
X0134920Y0118310D03*
X0139180Y0124010D03*
X0139860Y0120350D03*
X0144660Y0124140D03*
X0144680Y0126630D03*
X0140710Y0136160D03*
X0142890Y0136360D03*
X0140710Y0128680D03*
X0135290Y0129200D03*
X0132490Y0132700D03*
X0142840Y0113810D03*
X0141860Y0109600D03*
X0140690Y0109740D03*
X0141080Y0113620D03*
X0137000Y0125530D03*
X0093230Y0129430D03*
X0122330Y0127170D03*
X0116620Y0136020D03*
X0123000Y0120800D03*
X0120680Y0136010D03*
X0115280Y0133080D03*
X0092700Y0131750D03*
X0109260Y0121350D03*
X0134830Y0109760D03*
X0132900Y0130800D03*
X0130600Y0131720D03*
X0143090Y0130070D03*
X0143280Y0130600D03*
X0108600Y0138970D03*
X0108120Y0133020D03*
X0113030Y0133770D03*
X0163140Y0141400D03*
X0095970Y0134810D03*
X0094190Y0135470D03*
X0161660Y0140910D03*
X0148240Y0132090D03*
X0154380Y0133980D03*
X0143330Y0128000D03*
X0147090Y0129030D03*
X0138650Y0112930D03*
X0098300Y0132820D03*
X0095290Y0133080D03*
X0137930Y0109760D03*
X0145560Y0109350D03*
X0134890Y0122370D03*
X0140330Y0122480D03*
X0137470Y0122400D03*
X0145230Y0132860D03*
X0107000Y0123270D03*
X0104720Y0133990D03*
X0132900Y0112980D03*
X0136060Y0112970D03*
X0141990Y0112980D03*
X0100050Y0132540D03*
X0100900Y0135270D03*
X0104020Y0134750D03*
X0104130Y0134070D03*
X0154270Y0138990D03*
X0154590Y0135980D03*
X0093510Y0137260D03*
X0153650Y0138850D03*
X0099960Y0124580D03*
X0093760Y0132810D03*
X0130910Y0129000D03*
X0140150Y0111110D03*
X0094410Y0127030D03*
X0099120Y0124610D03*
X0143640Y0122990D03*
X0155420Y0137830D03*
X0134710Y0114050D03*
X0153030Y0138720D03*
X0137440Y0113400D03*
X0137820Y0115420D03*
X0139330Y0128000D03*
X0094880Y0136970D03*
X0134290Y0113320D03*
X0107581Y0139571D03*
X0099120Y0135390D03*
X0144790Y0110590D03*
X0139990Y0134430D03*
X0132560Y0131310D03*
X0133260Y0127320D03*
X0143210Y0127210D03*
X0129380Y0120960D03*
X0139110Y0127430D03*
X0139120Y0126730D03*
X0138670Y0113960D03*
X0138000Y0131690D03*
X0132490Y0125080D03*
X0137070Y0128910D03*
X0134820Y0127070D03*
X0136000Y0113990D03*
X0142970Y0113160D03*
X0095050Y0128460D03*
X0129580Y0128570D03*
X0130990Y0127730D03*
X0132780Y0113810D03*
X0138420Y0131000D03*
X0133780Y0112940D03*
X0130860Y0126280D03*
X0139670Y0113150D03*
X0141980Y0116480D03*
X0138000Y0119730D03*
X0112520Y0130770D03*
X0108765Y0122375D03*
X0138830Y0115870D03*
X0137030Y0124100D03*
X0142010Y0117420D03*
X0135790Y0122510D03*
G54D78*
X0124630Y0101300D03*
X0124490Y0109520D03*
X0123320Y0109560D03*
X0149070Y0118680D03*
X0138240Y0106790D03*
X0135470Y0107160D03*
X0094410Y0140690D03*
X0115990Y0110530D03*
X0111190Y0113890D03*
X0134980Y0108300D03*
X0098200Y0140870D03*
X0123630Y0099080D03*
X0116740Y0102180D03*
X0102050Y0137150D03*
X0101220Y0137730D03*
X0101120Y0131340D03*
X0153150Y0100570D03*
X0148390Y0111010D03*
X0153660Y0104260D03*
X0107650Y0115450D03*
X0107620Y0119680D03*
X0107410Y0117260D03*
X0107860Y0113460D03*
X0099020Y0099160D03*
X0098390Y0104580D03*
X0096070Y0107250D03*
X0114900Y0139310D03*
X0119090Y0129530D03*
X0123110Y0135380D03*
X0119140Y0132720D03*
X0119010Y0139000D03*
X0096350Y0104120D03*
X0104200Y0131100D03*
X0115360Y0129210D03*
X0115050Y0127290D03*
X0110710Y0117540D03*
X0110310Y0116460D03*
X0110270Y0118760D03*
X0123050Y0133750D03*
X0101780Y0140510D03*
X0105550Y0139580D03*
X0160250Y0135260D03*
X0091940Y0118850D03*
X0096520Y0139750D03*
X0112310Y0119900D03*
X0097310Y0132540D03*
X0103440Y0120380D03*
X0101580Y0119960D03*
X0098230Y0132120D03*
X0098120Y0127490D03*
X0091670Y0119970D03*
X0105580Y0131380D03*
X0108950Y0119760D03*
X0134970Y0106020D03*
X0127760Y0104380D03*
X0093600Y0124890D03*
X0096600Y0126720D03*
X0149270Y0112720D03*
X0140370Y0108300D03*
X0153800Y0121730D03*
X0153530Y0123570D03*
X0150270Y0117080D03*
X0103860Y0123700D03*
X0100120Y0119170D03*
X0135180Y0098540D03*
X0125690Y0109510D03*
X0126870Y0109500D03*
X0101270Y0136560D03*
X0101250Y0125140D03*
X0106590Y0121490D03*
X0122140Y0109430D03*
X0101700Y0111350D03*
X0098290Y0105630D03*
X0153790Y0120420D03*
X0087990Y0097090D03*
X0117020Y0134950D03*
X0117170Y0133430D03*
X0098050Y0123310D03*
X0103460Y0110960D03*
G54D81*
X0158990Y0138420D03*
G54D82*
X0143190Y0124930D03*
X0141760Y0124990D03*
G54D83*
X0124880Y0129650D03*
Y0126650D03*
X0127880D03*
Y0129650D03*
Y0132650D03*
X0160600Y0142580D03*
X0162600D03*
X0116850Y0124780D03*
X0115850D03*
X0114850D03*
Y0122780D03*
X0115850D03*
X0116850D03*
X0118850D03*
X0116840Y0128330D03*
X0115840D03*
X0114840D03*
Y0126330D03*
X0115840D03*
X0116840D03*
X0118840D03*
X0139330Y0101670D03*
Y0102670D03*
X0145110Y0116150D03*
Y0115150D03*
Y0114150D03*
Y0113150D03*
Y0112150D03*
X0153610Y0113150D03*
Y0114150D03*
Y0115150D03*
Y0116150D03*
X0086720Y0109300D03*
Y0108300D03*
X0090550Y0115850D03*
Y0114850D03*
X0122890Y0107050D03*
Y0108050D03*
X0123890Y0107050D03*
Y0108050D03*
X0124890Y0107050D03*
Y0108050D03*
X0125890Y0107050D03*
Y0108050D03*
X0126890Y0107050D03*
Y0108050D03*
X0088850Y0133330D03*
X0089850D03*
X0088850Y0132330D03*
X0089850D03*
X0088850Y0131330D03*
X0089850D03*
X0088850Y0130330D03*
X0089850D03*
X0088850Y0129330D03*
X0089850D03*
X0088850Y0128330D03*
X0089850D03*
X0088850Y0127330D03*
X0089850D03*
X0088850Y0126330D03*
X0089850D03*
X0088850Y0125330D03*
X0089850D03*
X0159210Y0114160D03*
Y0115160D03*
Y0116160D03*
Y0113160D03*
X0140170Y0097570D03*
G54D84*
X0090760Y0136040D03*
X0089760D03*
X0088760D03*
X0118850Y0124780D03*
X0118840Y0128330D03*
X0139330Y0100670D03*
X0145110Y0117150D03*
X0089790Y0104760D03*
X0090790D03*
X0091790D03*
X0102540Y0115520D03*
X0103540D03*
X0104540D03*
X0142730Y0104270D03*
Y0105270D03*
Y0106270D03*
X0086720Y0110300D03*
X0136080Y0099830D03*
Y0098530D03*
X0141170Y0097570D03*
G54D85*
X0153730Y0136480D03*
X0154570D03*
X0146400Y0110800D03*
X0145560D03*
X0143490Y0110580D03*
Y0109740D03*
X0142980Y0117350D03*
Y0116510D03*
X0142490Y0110580D03*
Y0109740D03*
X0140150Y0110590D03*
Y0109750D03*
X0139870Y0126810D03*
X0140710D03*
X0139870Y0127990D03*
X0140710D03*
X0139170Y0110590D03*
Y0109750D03*
X0139300Y0117360D03*
Y0116520D03*
X0137450Y0110600D03*
Y0109760D03*
X0136770Y0117360D03*
Y0116520D03*
X0136450Y0109760D03*
Y0110600D03*
X0134270D03*
Y0109760D03*
X0133270Y0110600D03*
Y0109760D03*
X0133460Y0117660D03*
Y0116820D03*
X0146400Y0109800D03*
X0145560D03*
X0143940Y0117360D03*
Y0116520D03*
X0142600Y0124400D03*
X0141760D03*
X0142600Y0126000D03*
X0141760D03*
X0142600Y0127200D03*
X0141760D03*
X0142600Y0128500D03*
X0141760D03*
X0142600Y0129400D03*
X0141760D03*
X0142890Y0134250D03*
Y0133410D03*
X0140800Y0124730D03*
Y0125570D03*
X0142390Y0131200D03*
X0141550D03*
X0142390Y0132100D03*
X0141550D03*
X0140530Y0137030D03*
Y0137870D03*
X0140310Y0117360D03*
Y0116520D03*
X0139840Y0124730D03*
Y0125570D03*
X0139950Y0133840D03*
Y0133000D03*
X0137750Y0117360D03*
Y0116520D03*
X0137610Y0124690D03*
Y0125530D03*
X0138630Y0124700D03*
Y0125540D03*
X0138360Y0133840D03*
Y0133000D03*
X0136000Y0124640D03*
Y0125480D03*
X0135960Y0130450D03*
X0136800D03*
X0134440Y0117660D03*
Y0116820D03*
X0135000Y0124630D03*
Y0125470D03*
X0135410Y0133840D03*
Y0133000D03*
X0133030Y0126420D03*
X0133870D03*
X0133010Y0131790D03*
X0133850D03*
X0133010Y0132700D03*
X0133850D03*
X0130290Y0129060D03*
Y0128220D03*
X0098420Y0135390D03*
X0097580D03*
X0096600Y0134810D03*
Y0133970D03*
X0137160Y0098990D03*
Y0099830D03*
G54D86*
X0145770Y0129890D03*
X0147090D03*
X0145710Y0131770D03*
X0147030D03*
X0138850Y0121600D03*
Y0120280D03*
X0137200Y0121600D03*
Y0120280D03*
X0133160Y0128250D03*
X0134480D03*
X0133160Y0129890D03*
X0134480D03*
X0122330Y0129620D03*
Y0128300D03*
G54D87*
X0139890Y0130270D03*
Y0130830D03*
X0139030Y0130270D03*
Y0130830D03*
X0135850Y0116990D03*
Y0116430D03*
X0132570Y0117510D03*
Y0116950D03*
X0123620Y0129620D03*
Y0129060D03*
G54D88*
X0160880Y0130180D03*
X0159880D03*
X0158880D03*
X0157880D03*
X0156880D03*
X0155150Y0106440D03*
X0148140Y0108550D03*
G54D89*
X0161880Y0130180D03*
X0148150Y0106440D03*
X0155140Y0108550D03*
G54D90*
X0086520Y0106330D03*
G54D91*
Y0097330D03*
G54D92*
X0153725Y0137825D03*
X0154925D03*
G54D93*
X0160210Y0112160D03*
Y0117160D03*
G54D94*
X0129620Y0139786D03*
Y0139195D03*
Y0138605D03*
Y0138014D03*
Y0137424D03*
X0133445Y0138616D03*
X0132855D03*
X0132264D03*
X0148490Y0136520D03*
Y0137111D03*
Y0137701D03*
G54D95*
X0129620Y0140376D03*
X0134036Y0138616D03*
X0148490Y0135930D03*
G54D96*
X0159850Y0106830D03*
X0162100D03*
X0159850Y0106580D03*
X0162100Y0107080D03*
Y0106580D03*
X0159850Y0107080D03*
G54D97*
X0160950Y0108830D03*
X0160700D03*
X0161200D03*
G54D98*
X0118690Y0113050D03*
X0131190D03*
X0118690Y0100150D03*
X0131190D03*
X0089228Y0138952D03*
X0161269D03*
X0089228Y0120450D03*
X0161269D03*
G54D99*
X0088150Y0113850D03*
Y0117850D03*
G54D100*
X0137190Y0126390D03*
X0136630D03*
X0116440Y0127300D03*
X0117000D03*
G54D101*
X0159570Y0103350D03*
X0159620Y0101350D03*
X0159570Y0099350D03*
X0161570Y0103350D03*
Y0101350D03*
Y0099350D03*
X0159420Y0103350D03*
X0159770Y0101350D03*
X0159720Y0103350D03*
X0159470Y0101350D03*
X0159720Y0099350D03*
X0161720D03*
X0159420D03*
X0161420D03*
X0161720Y0101350D03*
X0161420D03*
X0161720Y0103350D03*
X0161420D03*
G54D102*
X0137280Y0101610D03*
G54D103*
X0097575Y0134445D03*
X0097945D03*
X0098315D03*
X0098305Y0133325D03*
X0097935D03*
X0097565D03*
G54D104*
X0142983Y0112011D03*
X0142483D03*
X0141983D03*
X0141984Y0114955D03*
X0142484D03*
X0142984D03*
X0143484D03*
X0139663Y0112011D03*
X0139163D03*
X0138663D03*
X0138664Y0114955D03*
X0139164D03*
X0139664D03*
X0140164D03*
X0136949Y0112026D03*
X0136449D03*
X0135949D03*
X0135950Y0114970D03*
X0136450D03*
X0136950D03*
X0137450D03*
X0133773Y0112031D03*
X0133273D03*
X0132773D03*
X0132774Y0114975D03*
X0133274D03*
X0133774D03*
X0134274D03*
G54D105*
X0143483Y0112011D03*
X0140163D03*
X0137449Y0112026D03*
X0134273Y0112031D03*
G54D106*
X0138325Y0129245D03*
Y0128995D03*
Y0128745D03*
Y0128495D03*
Y0128245D03*
Y0127995D03*
Y0127745D03*
Y0127495D03*
Y0127245D03*
X0136125D03*
Y0127495D03*
Y0127745D03*
Y0127995D03*
Y0128245D03*
Y0128495D03*
Y0128745D03*
Y0128995D03*
Y0129245D03*
Y0129495D03*
G54D107*
X0138325D03*
G54D108*
X0149770Y0114180D03*
X0149270D03*
X0148770D03*
Y0116300D03*
X0149270D03*
X0149770D03*
X0150270D03*
G54D109*
Y0114180D03*
G54D110*
X0124880Y0132650D03*
G54D111*
X0105320Y0129680D03*
X0106100Y0133010D03*
X0103140Y0129670D03*
X0129130Y0120460D03*
X0139210Y0125540D03*
X0132850Y0136430D03*
X0130900Y0124120D03*
X0135220Y0136500D03*
X0137968Y0136348D03*
M02*
