*
G04 Mass Parameters ***
*
G04 Image ***
*
%INF:\MUSHTAQ PCB\SAJJAD HUSSAIN\DDL\ICCC-PD-24-PCBR0500\DATA LOGGER-68.FAB*%
%ICAS*%
%MOIN*%
%IPPOS*%
%ASAXBY*%
G74*%FSLAN2X34Y34*%
*
G04 Aperture Definitions ***
*
%ADD10C,0.0600*%
%ADD11R,0.0600X0.0600*%
%ADD12R,0.0320X0.0380*%
%ADD13R,0.0500X0.0500*%
%ADD14R,0.0380X0.0320*%
%ADD15R,0.0800X0.0800*%
%ADD16R,0.1400X0.0800*%
%ADD17R,0.2000X0.4000*%
%ADD18R,0.0800X0.1400*%
%ADD19R,0.1500X0.1500*%
%ADD20R,0.0520X0.0500*%
%ADD21C,0.0700*%
%ADD22R,0.0700X0.0700*%
%ADD23R,0.0900X0.1000*%
%ADD24R,0.0750X0.1100*%
%ADD25R,0.0300X0.0600*%
%ADD26C,0.1000*%
%ADD27R,0.1000X0.1000*%
%ADD28R,0.1200X0.0800*%
%ADD29C,0.0900*%
%ADD30C,0.0300*%
%ADD31R,0.0300X0.0300*%
%ADD32O,0.0800X0.1500*%
%ADD33O,0.1500X0.0800*%
%ADD34C,0.1260*%
%ADD35C,0.1200*%
%ADD36R,0.2300X0.1200*%
%ADD37O,0.1500X0.0900*%
%ADD38C,0.0550*%
%ADD39R,0.0900X0.0500*%
%ADD40R,0.0900X0.1200*%
%ADD41R,0.0500X0.0900*%
%ADD42O,0.1000X0.0240*%
%ADD43R,0.1000X0.0240*%
%ADD44O,0.0240X0.1000*%
%ADD45R,0.0240X0.1000*%
%ADD46R,0.1968X0.5905*%
%ADD47R,0.0880X0.0480*%
%ADD48R,0.0450X0.1500*%
%ADD49R,0.4400X0.3500*%
%ADD50O,0.0700X0.0110*%
%ADD51R,0.0700X0.0110*%
%ADD52O,0.0110X0.0700*%
%ADD53R,0.0110X0.0700*%
%ADD54O,0.0650X0.0160*%
%ADD55R,0.0650X0.0160*%
%ADD56R,0.0201X0.1600*%
%ADD57O,0.1000X0.0250*%
%ADD58R,0.1000X0.0250*%
%ADD59R,0.1400X0.0600*%
%ADD60R,0.1200X0.0900*%
%ADD61O,0.0940X0.0250*%
%ADD62R,0.0940X0.0250*%
%ADD63O,0.0500X0.0150*%
%ADD64R,0.0500X0.0150*%
%ADD65R,0.0870X0.0420*%
%ADD66R,0.3250X0.4250*%
%ADD67O,0.0250X0.0940*%
%ADD68R,0.0250X0.0940*%
%ADD69R,0.0500X0.0200*%
%ADD70R,0.0350X0.0150*%
%ADD71R,0.0580X0.0580*%
%ADD72C,0.0250*%
%ADD73C,0.0120*%
%ADD74C,0.0200*%
%ADD75C,0.0300*%
%ADD76C,0.0500*%
%ADD77C,0.0250*%
%ADD78C,0.0150*%
%ADD79C,0.0100*%
%ADD80C,0.0500*%
%ADD81C,0.0500*%
%ADD82C,0.0600*%
%ADD83R,0.0600X0.0600*%
%ADD84R,0.0500X0.0500*%
%ADD85R,0.0800X0.0800*%
%ADD86R,0.0380X0.0320*%
%ADD87C,0.0700*%
%ADD88R,0.0700X0.0700*%
%ADD89C,0.1000*%
%ADD90R,0.1000X0.1000*%
%ADD91R,0.0600X0.0800*%
%ADD92C,0.0900*%
%ADD93C,0.0300*%
%ADD94R,0.0300X0.0300*%
%ADD95O,0.0800X0.1500*%
%ADD96O,0.1500X0.0800*%
%ADD97C,0.1260*%
%ADD98C,0.1200*%
%ADD99R,0.0320X0.0380*%
%ADD100O,0.1500X0.0900*%
%ADD101C,0.0550*%
%ADD102R,0.0200X0.0500*%
%ADD103O,0.0250X0.0940*%
%ADD104R,0.0250X0.0940*%
%ADD105O,0.0900X0.0160*%
%ADD106R,0.0900X0.0160*%
%ADD107O,0.0250X0.0860*%
%ADD108R,0.0250X0.0860*%
%ADD109R,0.0580X0.0580*%
%ADD110C,0.0250*%
%ADD111C,0.0250*%
%ADD112C,0.0060*%
%ADD113C,0.0080*%
%ADD114C,0.0500*%
%ADD115C,0.0250*%
%ADD116R,0.1400X0.0800*%
%ADD117R,0.2000X0.4000*%
%ADD118R,0.0800X0.1400*%
%ADD119R,0.1500X0.1500*%
%ADD120R,0.0520X0.0500*%
%ADD121C,0.0850*%
%ADD122R,0.0850X0.0850*%
%ADD123R,0.0900X0.1000*%
%ADD124R,0.0750X0.1100*%
%ADD125R,0.0300X0.0600*%
%ADD126R,0.1200X0.1200*%
%ADD127R,0.1200X0.0800*%
%ADD128C,0.0750*%
%ADD129C,0.1100*%
%ADD130C,0.0400*%
%ADD131R,0.0400X0.0400*%
%ADD132O,0.0900X0.1600*%
%ADD133O,0.1600X0.0900*%
%ADD134C,0.1500*%
%ADD135R,0.2300X0.1200*%
%ADD136O,0.1600X0.1000*%
%ADD137R,0.0900X0.0500*%
%ADD138R,0.0900X0.1200*%
%ADD139O,0.1000X0.0240*%
%ADD140R,0.1000X0.0240*%
%ADD141O,0.0240X0.1000*%
%ADD142R,0.0240X0.1000*%
%ADD143R,0.1968X0.5905*%
%ADD144R,0.0880X0.0480*%
%ADD145R,0.0450X0.1500*%
%ADD146R,0.4400X0.3500*%
%ADD147O,0.0700X0.0110*%
%ADD148R,0.0700X0.0110*%
%ADD149O,0.0110X0.0700*%
%ADD150R,0.0110X0.0700*%
%ADD151O,0.0650X0.0160*%
%ADD152R,0.0650X0.0160*%
%ADD153R,0.0201X0.1600*%
%ADD154O,0.1000X0.0250*%
%ADD155R,0.1000X0.0250*%
%ADD156R,0.1400X0.0600*%
%ADD157R,0.0500X0.0900*%
%ADD158R,0.1200X0.0900*%
%ADD159O,0.0940X0.0250*%
%ADD160R,0.0940X0.0250*%
%ADD161O,0.0500X0.0150*%
%ADD162R,0.0500X0.0150*%
%ADD163R,0.0870X0.0420*%
%ADD164R,0.3250X0.4250*%
%ADD165R,0.0500X0.0200*%
%ADD166R,0.0350X0.0150*%
%ADD167C,0.0800*%
%ADD168C,0.0600*%
%ADD169C,0.0300*%
%ADD170C,0.0600*%
%ADD171C,0.0300*%
%ADD172C,0.0050*%
%ADD173C,0.0040*%
%ADD174C,0.0010*%
%ADD175C,0.0200*%
%ADD176C,0.0400*%
%ADD177C,0.0200*%
%ADD178C,0.0400*%
%ADD179C,0.0200*%
*
G04 Plot Data ***
*
G54D79*
G01X0164030Y0095950D02*
X0164050D01*
Y0143930D01*
X0084970D01*
Y0095960D01*
X0164030Y0095950D01*
G54D175*
X0105320Y0129680D03*
X0106100Y0133010D03*
X0103140Y0129670D03*
X0129130Y0120460D03*
X0139210Y0125540D03*
X0132850Y0136430D03*
X0130900Y0124120D03*
X0135220Y0136500D03*
X0137968Y0136348D03*
G54D176*
X0135180Y0098540D03*
X0158990Y0138420D03*
X0153790Y0120420D03*
X0117020Y0134950D03*
X0117170Y0133430D03*
X0103460Y0110960D03*
G54D177*
X0139330Y0128000D03*
X0137070Y0128910D03*
X0136000Y0113990D03*
X0134820Y0127070D03*
X0132780Y0113810D03*
X0139670Y0113150D03*
X0142970Y0113160D03*
X0138420Y0131000D03*
X0138000Y0131690D03*
X0135790Y0122510D03*
X0138000Y0119730D03*
X0138670Y0113960D03*
X0137030Y0124100D03*
X0112520Y0130770D03*
X0108765Y0122375D03*
X0133780Y0112940D03*
X0141980Y0116480D03*
X0138830Y0115870D03*
X0142010Y0117420D03*
G54D178*
X0124630Y0101300D03*
X0140370Y0108300D03*
X0150270Y0117080D03*
X0124490Y0109520D03*
X0125690Y0109510D03*
X0123320Y0109560D03*
X0122140Y0109430D03*
X0160250Y0135260D03*
X0123630Y0099080D03*
X0123110Y0135380D03*
X0119010Y0139000D03*
X0119140Y0132720D03*
X0119090Y0129530D03*
X0123050Y0133750D03*
X0153150Y0100570D03*
X0148390Y0111010D03*
X0153660Y0104260D03*
X0100120Y0119170D03*
X0116740Y0102180D03*
X0127760Y0104380D03*
X0138240Y0106790D03*
X0135470Y0107160D03*
X0134980Y0108300D03*
X0104200Y0131100D03*
X0091940Y0118850D03*
X0105550Y0139580D03*
X0091670Y0119970D03*
X0110710Y0117540D03*
X0110310Y0116460D03*
X0115050Y0127290D03*
X0115360Y0129210D03*
X0098390Y0104580D03*
X0114900Y0139310D03*
X0096070Y0107250D03*
X0096350Y0104120D03*
X0099020Y0099160D03*
X0101700Y0111350D03*
X0098290Y0105630D03*
X0107860Y0113460D03*
X0107650Y0115450D03*
X0103860Y0123700D03*
X0107410Y0117260D03*
X0101120Y0131340D03*
X0102050Y0137150D03*
X0101220Y0137730D03*
X0101270Y0136560D03*
X0101780Y0140510D03*
X0098200Y0140870D03*
X0110270Y0118760D03*
X0134970Y0106020D03*
X0097310Y0132540D03*
X0098230Y0132120D03*
X0101580Y0119960D03*
X0103440Y0120380D03*
X0112310Y0119900D03*
X0108950Y0119760D03*
X0106590Y0121490D03*
X0149070Y0118680D03*
X0111190Y0113890D03*
X0115990Y0110530D03*
X0094410Y0140690D03*
X0098120Y0127490D03*
X0098050Y0123310D03*
X0093600Y0124890D03*
X0096600Y0126720D03*
X0096520Y0139750D03*
X0101250Y0125140D03*
X0107620Y0119680D03*
X0087990Y0097090D03*
X0153800Y0121730D03*
X0153530Y0123570D03*
X0105580Y0131380D03*
X0126870Y0109500D03*
X0149270Y0112720D03*
G54D179*
X0127560Y0120990D03*
X0154270Y0138990D03*
X0154590Y0135980D03*
X0130860Y0126280D03*
X0137860Y0124190D03*
X0144800Y0129370D03*
X0143090Y0130070D03*
X0163140Y0141400D03*
X0161660Y0140910D03*
X0143330Y0128000D03*
X0148240Y0132090D03*
X0147090Y0129030D03*
X0132900Y0112980D03*
X0138650Y0112930D03*
X0141990Y0112980D03*
X0141090Y0124030D03*
X0130990Y0127730D03*
X0129580Y0128570D03*
X0143280Y0130600D03*
X0130600Y0131720D03*
X0120680Y0136010D03*
X0120160Y0118590D03*
X0132900Y0130800D03*
X0132600Y0129080D03*
X0122330Y0127170D03*
X0140110Y0118210D03*
X0137810Y0117850D03*
X0134920Y0118310D03*
X0139180Y0124010D03*
X0139860Y0120350D03*
X0146400Y0109310D03*
X0148600Y0113210D03*
X0135310Y0132040D03*
X0134840Y0130860D03*
X0135760Y0131420D03*
X0143270Y0126450D03*
X0136510Y0125480D03*
X0143190Y0124930D03*
X0141760Y0124990D03*
X0132670Y0134320D03*
X0131510Y0137060D03*
X0135610Y0123980D03*
X0137630Y0134580D03*
X0136410Y0134500D03*
X0134570Y0132560D03*
X0134730Y0134550D03*
X0140130Y0123940D03*
X0138520Y0124190D03*
X0132600Y0127200D03*
X0110770Y0097590D03*
X0113350Y0100390D03*
X0143170Y0128630D03*
X0143200Y0131420D03*
X0136060Y0112970D03*
X0135409Y0134369D03*
X0138362Y0134452D03*
X0135320Y0127470D03*
X0104020Y0134750D03*
X0104130Y0134070D03*
X0095970Y0134810D03*
X0094190Y0135470D03*
X0108600Y0138970D03*
X0093230Y0129430D03*
X0113030Y0133770D03*
X0108120Y0133020D03*
X0113570Y0134660D03*
X0136780Y0124980D03*
X0136390Y0123950D03*
X0132570Y0125750D03*
X0133870Y0125860D03*
X0137000Y0125530D03*
X0140710Y0136160D03*
X0142890Y0136360D03*
X0144580Y0134880D03*
X0143220Y0132550D03*
X0141030Y0132860D03*
X0109710Y0097150D03*
X0154380Y0133980D03*
X0154120Y0141020D03*
X0141730Y0133410D03*
X0140920Y0129400D03*
X0135760Y0137900D03*
X0140830Y0134610D03*
X0139440Y0136280D03*
X0138660Y0137890D03*
X0140880Y0139560D03*
X0115280Y0133080D03*
X0116620Y0136020D03*
X0092700Y0131750D03*
X0142840Y0113810D03*
X0140330Y0122480D03*
X0137470Y0122400D03*
X0141860Y0109600D03*
X0145560Y0109350D03*
X0137930Y0109760D03*
X0134830D03*
X0141080Y0113620D03*
X0140690Y0109740D03*
X0135290Y0129200D03*
X0128610Y0124160D03*
X0098300Y0132820D03*
X0095290Y0133080D03*
X0132490Y0132700D03*
X0134890Y0122370D03*
X0100460Y0133440D03*
X0099120Y0135390D03*
X0140710Y0128680D03*
X0145230Y0132860D03*
X0134260Y0124260D03*
X0132480Y0122480D03*
X0107000Y0123270D03*
X0144660Y0124140D03*
X0144680Y0126630D03*
X0123000Y0120800D03*
X0140480Y0133000D03*
X0138360Y0132430D03*
X0100050Y0132540D03*
X0100900Y0135270D03*
X0092790Y0137380D03*
X0109260Y0121350D03*
X0110490Y0123820D03*
X0153650Y0138850D03*
X0120960Y0125490D03*
X0121090Y0126970D03*
X0093510Y0137260D03*
X0094880Y0136970D03*
X0093760Y0132810D03*
X0105340Y0123370D03*
X0130910Y0129000D03*
X0153030Y0138720D03*
X0087860Y0111270D03*
X0137440Y0113400D03*
X0143640Y0122990D03*
X0094410Y0127030D03*
X0099120Y0124610D03*
X0104720Y0133990D03*
X0134710Y0114050D03*
X0144790Y0110590D03*
X0155420Y0137830D03*
X0137820Y0115420D03*
X0134290Y0113320D03*
X0119310Y0120850D03*
X0132490Y0125080D03*
X0107581Y0139571D03*
X0139120Y0126730D03*
X0095050Y0128460D03*
X0099960Y0124580D03*
X0139110Y0127430D03*
X0140150Y0111110D03*
X0139990Y0134430D03*
X0132560Y0131310D03*
X0133260Y0127320D03*
X0143210Y0127210D03*
X0129380Y0120960D03*
M02*
