*
G04 Mass Parameters ***
*
G04 Image ***
*
%INF:\MUSHTAQ PCB\SAJJAD HUSSAIN\DDL\ICCC-PD-24-PCBR0500\DATA LOGGER-69.SPT*%
%ICAS*%
%MOIN*%
%IPPOS*%
%ASAXBY*%
G74*%FSLAN2X34Y34*%
*
G04 Aperture Definitions ***
*
%ADD10C,0.0600*%
%ADD11R,0.0600X0.0600*%
%ADD12R,0.0320X0.0380*%
%ADD13R,0.0500X0.0500*%
%ADD14R,0.0380X0.0320*%
%ADD15R,0.0800X0.0800*%
%ADD16R,0.1400X0.0800*%
%ADD17R,0.2000X0.4000*%
%ADD18R,0.0800X0.1400*%
%ADD19R,0.1500X0.1500*%
%ADD20R,0.0520X0.0500*%
%ADD21C,0.0700*%
%ADD22R,0.0700X0.0700*%
%ADD23R,0.0900X0.1000*%
%ADD24R,0.0750X0.1100*%
%ADD25R,0.0300X0.0600*%
%ADD26C,0.1000*%
%ADD27R,0.1000X0.1000*%
%ADD28R,0.1200X0.0800*%
%ADD29C,0.0900*%
%ADD30C,0.0300*%
%ADD31R,0.0300X0.0300*%
%ADD32O,0.0800X0.1500*%
%ADD33O,0.1500X0.0800*%
%ADD34C,0.1260*%
%ADD35C,0.1200*%
%ADD36R,0.2300X0.1200*%
%ADD37O,0.1500X0.0900*%
%ADD38C,0.0550*%
%ADD39R,0.0900X0.0500*%
%ADD40R,0.0900X0.1200*%
%ADD41R,0.0500X0.0900*%
%ADD42O,0.1000X0.0240*%
%ADD43R,0.1000X0.0240*%
%ADD44O,0.0240X0.1000*%
%ADD45R,0.0240X0.1000*%
%ADD46R,0.1968X0.5905*%
%ADD47R,0.0880X0.0480*%
%ADD48R,0.0450X0.1500*%
%ADD49R,0.4400X0.3500*%
%ADD50O,0.0700X0.0110*%
%ADD51R,0.0700X0.0110*%
%ADD52O,0.0110X0.0700*%
%ADD53R,0.0110X0.0700*%
%ADD54O,0.0650X0.0160*%
%ADD55R,0.0650X0.0160*%
%ADD56R,0.0201X0.1600*%
%ADD57O,0.1000X0.0250*%
%ADD58R,0.1000X0.0250*%
%ADD59R,0.1400X0.0600*%
%ADD60R,0.1200X0.0900*%
%ADD61O,0.0940X0.0250*%
%ADD62R,0.0940X0.0250*%
%ADD63O,0.0500X0.0150*%
%ADD64R,0.0500X0.0150*%
%ADD65R,0.0870X0.0420*%
%ADD66R,0.3250X0.4250*%
%ADD67O,0.0250X0.0940*%
%ADD68R,0.0250X0.0940*%
%ADD69R,0.0500X0.0200*%
%ADD70R,0.0350X0.0150*%
%ADD71R,0.0580X0.0580*%
%ADD72C,0.0250*%
%ADD73C,0.0120*%
%ADD74C,0.0200*%
%ADD75C,0.0300*%
%ADD76C,0.0150*%
%ADD77C,0.0250*%
%ADD78C,0.0400*%
%ADD79C,0.0100*%
%ADD80C,0.0500*%
%ADD81C,0.0400*%
%ADD82C,0.0250*%
%ADD83C,0.0600*%
%ADD84R,0.0600X0.0600*%
%ADD85R,0.0500X0.0500*%
%ADD86R,0.0800X0.0800*%
%ADD87R,0.0380X0.0320*%
%ADD88C,0.0700*%
%ADD89R,0.0700X0.0700*%
%ADD90C,0.1000*%
%ADD91R,0.1000X0.1000*%
%ADD92R,0.0600X0.0800*%
%ADD93C,0.0900*%
%ADD94C,0.0300*%
%ADD95R,0.0300X0.0300*%
%ADD96O,0.0800X0.1500*%
%ADD97O,0.1500X0.0800*%
%ADD98C,0.1260*%
%ADD99C,0.1200*%
%ADD100R,0.0320X0.0380*%
%ADD101O,0.1500X0.0900*%
%ADD102C,0.0550*%
%ADD103R,0.0200X0.0500*%
%ADD104O,0.0250X0.0940*%
%ADD105R,0.0250X0.0940*%
%ADD106O,0.0900X0.0160*%
%ADD107R,0.0900X0.0160*%
%ADD108O,0.0250X0.0860*%
%ADD109R,0.0250X0.0860*%
%ADD110R,0.0580X0.0580*%
%ADD111C,0.0250*%
%ADD112C,0.0060*%
%ADD113C,0.0080*%
%ADD114C,0.0250*%
%ADD115C,0.0400*%
%ADD116R,0.1400X0.0800*%
%ADD117R,0.2000X0.4000*%
%ADD118R,0.0800X0.1400*%
%ADD119R,0.1500X0.1500*%
%ADD120R,0.0520X0.0500*%
%ADD121C,0.0850*%
%ADD122R,0.0850X0.0850*%
%ADD123R,0.0900X0.1000*%
%ADD124R,0.0750X0.1100*%
%ADD125R,0.0300X0.0600*%
%ADD126R,0.1200X0.1200*%
%ADD127R,0.1200X0.0800*%
%ADD128C,0.0750*%
%ADD129C,0.1100*%
%ADD130C,0.0400*%
%ADD131R,0.0400X0.0400*%
%ADD132O,0.0900X0.1600*%
%ADD133O,0.1600X0.0900*%
%ADD134C,0.1500*%
%ADD135R,0.2300X0.1200*%
%ADD136O,0.1600X0.1000*%
%ADD137R,0.0900X0.0500*%
%ADD138R,0.0900X0.1200*%
%ADD139O,0.1000X0.0240*%
%ADD140R,0.1000X0.0240*%
%ADD141O,0.0240X0.1000*%
%ADD142R,0.0240X0.1000*%
%ADD143R,0.1968X0.5905*%
%ADD144R,0.0880X0.0480*%
%ADD145R,0.0450X0.1500*%
%ADD146R,0.4400X0.3500*%
%ADD147O,0.0700X0.0110*%
%ADD148R,0.0700X0.0110*%
%ADD149O,0.0110X0.0700*%
%ADD150R,0.0110X0.0700*%
%ADD151O,0.0650X0.0160*%
%ADD152R,0.0650X0.0160*%
%ADD153R,0.0201X0.1600*%
%ADD154O,0.1000X0.0250*%
%ADD155R,0.1000X0.0250*%
%ADD156R,0.1400X0.0600*%
%ADD157R,0.0500X0.0900*%
%ADD158R,0.1200X0.0900*%
%ADD159O,0.0940X0.0250*%
%ADD160R,0.0940X0.0250*%
%ADD161O,0.0500X0.0150*%
%ADD162R,0.0500X0.0150*%
%ADD163R,0.0870X0.0420*%
%ADD164R,0.3250X0.4250*%
%ADD165R,0.0500X0.0200*%
%ADD166R,0.0350X0.0150*%
%ADD167C,0.0800*%
%ADD168C,0.0300*%
%ADD169C,0.0500*%
%ADD170C,0.0500*%
%ADD171C,0.0300*%
*
G04 Plot Data ***
*
G54D84*
X0107120Y0138600D03*
X0105820D03*
X0107645Y0116145D03*
X0108945D03*
X0107645Y0118635D03*
X0108945D03*
X0109710Y0099130D03*
Y0097830D03*
X0112335Y0116485D03*
X0111035D03*
X0112335Y0118785D03*
X0111035D03*
X0137050Y0106020D03*
X0135750D03*
X0137050Y0108310D03*
X0135750D03*
X0155795Y0104275D03*
X0154495D03*
G54D85*
X0104400Y0126260D03*
X0103560D03*
X0110350Y0122010D03*
X0109510D03*
X0112130D03*
X0111290D03*
X0109530Y0125690D03*
Y0124850D03*
X0092620Y0118840D03*
X0093460D03*
X0092890Y0134220D03*
X0093730D03*
X0093960Y0104760D03*
Y0105600D03*
X0093800Y0129430D03*
Y0130270D03*
Y0131210D03*
Y0132050D03*
X0093760Y0138750D03*
Y0137910D03*
X0093740Y0140680D03*
Y0139840D03*
X0096300Y0128540D03*
X0097140D03*
X0096250Y0136320D03*
X0097090D03*
X0096250Y0137200D03*
X0097090D03*
X0098780Y0130270D03*
X0099620D03*
X0098770Y0138760D03*
X0099610D03*
X0099815Y0103625D03*
X0098975D03*
X0104550Y0112230D03*
Y0113070D03*
X0111230Y0137520D03*
X0110390D03*
X0113660Y0129770D03*
X0114500D03*
X0114510Y0130780D03*
X0113670D03*
X0113660Y0131780D03*
X0114500D03*
X0113660Y0132780D03*
X0114500D03*
X0114410Y0136210D03*
X0113570D03*
X0114400Y0137220D03*
X0113560D03*
X0114390Y0138340D03*
X0113550D03*
X0122160Y0110980D03*
Y0110140D03*
X0121540Y0129850D03*
X0122380D03*
X0122370Y0130810D03*
X0121530D03*
X0121550Y0131770D03*
X0122390D03*
X0122380Y0132760D03*
X0121540D03*
X0122370Y0136410D03*
X0121530D03*
X0122370Y0137430D03*
X0121530D03*
X0122360Y0138470D03*
X0121520D03*
X0122360Y0139460D03*
X0121520D03*
X0122890Y0105200D03*
Y0104360D03*
X0123310Y0111030D03*
Y0110190D03*
X0123890Y0105200D03*
Y0104360D03*
X0124890Y0105200D03*
Y0104360D03*
X0124500Y0111000D03*
Y0110160D03*
X0125890Y0105210D03*
Y0104370D03*
X0125700Y0110160D03*
Y0111000D03*
X0126890Y0105220D03*
Y0104380D03*
Y0110980D03*
Y0110140D03*
X0143560Y0108830D03*
X0142720D03*
X0142890Y0137860D03*
Y0137020D03*
X0146250Y0135190D03*
X0145410D03*
X0150140Y0110070D03*
X0149300D03*
Y0111010D03*
X0150140D03*
X0101970Y0132530D03*
X0101130D03*
X0109510Y0123010D03*
Y0123850D03*
X0110610Y0124850D03*
Y0125690D03*
X0106280Y0139570D03*
X0107120D03*
X0105890Y0130520D03*
Y0129680D03*
X0102640Y0130510D03*
Y0129670D03*
X0092700Y0130270D03*
Y0131110D03*
X0092790Y0137920D03*
Y0138760D03*
X0094410Y0127620D03*
Y0128460D03*
X0094190Y0136130D03*
Y0136970D03*
X0096300Y0127610D03*
X0097140D03*
X0095290Y0132190D03*
X0096130D03*
X0098975Y0104635D03*
X0099815D03*
X0098975Y0105645D03*
X0099815D03*
X0099120Y0125200D03*
X0099960D03*
X0099620Y0131340D03*
X0100460D03*
X0100430Y0137190D03*
X0099590D03*
X0098860Y0140850D03*
Y0140010D03*
X0100130Y0119960D03*
X0100970D03*
X0101130Y0133450D03*
X0101970D03*
X0101990Y0136110D03*
Y0135270D03*
X0104540Y0123710D03*
Y0122870D03*
X0102880Y0136830D03*
X0103720D03*
X0107500Y0133020D03*
X0106660D03*
X0108105Y0117285D03*
X0108945D03*
X0108520Y0121530D03*
X0107680D03*
X0110770Y0098290D03*
Y0099130D03*
X0111495Y0117545D03*
X0112335D03*
X0113570Y0135180D03*
X0114410D03*
X0113660Y0133770D03*
X0114500D03*
X0119320Y0119140D03*
X0120160D03*
X0122380Y0133760D03*
X0121540D03*
X0122360Y0135400D03*
X0121520D03*
X0130270Y0124290D03*
X0129430D03*
X0130270Y0126750D03*
X0129430D03*
X0130270Y0127790D03*
X0129430D03*
X0132830Y0137060D03*
X0131990D03*
X0135230D03*
Y0137900D03*
X0136210Y0107160D03*
X0137050D03*
X0137970Y0137050D03*
Y0137890D03*
X0154925Y0103085D03*
X0155765D03*
G54D86*
X0090760Y0136040D03*
X0089760D03*
X0088760D03*
X0089790Y0104760D03*
X0090790D03*
X0091790D03*
X0102540Y0115520D03*
X0103540D03*
X0104540D03*
X0142730Y0104270D03*
Y0105270D03*
Y0106270D03*
X0126885Y0121205D03*
Y0119885D03*
X0131345Y0121115D03*
Y0119795D03*
X0136710Y0137350D03*
Y0138670D03*
X0140500Y0137300D03*
Y0138620D03*
X0150080Y0120000D03*
Y0118680D03*
X0151126Y0121884D03*
Y0123204D03*
G54D87*
X0090560Y0121720D03*
Y0122280D03*
X0122160Y0112520D03*
Y0111960D03*
X0123310Y0112590D03*
Y0112030D03*
X0123030Y0123770D03*
Y0124330D03*
X0124490Y0112570D03*
Y0112010D03*
X0123890Y0123770D03*
Y0124330D03*
X0124770Y0123770D03*
Y0124330D03*
X0125700Y0112550D03*
Y0111990D03*
X0125630Y0123770D03*
Y0124330D03*
X0126890Y0112590D03*
Y0112030D03*
X0131056Y0139800D03*
Y0140360D03*
X0135950Y0118970D03*
Y0118410D03*
X0136110Y0121600D03*
Y0121040D03*
X0136830Y0117260D03*
Y0116700D03*
X0137475Y0118980D03*
Y0118420D03*
X0138250Y0117210D03*
Y0116650D03*
X0139000Y0118980D03*
Y0118420D03*
X0138260Y0121660D03*
Y0121100D03*
X0139540Y0121660D03*
Y0121100D03*
X0140460Y0120120D03*
Y0119560D03*
X0141240Y0121650D03*
Y0121090D03*
X0142010Y0120120D03*
Y0119560D03*
X0143550Y0120120D03*
Y0119560D03*
X0142780Y0121650D03*
Y0121090D03*
X0144340Y0111150D03*
Y0110590D03*
X0151980Y0133700D03*
Y0133140D03*
X0153200Y0133700D03*
Y0133140D03*
X0156110Y0132720D03*
Y0133280D03*
X0149800Y0123760D03*
Y0123200D03*
X0151450Y0120000D03*
Y0119440D03*
G54D88*
X0160600Y0142580D03*
X0162600D03*
G54D89*
X0145110Y0117150D03*
G54D100*
X0086720Y0111270D03*
X0087280D03*
X0119880Y0120100D03*
X0119320D03*
X0120960Y0123900D03*
X0120400D03*
X0120960Y0124860D03*
X0120400D03*
X0121090Y0127400D03*
X0120530D03*
X0121090Y0128330D03*
X0120530D03*
X0129790Y0129750D03*
X0130350D03*
X0144030Y0140570D03*
X0143470D03*
X0146050Y0124200D03*
X0146610D03*
X0147770Y0125490D03*
X0148330D03*
X0145370Y0126120D03*
X0145930D03*
X0147800Y0126970D03*
X0148360D03*
X0145390Y0127810D03*
X0145950D03*
X0147800Y0128640D03*
X0148360D03*
X0146200Y0129950D03*
X0145640D03*
X0148420Y0130990D03*
X0147860D03*
X0146200Y0131650D03*
X0145640D03*
X0148420Y0132750D03*
X0147860D03*
X0146200Y0133550D03*
X0145640D03*
X0150460Y0138600D03*
X0149900D03*
X0150450Y0139460D03*
X0149890D03*
X0150090Y0141050D03*
X0149530D03*
X0160630Y0140910D03*
X0161190D03*
X0162580Y0140880D03*
X0163140D03*
G54D104*
X0100965Y0123655D03*
X0100465D03*
X0099965D03*
Y0121115D03*
X0100465D03*
X0100965D03*
X0101465D03*
G54D105*
Y0123655D03*
G54D116*
X0105150Y0140530D03*
X0100600D03*
G54D117*
X0096080Y0115570D03*
Y0109690D03*
G54D118*
X0096360Y0098500D03*
Y0103050D03*
G54D119*
X0093470Y0122580D03*
Y0120580D03*
G54D120*
X0146250Y0136250D03*
X0145410D03*
G54D121*
X0160880Y0130180D03*
X0159880D03*
X0158880D03*
X0157880D03*
X0156880D03*
X0155150Y0106440D03*
X0148140Y0108550D03*
G54D123*
X0091660Y0120880D03*
Y0122580D03*
X0142740Y0102100D03*
Y0100400D03*
G54D124*
X0102680Y0120350D03*
Y0123330D03*
G54D125*
Y0121550D03*
Y0124530D03*
G54D127*
X0156100Y0100820D03*
Y0099020D03*
G54D128*
X0145110Y0116150D03*
Y0115150D03*
Y0114150D03*
Y0113150D03*
Y0112150D03*
X0153610Y0113150D03*
Y0114150D03*
Y0115150D03*
Y0116150D03*
X0159210Y0114160D03*
Y0115160D03*
Y0116160D03*
Y0113160D03*
G54D129*
X0160210Y0112160D03*
Y0117160D03*
G54D130*
X0129620Y0139786D03*
Y0139195D03*
Y0138605D03*
Y0138014D03*
Y0137424D03*
G54D131*
Y0140376D03*
G54D135*
X0090910Y0097090D03*
Y0101590D03*
G54D137*
X0108945Y0111905D03*
Y0114995D03*
X0112335Y0112335D03*
Y0115425D03*
X0124630Y0097570D03*
Y0100660D03*
X0139260Y0105220D03*
Y0108310D03*
X0154325Y0099025D03*
Y0102115D03*
G54D138*
X0108945Y0113445D03*
X0112335Y0113875D03*
X0124630Y0099110D03*
X0139260Y0106760D03*
X0154325Y0100565D03*
G54D139*
X0156770Y0135940D03*
Y0136260D03*
Y0136580D03*
Y0136900D03*
Y0137220D03*
Y0137540D03*
Y0137860D03*
Y0138180D03*
Y0138820D03*
Y0139140D03*
X0151770D03*
Y0138820D03*
Y0138500D03*
Y0138180D03*
Y0137860D03*
Y0137540D03*
Y0136900D03*
Y0136580D03*
Y0136260D03*
Y0135940D03*
G54D140*
X0156770Y0138500D03*
X0151770Y0137220D03*
G54D141*
X0152990Y0134990D03*
X0153310D03*
X0153630D03*
X0153950D03*
X0154270D03*
X0154590D03*
X0154910D03*
X0155230D03*
X0155870D03*
Y0139990D03*
X0155550D03*
X0155230D03*
X0154910D03*
X0154590D03*
X0154270D03*
X0153950D03*
X0153310D03*
X0152990D03*
X0152670D03*
G54D142*
Y0134990D03*
X0155550D03*
X0153630Y0139990D03*
G54D143*
X0155334Y0121450D03*
G54D144*
X0152756Y0122334D03*
Y0121434D03*
Y0120534D03*
G54D145*
X0104550Y0109280D03*
X0102550D03*
X0103550D03*
X0148340Y0104200D03*
X0146340D03*
X0147340D03*
G54D146*
X0103640Y0104480D03*
X0147430Y0099400D03*
G54D147*
X0143972Y0124276D03*
Y0124473D03*
Y0124669D03*
Y0124866D03*
Y0125063D03*
Y0125260D03*
Y0125457D03*
Y0125851D03*
Y0126047D03*
Y0126244D03*
Y0126441D03*
Y0126638D03*
Y0126835D03*
Y0127032D03*
Y0127228D03*
Y0127425D03*
Y0127819D03*
Y0128016D03*
Y0128213D03*
Y0128410D03*
Y0128606D03*
Y0128803D03*
Y0129000D03*
Y0129197D03*
Y0129394D03*
Y0129788D03*
Y0129984D03*
Y0130181D03*
Y0130378D03*
Y0130575D03*
Y0130772D03*
Y0130969D03*
Y0131166D03*
Y0131362D03*
Y0131756D03*
Y0131953D03*
Y0132150D03*
Y0132347D03*
Y0132544D03*
Y0132740D03*
Y0132937D03*
Y0133134D03*
Y0133331D03*
Y0133725D03*
Y0133922D03*
Y0134118D03*
Y0134315D03*
X0131767D03*
Y0134118D03*
Y0133922D03*
Y0133528D03*
Y0133331D03*
Y0133134D03*
Y0132937D03*
Y0132740D03*
Y0132544D03*
Y0132347D03*
Y0132150D03*
Y0131953D03*
Y0131559D03*
Y0131362D03*
Y0131166D03*
Y0130969D03*
Y0130772D03*
Y0130575D03*
Y0130378D03*
Y0130181D03*
Y0129984D03*
Y0129591D03*
Y0129394D03*
Y0129197D03*
Y0129000D03*
Y0128803D03*
Y0128606D03*
Y0128410D03*
Y0128213D03*
Y0128016D03*
Y0127622D03*
Y0127425D03*
Y0127228D03*
Y0127032D03*
Y0126835D03*
Y0126638D03*
Y0126441D03*
Y0126244D03*
Y0126047D03*
Y0125654D03*
Y0125457D03*
Y0125260D03*
Y0125063D03*
Y0124866D03*
Y0124669D03*
Y0124473D03*
Y0124276D03*
G54D148*
X0143972Y0125654D03*
Y0127622D03*
Y0129591D03*
Y0131559D03*
Y0133528D03*
X0131767Y0133725D03*
Y0131756D03*
Y0129788D03*
Y0127819D03*
Y0125851D03*
G54D149*
X0133047Y0123193D03*
X0133244D03*
X0133440D03*
X0133637D03*
X0133834D03*
X0134031D03*
X0134228D03*
X0134425D03*
X0134818D03*
X0135015D03*
X0135212D03*
X0135409D03*
X0135606D03*
X0135803D03*
X0136000D03*
X0136196D03*
X0136393D03*
X0136787D03*
X0136984D03*
X0137181D03*
X0137377D03*
X0137574D03*
X0137771D03*
X0137968D03*
X0138165D03*
X0138362D03*
X0138755D03*
X0138952D03*
X0139149D03*
X0139346D03*
X0139543D03*
X0139740D03*
X0139937D03*
X0140133D03*
X0140330D03*
X0140724D03*
X0140921D03*
X0141118D03*
X0141315D03*
X0141511D03*
X0141708D03*
X0141905D03*
X0142102D03*
X0142299D03*
X0142693D03*
X0142889D03*
Y0135398D03*
X0142693D03*
X0142496D03*
X0142299D03*
X0142102D03*
X0141708D03*
X0141511D03*
X0141315D03*
X0141118D03*
X0140921D03*
X0140724D03*
X0140527D03*
X0140330D03*
X0140133D03*
X0139740D03*
X0139543D03*
X0139346D03*
X0139149D03*
X0138952D03*
X0138755D03*
X0138559D03*
X0138362D03*
X0138165D03*
X0137771D03*
X0137574D03*
X0137377D03*
X0137181D03*
X0136984D03*
X0136787D03*
X0136590D03*
X0136393D03*
X0136196D03*
X0135803D03*
X0135606D03*
X0135409D03*
X0135212D03*
X0135015D03*
X0134818D03*
X0134622D03*
X0134425D03*
X0134228D03*
X0133834D03*
X0133637D03*
X0133440D03*
X0133244D03*
X0133047D03*
X0132850D03*
G54D150*
Y0123193D03*
X0134622D03*
X0136590D03*
X0138559D03*
X0140527D03*
X0142496D03*
X0141905Y0135398D03*
X0139937D03*
X0137968D03*
X0136000D03*
X0134031D03*
G54D151*
X0128195Y0120965D03*
Y0120715D03*
Y0120465D03*
X0130145D03*
Y0120715D03*
Y0120965D03*
Y0121215D03*
G54D152*
X0128195D03*
G54D153*
X0125000Y0122140D03*
X0124500D03*
X0124000D03*
X0123500D03*
X0123000D03*
X0122500D03*
X0122000D03*
X0121500D03*
X0121000D03*
Y0118550D03*
X0121500D03*
X0122000D03*
X0122500D03*
X0123000D03*
X0123500D03*
X0124000D03*
X0124500D03*
X0125000D03*
G54D154*
X0116120Y0132940D03*
Y0132440D03*
Y0131940D03*
Y0131440D03*
Y0130940D03*
Y0130440D03*
Y0129940D03*
X0120140D03*
Y0130440D03*
Y0130940D03*
Y0131440D03*
Y0131940D03*
Y0132440D03*
Y0132940D03*
Y0133440D03*
X0119900Y0136020D03*
Y0136520D03*
Y0137020D03*
Y0137520D03*
Y0138020D03*
Y0138520D03*
Y0139020D03*
X0115880D03*
Y0138520D03*
Y0138020D03*
Y0137520D03*
Y0137020D03*
Y0136520D03*
Y0136020D03*
Y0135520D03*
G54D155*
X0116120Y0133440D03*
X0119900Y0135520D03*
G54D156*
X0114710Y0102180D03*
Y0109180D03*
Y0108180D03*
X0107830Y0102170D03*
Y0109170D03*
Y0108170D03*
G54D157*
X0100450Y0112840D03*
X0103540D03*
X0114890Y0099130D03*
X0111800D03*
G54D158*
X0101990Y0112840D03*
X0113350Y0099130D03*
G54D159*
X0095070Y0130770D03*
Y0130270D03*
Y0129770D03*
X0097610D03*
Y0130270D03*
Y0130770D03*
Y0131270D03*
X0095050Y0139260D03*
Y0138760D03*
Y0138260D03*
X0097590D03*
Y0138760D03*
Y0139260D03*
Y0139760D03*
X0108035Y0122875D03*
Y0123375D03*
Y0123875D03*
X0106075D03*
Y0123375D03*
Y0122875D03*
Y0122375D03*
G54D160*
X0095070Y0131270D03*
X0095050Y0139760D03*
X0108035Y0122375D03*
G54D161*
X0103240Y0135010D03*
Y0134750D03*
Y0134490D03*
Y0134230D03*
Y0133970D03*
Y0133710D03*
Y0133450D03*
X0105510Y0133440D03*
Y0133700D03*
Y0133960D03*
Y0134220D03*
Y0134480D03*
Y0134740D03*
Y0135000D03*
Y0135260D03*
G54D162*
X0103240Y0135270D03*
G54D163*
X0100280Y0099840D03*
Y0100520D03*
Y0099160D03*
Y0098480D03*
Y0097800D03*
G54D164*
X0104900Y0099110D03*
G54D165*
X0104805Y0129680D03*
Y0130050D03*
Y0130420D03*
X0103685Y0130410D03*
Y0130040D03*
Y0129670D03*
G54D166*
X0108068Y0139831D03*
Y0139571D03*
Y0139311D03*
Y0139051D03*
X0109960Y0139050D03*
Y0139310D03*
Y0139570D03*
Y0139830D03*
G54D167*
X0124880Y0129650D03*
Y0126650D03*
X0127880D03*
Y0129650D03*
Y0132650D03*
M02*
