*
G04 Mass Parameters ***
*
G04 Image ***
*
%INF:\MUSHTAQ PCB\SAJJAD HUSSAIN\DDL\ICCC-PD-24-PCBR0500\DATA LOGGER-68.SST*%
%ICAS*%
%MOIN*%
%IPPOS*%
%ASAXBY*%
G74*%FSLAN2X34Y34*%
*
G04 Aperture Definitions ***
*
%ADD10C,0.0600*%
%ADD11R,0.0600X0.0600*%
%ADD12R,0.0320X0.0380*%
%ADD13R,0.0500X0.0500*%
%ADD14R,0.0380X0.0320*%
%ADD15R,0.0800X0.0800*%
%ADD16R,0.1400X0.0800*%
%ADD17R,0.2000X0.4000*%
%ADD18R,0.0800X0.1400*%
%ADD19R,0.1500X0.1500*%
%ADD20R,0.0520X0.0500*%
%ADD21C,0.0700*%
%ADD22R,0.0700X0.0700*%
%ADD23R,0.0900X0.1000*%
%ADD24R,0.0750X0.1100*%
%ADD25R,0.0300X0.0600*%
%ADD26C,0.1000*%
%ADD27R,0.1000X0.1000*%
%ADD28R,0.1200X0.0800*%
%ADD29C,0.0900*%
%ADD30C,0.0300*%
%ADD31R,0.0300X0.0300*%
%ADD32O,0.0800X0.1500*%
%ADD33O,0.1500X0.0800*%
%ADD34C,0.1260*%
%ADD35C,0.1200*%
%ADD36R,0.2300X0.1200*%
%ADD37O,0.1500X0.0900*%
%ADD38C,0.0550*%
%ADD39R,0.0900X0.0500*%
%ADD40R,0.0900X0.1200*%
%ADD41R,0.0500X0.0900*%
%ADD42O,0.1000X0.0240*%
%ADD43R,0.1000X0.0240*%
%ADD44O,0.0240X0.1000*%
%ADD45R,0.0240X0.1000*%
%ADD46R,0.1968X0.5905*%
%ADD47R,0.0880X0.0480*%
%ADD48R,0.0450X0.1500*%
%ADD49R,0.4400X0.3500*%
%ADD50O,0.0700X0.0110*%
%ADD51R,0.0700X0.0110*%
%ADD52O,0.0110X0.0700*%
%ADD53R,0.0110X0.0700*%
%ADD54O,0.0650X0.0160*%
%ADD55R,0.0650X0.0160*%
%ADD56R,0.0201X0.1600*%
%ADD57O,0.1000X0.0250*%
%ADD58R,0.1000X0.0250*%
%ADD59R,0.1400X0.0600*%
%ADD60R,0.1200X0.0900*%
%ADD61O,0.0940X0.0250*%
%ADD62R,0.0940X0.0250*%
%ADD63O,0.0500X0.0150*%
%ADD64R,0.0500X0.0150*%
%ADD65R,0.0870X0.0420*%
%ADD66R,0.3250X0.4250*%
%ADD67O,0.0250X0.0940*%
%ADD68R,0.0250X0.0940*%
%ADD69R,0.0500X0.0200*%
%ADD70R,0.0350X0.0150*%
%ADD71R,0.0580X0.0580*%
%ADD72C,0.0250*%
%ADD73C,0.0120*%
%ADD74C,0.0200*%
%ADD75C,0.0300*%
%ADD76C,0.0500*%
%ADD77C,0.0250*%
%ADD78C,0.0150*%
%ADD79C,0.0100*%
%ADD80C,0.0500*%
%ADD81C,0.0500*%
%ADD82C,0.0600*%
%ADD83R,0.0600X0.0600*%
%ADD84R,0.0500X0.0500*%
%ADD85R,0.0800X0.0800*%
%ADD86R,0.0380X0.0320*%
%ADD87C,0.0700*%
%ADD88R,0.0700X0.0700*%
%ADD89C,0.1000*%
%ADD90R,0.1000X0.1000*%
%ADD91R,0.0600X0.0800*%
%ADD92C,0.0900*%
%ADD93C,0.0300*%
%ADD94R,0.0300X0.0300*%
%ADD95O,0.0800X0.1500*%
%ADD96O,0.1500X0.0800*%
%ADD97C,0.1260*%
%ADD98C,0.1200*%
%ADD99R,0.0320X0.0380*%
%ADD100O,0.1500X0.0900*%
%ADD101C,0.0550*%
%ADD102R,0.0200X0.0500*%
%ADD103O,0.0250X0.0940*%
%ADD104R,0.0250X0.0940*%
%ADD105O,0.0900X0.0160*%
%ADD106R,0.0900X0.0160*%
%ADD107O,0.0250X0.0860*%
%ADD108R,0.0250X0.0860*%
%ADD109R,0.0580X0.0580*%
%ADD110C,0.0250*%
%ADD111C,0.0250*%
%ADD112C,0.0060*%
%ADD113C,0.0080*%
%ADD114C,0.0500*%
%ADD115C,0.0250*%
%ADD116R,0.1400X0.0800*%
%ADD117R,0.2000X0.4000*%
%ADD118R,0.0800X0.1400*%
%ADD119R,0.1500X0.1500*%
%ADD120R,0.0520X0.0500*%
%ADD121C,0.0850*%
%ADD122R,0.0850X0.0850*%
%ADD123R,0.0900X0.1000*%
%ADD124R,0.0750X0.1100*%
%ADD125R,0.0300X0.0600*%
%ADD126R,0.1200X0.1200*%
%ADD127R,0.1200X0.0800*%
%ADD128C,0.0750*%
%ADD129C,0.1100*%
%ADD130C,0.0400*%
%ADD131R,0.0400X0.0400*%
%ADD132O,0.0900X0.1600*%
%ADD133O,0.1600X0.0900*%
%ADD134C,0.1500*%
%ADD135R,0.2300X0.1200*%
%ADD136O,0.1600X0.1000*%
%ADD137R,0.0900X0.0500*%
%ADD138R,0.0900X0.1200*%
%ADD139O,0.1000X0.0240*%
%ADD140R,0.1000X0.0240*%
%ADD141O,0.0240X0.1000*%
%ADD142R,0.0240X0.1000*%
%ADD143R,0.1968X0.5905*%
%ADD144R,0.0880X0.0480*%
%ADD145R,0.0450X0.1500*%
%ADD146R,0.4400X0.3500*%
%ADD147O,0.0700X0.0110*%
%ADD148R,0.0700X0.0110*%
%ADD149O,0.0110X0.0700*%
%ADD150R,0.0110X0.0700*%
%ADD151O,0.0650X0.0160*%
%ADD152R,0.0650X0.0160*%
%ADD153R,0.0201X0.1600*%
%ADD154O,0.1000X0.0250*%
%ADD155R,0.1000X0.0250*%
%ADD156R,0.1400X0.0600*%
%ADD157R,0.0500X0.0900*%
%ADD158R,0.1200X0.0900*%
%ADD159O,0.0940X0.0250*%
%ADD160R,0.0940X0.0250*%
%ADD161O,0.0500X0.0150*%
%ADD162R,0.0500X0.0150*%
%ADD163R,0.0870X0.0420*%
%ADD164R,0.3250X0.4250*%
%ADD165R,0.0500X0.0200*%
%ADD166R,0.0350X0.0150*%
%ADD167C,0.0800*%
%ADD168C,0.0600*%
%ADD169C,0.0300*%
%ADD170C,0.0600*%
%ADD171C,0.0300*%
%ADD172C,0.0050*%
%ADD173C,0.0040*%
%ADD174C,0.0010*%
*
G04 Plot Data ***
*
G54D74*
G01X0139350Y0097641D02*
X0138905D01*
X0142148Y0097843D02*
Y0097399D01*
X0142370Y0097621D02*
X0141925D01*
G54D79*
G01X0163153Y0101908D02*
Y0102075D01*
Y0101992D02*
X0163653D01*
X0163570Y0102075D01*
X0163653Y0102400D02*
X0163237D01*
X0163153Y0102442D01*
X0163403Y0102567D01*
X0163487D02*
X0163403D01*
X0163153Y0102692D01*
X0163237Y0102733D01*
X0163653D01*
X0163570Y0102975D02*
X0163653Y0103017D01*
Y0103267D01*
X0163570Y0103308D01*
X0163487D01*
X0163403Y0103267D01*
Y0103017D01*
X0163320Y0102975D01*
X0163237D01*
X0163153Y0103017D01*
Y0103267D01*
X0163237Y0103308D01*
X0158758Y0108580D02*
X0158425D01*
X0158592Y0108913D01*
X0158675D01*
Y0108413D01*
X0157892Y0108580D02*
Y0108497D01*
X0157933Y0108413D01*
X0158100D01*
X0158142Y0108497D01*
Y0108913D01*
X0158183D02*
X0158017D01*
X0128737Y0099138D02*
X0128403D01*
X0128737Y0099472D01*
Y0099555D01*
X0128695Y0099638D01*
X0128445D01*
X0128403Y0099555D01*
X0128037Y0099388D02*
X0128162Y0099138D01*
X0127828Y0099388D02*
X0128078D01*
X0128162Y0099472D01*
Y0099555D01*
X0128078Y0099638D01*
X0127828D01*
Y0099138D01*
X0127587Y0098972D02*
X0127253D01*
X0127012Y0099305D02*
X0126678D01*
X0126845Y0099638D01*
X0126928D01*
Y0099138D01*
X0126437D02*
X0126270D01*
X0126353D02*
Y0099638D01*
X0126270Y0099555D01*
X0125778Y0099305D02*
X0125695D01*
X0125945Y0099138D02*
X0125778Y0099305D01*
X0125945Y0099472D01*
X0125695Y0099138D02*
Y0099638D01*
X0125412Y0099138D02*
X0125078D01*
X0125412Y0099472D01*
Y0099555D01*
X0125370Y0099638D01*
X0125120D01*
X0125078Y0099555D01*
X0124837Y0099388D02*
X0124503D01*
X0123928Y0099222D02*
X0123970Y0099138D01*
X0124220D01*
X0124262Y0099222D01*
Y0099388D01*
X0124178Y0099472D01*
X0123928D01*
Y0099638D01*
X0124262D01*
X0123687Y0099138D02*
X0123520D01*
X0123603D02*
Y0099638D01*
X0123520Y0099555D01*
X0123195Y0099388D02*
X0122862D01*
X0122453D02*
X0122620D01*
Y0099222D01*
X0122578Y0099138D01*
X0122328D01*
X0122287Y0099222D01*
Y0099555D01*
X0122328Y0099638D01*
X0122578D01*
X0122620Y0099555D01*
X0121753Y0099138D02*
Y0099638D01*
X0121712Y0099138D02*
X0121962D01*
X0122045Y0099305D01*
Y0099472D01*
X0121962Y0099638D01*
X0121712D01*
X0121470Y0099555D02*
X0121428Y0099638D01*
X0121178D01*
X0121137Y0099555D01*
Y0099472D01*
X0121178Y0099388D01*
X0121428D01*
X0121470Y0099305D01*
Y0099222D01*
X0121428Y0099138D01*
X0121178D01*
X0121137Y0099222D01*
X0120812Y0099388D02*
X0120562D01*
X0120895Y0099138D02*
X0120562D01*
Y0099638D01*
X0120895D01*
X0143480Y0096895D02*
Y0096784D01*
X0143369Y0096562D01*
X0143257Y0096784D01*
Y0096895D01*
X0143030Y0096562D02*
X0142807D01*
X0143030Y0096784D01*
Y0096839D01*
X0143002Y0096895D01*
X0142835D01*
X0142807Y0096839D01*
X0142524Y0096562D02*
X0142580D01*
Y0096617D01*
X0142524D01*
Y0096562D01*
X0142074D02*
X0142241Y0096895D01*
X0142019D01*
X0141791Y0096728D02*
X0141569D01*
X0141230Y0096673D02*
X0141174D01*
X0141341Y0096562D02*
X0141230Y0096673D01*
X0141341Y0096784D01*
X0141174Y0096562D02*
Y0096895D01*
X0140919Y0096784D02*
X0140752D01*
X0140724Y0096728D01*
Y0096617D01*
X0140752Y0096562D01*
X0140919D01*
X0140330Y0096784D02*
X0140441D01*
X0140469Y0096728D01*
Y0096617D01*
X0140497Y0096562D01*
X0140302D01*
X0140274Y0096617D01*
X0140302Y0096673D01*
X0140469D01*
X0139824Y0096728D02*
X0139991D01*
X0140047Y0096784D01*
Y0096839D01*
X0139991Y0096895D01*
X0139824D01*
Y0096562D01*
X0139597Y0096728D02*
X0139374D01*
X0139119Y0096784D02*
X0138952D01*
X0139147Y0096562D02*
X0139035D01*
X0139008Y0096617D01*
Y0096895D01*
X0138558Y0096784D02*
X0138669D01*
X0138697Y0096728D01*
Y0096617D01*
X0138724Y0096562D01*
X0138530D01*
X0138502Y0096617D01*
X0138530Y0096673D01*
X0138697D01*
X0138080Y0096562D02*
Y0096895D01*
X0138052Y0096562D02*
X0138219D01*
X0138274Y0096617D01*
Y0096673D01*
X0138247Y0096728D01*
X0138080D02*
X0138247D01*
X0138274Y0096784D01*
Y0096839D01*
X0138219Y0096895D01*
X0138052D01*
X0146992Y0136155D02*
Y0136488D01*
X0146825Y0136322D02*
X0147158D01*
X0146992Y0136155D02*
Y0136488D01*
X0146825Y0136322D02*
X0147158D01*
X0134536Y0139366D02*
Y0138116D01*
X0131786D01*
Y0139366D01*
X0134536D01*
Y0139116D01*
Y0139366D02*
X0134286D01*
X0149240Y0135430D02*
X0147990D01*
Y0138180D01*
X0149240D01*
Y0135430D01*
X0148990D01*
X0149240D02*
Y0135680D01*
X0128795Y0121365D02*
X0129545D01*
Y0121615D02*
X0128745D01*
Y0120015D01*
X0129595D01*
Y0121615D01*
X0129545D01*
X0143623Y0124043D02*
Y0123543D01*
X0143123D01*
X0143050Y0135190D02*
X0143650D01*
Y0134590D01*
X0132623Y0123243D02*
Y0123543D01*
X0132373D01*
X0132123Y0123793D01*
Y0124043D01*
X0132623Y0135043D02*
X0132123D01*
Y0134543D01*
X0128520Y0140876D02*
Y0136876D01*
X0130220D01*
Y0140876D01*
X0128520D01*
X0152470Y0139290D02*
Y0136140D01*
X0152670Y0135910D01*
X0152690Y0135890D01*
X0152860Y0135690D01*
X0152890Y0135660D01*
X0156070D01*
Y0139290D01*
X0152470D01*
X0140310Y0098880D02*
Y0099380D01*
X0138310D01*
Y0103880D01*
X0140310D01*
Y0104380D01*
X0136310D01*
Y0098880D01*
X0140310D01*
G54D112*
G01X0110680Y0121125D02*
X0110624Y0121180D01*
X0110596Y0121236D01*
Y0121347D01*
X0110624Y0121403D01*
X0110680Y0121458D01*
X0110735D01*
X0110791Y0121403D01*
X0110819Y0121347D01*
Y0121236D01*
X0110791Y0121180D01*
X0110735Y0121125D01*
X0110680D01*
X0110449Y0121236D02*
X0110226D01*
X0110338Y0121458D01*
X0110393D01*
Y0121125D01*
X0110079D02*
X0109968D01*
X0110023D02*
Y0121458D01*
X0109968Y0121403D01*
X0109681Y0121292D02*
X0109764Y0121125D01*
X0109542Y0121292D02*
X0109709D01*
X0109764Y0121347D01*
Y0121403D01*
X0109709Y0121458D01*
X0109542D01*
Y0121125D01*
X0110347Y0123959D02*
X0110014Y0124125D01*
Y0123903D01*
X0110347Y0123616D02*
X0110292Y0123561D01*
X0110236Y0123533D01*
X0110125D01*
X0110069Y0123561D01*
X0110014Y0123616D01*
Y0123672D01*
X0110069Y0123728D01*
X0110125Y0123755D01*
X0110236D01*
X0110292Y0123728D01*
X0110347Y0123672D01*
Y0123616D01*
Y0123385D02*
Y0123163D01*
X0110125Y0123385D01*
X0110069D01*
X0110014Y0123358D01*
Y0123191D01*
X0110069Y0123163D01*
X0110292Y0123015D02*
X0110347Y0122988D01*
Y0122821D01*
X0110292Y0122793D01*
X0110069D01*
X0110014Y0122821D01*
Y0122988D01*
X0110069Y0123015D01*
X0111341Y0125741D02*
Y0125908D01*
X0111396Y0125935D01*
X0111452D01*
X0111507Y0125908D01*
Y0125741D01*
X0111452Y0125713D01*
X0111396D01*
X0111174Y0125824D01*
X0111507Y0125426D02*
X0111452Y0125371D01*
X0111396Y0125343D01*
X0111285D01*
X0111229Y0125371D01*
X0111174Y0125426D01*
Y0125482D01*
X0111229Y0125538D01*
X0111285Y0125565D01*
X0111396D01*
X0111452Y0125538D01*
X0111507Y0125482D01*
Y0125426D01*
Y0125195D02*
Y0124973D01*
X0111285Y0125195D01*
X0111229D01*
X0111174Y0125168D01*
Y0125001D01*
X0111229Y0124973D01*
X0111452Y0124825D02*
X0111507Y0124798D01*
Y0124631D01*
X0111452Y0124603D01*
X0111229D01*
X0111174Y0124631D01*
Y0124798D01*
X0111229Y0124825D01*
X0106503Y0126065D02*
X0106392D01*
X0106448D02*
Y0126398D01*
X0106392Y0126343D01*
X0106189Y0126176D02*
X0105966D01*
X0106078Y0126398D01*
X0106133D01*
Y0126065D01*
X0105819D02*
X0105708D01*
X0105763D02*
Y0126398D01*
X0105708Y0126343D01*
X0105421Y0126232D02*
X0105504Y0126065D01*
X0105282Y0126232D02*
X0105449D01*
X0105504Y0126287D01*
Y0126343D01*
X0105449Y0126398D01*
X0105282D01*
Y0126065D01*
X0112661Y0121342D02*
X0112494D01*
X0112466Y0121397D01*
Y0121453D01*
X0112494Y0121508D01*
X0112661D01*
X0112689Y0121453D01*
Y0121397D01*
X0112578Y0121175D01*
X0112096Y0121230D02*
X0112152Y0121175D01*
X0112263D01*
X0112319Y0121230D01*
Y0121286D01*
X0112208Y0121397D01*
X0112319Y0121508D01*
X0112096D01*
X0111949Y0121175D02*
X0111838D01*
X0111893D02*
Y0121508D01*
X0111838Y0121453D01*
X0111551Y0121342D02*
X0111634Y0121175D01*
X0111412Y0121342D02*
X0111579D01*
X0111634Y0121397D01*
Y0121453D01*
X0111579Y0121508D01*
X0111412D01*
Y0121175D01*
X0108849Y0124768D02*
X0108905Y0124740D01*
X0108960D01*
X0109016Y0124768D01*
Y0124935D01*
X0108960Y0124962D01*
X0108905D01*
X0108849Y0124935D01*
Y0124768D01*
X0108794Y0124740D01*
X0108738D01*
X0108683Y0124768D01*
Y0124935D01*
X0108738Y0124962D01*
X0108794D01*
X0108849Y0124935D01*
X0108738Y0125332D02*
X0108683Y0125277D01*
Y0125166D01*
X0108738Y0125110D01*
X0108794D01*
X0108905Y0125221D01*
X0109016Y0125110D01*
Y0125332D01*
X0108683Y0125480D02*
Y0125591D01*
Y0125536D02*
X0109016D01*
X0108960Y0125591D01*
X0108849Y0125878D02*
X0108683Y0125794D01*
X0108849Y0126017D02*
Y0125850D01*
X0108905Y0125794D01*
X0108960D01*
X0109016Y0125850D01*
Y0126017D01*
X0108683D01*
X0149822Y0109321D02*
X0149794Y0109265D01*
Y0109209D01*
X0149822Y0109154D01*
X0149989D01*
X0150017Y0109209D01*
Y0109265D01*
X0149989Y0109321D01*
X0149822D01*
X0149794Y0109376D01*
Y0109432D01*
X0149822Y0109487D01*
X0149989D01*
X0150017Y0109432D01*
Y0109376D01*
X0149989Y0109321D01*
X0150248D02*
X0150164Y0109487D01*
X0150387Y0109321D02*
X0150220D01*
X0150164Y0109265D01*
Y0109209D01*
X0150220Y0109154D01*
X0150387D01*
Y0109487D01*
X0149479Y0111593D02*
X0149645Y0111926D01*
X0149423D01*
X0149192Y0111759D02*
X0149275Y0111593D01*
X0149053Y0111759D02*
X0149220D01*
X0149275Y0111815D01*
Y0111870D01*
X0149220Y0111926D01*
X0149053D01*
Y0111593D01*
X0159825Y0140733D02*
X0159603D01*
X0159825Y0140955D01*
Y0141010D01*
X0159798Y0141066D01*
X0159631D01*
X0159603Y0141010D01*
X0159455Y0140788D02*
X0159428Y0140733D01*
X0159261D01*
X0159233Y0140788D01*
Y0141010D01*
X0159261Y0141066D01*
X0159428D01*
X0159455Y0141010D01*
X0163430Y0140043D02*
X0163319D01*
X0163374D02*
Y0140376D01*
X0163319Y0140320D01*
X0163115Y0140098D02*
X0163088Y0140043D01*
X0162921D01*
X0162893Y0140098D01*
Y0140320D01*
X0162921Y0140376D01*
X0163088D01*
X0163115Y0140320D01*
X0122467Y0127352D02*
X0122300D01*
X0122272Y0127407D01*
Y0127463D01*
X0122300Y0127518D01*
X0122467D01*
X0122494Y0127463D01*
Y0127407D01*
X0122383Y0127185D01*
X0121930Y0127352D02*
X0122097D01*
X0122124Y0127296D01*
Y0127240D01*
X0122097Y0127185D01*
X0121930D01*
X0121902Y0127240D01*
Y0127296D01*
X0122013Y0127518D01*
X0121671Y0127352D02*
X0121754Y0127185D01*
X0121532Y0127352D02*
X0121699D01*
X0121754Y0127407D01*
Y0127463D01*
X0121699Y0127518D01*
X0121532D01*
Y0127185D01*
X0122467Y0128212D02*
X0122494Y0128267D01*
Y0128323D01*
X0122467Y0128378D01*
X0122300D01*
X0122272Y0128323D01*
Y0128267D01*
X0122300Y0128212D01*
X0122467D01*
X0122494Y0128156D01*
Y0128100D01*
X0122467Y0128045D01*
X0122300D01*
X0122272Y0128100D01*
Y0128156D01*
X0122300Y0128212D01*
X0121930D02*
X0122097D01*
X0122124Y0128156D01*
Y0128100D01*
X0122097Y0128045D01*
X0121930D01*
X0121902Y0128100D01*
Y0128156D01*
X0122013Y0128378D01*
X0121671Y0128212D02*
X0121754Y0128045D01*
X0121532Y0128212D02*
X0121699D01*
X0121754Y0128267D01*
Y0128323D01*
X0121699Y0128378D01*
X0121532D01*
Y0128045D01*
X0125606Y0124765D02*
Y0124988D01*
X0125828Y0124877D01*
Y0124821D01*
X0125495D01*
X0125606Y0125135D02*
Y0125358D01*
X0125828Y0125247D01*
Y0125191D01*
X0125495D01*
X0125662Y0125589D02*
X0125495Y0125505D01*
X0125662Y0125728D02*
Y0125561D01*
X0125717Y0125505D01*
X0125773D01*
X0125828Y0125561D01*
Y0125728D01*
X0125495D01*
X0124742Y0124793D02*
X0124797Y0124765D01*
X0124853D01*
X0124908Y0124793D01*
Y0124960D01*
X0124853Y0124988D01*
X0124797D01*
X0124742Y0124960D01*
Y0124793D01*
X0124686Y0124765D01*
X0124630D01*
X0124575Y0124793D01*
Y0124960D01*
X0124630Y0124988D01*
X0124686D01*
X0124742Y0124960D01*
X0124686Y0125135D02*
Y0125358D01*
X0124908Y0125247D01*
Y0125191D01*
X0124575D01*
X0124742Y0125589D02*
X0124575Y0125505D01*
X0124742Y0125728D02*
Y0125561D01*
X0124797Y0125505D01*
X0124853D01*
X0124908Y0125561D01*
Y0125728D01*
X0124575D01*
X0123942Y0124763D02*
Y0124930D01*
X0123997Y0124958D01*
X0124053D01*
X0124108Y0124930D01*
Y0124763D01*
X0124053Y0124735D01*
X0123997D01*
X0123775Y0124847D01*
X0123886Y0125105D02*
Y0125328D01*
X0124108Y0125217D01*
Y0125161D01*
X0123775D01*
X0123942Y0125559D02*
X0123775Y0125475D01*
X0123942Y0125698D02*
Y0125531D01*
X0123997Y0125475D01*
X0124053D01*
X0124108Y0125531D01*
Y0125698D01*
X0123775D01*
X0123016Y0124775D02*
Y0124998D01*
X0123238Y0124887D01*
Y0124831D01*
X0122905D01*
X0122960Y0125368D02*
X0122905Y0125340D01*
Y0125173D01*
X0122960Y0125145D01*
X0123072D01*
X0123127Y0125201D01*
Y0125368D01*
X0123238D01*
Y0125145D01*
X0123072Y0125599D02*
X0122905Y0125515D01*
X0123072Y0125738D02*
Y0125571D01*
X0123127Y0125515D01*
X0123183D01*
X0123238Y0125571D01*
Y0125738D01*
X0122905D01*
X0105075Y0112391D02*
Y0112502D01*
Y0112447D02*
X0105408D01*
X0105353Y0112502D01*
X0105242Y0112733D02*
X0105297Y0112705D01*
X0105353D01*
X0105408Y0112733D01*
Y0112900D01*
X0105353Y0112928D01*
X0105297D01*
X0105242Y0112900D01*
Y0112733D01*
X0105186Y0112705D01*
X0105130D01*
X0105075Y0112733D01*
Y0112900D01*
X0105130Y0112928D01*
X0105186D01*
X0105242Y0112900D01*
Y0113159D02*
X0105075Y0113075D01*
X0105242Y0113298D02*
Y0113131D01*
X0105297Y0113075D01*
X0105353D01*
X0105408Y0113131D01*
Y0113298D01*
X0105075D01*
X0147549Y0130156D02*
X0147326D01*
X0147438Y0130378D01*
X0147493D01*
Y0130045D01*
X0147179D02*
X0147068D01*
X0147123D02*
Y0130378D01*
X0147068Y0130323D01*
X0146781Y0130212D02*
X0146864Y0130045D01*
X0146642Y0130212D02*
X0146809D01*
X0146864Y0130267D01*
Y0130323D01*
X0146809Y0130378D01*
X0146642D01*
Y0130045D01*
X0093203Y0136203D02*
X0093258Y0136259D01*
X0093314Y0136287D01*
X0093425D01*
X0093480Y0136259D01*
X0093536Y0136203D01*
Y0136148D01*
X0093480Y0136092D01*
X0093425Y0136064D01*
X0093314D01*
X0093258Y0136092D01*
X0093203Y0136148D01*
Y0136203D01*
X0093369Y0136462D02*
Y0136629D01*
X0093425Y0136657D01*
X0093480D01*
X0093536Y0136629D01*
Y0136462D01*
X0093480Y0136434D01*
X0093425D01*
X0093203Y0136546D01*
X0093369Y0136888D02*
X0093203Y0136804D01*
X0093369Y0137027D02*
Y0136860D01*
X0093425Y0136804D01*
X0093480D01*
X0093536Y0136860D01*
Y0137027D01*
X0093203D01*
X0130226Y0130083D02*
X0130171Y0130138D01*
X0130143Y0130194D01*
Y0130305D01*
X0130171Y0130360D01*
X0130226Y0130416D01*
X0130282D01*
X0130338Y0130360D01*
X0130365Y0130305D01*
Y0130194D01*
X0130338Y0130138D01*
X0130282Y0130083D01*
X0130226D01*
X0129995Y0130194D02*
X0129773D01*
X0129884Y0130416D01*
X0129940D01*
Y0130083D01*
X0129542Y0130249D02*
X0129625Y0130083D01*
X0129403Y0130249D02*
X0129570D01*
X0129625Y0130305D01*
Y0130360D01*
X0129570Y0130416D01*
X0129403D01*
Y0130083D01*
X0124683Y0102844D02*
Y0103067D01*
X0124905Y0102844D01*
X0124960D01*
X0125016Y0102872D01*
Y0103039D01*
X0124960Y0103067D01*
X0124738Y0103437D02*
X0124683Y0103409D01*
Y0103242D01*
X0124738Y0103214D01*
X0124849D01*
X0124905Y0103270D01*
Y0103437D01*
X0125016D01*
Y0103214D01*
X0124849Y0103668D02*
X0124683Y0103584D01*
X0124849Y0103807D02*
Y0103640D01*
X0124905Y0103584D01*
X0124960D01*
X0125016Y0103640D01*
Y0103807D01*
X0124683D01*
X0124263Y0113213D02*
X0124318Y0113269D01*
X0124374Y0113297D01*
X0124485D01*
X0124540Y0113269D01*
X0124596Y0113213D01*
Y0113158D01*
X0124540Y0113102D01*
X0124485Y0113074D01*
X0124374D01*
X0124318Y0113102D01*
X0124263Y0113158D01*
Y0113213D01*
X0124318Y0113667D02*
X0124263Y0113639D01*
Y0113472D01*
X0124318Y0113444D01*
X0124429D01*
X0124485Y0113500D01*
Y0113667D01*
X0124596D01*
Y0113444D01*
X0124429Y0113898D02*
X0124263Y0113814D01*
X0124429Y0114037D02*
Y0113870D01*
X0124485Y0113814D01*
X0124540D01*
X0124596Y0113870D01*
Y0114037D01*
X0124263D01*
X0140573Y0118163D02*
X0140628Y0118219D01*
X0140684Y0118247D01*
X0140795D01*
X0140850Y0118219D01*
X0140906Y0118163D01*
Y0118108D01*
X0140850Y0118052D01*
X0140795Y0118024D01*
X0140684D01*
X0140628Y0118052D01*
X0140573Y0118108D01*
Y0118163D01*
X0140628Y0118617D02*
X0140573Y0118561D01*
Y0118450D01*
X0140628Y0118394D01*
X0140684D01*
X0140795Y0118506D01*
X0140906Y0118394D01*
Y0118617D01*
X0140739Y0118848D02*
X0140573Y0118764D01*
X0140739Y0118987D02*
Y0118820D01*
X0140795Y0118764D01*
X0140850D01*
X0140906Y0118820D01*
Y0118987D01*
X0140573D01*
X0093395Y0127945D02*
Y0128168D01*
X0093617Y0127945D01*
X0093673D01*
X0093728Y0127973D01*
Y0128140D01*
X0093673Y0128168D01*
X0093562Y0128343D02*
Y0128510D01*
X0093617Y0128538D01*
X0093673D01*
X0093728Y0128510D01*
Y0128343D01*
X0093673Y0128315D01*
X0093617D01*
X0093395Y0128427D01*
X0093562Y0128769D02*
X0093395Y0128685D01*
X0093562Y0128908D02*
Y0128741D01*
X0093617Y0128685D01*
X0093673D01*
X0093728Y0128741D01*
Y0128908D01*
X0093395D01*
X0137363Y0119927D02*
X0137308Y0119899D01*
Y0119732D01*
X0137363Y0119704D01*
X0137474D01*
X0137530Y0119760D01*
Y0119927D01*
X0137641D01*
Y0119704D01*
X0137363Y0120297D02*
X0137308Y0120241D01*
Y0120130D01*
X0137363Y0120074D01*
X0137419D01*
X0137530Y0120186D01*
X0137641Y0120074D01*
Y0120297D01*
X0137474Y0120528D02*
X0137308Y0120444D01*
X0137474Y0120667D02*
Y0120500D01*
X0137530Y0120444D01*
X0137585D01*
X0137641Y0120500D01*
Y0120667D01*
X0137308D01*
X0147272Y0125939D02*
X0147300Y0125995D01*
Y0126050D01*
X0147272Y0126106D01*
X0147105D01*
X0147077Y0126050D01*
Y0125995D01*
X0147105Y0125939D01*
X0147272D01*
X0147300Y0125884D01*
Y0125828D01*
X0147272Y0125773D01*
X0147105D01*
X0147077Y0125828D01*
Y0125884D01*
X0147105Y0125939D01*
X0146930Y0125773D02*
X0146819D01*
X0146874D02*
Y0126106D01*
X0146819Y0126050D01*
X0146532Y0125939D02*
X0146615Y0125773D01*
X0146393Y0125939D02*
X0146560D01*
X0146615Y0125995D01*
Y0126050D01*
X0146560Y0126106D01*
X0146393D01*
Y0125773D01*
X0122139Y0113219D02*
Y0113052D01*
X0122084Y0113024D01*
X0122028D01*
X0121973Y0113052D01*
Y0113219D01*
X0122028Y0113247D01*
X0122084D01*
X0122306Y0113136D01*
X0122139Y0113589D02*
Y0113422D01*
X0122084Y0113394D01*
X0122028D01*
X0121973Y0113422D01*
Y0113589D01*
X0122028Y0113617D01*
X0122084D01*
X0122306Y0113506D01*
X0122139Y0113848D02*
X0121973Y0113764D01*
X0122139Y0113987D02*
Y0113820D01*
X0122195Y0113764D01*
X0122250D01*
X0122306Y0113820D01*
Y0113987D01*
X0121973D01*
X0147539Y0131735D02*
X0147316D01*
X0147539Y0131957D01*
Y0132013D01*
X0147511Y0132068D01*
X0147344D01*
X0147316Y0132013D01*
X0147169Y0131735D02*
X0147058D01*
X0147113D02*
Y0132068D01*
X0147058Y0132013D01*
X0146771Y0131902D02*
X0146854Y0131735D01*
X0146632Y0131902D02*
X0146799D01*
X0146854Y0131957D01*
Y0132013D01*
X0146799Y0132068D01*
X0146632D01*
Y0131735D01*
X0092945Y0131801D02*
Y0131912D01*
Y0131857D02*
X0093278D01*
X0093223Y0131912D01*
X0093112Y0132143D02*
Y0132310D01*
X0093167Y0132338D01*
X0093223D01*
X0093278Y0132310D01*
Y0132143D01*
X0093223Y0132115D01*
X0093167D01*
X0092945Y0132227D01*
X0093112Y0132569D02*
X0092945Y0132485D01*
X0093112Y0132708D02*
Y0132541D01*
X0093167Y0132485D01*
X0093223D01*
X0093278Y0132541D01*
Y0132708D01*
X0092945D01*
X0143304Y0120994D02*
Y0121217D01*
X0143526Y0121106D01*
Y0121050D01*
X0143193D01*
Y0121364D02*
Y0121587D01*
X0143415Y0121364D01*
X0143470D01*
X0143526Y0121392D01*
Y0121559D01*
X0143470Y0121587D01*
X0143359Y0121818D02*
X0143193Y0121734D01*
X0143359Y0121957D02*
Y0121790D01*
X0143415Y0121734D01*
X0143470D01*
X0143526Y0121790D01*
Y0121957D01*
X0143193D01*
X0149312Y0121470D02*
X0149046D01*
X0149179Y0121337D02*
Y0121603D01*
X0135363Y0121101D02*
X0135696Y0120934D01*
Y0121157D01*
X0135418Y0121527D02*
X0135363Y0121471D01*
Y0121360D01*
X0135418Y0121304D01*
X0135474D01*
X0135585Y0121416D01*
X0135696Y0121304D01*
Y0121527D01*
X0135529Y0121758D02*
X0135363Y0121674D01*
X0135529Y0121897D02*
Y0121730D01*
X0135585Y0121674D01*
X0135640D01*
X0135696Y0121730D01*
Y0121897D01*
X0135363D01*
X0131505Y0140961D02*
X0131338D01*
X0131310Y0141016D01*
Y0141072D01*
X0131338Y0141128D01*
X0131505D01*
X0131532Y0141072D01*
Y0141016D01*
X0131421Y0140794D01*
X0130940Y0140850D02*
X0130996Y0140794D01*
X0131107D01*
X0131162Y0140850D01*
Y0140905D01*
X0131051Y0141016D01*
X0131162Y0141128D01*
X0130940D01*
X0130709Y0140961D02*
X0130792Y0140794D01*
X0130570Y0140961D02*
X0130737D01*
X0130792Y0141016D01*
Y0141072D01*
X0130737Y0141128D01*
X0130570D01*
Y0140794D01*
X0125932Y0108971D02*
X0126098D01*
X0126126Y0108915D01*
Y0108860D01*
X0126098Y0108804D01*
X0125932D01*
X0125904Y0108860D01*
Y0108915D01*
X0126015Y0109138D01*
X0125756Y0108915D02*
X0125534D01*
X0125645Y0109138D01*
X0125700D01*
Y0108804D01*
X0125303Y0108971D02*
X0125386Y0108804D01*
X0125164Y0108971D02*
X0125330D01*
X0125386Y0109026D01*
Y0109082D01*
X0125330Y0109138D01*
X0125164D01*
Y0108804D01*
X0123748Y0103087D02*
X0123693Y0103031D01*
Y0102920D01*
X0123748Y0102864D01*
X0123804D01*
X0123915Y0102976D01*
X0124026Y0102864D01*
Y0103087D01*
X0123748Y0103457D02*
X0123693Y0103429D01*
Y0103262D01*
X0123748Y0103234D01*
X0123859D01*
X0123915Y0103290D01*
Y0103457D01*
X0124026D01*
Y0103234D01*
X0123859Y0103688D02*
X0123693Y0103604D01*
X0123859Y0103827D02*
Y0103660D01*
X0123915Y0103604D01*
X0123970D01*
X0124026Y0103660D01*
Y0103827D01*
X0123693D01*
X0138694Y0116634D02*
Y0116857D01*
X0138916Y0116746D01*
Y0116690D01*
X0138583D01*
X0138638Y0117227D02*
X0138583Y0117171D01*
Y0117060D01*
X0138638Y0117004D01*
X0138694D01*
X0138805Y0117116D01*
X0138916Y0117004D01*
Y0117227D01*
X0138749Y0117458D02*
X0138583Y0117374D01*
X0138749Y0117597D02*
Y0117430D01*
X0138805Y0117374D01*
X0138860D01*
X0138916Y0117430D01*
Y0117597D01*
X0138583D01*
X0098459Y0136393D02*
X0098625Y0136726D01*
X0098403D01*
X0098228Y0136559D02*
X0098255Y0136615D01*
Y0136670D01*
X0098228Y0136726D01*
X0098061D01*
X0098033Y0136670D01*
Y0136615D01*
X0098061Y0136559D01*
X0098228D01*
X0098255Y0136504D01*
Y0136448D01*
X0098228Y0136393D01*
X0098061D01*
X0098033Y0136448D01*
Y0136504D01*
X0098061Y0136559D01*
X0097802D02*
X0097885Y0136393D01*
X0097663Y0136559D02*
X0097830D01*
X0097885Y0136615D01*
Y0136670D01*
X0097830Y0136726D01*
X0097663D01*
Y0136393D01*
X0112807Y0130432D02*
X0112834Y0130487D01*
Y0130543D01*
X0112807Y0130598D01*
X0112640D01*
X0112612Y0130543D01*
Y0130487D01*
X0112640Y0130432D01*
X0112807D01*
X0112834Y0130376D01*
Y0130320D01*
X0112807Y0130265D01*
X0112640D01*
X0112612Y0130320D01*
Y0130376D01*
X0112640Y0130432D01*
X0112298Y0130265D02*
X0112464Y0130598D01*
X0112242D01*
X0112011Y0130432D02*
X0112094Y0130265D01*
X0111872Y0130432D02*
X0112039D01*
X0112094Y0130487D01*
Y0130543D01*
X0112039Y0130598D01*
X0111872D01*
Y0130265D01*
X0098411Y0137579D02*
X0098578D01*
X0098605Y0137524D01*
Y0137468D01*
X0098578Y0137413D01*
X0098411D01*
X0098383Y0137468D01*
Y0137524D01*
X0098494Y0137746D01*
X0098208Y0137579D02*
X0098235Y0137635D01*
Y0137690D01*
X0098208Y0137746D01*
X0098041D01*
X0098013Y0137690D01*
Y0137635D01*
X0098041Y0137579D01*
X0098208D01*
X0098235Y0137524D01*
Y0137468D01*
X0098208Y0137413D01*
X0098041D01*
X0098013Y0137468D01*
Y0137524D01*
X0098041Y0137579D01*
X0097782D02*
X0097865Y0137413D01*
X0097643Y0137579D02*
X0097810D01*
X0097865Y0137635D01*
Y0137690D01*
X0097810Y0137746D01*
X0097643D01*
Y0137413D01*
X0126673Y0113150D02*
Y0113261D01*
Y0113206D02*
X0127006D01*
X0126950Y0113261D01*
X0126784Y0113464D02*
Y0113687D01*
X0127006Y0113576D01*
Y0113520D01*
X0126673D01*
X0126839Y0113918D02*
X0126673Y0113834D01*
X0126839Y0114057D02*
Y0113890D01*
X0126895Y0113834D01*
X0126950D01*
X0127006Y0113890D01*
Y0114057D01*
X0126673D01*
X0123817Y0139782D02*
X0123844Y0139837D01*
Y0139893D01*
X0123817Y0139948D01*
X0123650D01*
X0123622Y0139893D01*
Y0139837D01*
X0123650Y0139782D01*
X0123817D01*
X0123844Y0139726D01*
Y0139670D01*
X0123817Y0139615D01*
X0123650D01*
X0123622Y0139670D01*
Y0139726D01*
X0123650Y0139782D01*
X0123252Y0139670D02*
X0123280Y0139615D01*
X0123447D01*
X0123474Y0139670D01*
Y0139782D01*
X0123419Y0139837D01*
X0123252D01*
Y0139948D01*
X0123474D01*
X0123021Y0139782D02*
X0123104Y0139615D01*
X0122882Y0139782D02*
X0123049D01*
X0123104Y0139837D01*
Y0139893D01*
X0123049Y0139948D01*
X0122882D01*
Y0139615D01*
X0148880Y0138882D02*
X0149047D01*
X0149074Y0138826D01*
Y0138770D01*
X0149047Y0138715D01*
X0148880D01*
X0148852Y0138770D01*
Y0138826D01*
X0148963Y0139048D01*
X0148621Y0138882D02*
X0148704Y0138715D01*
X0148482Y0138882D02*
X0148649D01*
X0148704Y0138937D01*
Y0138993D01*
X0148649Y0139048D01*
X0148482D01*
Y0138715D01*
X0149033Y0119781D02*
X0149366Y0119614D01*
Y0119837D01*
X0149088Y0119984D02*
X0149033Y0120012D01*
Y0120179D01*
X0149088Y0120207D01*
X0149310D01*
X0149366Y0120179D01*
Y0120012D01*
X0149310Y0119984D01*
X0152893Y0132094D02*
Y0132317D01*
X0153115Y0132094D01*
X0153170D01*
X0153226Y0132122D01*
Y0132289D01*
X0153170Y0132317D01*
X0153059Y0132548D02*
X0152893Y0132464D01*
X0153059Y0132687D02*
Y0132520D01*
X0153115Y0132464D01*
X0153170D01*
X0153226Y0132520D01*
Y0132687D01*
X0152893D01*
X0122427Y0108803D02*
X0122594Y0109137D01*
X0122371D01*
X0122029Y0108970D02*
X0122196D01*
X0122224Y0108914D01*
Y0108859D01*
X0122196Y0108803D01*
X0122029D01*
X0122001Y0108859D01*
Y0108914D01*
X0122113Y0109137D01*
X0121770Y0108970D02*
X0121854Y0108803D01*
X0121631Y0108970D02*
X0121798D01*
X0121854Y0109025D01*
Y0109081D01*
X0121798Y0109137D01*
X0121631D01*
Y0108803D01*
X0144259Y0139785D02*
X0144148D01*
X0144203D02*
Y0140118D01*
X0144148Y0140063D01*
X0143944Y0139785D02*
X0143722D01*
X0143944Y0140007D01*
Y0140063D01*
X0143917Y0140118D01*
X0143750D01*
X0143722Y0140063D01*
X0143491Y0139952D02*
X0143574Y0139785D01*
X0143352Y0139952D02*
X0143519D01*
X0143574Y0140007D01*
Y0140063D01*
X0143519Y0140118D01*
X0143352D01*
Y0139785D01*
X0143780Y0108052D02*
X0143947D01*
X0143974Y0107996D01*
Y0107940D01*
X0143947Y0107885D01*
X0143780D01*
X0143752Y0107940D01*
Y0107996D01*
X0143863Y0108218D01*
X0143604Y0107885D02*
X0143382D01*
X0143604Y0108107D01*
Y0108163D01*
X0143577Y0108218D01*
X0143410D01*
X0143382Y0108163D01*
X0143151Y0108052D02*
X0143234Y0107885D01*
X0143012Y0108052D02*
X0143179D01*
X0143234Y0108107D01*
Y0108163D01*
X0143179Y0108218D01*
X0143012D01*
Y0107885D01*
X0147400Y0133645D02*
X0147344Y0133700D01*
X0147316Y0133756D01*
Y0133867D01*
X0147344Y0133923D01*
X0147400Y0133978D01*
X0147455D01*
X0147511Y0133923D01*
X0147539Y0133867D01*
Y0133756D01*
X0147511Y0133700D01*
X0147455Y0133645D01*
X0147400D01*
X0147169D02*
X0147058D01*
X0147113D02*
Y0133978D01*
X0147058Y0133923D01*
X0146771Y0133812D02*
X0146854Y0133645D01*
X0146632Y0133812D02*
X0146799D01*
X0146854Y0133867D01*
Y0133923D01*
X0146799Y0133978D01*
X0146632D01*
Y0133645D01*
X0147327Y0135172D02*
X0147160D01*
X0147132Y0135227D01*
Y0135283D01*
X0147160Y0135338D01*
X0147327D01*
X0147354Y0135283D01*
Y0135227D01*
X0147243Y0135005D01*
X0146901Y0135172D02*
X0146984Y0135005D01*
X0146762Y0135172D02*
X0146929D01*
X0146984Y0135227D01*
Y0135283D01*
X0146929Y0135338D01*
X0146762D01*
Y0135005D01*
X0124898Y0108823D02*
X0124787D01*
X0124843D02*
Y0109157D01*
X0124787Y0109101D01*
X0124361Y0108879D02*
X0124389Y0108823D01*
X0124556D01*
X0124584Y0108879D01*
Y0108990D01*
X0124528Y0109045D01*
X0124361D01*
Y0109157D01*
X0124584D01*
X0124130Y0108990D02*
X0124214Y0108823D01*
X0123991Y0108990D02*
X0124158D01*
X0124214Y0109045D01*
Y0109101D01*
X0124158Y0109157D01*
X0123991D01*
Y0108823D01*
X0093605Y0134914D02*
X0093383D01*
X0093494Y0135136D01*
X0093550D01*
Y0134803D01*
X0093208Y0134969D02*
X0093041D01*
X0093013Y0135025D01*
Y0135080D01*
X0093041Y0135136D01*
X0093208D01*
X0093235Y0135080D01*
Y0135025D01*
X0093124Y0134803D01*
X0092782Y0134969D02*
X0092865Y0134803D01*
X0092643Y0134969D02*
X0092810D01*
X0092865Y0135025D01*
Y0135080D01*
X0092810Y0135136D01*
X0092643D01*
Y0134803D01*
X0112462Y0135800D02*
X0112490Y0135745D01*
X0112657D01*
X0112684Y0135800D01*
Y0135912D01*
X0112629Y0135967D01*
X0112462D01*
Y0136078D01*
X0112684D01*
X0112148Y0135745D02*
X0112314Y0136078D01*
X0112092D01*
X0111861Y0135912D02*
X0111944Y0135745D01*
X0111722Y0135912D02*
X0111889D01*
X0111944Y0135967D01*
Y0136023D01*
X0111889Y0136078D01*
X0111722D01*
Y0135745D01*
X0123705Y0137515D02*
X0123650Y0137570D01*
X0123622Y0137626D01*
Y0137737D01*
X0123650Y0137793D01*
X0123705Y0137848D01*
X0123761D01*
X0123817Y0137793D01*
X0123844Y0137737D01*
Y0137626D01*
X0123817Y0137570D01*
X0123761Y0137515D01*
X0123705D01*
X0123280Y0137682D02*
X0123447D01*
X0123474Y0137626D01*
Y0137570D01*
X0123447Y0137515D01*
X0123280D01*
X0123252Y0137570D01*
Y0137626D01*
X0123363Y0137848D01*
X0123021Y0137682D02*
X0123104Y0137515D01*
X0122882Y0137682D02*
X0123049D01*
X0123104Y0137737D01*
Y0137793D01*
X0123049Y0137848D01*
X0122882D01*
Y0137515D01*
X0148882Y0139670D02*
X0148910Y0139615D01*
X0149077D01*
X0149104Y0139670D01*
Y0139782D01*
X0149049Y0139837D01*
X0148882D01*
Y0139948D01*
X0149104D01*
X0148651Y0139782D02*
X0148734Y0139615D01*
X0148512Y0139782D02*
X0148679D01*
X0148734Y0139837D01*
Y0139893D01*
X0148679Y0139948D01*
X0148512D01*
Y0139615D01*
X0147115Y0127529D02*
X0147282D01*
X0147310Y0127474D01*
Y0127418D01*
X0147282Y0127363D01*
X0147115D01*
X0147087Y0127418D01*
Y0127474D01*
X0147199Y0127696D01*
X0146940Y0127363D02*
X0146829D01*
X0146884D02*
Y0127696D01*
X0146829Y0127640D01*
X0146542Y0127529D02*
X0146625Y0127363D01*
X0146403Y0127529D02*
X0146570D01*
X0146625Y0127585D01*
Y0127640D01*
X0146570Y0127696D01*
X0146403D01*
Y0127363D01*
X0127494Y0108763D02*
X0127271D01*
X0127494Y0108985D01*
Y0109041D01*
X0127466Y0109097D01*
X0127299D01*
X0127271Y0109041D01*
X0127124Y0108874D02*
X0126901D01*
X0127013Y0109097D01*
X0127068D01*
Y0108763D01*
X0126670Y0108930D02*
X0126754Y0108763D01*
X0126531Y0108930D02*
X0126698D01*
X0126754Y0108985D01*
Y0109041D01*
X0126698Y0109097D01*
X0126531D01*
Y0108763D01*
X0152008Y0132317D02*
X0151953Y0132261D01*
Y0132150D01*
X0152008Y0132094D01*
X0152064D01*
X0152175Y0132206D01*
X0152286Y0132094D01*
Y0132317D01*
X0152119Y0132548D02*
X0151953Y0132464D01*
X0152119Y0132687D02*
Y0132520D01*
X0152175Y0132464D01*
X0152230D01*
X0152286Y0132520D01*
Y0132687D01*
X0151953D01*
X0123847Y0138722D02*
X0123680D01*
X0123652Y0138777D01*
Y0138833D01*
X0123680Y0138888D01*
X0123847D01*
X0123874Y0138833D01*
Y0138777D01*
X0123763Y0138555D01*
X0123282Y0138610D02*
X0123310Y0138555D01*
X0123477D01*
X0123504Y0138610D01*
Y0138722D01*
X0123449Y0138777D01*
X0123282D01*
Y0138888D01*
X0123504D01*
X0123051Y0138722D02*
X0123134Y0138555D01*
X0122912Y0138722D02*
X0123079D01*
X0123134Y0138777D01*
Y0138833D01*
X0123079Y0138888D01*
X0122912D01*
Y0138555D01*
X0122673Y0103051D02*
X0123006Y0102884D01*
Y0103107D01*
X0122728Y0103477D02*
X0122673Y0103449D01*
Y0103282D01*
X0122728Y0103254D01*
X0122839D01*
X0122895Y0103310D01*
Y0103477D01*
X0123006D01*
Y0103254D01*
X0122839Y0103708D02*
X0122673Y0103624D01*
X0122839Y0103847D02*
Y0103680D01*
X0122895Y0103624D01*
X0122950D01*
X0123006Y0103680D01*
Y0103847D01*
X0122673D01*
X0123168Y0113287D02*
X0123113Y0113259D01*
Y0113092D01*
X0123168Y0113064D01*
X0123279D01*
X0123335Y0113120D01*
Y0113287D01*
X0123446D01*
Y0113064D01*
X0123168Y0113657D02*
X0123113Y0113629D01*
Y0113462D01*
X0123168Y0113434D01*
X0123279D01*
X0123335Y0113490D01*
Y0113657D01*
X0123446D01*
Y0113434D01*
X0123279Y0113888D02*
X0123113Y0113804D01*
X0123279Y0114027D02*
Y0113860D01*
X0123335Y0113804D01*
X0123390D01*
X0123446Y0113860D01*
Y0114027D01*
X0123113D01*
X0149606Y0130970D02*
X0149662Y0130915D01*
X0149773D01*
X0149829Y0130970D01*
Y0131026D01*
X0149718Y0131137D01*
X0149829Y0131248D01*
X0149606D01*
X0149459Y0130915D02*
X0149348D01*
X0149403D02*
Y0131248D01*
X0149348Y0131193D01*
X0149061Y0131082D02*
X0149144Y0130915D01*
X0148922Y0131082D02*
X0149089D01*
X0149144Y0131137D01*
Y0131193D01*
X0149089Y0131248D01*
X0148922D01*
Y0130915D01*
X0094580Y0104928D02*
X0094525Y0104872D01*
Y0104761D01*
X0094580Y0104705D01*
X0094636D01*
X0094747Y0104817D01*
X0094858Y0104705D01*
Y0104928D01*
X0094692Y0105103D02*
Y0105270D01*
X0094747Y0105298D01*
X0094803D01*
X0094858Y0105270D01*
Y0105103D01*
X0094803Y0105075D01*
X0094747D01*
X0094525Y0105187D01*
X0094692Y0105529D02*
X0094525Y0105445D01*
X0094692Y0105668D02*
Y0105501D01*
X0094747Y0105445D01*
X0094803D01*
X0094858Y0105501D01*
Y0105668D01*
X0094525D01*
X0141189Y0119712D02*
Y0119879D01*
X0141245Y0119907D01*
X0141300D01*
X0141356Y0119879D01*
Y0119712D01*
X0141300Y0119684D01*
X0141245D01*
X0141023Y0119796D01*
Y0120054D02*
Y0120277D01*
X0141245Y0120054D01*
X0141300D01*
X0141356Y0120082D01*
Y0120249D01*
X0141300Y0120277D01*
X0141189Y0120508D02*
X0141023Y0120424D01*
X0141189Y0120647D02*
Y0120480D01*
X0141245Y0120424D01*
X0141300D01*
X0141356Y0120480D01*
Y0120647D01*
X0141023D01*
X0120624Y0120605D02*
X0120402D01*
X0120624Y0120827D01*
Y0120883D01*
X0120597Y0120938D01*
X0120430D01*
X0120402Y0120883D01*
X0120088Y0120605D02*
X0120254Y0120938D01*
X0120032D01*
X0119801Y0120772D02*
X0119884Y0120605D01*
X0119662Y0120772D02*
X0119829D01*
X0119884Y0120827D01*
Y0120883D01*
X0119829Y0120938D01*
X0119662D01*
Y0120605D01*
X0098628Y0128209D02*
X0098655Y0128265D01*
Y0128320D01*
X0098628Y0128376D01*
X0098461D01*
X0098433Y0128320D01*
Y0128265D01*
X0098461Y0128209D01*
X0098628D01*
X0098655Y0128154D01*
Y0128098D01*
X0098628Y0128043D01*
X0098461D01*
X0098433Y0128098D01*
Y0128154D01*
X0098461Y0128209D01*
X0098258D02*
X0098285Y0128265D01*
Y0128320D01*
X0098258Y0128376D01*
X0098091D01*
X0098063Y0128320D01*
Y0128265D01*
X0098091Y0128209D01*
X0098258D01*
X0098285Y0128154D01*
Y0128098D01*
X0098258Y0128043D01*
X0098091D01*
X0098063Y0128098D01*
Y0128154D01*
X0098091Y0128209D01*
X0097832D02*
X0097915Y0128043D01*
X0097693Y0128209D02*
X0097860D01*
X0097915Y0128265D01*
Y0128320D01*
X0097860Y0128376D01*
X0097693D01*
Y0128043D01*
X0149682Y0125359D02*
X0149515D01*
X0149487Y0125415D01*
Y0125470D01*
X0149515Y0125526D01*
X0149682D01*
X0149710Y0125470D01*
Y0125415D01*
X0149599Y0125193D01*
X0149340D02*
X0149229D01*
X0149284D02*
Y0125526D01*
X0149229Y0125470D01*
X0148942Y0125359D02*
X0149025Y0125193D01*
X0148803Y0125359D02*
X0148970D01*
X0149025Y0125415D01*
Y0125470D01*
X0148970Y0125526D01*
X0148803D01*
Y0125193D01*
X0144048Y0119677D02*
X0143993Y0119649D01*
Y0119482D01*
X0144048Y0119454D01*
X0144159D01*
X0144215Y0119510D01*
Y0119677D01*
X0144326D01*
Y0119454D01*
X0143993Y0119824D02*
Y0120047D01*
X0144215Y0119824D01*
X0144270D01*
X0144326Y0119852D01*
Y0120019D01*
X0144270Y0120047D01*
X0144159Y0120278D02*
X0143993Y0120194D01*
X0144159Y0120417D02*
Y0120250D01*
X0144215Y0120194D01*
X0144270D01*
X0144326Y0120250D01*
Y0120417D01*
X0143993D01*
X0093029Y0139892D02*
Y0140059D01*
X0093085Y0140087D01*
X0093140D01*
X0093196Y0140059D01*
Y0139892D01*
X0093140Y0139864D01*
X0093085D01*
X0092863Y0139976D01*
X0093029Y0140262D02*
X0093085Y0140234D01*
X0093140D01*
X0093196Y0140262D01*
Y0140429D01*
X0093140Y0140457D01*
X0093085D01*
X0093029Y0140429D01*
Y0140262D01*
X0092974Y0140234D01*
X0092918D01*
X0092863Y0140262D01*
Y0140429D01*
X0092918Y0140457D01*
X0092974D01*
X0093029Y0140429D01*
Y0140688D02*
X0092863Y0140604D01*
X0093029Y0140827D02*
Y0140660D01*
X0093085Y0140604D01*
X0093140D01*
X0093196Y0140660D01*
Y0140827D01*
X0092863D01*
X0150034Y0120714D02*
X0150300D01*
X0150167Y0120847D02*
Y0120580D01*
X0151008Y0124245D02*
X0151174D01*
X0151202Y0124189D01*
Y0124134D01*
X0151174Y0124078D01*
X0151008D01*
X0150980Y0124134D01*
Y0124189D01*
X0151091Y0124411D01*
X0150832Y0124134D02*
X0150804Y0124078D01*
X0150638D01*
X0150610Y0124134D01*
Y0124356D01*
X0150638Y0124411D01*
X0150804D01*
X0150832Y0124356D01*
X0120041Y0118169D02*
X0120208D01*
X0120235Y0118114D01*
Y0118058D01*
X0120208Y0118003D01*
X0120041D01*
X0120013Y0118058D01*
Y0118114D01*
X0120124Y0118336D01*
X0119865Y0118003D02*
X0119643D01*
X0119865Y0118225D01*
Y0118280D01*
X0119838Y0118336D01*
X0119671D01*
X0119643Y0118280D01*
X0119495Y0118058D02*
X0119468Y0118003D01*
X0119301D01*
X0119273Y0118058D01*
Y0118280D01*
X0119301Y0118336D01*
X0119468D01*
X0119495Y0118280D01*
X0113278Y0129079D02*
X0113111D01*
X0113083Y0129135D01*
Y0129190D01*
X0113111Y0129246D01*
X0113278D01*
X0113305Y0129190D01*
Y0129135D01*
X0113194Y0128913D01*
X0112769D02*
X0112935Y0129246D01*
X0112713D01*
X0112482Y0129079D02*
X0112565Y0128913D01*
X0112343Y0129079D02*
X0112510D01*
X0112565Y0129135D01*
Y0129190D01*
X0112510Y0129246D01*
X0112343D01*
Y0128913D01*
X0123633Y0129768D02*
X0123661Y0129713D01*
X0123828D01*
X0123855Y0129768D01*
Y0129879D01*
X0123800Y0129935D01*
X0123633D01*
Y0130046D01*
X0123855D01*
X0123291Y0129879D02*
X0123458D01*
X0123485Y0129824D01*
Y0129768D01*
X0123458Y0129713D01*
X0123291D01*
X0123263Y0129768D01*
Y0129824D01*
X0123374Y0130046D01*
X0123032Y0129879D02*
X0123115Y0129713D01*
X0122893Y0129879D02*
X0123060D01*
X0123115Y0129935D01*
Y0129990D01*
X0123060Y0130046D01*
X0122893D01*
Y0129713D01*
X0149693Y0132855D02*
X0149582D01*
X0149638D02*
Y0133188D01*
X0149582Y0133133D01*
X0149379Y0132855D02*
X0149268D01*
X0149323D02*
Y0133188D01*
X0149268Y0133133D01*
X0148981Y0133022D02*
X0149064Y0132855D01*
X0148842Y0133022D02*
X0149009D01*
X0149064Y0133077D01*
Y0133133D01*
X0149009Y0133188D01*
X0148842D01*
Y0132855D01*
X0125733Y0103011D02*
X0126066Y0102844D01*
Y0103067D01*
X0125844Y0103214D02*
Y0103437D01*
X0126066Y0103326D01*
Y0103270D01*
X0125733D01*
X0125899Y0103668D02*
X0125733Y0103584D01*
X0125899Y0103807D02*
Y0103640D01*
X0125955Y0103584D01*
X0126010D01*
X0126066Y0103640D01*
Y0103807D01*
X0125733D01*
X0123819Y0136505D02*
X0123708D01*
X0123763D02*
Y0136838D01*
X0123708Y0136783D01*
X0123310Y0136672D02*
X0123477D01*
X0123504Y0136616D01*
Y0136560D01*
X0123477Y0136505D01*
X0123310D01*
X0123282Y0136560D01*
Y0136616D01*
X0123393Y0136838D01*
X0123051Y0136672D02*
X0123134Y0136505D01*
X0122912Y0136672D02*
X0123079D01*
X0123134Y0136727D01*
Y0136783D01*
X0123079Y0136838D01*
X0122912D01*
Y0136505D01*
X0099763Y0129438D02*
X0099791Y0129383D01*
X0099958D01*
X0099985Y0129438D01*
Y0129549D01*
X0099930Y0129605D01*
X0099763D01*
Y0129716D01*
X0099985D01*
X0099588Y0129549D02*
X0099615Y0129605D01*
Y0129660D01*
X0099588Y0129716D01*
X0099421D01*
X0099393Y0129660D01*
Y0129605D01*
X0099421Y0129549D01*
X0099588D01*
X0099615Y0129494D01*
Y0129438D01*
X0099588Y0129383D01*
X0099421D01*
X0099393Y0129438D01*
Y0129494D01*
X0099421Y0129549D01*
X0099162D02*
X0099245Y0129383D01*
X0099023Y0129549D02*
X0099190D01*
X0099245Y0129605D01*
Y0129660D01*
X0099190Y0129716D01*
X0099023D01*
Y0129383D01*
X0136199Y0116799D02*
Y0116632D01*
X0136144Y0116604D01*
X0136088D01*
X0136033Y0116632D01*
Y0116799D01*
X0136088Y0116827D01*
X0136144D01*
X0136366Y0116716D01*
X0136088Y0117197D02*
X0136033Y0117141D01*
Y0117030D01*
X0136088Y0116974D01*
X0136144D01*
X0136255Y0117086D01*
X0136366Y0116974D01*
Y0117197D01*
X0136199Y0117428D02*
X0136033Y0117344D01*
X0136199Y0117567D02*
Y0117400D01*
X0136255Y0117344D01*
X0136310D01*
X0136366Y0117400D01*
Y0117567D01*
X0136033D01*
X0112761Y0132479D02*
X0112928D01*
X0112955Y0132424D01*
Y0132368D01*
X0112928Y0132313D01*
X0112761D01*
X0112733Y0132368D01*
Y0132424D01*
X0112844Y0132646D01*
X0112419Y0132313D02*
X0112585Y0132646D01*
X0112363D01*
X0112132Y0132479D02*
X0112215Y0132313D01*
X0111993Y0132479D02*
X0112160D01*
X0112215Y0132535D01*
Y0132590D01*
X0112160Y0132646D01*
X0111993D01*
Y0132313D01*
X0122225Y0125015D02*
X0122170Y0125070D01*
X0122142Y0125126D01*
Y0125237D01*
X0122170Y0125293D01*
X0122225Y0125348D01*
X0122281D01*
X0122337Y0125293D01*
X0122364Y0125237D01*
Y0125126D01*
X0122337Y0125070D01*
X0122281Y0125015D01*
X0122225D01*
X0121828D02*
X0121994Y0125348D01*
X0121772D01*
X0121541Y0125182D02*
X0121624Y0125015D01*
X0121402Y0125182D02*
X0121569D01*
X0121624Y0125237D01*
Y0125293D01*
X0121569Y0125348D01*
X0121402D01*
Y0125015D01*
X0123894Y0132825D02*
X0123672D01*
X0123894Y0133047D01*
Y0133103D01*
X0123867Y0133158D01*
X0123700D01*
X0123672Y0133103D01*
X0123330Y0132992D02*
X0123497D01*
X0123524Y0132936D01*
Y0132880D01*
X0123497Y0132825D01*
X0123330D01*
X0123302Y0132880D01*
Y0132936D01*
X0123413Y0133158D01*
X0123071Y0132992D02*
X0123154Y0132825D01*
X0122932Y0132992D02*
X0123099D01*
X0123154Y0133047D01*
Y0133103D01*
X0123099Y0133158D01*
X0122932D01*
Y0132825D01*
X0089872Y0121680D02*
Y0121513D01*
X0089816Y0121485D01*
X0089760D01*
X0089705Y0121513D01*
Y0121680D01*
X0089760Y0121708D01*
X0089816D01*
X0090038Y0121597D01*
X0089872Y0121883D02*
Y0122050D01*
X0089927Y0122078D01*
X0089983D01*
X0090038Y0122050D01*
Y0121883D01*
X0089983Y0121855D01*
X0089927D01*
X0089705Y0121967D01*
X0089872Y0122309D02*
X0089705Y0122225D01*
X0089872Y0122448D02*
Y0122281D01*
X0089927Y0122225D01*
X0089983D01*
X0090038Y0122281D01*
Y0122448D01*
X0089705D01*
X0149799Y0122222D02*
X0149855Y0122194D01*
X0149910D01*
X0149966Y0122222D01*
Y0122389D01*
X0149910Y0122417D01*
X0149855D01*
X0149799Y0122389D01*
Y0122222D01*
X0149744Y0122194D01*
X0149688D01*
X0149633Y0122222D01*
Y0122389D01*
X0149688Y0122417D01*
X0149744D01*
X0149799Y0122389D01*
X0149688Y0122564D02*
X0149633Y0122592D01*
Y0122759D01*
X0149688Y0122787D01*
X0149910D01*
X0149966Y0122759D01*
Y0122592D01*
X0149910Y0122564D01*
X0114122Y0138970D02*
X0114178Y0138915D01*
X0114289D01*
X0114344Y0138970D01*
Y0139026D01*
X0114233Y0139137D01*
X0114344Y0139248D01*
X0114122D01*
X0113808Y0138915D02*
X0113974Y0139248D01*
X0113752D01*
X0113521Y0139082D02*
X0113604Y0138915D01*
X0113382Y0139082D02*
X0113549D01*
X0113604Y0139137D01*
Y0139193D01*
X0113549Y0139248D01*
X0113382D01*
Y0138915D01*
X0123683Y0131638D02*
X0123739Y0131583D01*
X0123850D01*
X0123905Y0131638D01*
Y0131694D01*
X0123794Y0131805D01*
X0123905Y0131916D01*
X0123683D01*
X0123341Y0131749D02*
X0123508D01*
X0123535Y0131694D01*
Y0131638D01*
X0123508Y0131583D01*
X0123341D01*
X0123313Y0131638D01*
Y0131694D01*
X0123424Y0131916D01*
X0123082Y0131749D02*
X0123165Y0131583D01*
X0122943Y0131749D02*
X0123110D01*
X0123165Y0131805D01*
Y0131860D01*
X0123110Y0131916D01*
X0122943D01*
Y0131583D01*
X0138233Y0119694D02*
Y0119917D01*
X0138455Y0119694D01*
X0138510D01*
X0138566Y0119722D01*
Y0119889D01*
X0138510Y0119917D01*
X0138288Y0120287D02*
X0138233Y0120231D01*
Y0120120D01*
X0138288Y0120064D01*
X0138344D01*
X0138455Y0120176D01*
X0138566Y0120064D01*
Y0120287D01*
X0138399Y0120518D02*
X0138233Y0120434D01*
X0138399Y0120657D02*
Y0120490D01*
X0138455Y0120434D01*
X0138510D01*
X0138566Y0120490D01*
Y0120657D01*
X0138233D01*
X0125558Y0113267D02*
X0125503Y0113239D01*
Y0113072D01*
X0125558Y0113044D01*
X0125669D01*
X0125725Y0113100D01*
Y0113267D01*
X0125836D01*
Y0113044D01*
X0125614Y0113414D02*
Y0113637D01*
X0125836Y0113526D01*
Y0113470D01*
X0125503D01*
X0125669Y0113868D02*
X0125503Y0113784D01*
X0125669Y0114007D02*
Y0113840D01*
X0125725Y0113784D01*
X0125780D01*
X0125836Y0113840D01*
Y0114007D01*
X0125503D01*
X0128479Y0126565D02*
X0128368D01*
X0128423D02*
Y0126898D01*
X0128368Y0126843D01*
X0128164Y0126565D02*
X0127942D01*
X0128164Y0126787D01*
Y0126843D01*
X0128137Y0126898D01*
X0127970D01*
X0127942Y0126843D01*
X0127794Y0126620D02*
X0127767Y0126565D01*
X0127600D01*
X0127572Y0126620D01*
Y0126843D01*
X0127600Y0126898D01*
X0127767D01*
X0127794Y0126843D01*
X0112794Y0137446D02*
X0112572D01*
X0112683Y0137668D01*
X0112739D01*
Y0137335D01*
X0112258D02*
X0112424Y0137668D01*
X0112202D01*
X0111971Y0137502D02*
X0112054Y0137335D01*
X0111832Y0137502D02*
X0111999D01*
X0112054Y0137557D01*
Y0137613D01*
X0111999Y0137668D01*
X0111832D01*
Y0137335D01*
X0146259Y0136775D02*
X0146148D01*
X0146203D02*
Y0137108D01*
X0146148Y0137053D01*
X0145861Y0136942D02*
X0145944Y0136775D01*
X0145722Y0136942D02*
X0145889D01*
X0145944Y0136997D01*
Y0137053D01*
X0145889Y0137108D01*
X0145722D01*
Y0136775D01*
X0145574Y0136831D02*
X0145546Y0136775D01*
X0145380D01*
X0145352Y0136831D01*
Y0137053D01*
X0145380Y0137108D01*
X0145546D01*
X0145574Y0137053D01*
X0126768Y0103057D02*
X0126713Y0103001D01*
Y0102890D01*
X0126768Y0102834D01*
X0126824D01*
X0126935Y0102946D01*
X0127046Y0102834D01*
Y0103057D01*
X0126824Y0103204D02*
Y0103427D01*
X0127046Y0103316D01*
Y0103260D01*
X0126713D01*
X0126879Y0103658D02*
X0126713Y0103574D01*
X0126879Y0103797D02*
Y0103630D01*
X0126935Y0103574D01*
X0126990D01*
X0127046Y0103630D01*
Y0103797D01*
X0126713D01*
X0151848Y0118527D02*
X0151793Y0118499D01*
Y0118332D01*
X0151848Y0118304D01*
X0151959D01*
X0152015Y0118360D01*
Y0118527D01*
X0152126D01*
Y0118304D01*
X0151848Y0118674D02*
X0151793Y0118702D01*
Y0118869D01*
X0151848Y0118897D01*
X0152070D01*
X0152126Y0118869D01*
Y0118702D01*
X0152070Y0118674D01*
X0139363Y0119710D02*
Y0119821D01*
Y0119766D02*
X0139696D01*
X0139640Y0119821D01*
X0139418Y0120247D02*
X0139363Y0120191D01*
Y0120080D01*
X0139418Y0120024D01*
X0139474D01*
X0139585Y0120136D01*
X0139696Y0120024D01*
Y0120247D01*
X0139529Y0120478D02*
X0139363Y0120394D01*
X0139529Y0120617D02*
Y0120450D01*
X0139585Y0120394D01*
X0139640D01*
X0139696Y0120450D01*
Y0120617D01*
X0139363D01*
X0131567Y0122015D02*
X0131301D01*
X0131434Y0121882D02*
Y0122148D01*
X0132344Y0120673D02*
Y0120840D01*
X0132400Y0120867D01*
X0132455D01*
X0132511Y0120840D01*
Y0120673D01*
X0132455Y0120645D01*
X0132400D01*
X0132178Y0120756D01*
Y0121015D02*
Y0121126D01*
Y0121071D02*
X0132511D01*
X0132455Y0121126D01*
X0132233Y0121329D02*
X0132178Y0121357D01*
Y0121524D01*
X0132233Y0121552D01*
X0132455D01*
X0132511Y0121524D01*
Y0121357D01*
X0132455Y0121329D01*
X0132101Y0136382D02*
X0132129Y0136437D01*
Y0136493D01*
X0132101Y0136548D01*
X0131934D01*
X0131906Y0136493D01*
Y0136437D01*
X0131934Y0136382D01*
X0132101D01*
X0132129Y0136326D01*
Y0136270D01*
X0132101Y0136215D01*
X0131934D01*
X0131906Y0136270D01*
Y0136326D01*
X0131934Y0136382D01*
X0131759Y0136215D02*
X0131648D01*
X0131703D02*
Y0136548D01*
X0131648Y0136493D01*
X0131444Y0136270D02*
X0131417Y0136215D01*
X0131250D01*
X0131222Y0136270D01*
Y0136493D01*
X0131250Y0136548D01*
X0131417D01*
X0131444Y0136493D01*
X0140277Y0136400D02*
X0140544D01*
X0140411Y0136533D02*
Y0136267D01*
X0140282Y0140303D02*
Y0140470D01*
X0140337Y0140498D01*
X0140393D01*
X0140448Y0140470D01*
Y0140303D01*
X0140393Y0140275D01*
X0140337D01*
X0140115Y0140387D01*
X0140170Y0140645D02*
X0140115Y0140673D01*
Y0140840D01*
X0140170Y0140868D01*
X0140393D01*
X0140448Y0140840D01*
Y0140673D01*
X0140393Y0140645D01*
X0135015Y0138988D02*
X0135348Y0138821D01*
Y0139043D01*
X0135015Y0139191D02*
Y0139302D01*
Y0139247D02*
X0135348D01*
X0135293Y0139302D01*
X0135070Y0139505D02*
X0135015Y0139533D01*
Y0139700D01*
X0135070Y0139728D01*
X0135293D01*
X0135348Y0139700D01*
Y0139533D01*
X0135293Y0139505D01*
X0110955Y0136715D02*
X0110900Y0136770D01*
X0110872Y0136826D01*
Y0136937D01*
X0110900Y0136993D01*
X0110955Y0137048D01*
X0111011D01*
X0111067Y0136993D01*
X0111094Y0136937D01*
Y0136826D01*
X0111067Y0136770D01*
X0111011Y0136715D01*
X0110955D01*
X0110697Y0136882D02*
X0110724Y0136937D01*
Y0136993D01*
X0110697Y0137048D01*
X0110530D01*
X0110502Y0136993D01*
Y0136937D01*
X0110530Y0136882D01*
X0110697D01*
X0110724Y0136826D01*
Y0136770D01*
X0110697Y0136715D01*
X0110530D01*
X0110502Y0136770D01*
Y0136826D01*
X0110530Y0136882D01*
X0110271D02*
X0110354Y0136715D01*
X0110132Y0136882D02*
X0110299D01*
X0110354Y0136937D01*
Y0136993D01*
X0110299Y0137048D01*
X0110132D01*
Y0136715D01*
X0138055Y0138980D02*
X0138110Y0139036D01*
X0138166Y0139063D01*
X0138277D01*
X0138333Y0139036D01*
X0138388Y0138980D01*
Y0138924D01*
X0138333Y0138869D01*
X0138277Y0138841D01*
X0138166D01*
X0138110Y0138869D01*
X0138055Y0138924D01*
Y0138980D01*
Y0139211D02*
Y0139322D01*
Y0139267D02*
X0138388D01*
X0138333Y0139322D01*
X0138110Y0139525D02*
X0138055Y0139553D01*
Y0139720D01*
X0138110Y0139748D01*
X0138333D01*
X0138388Y0139720D01*
Y0139553D01*
X0138333Y0139525D01*
X0128425Y0127665D02*
X0128370Y0127720D01*
X0128342Y0127776D01*
Y0127887D01*
X0128370Y0127943D01*
X0128425Y0127998D01*
X0128481D01*
X0128537Y0127943D01*
X0128564Y0127887D01*
Y0127776D01*
X0128537Y0127720D01*
X0128481Y0127665D01*
X0128425D01*
X0128194D02*
X0127972D01*
X0128194Y0127887D01*
Y0127943D01*
X0128167Y0127998D01*
X0128000D01*
X0127972Y0127943D01*
X0127824Y0127720D02*
X0127797Y0127665D01*
X0127630D01*
X0127602Y0127720D01*
Y0127943D01*
X0127630Y0127998D01*
X0127797D01*
X0127824Y0127943D01*
X0138858Y0119937D02*
X0138803Y0119881D01*
Y0119770D01*
X0138858Y0119714D01*
X0138914D01*
X0139025Y0119826D01*
X0139136Y0119714D01*
Y0119937D01*
X0138858Y0120307D02*
X0138803Y0120251D01*
Y0120140D01*
X0138858Y0120084D01*
X0138914D01*
X0139025Y0120196D01*
X0139136Y0120084D01*
Y0120307D01*
X0138969Y0120538D02*
X0138803Y0120454D01*
X0138969Y0120677D02*
Y0120510D01*
X0139025Y0120454D01*
X0139080D01*
X0139136Y0120510D01*
Y0120677D01*
X0138803D01*
X0094836Y0121735D02*
Y0121902D01*
X0094892Y0121930D01*
X0094947D01*
X0095003Y0121902D01*
Y0121735D01*
X0094947Y0121707D01*
X0094892D01*
X0094670Y0121819D01*
X0094725Y0122300D02*
X0094670Y0122272D01*
Y0122105D01*
X0094725Y0122077D01*
X0094836D01*
X0094892Y0122133D01*
Y0122300D01*
X0095003D01*
Y0122077D01*
X0094725Y0122447D02*
X0094670Y0122475D01*
Y0122642D01*
X0094725Y0122670D01*
X0094947D01*
X0095003Y0122642D01*
Y0122475D01*
X0094947Y0122447D01*
X0093389Y0124143D02*
X0093166D01*
X0093277Y0124032D02*
Y0124254D01*
X0095082Y0127420D02*
Y0127253D01*
X0095026Y0127225D01*
X0094970D01*
X0094915Y0127253D01*
Y0127420D01*
X0094970Y0127448D01*
X0095026D01*
X0095248Y0127337D01*
X0094970Y0127818D02*
X0094915Y0127790D01*
Y0127623D01*
X0094970Y0127595D01*
X0095082D01*
X0095137Y0127651D01*
Y0127818D01*
X0095248D01*
Y0127595D01*
X0094970Y0127965D02*
X0094915Y0127993D01*
Y0128160D01*
X0094970Y0128188D01*
X0095193D01*
X0095248Y0128160D01*
Y0127993D01*
X0095193Y0127965D01*
X0097693Y0105674D02*
X0097526D01*
X0097498Y0105730D01*
Y0105785D01*
X0097526Y0105841D01*
X0097693D01*
X0097720Y0105785D01*
Y0105730D01*
X0097609Y0105508D01*
X0097350Y0105619D02*
X0097128D01*
X0097239Y0105841D01*
X0097295D01*
Y0105508D01*
X0096980Y0105563D02*
X0096953Y0105508D01*
X0096786D01*
X0096758Y0105563D01*
Y0105785D01*
X0096786Y0105841D01*
X0096953D01*
X0096980Y0105785D01*
X0144040Y0099052D02*
X0144207D01*
X0144234Y0098996D01*
Y0098940D01*
X0144207Y0098885D01*
X0144040D01*
X0144012Y0098940D01*
Y0098996D01*
X0144123Y0099218D01*
X0143864D02*
Y0098940D01*
X0143837Y0098885D01*
X0143670D01*
X0143642Y0098940D01*
Y0099218D01*
X0087268Y0111769D02*
X0087295Y0111825D01*
Y0111880D01*
X0087268Y0111936D01*
X0087101D01*
X0087073Y0111880D01*
Y0111825D01*
X0087101Y0111769D01*
X0087268D01*
X0087295Y0111714D01*
Y0111658D01*
X0087268Y0111603D01*
X0087101D01*
X0087073Y0111658D01*
Y0111714D01*
X0087101Y0111769D01*
X0086898D02*
X0086731D01*
X0086703Y0111825D01*
Y0111880D01*
X0086731Y0111936D01*
X0086898D01*
X0086925Y0111880D01*
Y0111825D01*
X0086814Y0111603D01*
X0086472Y0111769D02*
X0086555Y0111603D01*
X0086333Y0111769D02*
X0086500D01*
X0086555Y0111825D01*
Y0111880D01*
X0086500Y0111936D01*
X0086333D01*
Y0111603D01*
X0122324Y0134626D02*
X0122102D01*
X0122213Y0134848D01*
X0122269D01*
Y0134515D01*
X0121954D02*
X0121732D01*
X0121954Y0134737D01*
Y0134793D01*
X0121927Y0134848D01*
X0121760D01*
X0121732Y0134793D01*
X0121584Y0134570D02*
X0121557Y0134515D01*
X0121390D01*
X0121362Y0134570D01*
Y0134793D01*
X0121390Y0134848D01*
X0121557D01*
X0121584Y0134793D01*
X0099773Y0131859D02*
X0099940Y0132192D01*
X0099718D01*
X0099570Y0131970D02*
X0099348D01*
X0099459Y0132192D01*
X0099514D01*
Y0131859D01*
X0099200Y0131914D02*
X0099172Y0131859D01*
X0099005D01*
X0098978Y0131914D01*
Y0132137D01*
X0099005Y0132192D01*
X0099172D01*
X0099200Y0132137D01*
X0099788Y0126009D02*
X0099815Y0126065D01*
Y0126120D01*
X0099788Y0126176D01*
X0099621D01*
X0099593Y0126120D01*
Y0126065D01*
X0099621Y0126009D01*
X0099788D01*
X0099815Y0125954D01*
Y0125898D01*
X0099788Y0125843D01*
X0099621D01*
X0099593Y0125898D01*
Y0125954D01*
X0099621Y0126009D01*
X0099445Y0125954D02*
X0099223D01*
X0099334Y0126176D01*
X0099390D01*
Y0125843D01*
X0099075Y0125898D02*
X0099048Y0125843D01*
X0098881D01*
X0098853Y0125898D01*
Y0126120D01*
X0098881Y0126176D01*
X0099048D01*
X0099075Y0126120D01*
X0113934Y0116340D02*
X0113823D01*
X0113878D02*
Y0116673D01*
X0113823Y0116618D01*
X0113397Y0116395D02*
X0113453Y0116340D01*
X0113564D01*
X0113619Y0116395D01*
Y0116451D01*
X0113508Y0116562D01*
X0113619Y0116673D01*
X0113397D01*
X0113249Y0116395D02*
X0113222Y0116340D01*
X0113055D01*
X0113027Y0116395D01*
Y0116618D01*
X0113055Y0116673D01*
X0113222D01*
X0113249Y0116618D01*
X0100655Y0137925D02*
X0100822D01*
X0100850Y0137870D01*
Y0137814D01*
X0100822Y0137759D01*
X0100655D01*
X0100628Y0137814D01*
Y0137870D01*
X0100739Y0138092D01*
X0100480Y0137870D02*
X0100258D01*
X0100369Y0138092D01*
X0100424D01*
Y0137759D01*
X0100110Y0137814D02*
X0100082Y0137759D01*
X0099915D01*
X0099888Y0137814D01*
Y0138037D01*
X0099915Y0138092D01*
X0100082D01*
X0100110Y0138037D01*
X0099255Y0119904D02*
X0099033D01*
X0099144Y0120126D01*
X0099200D01*
Y0119793D01*
X0098885Y0119904D02*
X0098663D01*
X0098774Y0120126D01*
X0098830D01*
Y0119793D01*
X0098515Y0119848D02*
X0098488Y0119793D01*
X0098321D01*
X0098293Y0119848D01*
Y0120070D01*
X0098321Y0120126D01*
X0098488D01*
X0098515Y0120070D01*
X0123639Y0108990D02*
X0123806D01*
X0123834Y0108934D01*
Y0108879D01*
X0123806Y0108823D01*
X0123639D01*
X0123611Y0108879D01*
Y0108934D01*
X0123723Y0109157D01*
X0123241Y0108879D02*
X0123269Y0108823D01*
X0123436D01*
X0123464Y0108879D01*
Y0108990D01*
X0123408Y0109045D01*
X0123241D01*
Y0109157D01*
X0123464D01*
X0123010Y0108990D02*
X0123094Y0108823D01*
X0122871Y0108990D02*
X0123038D01*
X0123094Y0109045D01*
Y0109101D01*
X0123038Y0109157D01*
X0122871D01*
Y0108823D01*
X0143856Y0101280D02*
X0143912Y0101224D01*
X0144023D01*
X0144079Y0101280D01*
Y0101335D01*
X0143967Y0101446D01*
X0144079Y0101558D01*
X0143856D01*
X0143514Y0101224D02*
Y0101558D01*
X0143486Y0101224D02*
X0143653D01*
X0143709Y0101335D01*
Y0101446D01*
X0143653Y0101558D01*
X0143486D01*
X0112679Y0131343D02*
X0112845Y0131676D01*
X0112623D01*
X0112309Y0131343D02*
X0112475Y0131676D01*
X0112253D01*
X0112022Y0131509D02*
X0112105Y0131343D01*
X0111883Y0131509D02*
X0112050D01*
X0112105Y0131565D01*
Y0131620D01*
X0112050Y0131676D01*
X0111883D01*
Y0131343D01*
X0108798Y0098327D02*
X0108743Y0098271D01*
Y0098160D01*
X0108798Y0098104D01*
X0108854D01*
X0108965Y0098216D01*
X0109076Y0098104D01*
Y0098327D01*
X0108798Y0098697D02*
X0108743Y0098641D01*
Y0098530D01*
X0108798Y0098474D01*
X0108854D01*
X0108965Y0098586D01*
X0109076Y0098474D01*
Y0098697D01*
X0108798Y0098844D02*
X0108743Y0098872D01*
Y0099039D01*
X0108798Y0099067D01*
X0109020D01*
X0109076Y0099039D01*
Y0098872D01*
X0109020Y0098844D01*
X0156633Y0141273D02*
X0156689Y0141218D01*
X0156800D01*
X0156855Y0141273D01*
Y0141329D01*
X0156744Y0141440D01*
X0156855Y0141551D01*
X0156633D01*
X0156485D02*
Y0141273D01*
X0156458Y0141218D01*
X0156291D01*
X0156263Y0141273D01*
Y0141551D01*
X0152155Y0134823D02*
X0152044D01*
X0152100D02*
Y0135156D01*
X0152044Y0135100D01*
X0155429Y0105101D02*
X0155207D01*
X0155318Y0105323D01*
X0155374D01*
Y0104990D01*
X0155059Y0105045D02*
X0155032Y0104990D01*
X0154865D01*
X0154837Y0105045D01*
Y0105268D01*
X0154865Y0105323D01*
X0155032D01*
X0155059Y0105268D01*
X0091817Y0123620D02*
X0091983D01*
X0092011Y0123564D01*
Y0123509D01*
X0091983Y0123453D01*
X0091817D01*
X0091789Y0123509D01*
Y0123564D01*
X0091900Y0123787D01*
X0091447Y0123453D02*
Y0123787D01*
X0091419Y0123453D02*
X0091586D01*
X0091641Y0123564D01*
Y0123675D01*
X0091586Y0123787D01*
X0091419D01*
X0156798Y0102923D02*
X0156854Y0102868D01*
X0156965D01*
X0157020Y0102923D01*
Y0102979D01*
X0156909Y0103090D01*
X0157020Y0103201D01*
X0156798D01*
X0156650Y0102923D02*
X0156623Y0102868D01*
X0156456D01*
X0156428Y0102923D01*
Y0103145D01*
X0156456Y0103201D01*
X0156623D01*
X0156650Y0103145D01*
X0149523Y0126563D02*
X0149690Y0126896D01*
X0149467D01*
X0149320Y0126563D02*
X0149209D01*
X0149264D02*
Y0126896D01*
X0149209Y0126840D01*
X0148922Y0126729D02*
X0149005Y0126563D01*
X0148783Y0126729D02*
X0148950D01*
X0149005Y0126785D01*
Y0126840D01*
X0148950Y0126896D01*
X0148783D01*
Y0126563D01*
X0113892Y0118797D02*
X0113725D01*
X0113697Y0118852D01*
Y0118908D01*
X0113725Y0118963D01*
X0113892D01*
X0113919Y0118908D01*
Y0118852D01*
X0113808Y0118630D01*
X0113549D02*
X0113327D01*
X0113549Y0118852D01*
Y0118908D01*
X0113522Y0118963D01*
X0113355D01*
X0113327Y0118908D01*
X0113179Y0118685D02*
X0113152Y0118630D01*
X0112985D01*
X0112957Y0118685D01*
Y0118908D01*
X0112985Y0118963D01*
X0113152D01*
X0113179Y0118908D01*
X0103594Y0125316D02*
X0103372D01*
X0103483Y0125538D01*
X0103539D01*
Y0125205D01*
X0103030D02*
Y0125538D01*
X0103002Y0125205D02*
X0103169D01*
X0103224Y0125316D01*
Y0125427D01*
X0103169Y0125538D01*
X0103002D01*
X0107154Y0121066D02*
X0106932D01*
X0107043Y0121288D01*
X0107099D01*
Y0120955D01*
X0106562Y0121010D02*
X0106618Y0120955D01*
X0106729D01*
X0106784Y0121010D01*
Y0121066D01*
X0106673Y0121177D01*
X0106784Y0121288D01*
X0106562D01*
X0106414Y0121010D02*
X0106387Y0120955D01*
X0106220D01*
X0106192Y0121010D01*
Y0121233D01*
X0106220Y0121288D01*
X0106387D01*
X0106414Y0121233D01*
X0112146Y0097264D02*
X0111924D01*
X0112146Y0097486D01*
Y0097542D01*
X0112118Y0097598D01*
X0111952D01*
X0111924Y0097542D01*
X0111554Y0097320D02*
X0111609Y0097264D01*
X0111720D01*
X0111776Y0097320D01*
Y0097375D01*
X0111665Y0097486D01*
X0111776Y0097598D01*
X0111554D01*
X0111406Y0097320D02*
X0111378Y0097264D01*
X0111212D01*
X0111184Y0097320D01*
Y0097542D01*
X0111212Y0097598D01*
X0111378D01*
X0111406Y0097542D01*
X0117983Y0134581D02*
X0118039Y0134525D01*
X0118150D01*
X0118205Y0134581D01*
Y0134636D01*
X0118094Y0134747D01*
X0118205Y0134859D01*
X0117983D01*
X0117835Y0134525D02*
X0117724D01*
X0117780D02*
Y0134859D01*
X0117724Y0134803D01*
X0117521Y0134859D02*
Y0134581D01*
X0117493Y0134525D01*
X0117327D01*
X0117299Y0134581D01*
Y0134859D01*
X0101143Y0135394D02*
Y0135617D01*
X0101365Y0135394D01*
X0101420D01*
X0101476Y0135422D01*
Y0135589D01*
X0101420Y0135617D01*
X0101254Y0135764D02*
Y0135987D01*
X0101476Y0135876D01*
Y0135820D01*
X0101143D01*
X0101198Y0136134D02*
X0101143Y0136162D01*
Y0136329D01*
X0101198Y0136357D01*
X0101420D01*
X0101476Y0136329D01*
Y0136162D01*
X0101420Y0136134D01*
X0123854Y0130776D02*
X0123632D01*
X0123743Y0130998D01*
X0123799D01*
Y0130665D01*
X0123290Y0130832D02*
X0123457D01*
X0123484Y0130776D01*
Y0130720D01*
X0123457Y0130665D01*
X0123290D01*
X0123262Y0130720D01*
Y0130776D01*
X0123373Y0130998D01*
X0123031Y0130832D02*
X0123114Y0130665D01*
X0122892Y0130832D02*
X0123059D01*
X0123114Y0130887D01*
Y0130943D01*
X0123059Y0130998D01*
X0122892D01*
Y0130665D01*
X0086953Y0107283D02*
X0086842D01*
X0086898D02*
Y0107617D01*
X0086842Y0107561D01*
X0086528Y0107394D02*
X0086639Y0107283D01*
X0086416Y0107339D02*
X0086444Y0107283D01*
X0086555D01*
X0086583Y0107339D01*
X0086639Y0107394D01*
Y0107561D01*
X0086611Y0107617D01*
X0086444D01*
X0086416Y0107561D01*
Y0107339D01*
X0113691Y0117428D02*
X0113636Y0117483D01*
X0113608Y0117539D01*
Y0117650D01*
X0113636Y0117705D01*
X0113691Y0117761D01*
X0113747D01*
X0113803Y0117705D01*
X0113830Y0117650D01*
Y0117539D01*
X0113803Y0117483D01*
X0113747Y0117428D01*
X0113691D01*
X0113238Y0117483D02*
X0113294Y0117428D01*
X0113405D01*
X0113460Y0117483D01*
Y0117539D01*
X0113349Y0117650D01*
X0113460Y0117761D01*
X0113238D01*
X0113090Y0117483D02*
X0113063Y0117428D01*
X0112896D01*
X0112868Y0117483D01*
Y0117705D01*
X0112896Y0117761D01*
X0113063D01*
X0113090Y0117705D01*
X0123652Y0134200D02*
X0123680Y0134145D01*
X0123847D01*
X0123874Y0134200D01*
Y0134312D01*
X0123819Y0134367D01*
X0123652D01*
Y0134478D01*
X0123874D01*
X0123504Y0134145D02*
X0123282D01*
X0123504Y0134367D01*
Y0134423D01*
X0123477Y0134478D01*
X0123310D01*
X0123282Y0134423D01*
X0123134Y0134200D02*
X0123107Y0134145D01*
X0122940D01*
X0122912Y0134200D01*
Y0134423D01*
X0122940Y0134478D01*
X0123107D01*
X0123134Y0134423D01*
X0092973Y0118068D02*
X0093001Y0118013D01*
X0093168D01*
X0093195Y0118068D01*
Y0118179D01*
X0093140Y0118235D01*
X0092973D01*
Y0118346D01*
X0093195D01*
X0092798Y0118179D02*
X0092631D01*
X0092603Y0118235D01*
Y0118290D01*
X0092631Y0118346D01*
X0092798D01*
X0092825Y0118290D01*
Y0118235D01*
X0092714Y0118013D01*
X0092372Y0118179D02*
X0092455Y0118013D01*
X0092233Y0118179D02*
X0092400D01*
X0092455Y0118235D01*
Y0118290D01*
X0092400Y0118346D01*
X0092233D01*
Y0118013D01*
X0142768Y0138637D02*
X0142713Y0138581D01*
Y0138470D01*
X0142768Y0138414D01*
X0142824D01*
X0142935Y0138526D01*
X0143046Y0138414D01*
Y0138637D01*
X0142713Y0138784D02*
Y0139007D01*
X0142935Y0138784D01*
X0142990D01*
X0143046Y0138812D01*
Y0138979D01*
X0142990Y0139007D01*
X0142879Y0139238D02*
X0142713Y0139154D01*
X0142879Y0139377D02*
Y0139210D01*
X0142935Y0139154D01*
X0142990D01*
X0143046Y0139210D01*
Y0139377D01*
X0142713D01*
X0106488Y0129867D02*
X0106433Y0129811D01*
Y0129700D01*
X0106488Y0129644D01*
X0106544D01*
X0106655Y0129756D01*
X0106766Y0129644D01*
Y0129867D01*
X0106599Y0130209D02*
Y0130042D01*
X0106544Y0130014D01*
X0106488D01*
X0106433Y0130042D01*
Y0130209D01*
X0106488Y0130237D01*
X0106544D01*
X0106766Y0130126D01*
X0106488Y0130384D02*
X0106433Y0130412D01*
Y0130579D01*
X0106488Y0130607D01*
X0106710D01*
X0106766Y0130579D01*
Y0130412D01*
X0106710Y0130384D01*
X0098615Y0127423D02*
X0098393D01*
X0098615Y0127645D01*
Y0127700D01*
X0098588Y0127756D01*
X0098421D01*
X0098393Y0127700D01*
X0098023Y0127478D02*
X0098051Y0127423D01*
X0098218D01*
X0098245Y0127478D01*
Y0127589D01*
X0098190Y0127645D01*
X0098023D01*
Y0127756D01*
X0098245D01*
X0097875Y0127478D02*
X0097848Y0127423D01*
X0097681D01*
X0097653Y0127478D01*
Y0127700D01*
X0097681Y0127756D01*
X0097848D01*
X0097875Y0127700D01*
X0100057Y0102685D02*
X0100113Y0102630D01*
X0100224D01*
X0100279Y0102685D01*
Y0102741D01*
X0100168Y0102852D01*
X0100279Y0102963D01*
X0100057D01*
X0099882Y0102797D02*
X0099909Y0102852D01*
Y0102908D01*
X0099882Y0102963D01*
X0099715D01*
X0099687Y0102908D01*
Y0102852D01*
X0099715Y0102797D01*
X0099882D01*
X0099909Y0102741D01*
Y0102685D01*
X0099882Y0102630D01*
X0099715D01*
X0099687Y0102685D01*
Y0102741D01*
X0099715Y0102797D01*
X0099456D02*
X0099539Y0102630D01*
X0099317Y0102797D02*
X0099484D01*
X0099539Y0102852D01*
Y0102908D01*
X0099484Y0102963D01*
X0099317D01*
Y0102630D01*
X0091975Y0138212D02*
X0092308Y0138045D01*
Y0138268D01*
X0092030Y0138638D02*
X0091975Y0138610D01*
Y0138443D01*
X0092030Y0138415D01*
X0092142D01*
X0092197Y0138471D01*
Y0138638D01*
X0092308D01*
Y0138415D01*
X0092030Y0138785D02*
X0091975Y0138813D01*
Y0138980D01*
X0092030Y0139008D01*
X0092253D01*
X0092308Y0138980D01*
Y0138813D01*
X0092253Y0138785D01*
X0103822Y0121130D02*
X0103850Y0121075D01*
X0104017D01*
X0104044Y0121130D01*
Y0121242D01*
X0103989Y0121297D01*
X0103822D01*
Y0121408D01*
X0104044D01*
X0103480Y0121075D02*
Y0121408D01*
X0103452Y0121075D02*
X0103619D01*
X0103674Y0121186D01*
Y0121297D01*
X0103619Y0121408D01*
X0103452D01*
X0101803Y0129674D02*
Y0129897D01*
X0102025Y0129674D01*
X0102080D01*
X0102136Y0129702D01*
Y0129869D01*
X0102080Y0129897D01*
X0101969Y0130239D02*
Y0130072D01*
X0101914Y0130044D01*
X0101858D01*
X0101803Y0130072D01*
Y0130239D01*
X0101858Y0130267D01*
X0101914D01*
X0102136Y0130156D01*
X0101858Y0130414D02*
X0101803Y0130442D01*
Y0130609D01*
X0101858Y0130637D01*
X0102080D01*
X0102136Y0130609D01*
Y0130442D01*
X0102080Y0130414D01*
X0130144Y0123435D02*
X0129922D01*
X0130144Y0123657D01*
Y0123713D01*
X0130117Y0123768D01*
X0129950D01*
X0129922Y0123713D01*
X0129774Y0123435D02*
X0129552D01*
X0129774Y0123657D01*
Y0123713D01*
X0129747Y0123768D01*
X0129580D01*
X0129552Y0123713D01*
X0129404Y0123490D02*
X0129377Y0123435D01*
X0129210D01*
X0129182Y0123490D01*
Y0123713D01*
X0129210Y0123768D01*
X0129377D01*
X0129404Y0123713D01*
X0147856Y0124063D02*
X0147801Y0124118D01*
X0147773Y0124174D01*
Y0124285D01*
X0147801Y0124340D01*
X0147856Y0124396D01*
X0147912D01*
X0147968Y0124340D01*
X0147995Y0124285D01*
Y0124174D01*
X0147968Y0124118D01*
X0147912Y0124063D01*
X0147856D01*
X0147625D02*
X0147403D01*
X0147625Y0124285D01*
Y0124340D01*
X0147598Y0124396D01*
X0147431D01*
X0147403Y0124340D01*
X0147172Y0124229D02*
X0147255Y0124063D01*
X0147033Y0124229D02*
X0147200D01*
X0147255Y0124285D01*
Y0124340D01*
X0147200Y0124396D01*
X0147033D01*
Y0124063D01*
X0127107Y0122105D02*
X0126841D01*
X0126974Y0121972D02*
Y0122238D01*
X0091992Y0130443D02*
X0092047Y0130415D01*
X0092103D01*
X0092158Y0130443D01*
Y0130610D01*
X0092103Y0130638D01*
X0092047D01*
X0091992Y0130610D01*
Y0130443D01*
X0091936Y0130415D01*
X0091880D01*
X0091825Y0130443D01*
Y0130610D01*
X0091880Y0130638D01*
X0091936D01*
X0091992Y0130610D01*
X0091880Y0131008D02*
X0091825Y0130980D01*
Y0130813D01*
X0091880Y0130785D01*
X0091992D01*
X0092047Y0130841D01*
Y0131008D01*
X0092158D01*
Y0130785D01*
X0091880Y0131155D02*
X0091825Y0131183D01*
Y0131350D01*
X0091880Y0131378D01*
X0092103D01*
X0092158Y0131350D01*
Y0131183D01*
X0092103Y0131155D01*
X0103078Y0137529D02*
X0102911D01*
X0102883Y0137585D01*
Y0137640D01*
X0102911Y0137696D01*
X0103078D01*
X0103105Y0137640D01*
Y0137585D01*
X0102994Y0137363D01*
X0102513Y0137418D02*
X0102569Y0137363D01*
X0102680D01*
X0102735Y0137418D01*
Y0137474D01*
X0102624Y0137585D01*
X0102735Y0137696D01*
X0102513D01*
X0102365Y0137418D02*
X0102338Y0137363D01*
X0102171D01*
X0102143Y0137418D01*
Y0137640D01*
X0102171Y0137696D01*
X0102338D01*
X0102365Y0137640D01*
X0152205Y0105310D02*
X0151983D01*
X0152205Y0105532D01*
Y0105588D01*
X0152178Y0105643D01*
X0152011D01*
X0151983Y0105588D01*
X0151641Y0105310D02*
Y0105643D01*
X0151613Y0105310D02*
X0151780D01*
X0151835Y0105421D01*
Y0105532D01*
X0151780Y0105643D01*
X0151613D01*
X0126966Y0122464D02*
X0127022Y0122408D01*
X0127133D01*
X0127189Y0122464D01*
Y0122519D01*
X0127078Y0122630D01*
X0127189Y0122742D01*
X0126966D01*
X0126819Y0122408D02*
X0126596D01*
X0126819Y0122630D01*
Y0122686D01*
X0126791Y0122742D01*
X0126624D01*
X0126596Y0122686D01*
X0126449Y0122464D02*
X0126421Y0122408D01*
X0126254D01*
X0126226Y0122464D01*
Y0122686D01*
X0126254Y0122742D01*
X0126421D01*
X0126449Y0122686D01*
X0096560Y0132733D02*
X0096449D01*
X0096504D02*
Y0133066D01*
X0096449Y0133010D01*
X0096023Y0132788D02*
X0096051Y0132733D01*
X0096218D01*
X0096245Y0132788D01*
Y0132899D01*
X0096190Y0132955D01*
X0096023D01*
Y0133066D01*
X0096245D01*
X0095875Y0132788D02*
X0095848Y0132733D01*
X0095681D01*
X0095653Y0132788D01*
Y0133010D01*
X0095681Y0133066D01*
X0095848D01*
X0095875Y0133010D01*
X0120373Y0133773D02*
X0120151D01*
X0120262Y0133996D01*
X0120317D01*
Y0133662D01*
X0120003D02*
X0119892D01*
X0119948D02*
Y0133996D01*
X0119892Y0133940D01*
X0119689Y0133996D02*
Y0133718D01*
X0119661Y0133662D01*
X0119494D01*
X0119466Y0133718D01*
Y0133996D01*
X0087182Y0130744D02*
X0087349D01*
X0087377Y0130689D01*
Y0130633D01*
X0087349Y0130578D01*
X0087182D01*
X0087154Y0130633D01*
Y0130689D01*
X0087265Y0130911D01*
X0086812Y0130689D02*
Y0130633D01*
X0086840Y0130578D01*
X0086951D01*
X0086979Y0130633D01*
Y0130911D01*
X0087007D02*
X0086895D01*
X0151739Y0109318D02*
X0151628D01*
X0151683D02*
Y0109651D01*
X0151628Y0109595D01*
X0151230Y0109318D02*
Y0109651D01*
X0151202Y0109318D02*
X0151369D01*
X0151424Y0109429D01*
Y0109540D01*
X0151369Y0109651D01*
X0151202D01*
X0105645Y0122193D02*
X0105701Y0122137D01*
X0105728Y0122081D01*
Y0121970D01*
X0105701Y0121915D01*
X0105645Y0121859D01*
X0105589D01*
X0105534Y0121915D01*
X0105506Y0121970D01*
Y0122081D01*
X0105534Y0122137D01*
X0105589Y0122193D01*
X0105645D01*
X0105876D02*
X0106098D01*
X0105876Y0121970D01*
Y0121915D01*
X0105904Y0121859D01*
X0106071D01*
X0106098Y0121915D01*
X0106246Y0121859D02*
Y0122137D01*
X0106274Y0122193D01*
X0106441D01*
X0106468Y0122137D01*
Y0121859D01*
X0100181Y0140979D02*
X0100209Y0140923D01*
X0100376D01*
X0100404Y0140979D01*
Y0141090D01*
X0100348Y0141145D01*
X0100181D01*
Y0141257D01*
X0100404D01*
X0100034Y0141034D02*
X0099811D01*
X0099923Y0141257D01*
X0099978D01*
Y0140923D01*
X0099664Y0140979D02*
X0099636Y0140923D01*
X0099469D01*
X0099441Y0140979D01*
Y0141201D01*
X0099469Y0141257D01*
X0099636D01*
X0099664Y0141201D01*
X0100834Y0102014D02*
X0100611D01*
X0100723Y0102237D01*
X0100778D01*
Y0101903D01*
X0100464D02*
X0100241D01*
X0100464Y0102125D01*
Y0102181D01*
X0100436Y0102237D01*
X0100269D01*
X0100241Y0102181D01*
X0100094Y0102237D02*
Y0101959D01*
X0100066Y0101903D01*
X0099899D01*
X0099871Y0101959D01*
Y0102237D01*
X0156575Y0132911D02*
Y0133022D01*
Y0132967D02*
X0156908D01*
X0156853Y0133022D01*
X0156742Y0133309D02*
X0156575Y0133225D01*
X0156742Y0133448D02*
Y0133281D01*
X0156797Y0133225D01*
X0156853D01*
X0156908Y0133281D01*
Y0133448D01*
X0156575D01*
X0094760Y0135918D02*
X0094705Y0135890D01*
Y0135723D01*
X0094760Y0135695D01*
X0094872D01*
X0094927Y0135751D01*
Y0135918D01*
X0095038D01*
Y0135695D01*
X0094760Y0136288D02*
X0094705Y0136260D01*
Y0136093D01*
X0094760Y0136065D01*
X0094872D01*
X0094927Y0136121D01*
Y0136288D01*
X0095038D01*
Y0136065D01*
X0094760Y0136435D02*
X0094705Y0136463D01*
Y0136630D01*
X0094760Y0136658D01*
X0094983D01*
X0095038Y0136630D01*
Y0136463D01*
X0094983Y0136435D01*
X0135339Y0118372D02*
X0135395Y0118344D01*
X0135450D01*
X0135506Y0118372D01*
Y0118539D01*
X0135450Y0118567D01*
X0135395D01*
X0135339Y0118539D01*
Y0118372D01*
X0135284Y0118344D01*
X0135228D01*
X0135173Y0118372D01*
Y0118539D01*
X0135228Y0118567D01*
X0135284D01*
X0135339Y0118539D01*
X0135228Y0118937D02*
X0135173Y0118881D01*
Y0118770D01*
X0135228Y0118714D01*
X0135284D01*
X0135395Y0118826D01*
X0135506Y0118714D01*
Y0118937D01*
X0135339Y0119168D02*
X0135173Y0119084D01*
X0135339Y0119307D02*
Y0119140D01*
X0135395Y0119084D01*
X0135450D01*
X0135506Y0119140D01*
Y0119307D01*
X0135173D01*
X0156538Y0101553D02*
X0156427D01*
X0156483D02*
Y0101887D01*
X0156427Y0101831D01*
X0156168Y0101720D02*
X0156001D01*
Y0101553D02*
Y0101887D01*
X0156224D01*
X0106478Y0118483D02*
X0106506Y0118428D01*
X0106673D01*
X0106700Y0118483D01*
Y0118594D01*
X0106645Y0118650D01*
X0106478D01*
Y0118761D01*
X0106700D01*
X0106108Y0118483D02*
X0106164Y0118428D01*
X0106275D01*
X0106330Y0118483D01*
Y0118539D01*
X0106219Y0118650D01*
X0106330Y0118761D01*
X0106108D01*
X0105960Y0118483D02*
X0105933Y0118428D01*
X0105766D01*
X0105738Y0118483D01*
Y0118705D01*
X0105766Y0118761D01*
X0105933D01*
X0105960Y0118705D01*
X0107105Y0140214D02*
X0106883D01*
X0106994Y0140436D01*
X0107050D01*
Y0140103D01*
X0106541Y0140269D02*
X0106708D01*
X0106735Y0140214D01*
Y0140158D01*
X0106708Y0140103D01*
X0106541D01*
X0106513Y0140158D01*
Y0140214D01*
X0106624Y0140436D01*
X0106365Y0140158D02*
X0106338Y0140103D01*
X0106171D01*
X0106143Y0140158D01*
Y0140380D01*
X0106171Y0140436D01*
X0106338D01*
X0106365Y0140380D01*
X0100415Y0139394D02*
X0100193D01*
X0100304Y0139616D01*
X0100360D01*
Y0139283D01*
X0100018Y0139449D02*
X0100045Y0139505D01*
Y0139560D01*
X0100018Y0139616D01*
X0099851D01*
X0099823Y0139560D01*
Y0139505D01*
X0099851Y0139449D01*
X0100018D01*
X0100045Y0139394D01*
Y0139338D01*
X0100018Y0139283D01*
X0099851D01*
X0099823Y0139338D01*
Y0139394D01*
X0099851Y0139449D01*
X0099592D02*
X0099675Y0139283D01*
X0099453Y0139449D02*
X0099620D01*
X0099675Y0139505D01*
Y0139560D01*
X0099620Y0139616D01*
X0099453D01*
Y0139283D01*
X0142339Y0118052D02*
X0142395Y0118024D01*
X0142450D01*
X0142506Y0118052D01*
Y0118219D01*
X0142450Y0118247D01*
X0142395D01*
X0142339Y0118219D01*
Y0118052D01*
X0142284Y0118024D01*
X0142228D01*
X0142173Y0118052D01*
Y0118219D01*
X0142228Y0118247D01*
X0142284D01*
X0142339Y0118219D01*
X0142173Y0118394D02*
Y0118617D01*
X0142395Y0118394D01*
X0142450D01*
X0142506Y0118422D01*
Y0118589D01*
X0142450Y0118617D01*
X0142339Y0118848D02*
X0142173Y0118764D01*
X0142339Y0118987D02*
Y0118820D01*
X0142395Y0118764D01*
X0142450D01*
X0142506Y0118820D01*
Y0118987D01*
X0142173D01*
X0106496Y0117424D02*
X0106663D01*
X0106690Y0117369D01*
Y0117313D01*
X0106663Y0117258D01*
X0106496D01*
X0106468Y0117313D01*
Y0117369D01*
X0106579Y0117591D01*
X0106098Y0117313D02*
X0106154Y0117258D01*
X0106265D01*
X0106320Y0117313D01*
Y0117369D01*
X0106209Y0117480D01*
X0106320Y0117591D01*
X0106098D01*
X0105950Y0117313D02*
X0105923Y0117258D01*
X0105756D01*
X0105728Y0117313D01*
Y0117535D01*
X0105756Y0117591D01*
X0105923D01*
X0105950Y0117535D01*
X0108492Y0138360D02*
X0108520Y0138305D01*
X0108687D01*
X0108714Y0138360D01*
Y0138472D01*
X0108659Y0138527D01*
X0108492D01*
Y0138638D01*
X0108714D01*
X0108150Y0138472D02*
X0108317D01*
X0108344Y0138416D01*
Y0138360D01*
X0108317Y0138305D01*
X0108150D01*
X0108122Y0138360D01*
Y0138416D01*
X0108233Y0138638D01*
X0107974Y0138360D02*
X0107947Y0138305D01*
X0107780D01*
X0107752Y0138360D01*
Y0138583D01*
X0107780Y0138638D01*
X0107947D01*
X0107974Y0138583D01*
X0097611Y0104508D02*
X0097556Y0104563D01*
X0097528Y0104619D01*
Y0104730D01*
X0097556Y0104785D01*
X0097611Y0104841D01*
X0097667D01*
X0097723Y0104785D01*
X0097750Y0104730D01*
Y0104619D01*
X0097723Y0104563D01*
X0097667Y0104508D01*
X0097611D01*
X0097158Y0104563D02*
X0097186Y0104508D01*
X0097353D01*
X0097380Y0104563D01*
Y0104674D01*
X0097325Y0104730D01*
X0097158D01*
Y0104841D01*
X0097380D01*
X0097010Y0104563D02*
X0096983Y0104508D01*
X0096816D01*
X0096788Y0104563D01*
Y0104785D01*
X0096816Y0104841D01*
X0096983D01*
X0097010Y0104785D01*
X0101708Y0131947D02*
X0101819D01*
X0101763D02*
Y0131614D01*
X0101819Y0131669D01*
X0102022Y0131947D02*
X0102217D01*
Y0131614D01*
X0107367Y0132342D02*
X0107394Y0132397D01*
Y0132453D01*
X0107367Y0132508D01*
X0107200D01*
X0107172Y0132453D01*
Y0132397D01*
X0107200Y0132342D01*
X0107367D01*
X0107394Y0132286D01*
Y0132230D01*
X0107367Y0132175D01*
X0107200D01*
X0107172Y0132230D01*
Y0132286D01*
X0107200Y0132342D01*
X0106802Y0132230D02*
X0106858Y0132175D01*
X0106969D01*
X0107024Y0132230D01*
Y0132286D01*
X0106913Y0132397D01*
X0107024Y0132508D01*
X0106802D01*
X0106654Y0132230D02*
X0106627Y0132175D01*
X0106460D01*
X0106432Y0132230D01*
Y0132453D01*
X0106460Y0132508D01*
X0106627D01*
X0106654Y0132453D01*
X0136376Y0105080D02*
X0136404Y0105025D01*
X0136571D01*
X0136599Y0105080D01*
Y0105192D01*
X0136543Y0105247D01*
X0136376D01*
Y0105358D01*
X0136599D01*
X0136229Y0105025D02*
X0136118D01*
X0136173D02*
Y0105358D01*
X0136118Y0105303D01*
X0135914Y0105080D02*
X0135887Y0105025D01*
X0135720D01*
X0135692Y0105080D01*
Y0105303D01*
X0135720Y0105358D01*
X0135887D01*
X0135914Y0105303D01*
X0151134Y0141256D02*
X0150912D01*
X0151023Y0141478D01*
X0151079D01*
Y0141145D01*
X0150681Y0141312D02*
X0150764Y0141145D01*
X0150542Y0141312D02*
X0150709D01*
X0150764Y0141367D01*
Y0141423D01*
X0150709Y0141478D01*
X0150542D01*
Y0141145D01*
X0106644Y0115938D02*
X0106810Y0116271D01*
X0106588D01*
X0106218Y0115993D02*
X0106274Y0115938D01*
X0106385D01*
X0106440Y0115993D01*
Y0116049D01*
X0106329Y0116160D01*
X0106440Y0116271D01*
X0106218D01*
X0106070Y0115993D02*
X0106043Y0115938D01*
X0105876D01*
X0105848Y0115993D01*
Y0116215D01*
X0105876Y0116271D01*
X0106043D01*
X0106070Y0116215D01*
X0104775Y0124273D02*
X0104719Y0124329D01*
X0104691Y0124384D01*
Y0124495D01*
X0104719Y0124551D01*
X0104775Y0124607D01*
X0104830D01*
X0104886Y0124551D01*
X0104914Y0124495D01*
Y0124384D01*
X0104886Y0124329D01*
X0104830Y0124273D01*
X0104775D01*
X0104544Y0124384D02*
X0104321D01*
X0104433Y0124607D01*
X0104488D01*
Y0124273D01*
X0104174Y0124329D02*
X0104146Y0124273D01*
X0103979D01*
X0103951Y0124329D01*
Y0124551D01*
X0103979Y0124607D01*
X0104146D01*
X0104174Y0124551D01*
X0136346Y0108950D02*
X0136402Y0108895D01*
X0136513D01*
X0136569Y0108950D01*
Y0109006D01*
X0136458Y0109117D01*
X0136569Y0109228D01*
X0136346D01*
X0136199Y0108895D02*
X0136088D01*
X0136143D02*
Y0109228D01*
X0136088Y0109173D01*
X0135884Y0108950D02*
X0135857Y0108895D01*
X0135690D01*
X0135662Y0108950D01*
Y0109173D01*
X0135690Y0109228D01*
X0135857D01*
X0135884Y0109173D01*
X0112718Y0134959D02*
X0112745Y0135015D01*
Y0135070D01*
X0112718Y0135126D01*
X0112551D01*
X0112523Y0135070D01*
Y0135015D01*
X0112551Y0134959D01*
X0112718D01*
X0112745Y0134904D01*
Y0134848D01*
X0112718Y0134793D01*
X0112551D01*
X0112523Y0134848D01*
Y0134904D01*
X0112551Y0134959D01*
X0112375Y0134793D02*
X0112153D01*
X0112375Y0135015D01*
Y0135070D01*
X0112348Y0135126D01*
X0112181D01*
X0112153Y0135070D01*
X0112005Y0134848D02*
X0111978Y0134793D01*
X0111811D01*
X0111783Y0134848D01*
Y0135070D01*
X0111811Y0135126D01*
X0111978D01*
X0112005Y0135070D01*
X0112729Y0134003D02*
X0112895Y0134336D01*
X0112673D01*
X0112525Y0134003D02*
X0112303D01*
X0112525Y0134225D01*
Y0134280D01*
X0112498Y0134336D01*
X0112331D01*
X0112303Y0134280D01*
X0112155Y0134058D02*
X0112128Y0134003D01*
X0111961D01*
X0111933Y0134058D01*
Y0134280D01*
X0111961Y0134336D01*
X0112128D01*
X0112155Y0134280D01*
X0135100Y0107094D02*
X0134877D01*
X0134989Y0107316D01*
X0135044D01*
Y0106983D01*
X0134730D02*
X0134619D01*
X0134674D02*
Y0107316D01*
X0134619Y0107260D01*
X0134415Y0107038D02*
X0134388Y0106983D01*
X0134221D01*
X0134193Y0107038D01*
Y0107260D01*
X0134221Y0107316D01*
X0134388D01*
X0134415Y0107260D01*
X0149467Y0128198D02*
X0149495Y0128143D01*
X0149662D01*
X0149690Y0128198D01*
Y0128309D01*
X0149634Y0128365D01*
X0149467D01*
Y0128476D01*
X0149690D01*
X0149320Y0128143D02*
X0149209D01*
X0149264D02*
Y0128476D01*
X0149209Y0128420D01*
X0148922Y0128309D02*
X0149005Y0128143D01*
X0148783Y0128309D02*
X0148950D01*
X0149005Y0128365D01*
Y0128420D01*
X0148950Y0128476D01*
X0148783D01*
Y0128143D01*
X0101553Y0133978D02*
X0101609Y0133923D01*
X0101720D01*
X0101775Y0133978D01*
Y0134034D01*
X0101664Y0134145D01*
X0101775Y0134256D01*
X0101553D01*
X0101405Y0134034D02*
X0101183D01*
X0101294Y0134256D01*
X0101350D01*
Y0133923D01*
X0101035Y0133978D02*
X0101008Y0133923D01*
X0100841D01*
X0100813Y0133978D01*
Y0134200D01*
X0100841Y0134256D01*
X0101008D01*
X0101035Y0134200D01*
X0147791Y0118149D02*
X0147819Y0118093D01*
X0147986D01*
X0148014Y0118149D01*
Y0118260D01*
X0147958Y0118315D01*
X0147791D01*
Y0118427D01*
X0148014D01*
X0147644D02*
Y0118149D01*
X0147616Y0118093D01*
X0147449D01*
X0147421Y0118149D01*
Y0118427D01*
X0144942Y0117844D02*
Y0117955D01*
Y0117900D02*
X0145276D01*
X0145220Y0117955D01*
X0161673Y0132215D02*
X0161562D01*
X0161618D02*
Y0132548D01*
X0161562Y0132493D01*
X0157471Y0127845D02*
X0157360D01*
X0157415D02*
Y0128178D01*
X0157360Y0128123D01*
X0156962Y0127956D02*
Y0127900D01*
X0156990Y0127845D01*
X0157101D01*
X0157129Y0127900D01*
Y0128178D01*
X0157157D02*
X0157045D01*
X0144173Y0109174D02*
Y0109397D01*
X0144395Y0109174D01*
X0144450D01*
X0144506Y0109202D01*
Y0109369D01*
X0144450Y0109397D01*
X0144173Y0109544D02*
Y0109767D01*
X0144395Y0109544D01*
X0144450D01*
X0144506Y0109572D01*
Y0109739D01*
X0144450Y0109767D01*
X0144339Y0109998D02*
X0144173Y0109914D01*
X0144339Y0110137D02*
Y0109970D01*
X0144395Y0109914D01*
X0144450D01*
X0144506Y0109970D01*
Y0110137D01*
X0144173D01*
X0122820Y0116128D02*
X0122987Y0116461D01*
X0122764D01*
X0122422Y0116239D02*
Y0116183D01*
X0122450Y0116128D01*
X0122561D01*
X0122589Y0116183D01*
Y0116461D01*
X0122617D02*
X0122505D01*
X0087822Y0102094D02*
X0087989Y0102428D01*
X0087766D01*
X0087424Y0102094D02*
Y0102428D01*
X0087396Y0102094D02*
X0087563D01*
X0087619Y0102205D01*
Y0102316D01*
X0087563Y0102428D01*
X0087396D01*
X0090889Y0137785D02*
X0090778D01*
X0090833D02*
Y0138118D01*
X0090778Y0138063D01*
X0090491Y0137952D02*
X0090574Y0137785D01*
X0090352Y0137952D02*
X0090519D01*
X0090574Y0138007D01*
Y0138063D01*
X0090519Y0138118D01*
X0090352D01*
Y0137785D01*
X0090204Y0137896D02*
X0089982D01*
X0090204Y0137785D02*
Y0137952D01*
X0090121Y0138118D01*
X0090065D01*
X0089982Y0137952D01*
Y0137785D01*
X0089834Y0138118D02*
Y0138007D01*
X0089723Y0137785D01*
X0089612Y0138007D01*
Y0138118D01*
X0092233Y0135955D02*
X0092122D01*
X0092178D02*
Y0136288D01*
X0092122Y0136233D01*
X0103645Y0117363D02*
X0103423D01*
X0103645Y0117585D01*
Y0117640D01*
X0103618Y0117696D01*
X0103451D01*
X0103423Y0117640D01*
X0103248Y0117529D02*
X0103275Y0117585D01*
Y0117640D01*
X0103248Y0117696D01*
X0103081D01*
X0103053Y0117640D01*
Y0117585D01*
X0103081Y0117529D01*
X0103248D01*
X0103275Y0117474D01*
Y0117418D01*
X0103248Y0117363D01*
X0103081D01*
X0103053Y0117418D01*
Y0117474D01*
X0103081Y0117529D01*
X0102822D02*
X0102905Y0117363D01*
X0102683Y0117529D02*
X0102850D01*
X0102905Y0117585D01*
Y0117640D01*
X0102850Y0117696D01*
X0102683D01*
Y0117363D01*
X0101005Y0115402D02*
X0100894D01*
X0100950D02*
Y0115736D01*
X0100894Y0115680D01*
X0091129Y0106603D02*
X0091295Y0106936D01*
X0091073D01*
X0090898Y0106769D02*
X0090731D01*
X0090703Y0106825D01*
Y0106880D01*
X0090731Y0106936D01*
X0090898D01*
X0090925Y0106880D01*
Y0106825D01*
X0090814Y0106603D01*
X0090472Y0106769D02*
X0090555Y0106603D01*
X0090333Y0106769D02*
X0090500D01*
X0090555Y0106825D01*
Y0106880D01*
X0090500Y0106936D01*
X0090333D01*
Y0106603D01*
X0089525Y0106612D02*
X0089414D01*
X0089470D02*
Y0106946D01*
X0089414Y0106890D01*
X0144355Y0105372D02*
X0144688Y0105205D01*
Y0105428D01*
X0144355Y0105575D02*
Y0105798D01*
X0144577Y0105575D01*
X0144633D01*
X0144688Y0105603D01*
Y0105770D01*
X0144633Y0105798D01*
X0144522Y0106029D02*
X0144355Y0105945D01*
X0144522Y0106168D02*
Y0106001D01*
X0144577Y0105945D01*
X0144633D01*
X0144688Y0106001D01*
Y0106168D01*
X0144355D01*
X0144877Y0104085D02*
Y0103974D01*
Y0104030D02*
X0144544D01*
X0144600Y0103974D01*
X0091930Y0116627D02*
X0091958Y0116682D01*
Y0116738D01*
X0091930Y0116793D01*
X0091763D01*
X0091735Y0116738D01*
Y0116682D01*
X0091763Y0116627D01*
X0091930D01*
X0091958Y0116571D01*
Y0116515D01*
X0091930Y0116460D01*
X0091763D01*
X0091735Y0116515D01*
Y0116571D01*
X0091763Y0116627D01*
X0091393Y0116571D02*
Y0116515D01*
X0091421Y0116460D01*
X0091532D01*
X0091560Y0116515D01*
Y0116793D01*
X0091588D02*
X0091476D01*
X0122279Y0123755D02*
X0122168D01*
X0122223D02*
Y0124088D01*
X0122168Y0124033D01*
X0121798Y0123755D02*
X0121964Y0124088D01*
X0121742D01*
X0121511Y0123922D02*
X0121594Y0123755D01*
X0121372Y0123922D02*
X0121539D01*
X0121594Y0123977D01*
Y0124033D01*
X0121539Y0124088D01*
X0121372D01*
Y0123755D01*
X0111153Y0111091D02*
X0111180Y0111146D01*
Y0111202D01*
X0111153Y0111258D01*
X0110986D01*
X0110958Y0111202D01*
Y0111146D01*
X0110986Y0111091D01*
X0111153D01*
X0111180Y0111035D01*
Y0110980D01*
X0111153Y0110924D01*
X0110986D01*
X0110958Y0110980D01*
Y0111035D01*
X0110986Y0111091D01*
X0110810Y0110924D02*
X0110699D01*
X0110755D02*
Y0111258D01*
X0110699Y0111202D01*
X0110496Y0111258D02*
Y0110980D01*
X0110468Y0110924D01*
X0110302D01*
X0110274Y0110980D01*
Y0111258D01*
X0136487Y0136450D02*
X0136754D01*
X0136621Y0136583D02*
Y0136317D01*
X0136595Y0139951D02*
Y0140173D01*
X0136817Y0139951D01*
X0136873D01*
X0136928Y0139979D01*
Y0140146D01*
X0136873Y0140173D01*
X0136595Y0140321D02*
Y0140432D01*
Y0140377D02*
X0136928D01*
X0136873Y0140432D01*
X0136650Y0140635D02*
X0136595Y0140663D01*
Y0140830D01*
X0136650Y0140858D01*
X0136873D01*
X0136928Y0140830D01*
Y0140663D01*
X0136873Y0140635D01*
X0090968Y0102534D02*
X0090746D01*
X0090968Y0102756D01*
Y0102812D01*
X0090940Y0102868D01*
X0090774D01*
X0090746Y0102812D01*
X0090598Y0102534D02*
X0090404D01*
Y0102868D01*
X0106158Y0141123D02*
X0106047D01*
X0106103D02*
Y0141457D01*
X0106047Y0141401D01*
X0105844Y0141234D02*
X0105621D01*
X0105733Y0141457D01*
X0105788D01*
Y0141123D01*
X0105474Y0141179D02*
X0105446Y0141123D01*
X0105279D01*
X0105251Y0141179D01*
Y0141401D01*
X0105279Y0141457D01*
X0105446D01*
X0105474Y0141401D01*
X0098093Y0108478D02*
X0098149Y0108423D01*
X0098260D01*
X0098315Y0108478D01*
Y0108534D01*
X0098204Y0108645D01*
X0098315Y0108756D01*
X0098093D01*
X0097723Y0108478D02*
X0097751Y0108423D01*
X0097918D01*
X0097945Y0108478D01*
Y0108589D01*
X0097890Y0108645D01*
X0097723D01*
Y0108756D01*
X0097945D01*
X0097575Y0108478D02*
X0097548Y0108423D01*
X0097381D01*
X0097353Y0108478D01*
Y0108700D01*
X0097381Y0108756D01*
X0097548D01*
X0097575Y0108700D01*
X0095474Y0098046D02*
X0095252D01*
X0095363Y0098268D01*
X0095419D01*
Y0097935D01*
X0094882Y0097990D02*
X0094910Y0097935D01*
X0095077D01*
X0095104Y0097990D01*
Y0098102D01*
X0095049Y0098157D01*
X0094882D01*
Y0098268D01*
X0095104D01*
X0094734Y0097990D02*
X0094707Y0097935D01*
X0094540D01*
X0094512Y0097990D01*
Y0098213D01*
X0094540Y0098268D01*
X0094707D01*
X0094734Y0098213D01*
X0101831Y0111739D02*
X0101998D01*
X0102025Y0111684D01*
Y0111628D01*
X0101998Y0111572D01*
X0101831D01*
X0101803Y0111628D01*
Y0111684D01*
X0101914Y0111906D01*
X0101655Y0111572D02*
X0101433D01*
X0101655Y0111795D01*
Y0111850D01*
X0101628Y0111906D01*
X0101461D01*
X0101433Y0111850D01*
X0101285Y0111906D02*
Y0111628D01*
X0101258Y0111572D01*
X0101091D01*
X0101063Y0111628D01*
Y0111906D01*
X0109306Y0110989D02*
X0109195D01*
X0109250D02*
Y0111323D01*
X0109195Y0111267D01*
X0108991Y0110989D02*
X0108769D01*
X0108991Y0111211D01*
Y0111267D01*
X0108963Y0111323D01*
X0108797D01*
X0108769Y0111267D01*
X0108621Y0111323D02*
Y0111045D01*
X0108593Y0110989D01*
X0108427D01*
X0108399Y0111045D01*
Y0111323D01*
X0111309Y0113059D02*
X0111476Y0113393D01*
X0111253D01*
X0111106Y0113059D02*
X0110995D01*
X0111050D02*
Y0113393D01*
X0110995Y0113337D01*
X0110791Y0113393D02*
Y0113115D01*
X0110763Y0113059D01*
X0110597D01*
X0110569Y0113115D01*
Y0113393D01*
X0113831Y0098072D02*
X0113664D01*
X0113636Y0098127D01*
Y0098183D01*
X0113664Y0098238D01*
X0113831D01*
X0113859Y0098183D01*
Y0098127D01*
X0113748Y0097905D01*
X0113489D02*
X0113378D01*
X0113433D02*
Y0098238D01*
X0113378Y0098183D01*
X0113174Y0098238D02*
Y0097961D01*
X0113147Y0097905D01*
X0112980D01*
X0112952Y0097961D01*
Y0098238D01*
X0140728Y0106531D02*
X0140756Y0106586D01*
Y0106642D01*
X0140728Y0106698D01*
X0140562D01*
X0140534Y0106642D01*
Y0106586D01*
X0140562Y0106531D01*
X0140728D01*
X0140756Y0106475D01*
Y0106420D01*
X0140728Y0106364D01*
X0140562D01*
X0140534Y0106420D01*
Y0106475D01*
X0140562Y0106531D01*
X0140386Y0106698D02*
Y0106420D01*
X0140358Y0106364D01*
X0140192D01*
X0140164Y0106420D01*
Y0106698D01*
X0124442Y0101214D02*
X0124386Y0101270D01*
X0124358Y0101325D01*
Y0101436D01*
X0124386Y0101492D01*
X0124442Y0101548D01*
X0124497D01*
X0124553Y0101492D01*
X0124581Y0101436D01*
Y0101325D01*
X0124553Y0101270D01*
X0124497Y0101214D01*
X0124442D01*
X0124211D02*
X0124100D01*
X0124155D02*
Y0101548D01*
X0124100Y0101492D01*
X0123896Y0101548D02*
Y0101270D01*
X0123868Y0101214D01*
X0123702D01*
X0123674Y0101270D01*
Y0101548D01*
X0153426Y0101369D02*
X0153315D01*
X0153370D02*
Y0101703D01*
X0153315Y0101647D01*
X0153111Y0101703D02*
Y0101425D01*
X0153083Y0101369D01*
X0152917D01*
X0152889Y0101425D01*
Y0101703D01*
X0097742Y0132115D02*
X0097770Y0132171D01*
Y0132227D01*
X0097742Y0132282D01*
X0097575D01*
X0097548Y0132227D01*
Y0132171D01*
X0097575Y0132115D01*
X0097742D01*
X0097770Y0132060D01*
Y0132004D01*
X0097742Y0131949D01*
X0097575D01*
X0097548Y0132004D01*
Y0132060D01*
X0097575Y0132115D01*
X0097400Y0131949D02*
X0097178D01*
X0097400Y0132171D01*
Y0132227D01*
X0097372Y0132282D01*
X0097205D01*
X0097178Y0132227D01*
X0097030Y0132282D02*
Y0132004D01*
X0097002Y0131949D01*
X0096835D01*
X0096808Y0132004D01*
Y0132282D01*
X0096803Y0140579D02*
X0096970Y0140912D01*
X0096748D01*
X0096600Y0140579D02*
X0096378D01*
X0096600Y0140801D01*
Y0140857D01*
X0096572Y0140912D01*
X0096405D01*
X0096378Y0140857D01*
X0096230Y0140912D02*
Y0140634D01*
X0096202Y0140579D01*
X0096035D01*
X0096008Y0140634D01*
Y0140912D01*
X0099466Y0123410D02*
X0099494Y0123355D01*
X0099661D01*
X0099688Y0123410D01*
Y0123522D01*
X0099633Y0123577D01*
X0099466D01*
Y0123688D01*
X0099688D01*
X0099318Y0123355D02*
X0099096D01*
X0099318Y0123577D01*
Y0123633D01*
X0099291Y0123688D01*
X0099124D01*
X0099096Y0123633D01*
X0098948Y0123688D02*
Y0123410D01*
X0098921Y0123355D01*
X0098754D01*
X0098726Y0123410D01*
Y0123688D01*
X0105752Y0110570D02*
X0105808Y0110515D01*
X0105919D01*
X0105974Y0110570D01*
Y0110626D01*
X0105863Y0110737D01*
X0105974Y0110848D01*
X0105752D01*
X0105604Y0110515D02*
X0105382D01*
X0105604Y0110737D01*
Y0110793D01*
X0105577Y0110848D01*
X0105410D01*
X0105382Y0110793D01*
X0105234Y0110848D02*
Y0110570D01*
X0105207Y0110515D01*
X0105040D01*
X0105012Y0110570D01*
Y0110848D01*
X0109130Y0122385D02*
Y0121635D01*
X0110730D01*
Y0122385D01*
X0109130D01*
X0109885Y0124230D02*
X0109135D01*
Y0122630D01*
X0109885D01*
Y0124230D01*
X0110985Y0126070D02*
X0110235D01*
Y0124470D01*
X0110985D01*
Y0126070D01*
X0103180Y0126635D02*
Y0125885D01*
X0104780D01*
Y0126635D01*
X0103180D01*
X0110910Y0122385D02*
Y0121635D01*
X0112510D01*
Y0122385D01*
X0110910D01*
X0109155Y0124470D02*
X0109905D01*
Y0126070D01*
X0109155D01*
Y0124470D01*
X0148920Y0110445D02*
Y0109695D01*
X0150520D01*
Y0110445D01*
X0148920D01*
X0150520Y0110635D02*
Y0111385D01*
X0148920D01*
Y0110635D01*
X0150520D01*
X0121890Y0106330D02*
Y0108720D01*
X0127730D01*
Y0106330D01*
X0121900D01*
X0160335Y0140585D02*
X0161485D01*
Y0141230D01*
X0160335D01*
Y0140585D01*
X0162285Y0140555D02*
X0163435D01*
Y0141200D01*
X0162285D01*
Y0140555D01*
X0123355Y0123475D02*
Y0124625D01*
X0122710D01*
Y0123475D01*
X0123355D01*
X0120540Y0118765D02*
Y0119515D01*
X0118940D01*
Y0118765D01*
X0120540D01*
X0121255Y0125185D02*
X0120105D01*
Y0124540D01*
X0121255D01*
Y0125185D01*
X0121160Y0133135D02*
Y0132385D01*
X0122760D01*
Y0133135D01*
X0121160D01*
X0090885Y0121425D02*
Y0122575D01*
X0090240D01*
Y0121425D01*
X0090885D01*
X0113170Y0138715D02*
Y0137965D01*
X0114770D01*
Y0138715D01*
X0113170D01*
X0122770Y0131395D02*
Y0132145D01*
X0121170D01*
Y0131395D01*
X0122770D01*
X0149475Y0124055D02*
Y0122905D01*
X0150120D01*
Y0124055D01*
X0149475D01*
X0137935Y0121955D02*
Y0120805D01*
X0138580D01*
Y0121955D01*
X0137935D01*
X0125375Y0112845D02*
Y0111695D01*
X0126020D01*
Y0112845D01*
X0125375D01*
X0113180Y0137595D02*
Y0136845D01*
X0114780D01*
Y0137595D01*
X0113180D01*
X0126515Y0104000D02*
X0127265D01*
Y0105600D01*
X0126515D01*
Y0104000D01*
X0139215Y0121955D02*
Y0120805D01*
X0139860D01*
Y0121955D01*
X0139215D01*
X0110010Y0137895D02*
Y0137145D01*
X0111610D01*
Y0137895D01*
X0110010D01*
X0138675Y0119275D02*
Y0118125D01*
X0139320D01*
Y0119275D01*
X0138675D01*
X0086425Y0110945D02*
X0087575D01*
Y0111590D01*
X0086425D01*
Y0110945D01*
X0122935Y0109810D02*
X0123685D01*
Y0111410D01*
X0122935D01*
Y0109810D01*
X0114880Y0131405D02*
Y0132155D01*
X0113280D01*
Y0131405D01*
X0114880D01*
X0147505Y0126645D02*
X0148655D01*
Y0127290D01*
X0147505D01*
Y0126645D01*
X0121150Y0131185D02*
Y0130435D01*
X0122750D01*
Y0131185D01*
X0121150D01*
X0142515Y0136640D02*
X0143265D01*
Y0138240D01*
X0142515D01*
Y0136640D01*
X0151125Y0120295D02*
Y0119145D01*
X0151770D01*
Y0120295D01*
X0151125D01*
X0124215Y0123475D02*
Y0124625D01*
X0123570D01*
Y0123475D01*
X0124215D01*
X0129050Y0127125D02*
Y0126375D01*
X0130650D01*
Y0127125D01*
X0129050D01*
X0098595Y0104000D02*
Y0103250D01*
X0100195D01*
Y0104000D01*
X0098595D01*
X0145755Y0123875D02*
X0146905D01*
Y0124520D01*
X0145755D01*
Y0123875D01*
X0156435Y0132425D02*
Y0133575D01*
X0155790D01*
Y0132425D01*
X0156435D01*
X0145030Y0136625D02*
Y0135875D01*
X0146630D01*
Y0136625D01*
X0145030D01*
X0135625Y0119265D02*
Y0118115D01*
X0136270D01*
Y0119265D01*
X0135625D01*
X0099990Y0138385D02*
Y0139135D01*
X0098390D01*
Y0138385D01*
X0099990D01*
X0141685Y0120415D02*
Y0119265D01*
X0142330D01*
Y0120415D01*
X0141685D01*
X0135605Y0138280D02*
X0134855D01*
Y0136680D01*
X0135605D01*
Y0138280D01*
X0121255Y0124225D02*
X0120105D01*
Y0123580D01*
X0121255D01*
Y0124225D01*
X0121385Y0127725D02*
X0120235D01*
Y0127080D01*
X0121385D01*
Y0127725D01*
X0108840Y0110550D02*
X0108870Y0110580D01*
X0113670D01*
Y0100740D01*
X0108850D01*
Y0110560D01*
X0129050Y0124665D02*
Y0123915D01*
X0130650D01*
Y0124665D01*
X0129050D01*
X0093410Y0100680D02*
Y0102350D01*
X0088410D01*
Y0096300D01*
X0093410D01*
Y0100680D01*
X0121385Y0128655D02*
X0120235D01*
Y0128010D01*
X0121385D01*
Y0128655D01*
X0104960Y0141200D02*
Y0138300D01*
X0100830D01*
Y0142800D01*
X0104960D01*
Y0141200D01*
X0093810Y0116050D02*
X0099400D01*
Y0109230D01*
X0092590D01*
Y0116050D01*
X0093810D01*
X0097030Y0098690D02*
X0094130D01*
Y0102820D01*
X0098630D01*
Y0098690D01*
X0097030D01*
X0100690Y0113440D02*
X0100090D01*
Y0112240D01*
X0103890D01*
Y0113440D01*
X0100490D01*
X0108345Y0112145D02*
Y0111545D01*
X0109545D01*
Y0115345D01*
X0108345D01*
Y0111945D01*
X0111735Y0112575D02*
Y0111975D01*
X0112935D01*
Y0115775D01*
X0111735D01*
Y0112375D01*
X0114650Y0098530D02*
X0115250D01*
Y0099730D01*
X0111450D01*
Y0098530D01*
X0114850D01*
X0138660Y0105460D02*
Y0104860D01*
X0139860D01*
Y0108660D01*
X0138660D01*
Y0105260D01*
X0124030Y0097810D02*
Y0097210D01*
X0125230D01*
Y0101010D01*
X0124030D01*
Y0097610D01*
X0153725Y0099265D02*
Y0098665D01*
X0154925D01*
Y0102465D01*
X0153725D01*
Y0099065D01*
X0101470Y0107430D02*
Y0107130D01*
X0101730D01*
X0149200Y0102150D02*
X0149460D01*
Y0102450D01*
X0149510D01*
X0105410Y0107230D02*
X0105670D01*
Y0107530D01*
X0105720D01*
X0121140Y0135775D02*
Y0135025D01*
X0122740D01*
Y0135775D01*
X0121140D01*
X0150385Y0141375D02*
X0149235D01*
Y0140730D01*
X0150385D01*
Y0141375D01*
X0100840Y0130965D02*
Y0131715D01*
X0099240D01*
Y0130965D01*
X0100840D01*
X0144015Y0111445D02*
Y0110295D01*
X0144660D01*
Y0111445D01*
X0144015D01*
X0131610Y0137435D02*
Y0136685D01*
X0133210D01*
Y0137435D01*
X0131610D01*
X0122760Y0129475D02*
Y0130225D01*
X0121160D01*
Y0129475D01*
X0122760D01*
X0100340Y0124825D02*
Y0125575D01*
X0098740D01*
Y0124825D01*
X0100340D01*
X0148715Y0133075D02*
X0147565D01*
Y0132430D01*
X0148715D01*
Y0133075D01*
X0125515Y0103990D02*
X0126265D01*
Y0105590D01*
X0125515D01*
Y0103990D01*
X0110585Y0116935D02*
X0112785D01*
Y0116035D01*
X0110585D01*
Y0116935D01*
X0099210Y0137565D02*
Y0136815D01*
X0100810D01*
Y0137565D01*
X0099210D01*
X0121150Y0136785D02*
Y0136035D01*
X0122750D01*
Y0136785D01*
X0121150D01*
X0100000Y0129895D02*
Y0130645D01*
X0098400D01*
Y0129895D01*
X0100000D01*
X0136505Y0117555D02*
Y0116405D01*
X0137150D01*
Y0117555D01*
X0136505D01*
X0101350Y0119585D02*
Y0120335D01*
X0099750D01*
Y0119585D01*
X0101350D01*
X0120175Y0120425D02*
X0119025D01*
Y0119780D01*
X0120175D01*
Y0120425D01*
X0114880Y0132405D02*
Y0133155D01*
X0113280D01*
Y0132405D01*
X0114880D01*
X0093365Y0139460D02*
X0094115D01*
Y0141060D01*
X0093365D01*
Y0139460D01*
X0142065Y0102200D02*
X0142140Y0102125D01*
Y0100350D01*
X0143390Y0102200D02*
X0143330Y0102140D01*
Y0100350D01*
X0147505Y0128315D02*
X0148655D01*
Y0128960D01*
X0147505D01*
Y0128315D01*
X0104925Y0113450D02*
X0104175D01*
Y0111850D01*
X0104925D01*
Y0113450D01*
X0109260Y0097380D02*
Y0099580D01*
X0110160D01*
Y0097380D01*
X0109260D01*
X0154045Y0104725D02*
X0156245D01*
Y0103825D01*
X0154045D01*
Y0104725D01*
X0146495Y0130275D02*
X0145345D01*
Y0129630D01*
X0146495D01*
Y0130275D01*
X0093385Y0137530D02*
X0094135D01*
Y0139130D01*
X0093385D01*
Y0137530D01*
X0129495Y0129425D02*
X0130645D01*
Y0130070D01*
X0129495D01*
Y0129425D01*
X0124515Y0103980D02*
X0125265D01*
Y0105580D01*
X0124515D01*
Y0103980D01*
X0092335Y0120780D02*
X0092260Y0120855D01*
Y0122630D01*
X0091010Y0120780D02*
X0091070Y0120840D01*
Y0122630D01*
X0156145Y0102710D02*
Y0103460D01*
X0154545D01*
Y0102710D01*
X0156145D01*
X0124165Y0112865D02*
Y0111715D01*
X0124810D01*
Y0112865D01*
X0124165D01*
X0140135Y0120415D02*
Y0119265D01*
X0140780D01*
Y0120415D01*
X0140135D01*
X0110585Y0119235D02*
X0112785D01*
Y0118335D01*
X0110585D01*
Y0119235D01*
X0107300Y0121905D02*
Y0121155D01*
X0108900D01*
Y0121905D01*
X0107300D01*
X0111145Y0099510D02*
X0110395D01*
Y0097910D01*
X0111145D01*
Y0099510D01*
X0101615Y0134890D02*
X0102365D01*
Y0136490D01*
X0101615D01*
Y0134890D01*
X0094175Y0130650D02*
X0093425D01*
Y0129050D01*
X0094175D01*
Y0130650D01*
X0137150Y0119275D02*
Y0118125D01*
X0137795D01*
Y0119275D01*
X0137150D01*
X0145075Y0125795D02*
X0146225D01*
Y0126440D01*
X0145075D01*
Y0125795D01*
X0121835Y0112815D02*
Y0111665D01*
X0122480D01*
Y0112815D01*
X0121835D01*
X0145260Y0102350D02*
Y0102050D01*
X0145520D01*
X0112715Y0117170D02*
Y0117920D01*
X0111115D01*
Y0117170D01*
X0112715D01*
X0121160Y0134135D02*
Y0133385D01*
X0122760D01*
Y0134135D01*
X0121160D01*
X0093840Y0118465D02*
Y0119215D01*
X0092240D01*
Y0118465D01*
X0093840D01*
X0146495Y0131975D02*
X0145345D01*
Y0131330D01*
X0146495D01*
Y0131975D01*
X0094175Y0132430D02*
X0093425D01*
Y0130830D01*
X0094175D01*
Y0132430D01*
X0105515Y0129300D02*
X0106265D01*
Y0130900D01*
X0105515D01*
Y0129300D01*
X0097520Y0127235D02*
Y0127985D01*
X0095920D01*
Y0127235D01*
X0097520D01*
X0142455Y0121945D02*
Y0120795D01*
X0143100D01*
Y0121945D01*
X0142455D01*
X0125955Y0123475D02*
Y0124625D01*
X0125310D01*
Y0123475D01*
X0125955D01*
X0135785Y0121895D02*
Y0120745D01*
X0136430D01*
Y0121895D01*
X0135785D01*
X0131381Y0139505D02*
Y0140655D01*
X0130736D01*
Y0139505D01*
X0131381D01*
X0093165Y0139140D02*
X0092415D01*
Y0137540D01*
X0093165D01*
Y0139140D01*
X0126075Y0111380D02*
X0125325D01*
Y0109780D01*
X0126075D01*
Y0111380D01*
X0129050Y0128165D02*
Y0127415D01*
X0130650D01*
Y0128165D01*
X0129050D01*
X0102265Y0129290D02*
X0103015D01*
Y0130890D01*
X0102265D01*
Y0129290D01*
X0123515Y0103980D02*
X0124265D01*
Y0105580D01*
X0123515D01*
Y0103980D01*
X0137925Y0117505D02*
Y0116355D01*
X0138570D01*
Y0117505D01*
X0137925D01*
X0097470Y0135945D02*
Y0136695D01*
X0095870D01*
Y0135945D01*
X0097470D01*
X0093075Y0131490D02*
X0092325D01*
Y0129890D01*
X0093075D01*
Y0131490D01*
X0113290Y0131155D02*
Y0130405D01*
X0114890D01*
Y0131155D01*
X0113290D01*
X0097470Y0136825D02*
Y0137575D01*
X0095870D01*
Y0136825D01*
X0097470D01*
X0126565Y0112885D02*
Y0111735D01*
X0127210D01*
Y0112885D01*
X0126565D01*
X0121140Y0139835D02*
Y0139085D01*
X0122740D01*
Y0139835D01*
X0121140D01*
X0104100Y0136455D02*
Y0137205D01*
X0102500D01*
Y0136455D01*
X0104100D01*
X0096510Y0131815D02*
Y0132565D01*
X0094910D01*
Y0131815D01*
X0096510D01*
X0150755Y0138925D02*
X0149605D01*
Y0138280D01*
X0150755D01*
Y0138925D01*
X0152875Y0133995D02*
Y0132845D01*
X0153520D01*
Y0133995D01*
X0152875D01*
X0121785Y0109760D02*
X0122535D01*
Y0111360D01*
X0121785D01*
Y0109760D01*
X0144325Y0140895D02*
X0143175D01*
Y0140250D01*
X0144325D01*
Y0140895D01*
X0098485Y0139630D02*
X0099235D01*
Y0141230D01*
X0098485D01*
Y0139630D01*
X0142340Y0109205D02*
Y0108455D01*
X0143940D01*
Y0109205D01*
X0142340D01*
X0146495Y0133875D02*
X0145345D01*
Y0133230D01*
X0146495D01*
Y0133875D01*
X0145030Y0135565D02*
Y0134815D01*
X0146630D01*
Y0135565D01*
X0145030D01*
X0102600Y0100970D02*
Y0101230D01*
X0102300D01*
Y0101280D01*
X0102400Y0097030D02*
X0102700D01*
Y0097290D01*
X0124125Y0109780D02*
X0124875D01*
Y0111380D01*
X0124125D01*
Y0109780D01*
X0094110Y0133845D02*
Y0134595D01*
X0092510D01*
Y0133845D01*
X0094110D01*
X0113190Y0136585D02*
Y0135835D01*
X0114790D01*
Y0136585D01*
X0113190D01*
X0121150Y0137805D02*
Y0137055D01*
X0122750D01*
Y0137805D01*
X0121150D01*
X0150745Y0139785D02*
X0149595D01*
Y0139140D01*
X0150745D01*
Y0139785D01*
X0145095Y0127485D02*
X0146245D01*
Y0128130D01*
X0145095D01*
Y0127485D01*
X0094565Y0137350D02*
X0093815D01*
Y0135750D01*
X0094565D01*
Y0137350D01*
X0126515Y0109760D02*
X0127265D01*
Y0111360D01*
X0126515D01*
Y0109760D01*
X0151655Y0133995D02*
Y0132845D01*
X0152300D01*
Y0133995D01*
X0151655D01*
X0156850Y0101370D02*
Y0098470D01*
X0155350D01*
Y0101370D01*
X0156850D01*
X0109395Y0118185D02*
X0107195D01*
Y0119085D01*
X0109395D01*
Y0118185D01*
X0107500Y0139195D02*
Y0139945D01*
X0105900D01*
Y0139195D01*
X0107500D01*
X0121140Y0138845D02*
Y0138095D01*
X0122740D01*
Y0138845D01*
X0121140D01*
X0122515Y0103980D02*
X0123265D01*
Y0105580D01*
X0122515D01*
Y0103980D01*
X0122985Y0112885D02*
Y0111735D01*
X0123630D01*
Y0112885D01*
X0122985D01*
X0148715Y0131315D02*
X0147565D01*
Y0130670D01*
X0148715D01*
Y0131315D01*
X0094335Y0105980D02*
X0093585D01*
Y0104380D01*
X0094335D01*
Y0105980D01*
X0140915Y0121945D02*
Y0120795D01*
X0141560D01*
Y0121945D01*
X0140915D01*
X0109325Y0116910D02*
Y0117660D01*
X0107725D01*
Y0116910D01*
X0109325D01*
X0105370Y0139050D02*
X0107570D01*
Y0138150D01*
X0105370D01*
Y0139050D01*
X0100195Y0104260D02*
Y0105010D01*
X0098595D01*
Y0104260D01*
X0100195D01*
X0100750Y0132905D02*
Y0132155D01*
X0102350D01*
Y0132905D01*
X0100750D01*
X0125095Y0123475D02*
Y0124625D01*
X0124450D01*
Y0123475D01*
X0125095D01*
X0106280Y0133395D02*
Y0132645D01*
X0107880D01*
Y0133395D01*
X0106280D01*
X0097520Y0128165D02*
Y0128915D01*
X0095920D01*
Y0128165D01*
X0097520D01*
X0147475Y0125165D02*
X0148625D01*
Y0125810D01*
X0147475D01*
Y0125165D01*
X0135300Y0106470D02*
X0137500D01*
Y0105570D01*
X0135300D01*
Y0106470D01*
X0143225Y0120415D02*
Y0119265D01*
X0143870D01*
Y0120415D01*
X0143225D01*
X0109395Y0115695D02*
X0107195D01*
Y0116595D01*
X0109395D01*
Y0115695D01*
X0104165Y0122490D02*
X0104915D01*
Y0124090D01*
X0104165D01*
Y0122490D01*
X0135300Y0108760D02*
X0137500D01*
Y0107860D01*
X0135300D01*
Y0108760D01*
X0138345Y0138270D02*
X0137595D01*
Y0136670D01*
X0138345D01*
Y0138270D01*
X0114790Y0134805D02*
Y0135555D01*
X0113190D01*
Y0134805D01*
X0114790D01*
X0114880Y0133395D02*
Y0134145D01*
X0113280D01*
Y0133395D01*
X0114880D01*
X0137430Y0106785D02*
Y0107535D01*
X0135830D01*
Y0106785D01*
X0137430D01*
X0114880Y0129395D02*
Y0130145D01*
X0113280D01*
Y0129395D01*
X0114880D01*
X0102350Y0133075D02*
Y0133825D01*
X0100750D01*
Y0133075D01*
X0102350D01*
X0094785Y0128840D02*
X0094035D01*
Y0127240D01*
X0094785D01*
Y0128840D01*
X0100195Y0105270D02*
Y0106020D01*
X0098595D01*
Y0105270D01*
X0100195D01*
G54D113*
G01X0128513Y0132414D02*
Y0132637D01*
X0128735Y0132414D01*
X0128790D01*
X0128846Y0132442D01*
Y0132609D01*
X0128790Y0132637D01*
X0128513Y0132936D02*
X0128679D01*
X0128846Y0132824D02*
X0128679Y0132908D01*
Y0132963D01*
X0128846Y0133047D01*
X0132160Y0139676D02*
X0132188Y0139621D01*
X0132355D01*
X0132382Y0139676D01*
Y0139787D01*
X0132327Y0139843D01*
X0132160D01*
Y0139954D01*
X0132382D01*
X0131778Y0139732D02*
Y0139676D01*
X0131806Y0139621D01*
X0131917D01*
X0131945Y0139676D01*
Y0139954D01*
X0131972D02*
X0131861D01*
X0148526Y0134800D02*
X0148582Y0134744D01*
X0148693D01*
X0148748Y0134800D01*
Y0134855D01*
X0148637Y0134966D01*
X0148748Y0135078D01*
X0148526D01*
X0148144Y0134855D02*
Y0134800D01*
X0148172Y0134744D01*
X0148283D01*
X0148310Y0134800D01*
Y0135078D01*
X0148338D02*
X0148227D01*
X0159189Y0142683D02*
X0159078D01*
X0159133D02*
Y0143016D01*
X0159078Y0142960D01*
X0158723Y0142683D02*
Y0142849D01*
X0158834Y0143016D02*
X0158751Y0142849D01*
X0158695D01*
X0158612Y0143016D01*
X0139497Y0099975D02*
Y0099864D01*
Y0099920D02*
X0139164D01*
X0139220Y0099864D01*
X0135898Y0102611D02*
X0135732D01*
X0135704Y0102666D01*
Y0102722D01*
X0135732Y0102778D01*
X0135898D01*
X0135926Y0102722D01*
Y0102666D01*
X0135815Y0102444D01*
X0135516Y0102778D02*
Y0102500D01*
X0135488Y0102444D01*
X0135322D01*
X0135294Y0102500D01*
Y0102778D01*
X0160762Y0137714D02*
Y0137825D01*
Y0137770D02*
X0161096D01*
X0161040Y0137825D01*
X0160394Y0133223D02*
X0160171D01*
X0160394Y0133445D01*
Y0133501D01*
X0160366Y0133557D01*
X0160199D01*
X0160171Y0133501D01*
X0159984Y0133557D02*
Y0133279D01*
X0159956Y0133223D01*
X0159789D01*
X0159761Y0133279D01*
Y0133557D01*
X0113253Y0124479D02*
X0113453D01*
X0113487Y0124412D01*
Y0124346D01*
X0113453Y0124279D01*
X0113253D01*
X0113220Y0124346D01*
Y0124412D01*
X0113353Y0124679D01*
X0113027Y0124279D02*
X0112893D01*
X0112960D02*
Y0124679D01*
X0112893Y0124612D01*
X0112633Y0124679D02*
Y0124346D01*
X0112600Y0124279D01*
X0112400D01*
X0112367Y0124346D01*
Y0124679D01*
X0106449Y0136012D02*
X0106226D01*
X0106449Y0136234D01*
Y0136290D01*
X0106421Y0136346D01*
X0106254D01*
X0106226Y0136290D01*
X0106039Y0136012D02*
X0105816D01*
X0106039Y0136234D01*
Y0136290D01*
X0106011Y0136346D01*
X0105844D01*
X0105816Y0136290D01*
X0105629Y0136346D02*
Y0136068D01*
X0105601Y0136012D01*
X0105434D01*
X0105406Y0136068D01*
Y0136346D01*
X0157275Y0121693D02*
X0157053D01*
X0157164Y0121915D01*
X0157219D01*
Y0121582D01*
X0156865Y0121915D02*
Y0121638D01*
X0156837Y0121582D01*
X0156670D01*
X0156643Y0121638D01*
Y0121915D01*
X0130190Y0141110D02*
X0130079D01*
X0130135D02*
Y0141443D01*
X0130079Y0141387D01*
X0129725Y0141276D02*
X0129836D01*
Y0141165D01*
X0129808Y0141110D01*
X0129641D01*
X0129614Y0141165D01*
Y0141387D01*
X0129641Y0141443D01*
X0129808D01*
X0129836Y0141387D01*
X0129426Y0141221D02*
X0129204D01*
X0129426Y0141110D02*
Y0141276D01*
X0129343Y0141443D01*
X0129287D01*
X0129204Y0141276D01*
Y0141110D01*
X0128905D02*
Y0141443D01*
X0129016D02*
X0128794D01*
X0128411Y0141221D02*
Y0141165D01*
X0128439Y0141110D01*
X0128550D01*
X0128578Y0141165D01*
Y0141443D01*
X0128606D02*
X0128495D01*
X0128942Y0119513D02*
X0128831D01*
X0128887D02*
Y0119847D01*
X0128831Y0119791D01*
X0128588Y0119513D02*
X0128477D01*
X0128533D02*
Y0119847D01*
X0128477Y0119791D01*
X0128234Y0119847D02*
Y0119569D01*
X0128206Y0119513D01*
X0128039D01*
X0128011Y0119569D01*
Y0119847D01*
X0132705Y0133112D02*
X0133039Y0132945D01*
Y0133168D01*
X0132761Y0133578D02*
X0132705Y0133550D01*
Y0133383D01*
X0132761Y0133355D01*
X0132872D01*
X0132928Y0133411D01*
Y0133578D01*
X0133039D01*
Y0133355D01*
X0132705Y0133765D02*
Y0133876D01*
Y0133821D02*
X0133039D01*
X0132983Y0133876D01*
X0132817Y0124460D02*
X0132928D01*
X0132873D02*
Y0124127D01*
X0132928Y0124183D01*
X0142761Y0124633D02*
X0142706Y0124577D01*
Y0124466D01*
X0142761Y0124411D01*
X0142817D01*
X0142928Y0124522D01*
X0143039Y0124411D01*
Y0124633D01*
X0142761Y0125043D02*
X0142706Y0125015D01*
Y0124849D01*
X0142761Y0124821D01*
X0142872D01*
X0142928Y0124876D01*
Y0125043D01*
X0143039D01*
Y0124821D01*
X0145632Y0122933D02*
X0145798Y0123266D01*
X0145576D01*
X0145388D02*
Y0122988D01*
X0145361Y0122933D01*
X0145194D01*
X0145166Y0122988D01*
Y0123266D01*
X0142498Y0134181D02*
X0142526Y0134126D01*
X0142693D01*
X0142721Y0134181D01*
Y0134292D01*
X0142665Y0134348D01*
X0142498D01*
Y0134459D01*
X0142721D01*
X0142172Y0134126D02*
X0142116Y0134181D01*
X0142088Y0134237D01*
Y0134348D01*
X0142116Y0134403D01*
X0142172Y0134459D01*
X0142227D01*
X0142283Y0134403D01*
X0142311Y0134348D01*
Y0134237D01*
X0142283Y0134181D01*
X0142227Y0134126D01*
X0142172D01*
X0141901D02*
X0141790D01*
X0141845D02*
Y0134459D01*
X0141790Y0134403D01*
X0125502Y0120157D02*
Y0120379D01*
X0125724Y0120157D01*
X0125780D01*
X0125836Y0120185D01*
Y0120351D01*
X0125780Y0120379D01*
X0125502Y0120567D02*
Y0120678D01*
Y0120622D02*
X0125836D01*
X0125780Y0120678D01*
X0125836Y0120921D02*
X0125558D01*
X0125502Y0120949D01*
Y0121116D01*
X0125558Y0121143D01*
X0125836D01*
X0112950Y0128036D02*
X0112983Y0127969D01*
X0113183D01*
X0113217Y0128036D01*
Y0128169D01*
X0113150Y0128236D01*
X0112950D01*
Y0128369D01*
X0113217D01*
X0112757Y0127969D02*
X0112623D01*
X0112690D02*
Y0128369D01*
X0112623Y0128302D01*
X0112363Y0128369D02*
Y0128036D01*
X0112330Y0127969D01*
X0112130D01*
X0112097Y0128036D01*
Y0128369D01*
X0109953Y0140392D02*
X0109842D01*
X0109898D02*
Y0140726D01*
X0109842Y0140670D01*
X0109376Y0140448D02*
X0109432Y0140392D01*
X0109543D01*
X0109599Y0140448D01*
Y0140503D01*
X0109488Y0140614D01*
X0109599Y0140726D01*
X0109376D01*
X0109189D02*
Y0140448D01*
X0109161Y0140392D01*
X0108994D01*
X0108966Y0140448D01*
Y0140726D01*
X0104427Y0128855D02*
X0104372Y0128911D01*
X0104344Y0128966D01*
Y0129077D01*
X0104372Y0129133D01*
X0104427Y0129189D01*
X0104483D01*
X0104538Y0129133D01*
X0104566Y0129077D01*
Y0128966D01*
X0104538Y0128911D01*
X0104483Y0128855D01*
X0104427D01*
X0103934Y0128911D02*
X0103989Y0128855D01*
X0104100D01*
X0104156Y0128911D01*
Y0128966D01*
X0104045Y0129077D01*
X0104156Y0129189D01*
X0103934D01*
X0103746D02*
Y0128911D01*
X0103718Y0128855D01*
X0103552D01*
X0103524Y0128911D01*
Y0129189D01*
X0158070Y0098700D02*
X0163120D01*
Y0103950D01*
X0158070D01*
Y0098700D01*
X0164800Y0105580D02*
Y0109380D01*
X0159300D01*
Y0105580D01*
X0164800D01*
X0141670Y0097070D02*
X0139670D01*
Y0098070D01*
X0141670D01*
Y0097070D01*
X0160350Y0143580D02*
X0163600D01*
Y0141580D01*
X0159600D01*
Y0143580D01*
X0160350D01*
Y0141580D02*
X0162850D01*
X0125300Y0121640D02*
Y0121890D01*
X0120700D01*
Y0118890D01*
X0125300D01*
Y0121640D01*
X0126880Y0133150D02*
X0127380D01*
Y0126150D01*
X0125380D01*
Y0133150D01*
X0126880D01*
Y0132900D01*
X0125880D01*
Y0133150D01*
X0146810Y0111600D02*
X0153120D01*
Y0117700D01*
X0145810D01*
Y0111600D01*
X0146810D01*
X0156330Y0130980D02*
Y0128620D01*
X0162430D01*
Y0131980D01*
X0156330D01*
Y0130980D01*
X0133890Y0097450D02*
Y0115650D01*
X0116090D01*
Y0097450D01*
X0133890D01*
X0086520Y0100980D02*
Y0099330D01*
X0086120Y0102180D02*
Y0103060D01*
X0086920D01*
Y0100980D01*
X0086120D01*
Y0102180D01*
Y0101805D02*
Y0102590D01*
X0086920D01*
Y0101805D01*
X0086520Y0104300D02*
Y0103060D01*
X0087690Y0137400D02*
Y0134670D01*
X0091810D01*
Y0137400D01*
X0087690D01*
X0105610Y0114160D02*
Y0116890D01*
X0101490D01*
Y0114160D01*
X0105610D01*
X0092860Y0103400D02*
Y0106130D01*
X0088740D01*
Y0103400D01*
X0092860D01*
X0144090Y0107340D02*
X0141360D01*
Y0103220D01*
X0144090D01*
Y0107340D01*
X0085140Y0118820D02*
Y0118860D01*
X0091120D01*
Y0112830D01*
X0085140D01*
Y0118820D01*
X0097005Y0131270D02*
X0095710D01*
X0097005Y0131520D02*
Y0129520D01*
X0095700D01*
Y0131520D01*
X0097005D01*
X0096985Y0139760D02*
X0095690D01*
X0096985Y0140010D02*
Y0138010D01*
X0095680D01*
Y0140010D01*
X0096985D01*
X0101465Y0121720D02*
Y0123015D01*
X0101715Y0121720D02*
X0099715D01*
Y0123025D01*
X0101715D01*
Y0121720D01*
X0104455Y0130630D02*
X0104015D01*
Y0129430D01*
X0104455D01*
Y0130630D01*
X0125050Y0121810D02*
Y0118900D01*
X0113850Y0125280D02*
Y0122280D01*
X0119850D01*
Y0125280D01*
X0113850D01*
X0116965Y0135020D02*
Y0139540D01*
X0119220D01*
X0119215Y0139530D01*
Y0135020D01*
X0116965D01*
Y0135270D02*
X0119215D01*
X0086319Y0108331D02*
X0085978Y0108558D01*
X0085970Y0108550D02*
Y0110034D01*
X0085978Y0110042D01*
X0086319Y0110269D01*
X0087121D02*
X0087462Y0110042D01*
X0087689Y0109701D01*
X0087769Y0109300D01*
X0087689Y0108899D01*
X0087462Y0108558D01*
X0087121Y0108331D01*
X0159460Y0137010D02*
X0159310D01*
Y0134460D01*
X0161190D01*
Y0137000D01*
X0161180Y0137010D01*
X0159460D01*
X0113840Y0128830D02*
Y0125830D01*
X0119840D01*
Y0128830D01*
X0113840D01*
X0153246Y0120114D02*
X0155403D01*
X0153238Y0122749D02*
Y0120111D01*
X0150800Y0106440D02*
X0149150D01*
X0152000Y0106840D02*
X0152880D01*
Y0106040D01*
X0150800D01*
Y0106840D01*
X0152000D01*
X0151625D02*
X0152410D01*
Y0106040D01*
X0151625D01*
X0154120Y0106440D02*
X0152880D01*
X0119055Y0133940D02*
Y0129420D01*
X0116800D01*
X0116805Y0129430D01*
Y0133940D01*
X0119055D01*
Y0133690D02*
X0116805D01*
X0087850Y0140340D02*
X0087860Y0140350D01*
Y0140360D01*
X0162670D01*
Y0119320D01*
X0162660Y0119130D01*
X0087850D01*
Y0140340D01*
X0152490Y0108550D02*
X0154140D01*
X0151290Y0108150D02*
X0150410D01*
Y0108950D01*
X0152490D01*
Y0108150D01*
X0151290D01*
X0151665D02*
X0150880D01*
Y0108950D01*
X0151665D01*
X0149170Y0108550D02*
X0150410D01*
X0106680Y0122125D02*
Y0124125D01*
X0107430D01*
Y0122125D01*
X0106680D01*
X0107430Y0122375D02*
X0106680D01*
X0153246Y0122754D02*
X0155403D01*
Y0122749D02*
Y0120111D01*
X0103725Y0135520D02*
X0105046D01*
X0105027Y0135779D02*
X0105036Y0135770D01*
Y0132993D01*
X0103729D01*
X0103725Y0133010D01*
Y0135770D01*
X0103735Y0135779D01*
X0105027D01*
G54D172*
G01X0113802Y0123730D02*
X0113580D01*
X0113802Y0123619D02*
Y0123785D01*
X0113719Y0123952D01*
X0113663D01*
X0113580Y0123785D01*
Y0123619D01*
X0113341D02*
Y0123785D01*
X0113452Y0123619D02*
Y0123785D01*
X0113424Y0123841D01*
X0113369D01*
X0113341Y0123785D01*
X0113313Y0123841D01*
X0113258D01*
X0113230Y0123785D01*
Y0123619D01*
X0113102Y0123730D02*
X0112880D01*
X0112991Y0123952D01*
X0113046D01*
Y0123619D01*
X0112752Y0123508D02*
X0112530D01*
X0112291Y0123619D02*
Y0123785D01*
X0112402Y0123952D02*
X0112319Y0123785D01*
X0112263D01*
X0112180Y0123952D01*
X0112052Y0123619D02*
X0111858D01*
Y0123952D01*
X0111647Y0123785D02*
X0111730Y0123619D01*
X0111508Y0123785D02*
X0111674D01*
X0111730Y0123841D01*
Y0123897D01*
X0111674Y0123952D01*
X0111508D01*
Y0123619D01*
X0153420Y0111243D02*
X0153287D01*
X0153420Y0111377D01*
Y0111410D01*
X0153403Y0111443D01*
X0153303D01*
X0153287Y0111410D01*
X0153037Y0111277D02*
X0153070Y0111243D01*
X0153137D01*
X0153170Y0111277D01*
Y0111310D01*
X0153103Y0111377D01*
X0153170Y0111443D01*
X0153037D01*
X0152920Y0111243D02*
X0152787D01*
X0152920Y0111377D01*
Y0111410D01*
X0152903Y0111443D01*
X0152803D01*
X0152787Y0111410D01*
X0152670D02*
X0152653Y0111443D01*
X0152553D01*
X0152537Y0111410D01*
Y0111377D01*
X0152553Y0111343D01*
X0152653D01*
X0152670Y0111310D01*
Y0111277D01*
X0152653Y0111243D01*
X0152553D01*
X0152537Y0111277D01*
X0152370Y0111343D02*
X0152420Y0111243D01*
X0152287Y0111343D02*
X0152387D01*
X0152420Y0111377D01*
Y0111410D01*
X0152387Y0111443D01*
X0152287D01*
Y0111243D01*
X0162345Y0127953D02*
Y0128053D01*
X0162412Y0127953D02*
Y0128053D01*
X0162395Y0128087D01*
X0162362D01*
X0162345Y0128053D01*
X0162328Y0128087D01*
X0162295D01*
X0162278Y0128053D01*
Y0127953D01*
X0162062Y0128087D02*
X0162128D01*
X0162145Y0128053D01*
Y0127987D01*
X0162162Y0127953D01*
X0162045D01*
X0162028Y0127987D01*
X0162045Y0128020D01*
X0162145D01*
X0161912Y0128087D02*
X0161845D01*
X0161828Y0128053D01*
X0161795D01*
Y0128087D02*
Y0127953D01*
X0161595Y0127887D02*
X0161662D01*
X0161678Y0127920D01*
Y0128087D01*
X0161578D01*
X0161562Y0128053D01*
Y0127987D01*
X0161578Y0127953D01*
X0161678D01*
X0161328D02*
X0161312Y0127987D01*
Y0128053D01*
X0161328Y0128087D01*
X0161428D01*
X0161445Y0128053D01*
Y0127987D01*
X0161428Y0127953D01*
X0161328D01*
X0161195Y0128087D02*
X0161128D01*
X0161112Y0128053D01*
X0161078D01*
Y0128087D02*
Y0127953D01*
X0160828Y0128053D02*
X0160928D01*
X0160962Y0128087D01*
Y0128120D01*
X0160928Y0128153D01*
X0160828D01*
Y0127953D01*
X0160253Y0128053D02*
X0160353D01*
X0160387Y0128087D01*
Y0128120D01*
X0160353Y0128153D01*
X0160253D01*
Y0127953D01*
X0160137Y0128120D02*
X0160120Y0128153D01*
X0160020D01*
X0160003Y0128120D01*
Y0128087D01*
X0160020Y0128053D01*
X0160120D01*
X0160137Y0128020D01*
Y0127987D01*
X0160120Y0127953D01*
X0160020D01*
X0160003Y0127987D01*
X0159887Y0127953D02*
X0159820D01*
X0159853D02*
Y0128153D01*
X0159887D02*
X0159820D01*
X0158881Y0142330D02*
Y0142219D01*
Y0142274D02*
X0158548D01*
Y0142219D01*
X0158659Y0141896D02*
Y0142007D01*
X0158715Y0142035D01*
X0158826D01*
X0158881Y0142063D01*
Y0141869D01*
X0158826Y0141841D01*
X0158770Y0141869D01*
Y0142035D01*
X0158881Y0141713D02*
X0158715D01*
X0158659Y0141685D01*
Y0141519D01*
X0158881D01*
Y0141196D02*
X0158826Y0141169D01*
X0158715D01*
X0158659Y0141196D01*
Y0141363D01*
X0158715Y0141391D01*
X0158826D01*
X0158881Y0141363D01*
Y0141196D01*
X0158548Y0140985D02*
Y0140986D01*
Y0140985D01*
X0158881Y0141041D02*
Y0140930D01*
Y0140985D02*
X0158659D01*
Y0140930D01*
Y0140746D02*
Y0140580D01*
X0158881Y0140774D02*
Y0140663D01*
X0158826Y0140635D01*
X0158548D01*
X0158992Y0140258D02*
X0158659D01*
Y0140424D01*
X0158715Y0140452D01*
X0158826D01*
X0158881Y0140424D01*
Y0140258D01*
Y0139935D02*
X0158826Y0139908D01*
X0158603D01*
X0158548Y0139935D01*
Y0140102D01*
X0158603Y0140130D01*
X0158826D01*
X0158881Y0140102D01*
Y0139935D01*
X0160469Y0132709D02*
Y0133042D01*
X0160580D02*
X0160358D01*
X0160230Y0132987D02*
X0160202Y0133042D01*
X0160035D01*
X0160008Y0132987D01*
Y0132931D01*
X0160035Y0132875D01*
X0160202D01*
X0160230Y0132820D01*
Y0132764D01*
X0160202Y0132709D01*
X0160035D01*
X0160008Y0132764D01*
X0159797Y0132875D02*
X0159880Y0132709D01*
X0159658Y0132875D02*
X0159824D01*
X0159880Y0132931D01*
Y0132987D01*
X0159824Y0133042D01*
X0159658D01*
Y0132709D01*
X0112994Y0127318D02*
Y0127651D01*
X0113161D01*
X0113189Y0127595D01*
Y0127484D01*
X0113161Y0127429D01*
X0112994D01*
X0112755D02*
Y0127595D01*
X0112866Y0127429D02*
Y0127595D01*
X0112839Y0127651D01*
X0112783D01*
X0112755Y0127595D01*
X0112727Y0127651D01*
X0112672D01*
X0112644Y0127595D01*
Y0127429D01*
X0112516D02*
X0112405D01*
X0112461D02*
Y0127762D01*
X0112516D02*
X0112405D01*
X0112222Y0127318D02*
X0112000D01*
X0111761Y0127429D02*
Y0127595D01*
X0111872Y0127762D02*
X0111789Y0127595D01*
X0111733D01*
X0111650Y0127762D01*
X0111522Y0127429D02*
X0111328D01*
Y0127762D01*
X0111117Y0127595D02*
X0111200Y0127429D01*
X0110978Y0127595D02*
X0111144D01*
X0111200Y0127651D01*
Y0127707D01*
X0111144Y0127762D01*
X0110978D01*
Y0127429D01*
X0150680Y0120670D02*
X0149480D01*
Y0118010D01*
X0150680D01*
Y0120670D01*
X0150526Y0121214D02*
X0151726D01*
Y0123874D01*
X0150526D01*
Y0121214D01*
X0131945Y0121785D02*
X0130745D01*
Y0119125D01*
X0131945D01*
Y0121785D01*
X0136110Y0136680D02*
X0137310D01*
Y0139340D01*
X0136110D01*
Y0136680D01*
X0127485Y0121875D02*
X0126285D01*
Y0119215D01*
X0127485D01*
Y0121875D01*
X0139900Y0136630D02*
X0141100D01*
Y0139290D01*
X0139900D01*
Y0136630D01*
G54D173*
G01X0157871Y0121081D02*
X0158004Y0121348D01*
X0157826D01*
X0157724Y0121081D02*
X0157635D01*
X0157680D02*
Y0121348D01*
X0157635Y0121303D01*
X0157489Y0121081D02*
X0157400D01*
X0157444D02*
Y0121348D01*
X0157400Y0121303D01*
X0157253Y0121081D02*
X0157164D01*
X0157209D02*
Y0121348D01*
X0157164Y0121303D01*
X0156929Y0121081D02*
Y0121348D01*
X0157018D02*
X0156840D01*
X0156738Y0121081D02*
X0156582D01*
Y0121348D01*
X0125527Y0121679D02*
X0125482Y0121634D01*
Y0121545D01*
X0125527Y0121501D01*
X0125571D01*
X0125660Y0121590D01*
X0125749Y0121501D01*
Y0121679D01*
X0125482Y0121892D02*
X0125527Y0121937D01*
X0125571Y0121959D01*
X0125660D01*
X0125704Y0121937D01*
X0125749Y0121892D01*
Y0121848D01*
X0125704Y0121803D01*
X0125660Y0121781D01*
X0125571D01*
X0125527Y0121803D01*
X0125482Y0121848D01*
Y0121892D01*
X0125615Y0122083D02*
X0125660Y0122061D01*
X0125704D01*
X0125749Y0122083D01*
Y0122217D01*
X0125704Y0122239D01*
X0125660D01*
X0125615Y0122217D01*
Y0122083D01*
X0125571Y0122061D01*
X0125527D01*
X0125482Y0122083D01*
Y0122217D01*
X0125527Y0122239D01*
X0125571D01*
X0125615Y0122217D01*
X0125482Y0122341D02*
Y0122519D01*
X0125660Y0122341D01*
X0125704D01*
X0125749Y0122363D01*
Y0122497D01*
X0125704Y0122519D01*
X0125749Y0122621D02*
X0125482D01*
X0125527Y0122665D01*
X0125704Y0122754D01*
X0125749Y0122799D01*
X0125482D01*
Y0122901D02*
Y0123056D01*
X0125749D01*
Y0123159D02*
X0125527D01*
X0125482Y0123181D01*
Y0123314D01*
X0125527Y0123336D01*
X0125749D01*
X0106509Y0128901D02*
X0106464Y0128945D01*
X0106442Y0128990D01*
Y0129079D01*
X0106464Y0129123D01*
X0106509Y0129168D01*
X0106553D01*
X0106598Y0129123D01*
X0106620Y0129079D01*
Y0128990D01*
X0106598Y0128945D01*
X0106553Y0128901D01*
X0106509D01*
X0106162Y0128945D02*
X0106207Y0128901D01*
X0106295D01*
X0106340Y0128945D01*
Y0128990D01*
X0106251Y0129079D01*
X0106340Y0129168D01*
X0106162D01*
X0105882Y0128945D02*
X0105927Y0128901D01*
X0106015D01*
X0106060Y0128945D01*
Y0128990D01*
X0105971Y0129079D01*
X0106060Y0129168D01*
X0105882D01*
X0105602Y0128945D02*
X0105647Y0128901D01*
X0105735D01*
X0105780Y0128945D01*
Y0128990D01*
X0105691Y0129079D01*
X0105780Y0129168D01*
X0105602D01*
X0105322Y0129034D02*
X0105455D01*
X0105500Y0129079D01*
Y0129123D01*
X0105455Y0129168D01*
X0105322D01*
Y0128901D01*
X0105064D02*
Y0129168D01*
X0105042Y0128901D02*
X0105175D01*
X0105220Y0128990D01*
Y0129079D01*
X0105175Y0129168D01*
X0105042D01*
X0104940Y0128990D02*
X0104762D01*
X0104940Y0128901D02*
Y0129034D01*
X0104873Y0129168D01*
X0104829D01*
X0104762Y0129034D01*
Y0128901D01*
X0105083Y0132479D02*
X0105250Y0132812D01*
X0105028D01*
X0104725Y0132645D02*
X0104892D01*
X0104920Y0132590D01*
Y0132534D01*
X0104892Y0132479D01*
X0104725D01*
X0104698Y0132534D01*
Y0132590D01*
X0104809Y0132812D01*
X0104423Y0132479D02*
X0104590Y0132812D01*
X0104368D01*
X0104093Y0132479D02*
X0104260Y0132812D01*
X0104038D01*
X0103735Y0132479D02*
Y0132812D01*
X0103708Y0132479D02*
X0103874D01*
X0103930Y0132590D01*
Y0132701D01*
X0103874Y0132812D01*
X0103708D01*
X0103600Y0132590D02*
X0103378D01*
X0103600Y0132479D02*
Y0132645D01*
X0103517Y0132812D01*
X0103461D01*
X0103378Y0132645D01*
Y0132479D01*
X0108235Y0107673D02*
X0108291Y0107645D01*
Y0107478D01*
X0108235Y0107450D01*
X0108013D01*
X0107958Y0107478D01*
Y0107645D01*
X0108013Y0107673D01*
X0108291Y0107148D02*
X0107958D01*
X0108291Y0107120D02*
Y0107287D01*
X0108180Y0107343D01*
X0108069D01*
X0107958Y0107287D01*
Y0107120D01*
X0108124Y0107013D02*
Y0106790D01*
X0108235Y0106683D02*
X0108291Y0106655D01*
Y0106488D01*
X0108235Y0106460D01*
X0108013D01*
X0107958Y0106488D01*
Y0106655D01*
X0108013Y0106683D01*
X0108291Y0106158D02*
X0107958D01*
X0108291Y0106130D02*
Y0106297D01*
X0108180Y0106353D01*
X0108069D01*
X0107958Y0106297D01*
Y0106130D01*
X0108291Y0105568D02*
Y0105457D01*
Y0105512D02*
X0107958D01*
X0108013Y0105457D01*
X0108291Y0105293D02*
Y0105071D01*
X0108069Y0105293D01*
X0108013D01*
X0107958Y0105265D01*
Y0105099D01*
X0108013Y0105071D01*
X0108235Y0104741D02*
X0108291Y0104769D01*
Y0104935D01*
X0108235Y0104963D01*
X0108124D01*
X0108069Y0104908D01*
Y0104741D01*
X0107958D01*
Y0104963D01*
X0108291Y0104494D02*
X0108235Y0104439D01*
X0108180Y0104411D01*
X0108069D01*
X0108013Y0104439D01*
X0107958Y0104494D01*
Y0104550D01*
X0108013Y0104605D01*
X0108069Y0104633D01*
X0108180D01*
X0108235Y0104605D01*
X0108291Y0104550D01*
Y0104494D01*
X0108124Y0104303D02*
Y0104081D01*
X0108291Y0103973D02*
Y0103751D01*
X0108069Y0103973D01*
X0108013D01*
X0107958Y0103945D01*
Y0103779D01*
X0108013Y0103751D01*
X0108291Y0103643D02*
Y0103449D01*
X0107958D01*
X0108124Y0103285D02*
Y0103119D01*
X0108291Y0103341D02*
Y0103119D01*
X0107958D01*
Y0103341D01*
X0108291Y0102900D02*
X0107958D01*
Y0103011D02*
Y0102789D01*
X0091607Y0115998D02*
Y0115887D01*
Y0115942D02*
X0091274D01*
Y0115887D01*
X0091385Y0115584D02*
Y0115695D01*
X0091440Y0115723D01*
X0091551D01*
X0091607Y0115751D01*
Y0115557D01*
X0091551Y0115529D01*
X0091496Y0115557D01*
Y0115723D01*
X0091607Y0115421D02*
X0091440D01*
X0091385Y0115393D01*
Y0115227D01*
X0091607D01*
X0091718Y0114980D02*
Y0115091D01*
X0091662Y0115119D01*
X0091385D01*
Y0114952D01*
X0091440Y0114924D01*
X0091551D01*
X0091607Y0114952D01*
Y0115119D01*
X0091274Y0114761D02*
X0091273D01*
X0091274D01*
X0091607Y0114817D02*
Y0114706D01*
Y0114761D02*
X0091385D01*
Y0114706D01*
X0091329Y0114570D02*
X0091274Y0114542D01*
Y0114376D01*
X0091329Y0114348D01*
X0091385D01*
X0091440Y0114376D01*
Y0114542D01*
X0091496Y0114570D01*
X0091551D01*
X0091607Y0114542D01*
Y0114376D01*
X0091551Y0114348D01*
X0091385Y0113757D02*
Y0113591D01*
X0091607Y0113785D02*
Y0113674D01*
X0091551Y0113646D01*
X0091274D01*
X0091385Y0113455D02*
X0091607D01*
Y0113483D02*
Y0113288D01*
X0091551Y0113261D01*
X0091385D01*
X0091718Y0112958D02*
X0091385D01*
Y0113125D01*
X0091440Y0113153D01*
X0091551D01*
X0091607Y0113125D01*
Y0112958D01*
Y0112851D02*
X0091440D01*
X0091385Y0112823D01*
Y0112656D01*
X0091607D01*
Y0112549D02*
Y0112438D01*
Y0112493D02*
X0091274D01*
Y0112549D02*
Y0112438D01*
X0090597Y0124109D02*
Y0124442D01*
X0090569Y0124109D02*
X0090736D01*
X0090791Y0124220D01*
Y0124331D01*
X0090736Y0124442D01*
X0090569D01*
X0090461Y0124164D02*
X0090434Y0124109D01*
X0090267D01*
X0090239Y0124164D01*
Y0124387D01*
X0090267Y0124442D01*
X0090434D01*
X0090461Y0124387D01*
X0090131Y0124109D02*
X0089937D01*
Y0124442D01*
X0089374Y0124220D02*
X0089152D01*
X0089263Y0124442D01*
X0089319D01*
Y0124109D01*
X0089044Y0124331D02*
X0089017Y0124275D01*
X0088905Y0124164D01*
X0088878Y0124109D01*
X0089044D02*
X0089017Y0124164D01*
X0088905Y0124275D01*
X0088878Y0124331D01*
X0088631Y0124109D02*
X0088575Y0124164D01*
X0088548Y0124220D01*
Y0124331D01*
X0088575Y0124387D01*
X0088631Y0124442D01*
X0088687D01*
X0088742Y0124387D01*
X0088770Y0124331D01*
Y0124220D01*
X0088742Y0124164D01*
X0088687Y0124109D01*
X0088631D01*
X0088440Y0124220D02*
X0088218D01*
X0088329Y0124442D01*
X0088384D01*
Y0124109D01*
X0088443Y0134070D02*
Y0133981D01*
Y0134025D02*
X0088177D01*
X0088221Y0133981D01*
X0120985Y0134151D02*
X0120808D01*
X0120985Y0134329D01*
Y0134373D01*
X0120963Y0134418D01*
X0120830D01*
X0120808Y0134373D01*
X0120594Y0134151D02*
X0120550Y0134195D01*
X0120528Y0134240D01*
Y0134329D01*
X0120550Y0134373D01*
X0120594Y0134418D01*
X0120639D01*
X0120683Y0134373D01*
X0120705Y0134329D01*
Y0134240D01*
X0120683Y0134195D01*
X0120639Y0134151D01*
X0120594D01*
X0120425Y0134240D02*
X0120248D01*
X0120336Y0134418D01*
X0120381D01*
Y0134151D01*
X0120145D02*
X0120057D01*
X0120101D02*
Y0134418D01*
X0120057Y0134373D01*
X0119910Y0134151D02*
Y0134418D01*
X0119865Y0134373D01*
X0119821Y0134284D01*
X0119777Y0134373D01*
X0119732Y0134418D01*
Y0134151D01*
X0119608Y0134329D02*
Y0134151D01*
X0119630D02*
X0119474D01*
X0119452Y0134195D01*
Y0134329D01*
X0119194Y0134151D02*
Y0134418D01*
X0119172Y0134151D02*
X0119305D01*
X0119350Y0134240D01*
Y0134329D01*
X0119305Y0134418D01*
X0119172D01*
X0119070Y0134240D02*
X0118892D01*
X0119070Y0134151D02*
Y0134284D01*
X0119003Y0134418D01*
X0118959D01*
X0118892Y0134284D01*
Y0134151D01*
X0116864Y0134601D02*
X0116820Y0134645D01*
X0116798Y0134690D01*
Y0134779D01*
X0116820Y0134823D01*
X0116864Y0134868D01*
X0116909D01*
X0116953Y0134823D01*
X0116975Y0134779D01*
Y0134690D01*
X0116953Y0134645D01*
X0116909Y0134601D01*
X0116864D01*
X0116584D02*
X0116540Y0134645D01*
X0116518Y0134690D01*
Y0134779D01*
X0116540Y0134823D01*
X0116584Y0134868D01*
X0116629D01*
X0116673Y0134823D01*
X0116695Y0134779D01*
Y0134690D01*
X0116673Y0134645D01*
X0116629Y0134601D01*
X0116584D01*
X0116415Y0134690D02*
X0116238D01*
X0116326Y0134868D01*
X0116371D01*
Y0134601D01*
X0116135D02*
X0116047D01*
X0116091D02*
Y0134868D01*
X0116047Y0134823D01*
X0115900Y0134601D02*
Y0134868D01*
X0115855Y0134823D01*
X0115811Y0134734D01*
X0115767Y0134823D01*
X0115722Y0134868D01*
Y0134601D01*
X0115598Y0134779D02*
Y0134601D01*
X0115620D02*
X0115464D01*
X0115442Y0134645D01*
Y0134779D01*
X0115184Y0134601D02*
Y0134868D01*
X0115162Y0134601D02*
X0115295D01*
X0115340Y0134690D01*
Y0134779D01*
X0115295Y0134868D01*
X0115162D01*
X0115060Y0134690D02*
X0114882D01*
X0115060Y0134601D02*
Y0134734D01*
X0114993Y0134868D01*
X0114949D01*
X0114882Y0134734D01*
Y0134601D01*
X0146316Y0122521D02*
X0146272Y0122565D01*
X0146250Y0122610D01*
Y0122699D01*
X0146272Y0122743D01*
X0146316Y0122788D01*
X0146361D01*
X0146405Y0122743D01*
X0146428Y0122699D01*
Y0122610D01*
X0146405Y0122565D01*
X0146361Y0122521D01*
X0146316D01*
X0146036D02*
X0145992Y0122565D01*
X0145970Y0122610D01*
Y0122699D01*
X0145992Y0122743D01*
X0146036Y0122788D01*
X0146081D01*
X0146125Y0122743D01*
X0146148Y0122699D01*
Y0122610D01*
X0146125Y0122565D01*
X0146081Y0122521D01*
X0146036D01*
X0145868D02*
X0145690D01*
X0145868Y0122699D01*
Y0122743D01*
X0145845Y0122788D01*
X0145712D01*
X0145690Y0122743D01*
X0145588D02*
X0145565Y0122788D01*
X0145432D01*
X0145410Y0122743D01*
Y0122699D01*
X0145432Y0122654D01*
X0145565D01*
X0145588Y0122610D01*
Y0122565D01*
X0145565Y0122521D01*
X0145432D01*
X0145410Y0122565D01*
X0145308Y0122521D02*
X0145130D01*
X0145308Y0122699D01*
Y0122743D01*
X0145285Y0122788D01*
X0145152D01*
X0145130Y0122743D01*
X0145028Y0122565D02*
X0145005Y0122521D01*
X0144872D01*
X0144850Y0122565D01*
Y0122743D01*
X0144872Y0122788D01*
X0145005D01*
X0145028Y0122743D01*
X0144748Y0122521D02*
X0144614Y0122788D01*
X0144748D02*
X0144614Y0122521D01*
X0130462Y0119414D02*
X0130595D01*
X0130618Y0119370D01*
Y0119325D01*
X0130595Y0119281D01*
X0130462D01*
X0130440Y0119325D01*
Y0119370D01*
X0130529Y0119548D01*
X0130182Y0119414D02*
X0130315D01*
X0130338Y0119370D01*
Y0119325D01*
X0130315Y0119281D01*
X0130182D01*
X0130160Y0119325D01*
Y0119370D01*
X0130249Y0119548D01*
X0130035Y0119414D02*
X0129902D01*
X0129880Y0119459D01*
Y0119503D01*
X0129902Y0119548D01*
X0130035D01*
X0130058Y0119503D01*
Y0119459D01*
X0129969Y0119281D01*
X0129778D02*
X0129600D01*
X0129778Y0119459D01*
Y0119503D01*
X0129755Y0119548D01*
X0129622D01*
X0129600Y0119503D01*
X0129320Y0119414D02*
X0129453D01*
X0129498Y0119459D01*
Y0119503D01*
X0129453Y0119548D01*
X0129320D01*
Y0119281D01*
X0129218D02*
X0129062D01*
Y0119548D01*
X0129307Y0106223D02*
Y0106023D01*
X0129207D01*
X0129190Y0106057D01*
Y0106123D01*
X0129207Y0106157D01*
X0129307D01*
X0128993D02*
X0129060D01*
X0129077Y0106123D01*
Y0106057D01*
X0129093Y0106023D01*
X0128977D01*
X0128960Y0106057D01*
X0128977Y0106090D01*
X0129077D01*
X0128747Y0105957D02*
Y0106157D01*
X0128847D01*
X0128863Y0106123D01*
Y0106057D01*
X0128847Y0106023D01*
X0128747D01*
X0128650Y0106157D02*
X0128583Y0106023D01*
X0128550Y0105957D02*
X0128583Y0106023D01*
X0128517Y0106157D01*
X0128403Y0106023D02*
X0128303D01*
X0128287Y0106057D01*
Y0106123D01*
X0128303Y0106157D01*
X0128403D01*
X0128420Y0106123D01*
Y0106090D01*
X0128287D01*
X0128190Y0106023D02*
X0128090Y0106123D01*
X0128190Y0106223D01*
X0128057D02*
Y0106023D01*
X0134307Y0139593D02*
X0134240D01*
X0134273D02*
Y0139793D01*
X0134240D01*
X0134027Y0139727D02*
X0134093D01*
X0134110Y0139693D01*
Y0139627D01*
X0134127Y0139593D01*
X0134010D01*
X0133993Y0139627D01*
X0134010Y0139660D01*
X0134110D01*
X0133897Y0139727D02*
X0133830D01*
X0133813Y0139693D01*
X0133780D01*
Y0139727D02*
Y0139593D01*
X0133667D02*
X0133567D01*
X0133550Y0139627D01*
Y0139693D01*
X0133567Y0139727D01*
X0133667D01*
X0133683Y0139693D01*
Y0139660D01*
X0133550D01*
X0133453Y0139593D02*
Y0139693D01*
X0133437Y0139727D01*
X0133337D01*
Y0139593D01*
X0133223D02*
X0133123D01*
X0133107Y0139627D01*
Y0139693D01*
X0133123Y0139727D01*
X0133223D01*
X0133240Y0139693D01*
Y0139660D01*
X0133107D01*
X0132943Y0139693D02*
X0133010D01*
Y0139627D01*
X0132993Y0139593D01*
X0132893D01*
X0132877Y0139627D01*
Y0139760D01*
X0132893Y0139793D01*
X0132993D01*
X0133010Y0139760D01*
X0124227Y0129158D02*
Y0129042D01*
X0124027D01*
X0124160Y0128945D02*
Y0128812D01*
X0124227Y0128945D02*
X0124127D01*
X0124027Y0128895D01*
Y0128862D01*
X0124127Y0128812D01*
X0124227D01*
Y0128648D02*
X0124027D01*
Y0128715D02*
Y0128582D01*
X0124227Y0128485D02*
X0124027Y0128385D01*
Y0128485D02*
X0124227Y0128385D01*
X0124160Y0127967D02*
Y0127833D01*
X0124227Y0127967D02*
X0124127D01*
X0124027Y0127917D01*
Y0127883D01*
X0124127Y0127833D01*
X0124227D01*
X0124127Y0127670D02*
Y0127737D01*
X0124193D01*
X0124227Y0127720D01*
Y0127620D01*
X0124193Y0127603D01*
X0124060D01*
X0124027Y0127620D01*
Y0127720D01*
X0124060Y0127737D01*
X0124127Y0127373D02*
Y0127473D01*
X0124093Y0127507D01*
X0124060D01*
X0124027Y0127473D01*
Y0127373D01*
X0124227D01*
X0124127Y0127243D02*
Y0127143D01*
X0124227D02*
X0124027D01*
Y0127277D01*
X0147042Y0137373D02*
Y0137573D01*
X0147025Y0137373D02*
X0147125D01*
X0147158Y0137440D01*
Y0137507D01*
X0147125Y0137573D01*
X0147025D01*
X0146895Y0137473D02*
X0146795D01*
X0146928Y0137373D02*
X0146795D01*
Y0137573D01*
X0146928D01*
X0146698Y0137373D02*
X0146582D01*
Y0137573D01*
X0146147Y0137473D02*
X0146047D01*
X0146180Y0137373D02*
X0146047D01*
Y0137573D01*
X0146180D01*
X0145950D02*
Y0137373D01*
X0145917Y0137407D01*
X0145850Y0137540D01*
X0145817Y0137573D01*
Y0137373D01*
X0145603D02*
X0145587Y0137407D01*
Y0137540D01*
X0145603Y0137573D01*
X0145703D01*
X0145720Y0137540D01*
Y0137407D01*
X0145703Y0137373D01*
X0145603D01*
X0145373D02*
Y0137573D01*
X0145357Y0137373D02*
X0145457D01*
X0145490Y0137440D01*
Y0137507D01*
X0145457Y0137573D01*
X0145357D01*
X0157980Y0140843D02*
X0157947Y0140877D01*
X0157930Y0140910D01*
Y0140977D01*
X0157947Y0141010D01*
X0157980Y0141043D01*
X0158013D01*
X0158047Y0141010D01*
X0158063Y0140977D01*
Y0140910D01*
X0158047Y0140877D01*
X0158013Y0140843D01*
X0157980D01*
X0157833D02*
X0157700D01*
X0157833Y0140977D01*
Y0141010D01*
X0157817Y0141043D01*
X0157717D01*
X0157700Y0141010D01*
X0157470Y0140877D02*
X0157487Y0140843D01*
X0157587D01*
X0157603Y0140877D01*
Y0140943D01*
X0157570Y0140977D01*
X0157470D01*
Y0141043D01*
X0157603D01*
X0157373Y0140910D02*
X0157240D01*
X0157307Y0141043D01*
X0157340D01*
Y0140843D01*
X0157110Y0140943D02*
X0157010D01*
Y0140843D02*
Y0141043D01*
X0157143D01*
X0156897Y0140943D02*
X0156913Y0140977D01*
Y0141010D01*
X0156897Y0141043D01*
X0156797D01*
X0156780Y0141010D01*
Y0140977D01*
X0156797Y0140943D01*
X0156897D01*
X0156913Y0140910D01*
Y0140877D01*
X0156897Y0140843D01*
X0156797D01*
X0156780Y0140877D01*
Y0140910D01*
X0156797Y0140943D01*
X0156683Y0140843D02*
X0156617D01*
X0156650D02*
Y0141043D01*
X0156617Y0141010D01*
X0156487Y0140877D02*
X0156470Y0140843D01*
X0156370D01*
X0156353Y0140877D01*
Y0141010D01*
X0156370Y0141043D01*
X0156470D01*
X0156487Y0141010D01*
X0156257Y0140843D02*
X0156190D01*
X0156223D02*
Y0141043D01*
X0156257D02*
X0156190D01*
X0155927Y0140943D02*
X0156027D01*
X0156060Y0140977D01*
Y0141010D01*
X0156027Y0141043D01*
X0155927D01*
Y0140843D01*
X0149557Y0134353D02*
X0149490D01*
X0149523D02*
Y0134553D01*
X0149490D01*
X0149277Y0134487D02*
X0149343D01*
X0149360Y0134453D01*
Y0134387D01*
X0149377Y0134353D01*
X0149260D01*
X0149243Y0134387D01*
X0149260Y0134420D01*
X0149360D01*
X0149147Y0134487D02*
X0149080D01*
X0149063Y0134453D01*
X0149030D01*
Y0134487D02*
Y0134353D01*
X0148917D02*
X0148817D01*
X0148800Y0134387D01*
Y0134453D01*
X0148817Y0134487D01*
X0148917D01*
X0148933Y0134453D01*
Y0134420D01*
X0148800D01*
X0148703Y0134353D02*
Y0134453D01*
X0148687Y0134487D01*
X0148587D01*
Y0134353D01*
X0148473D02*
X0148373D01*
X0148357Y0134387D01*
Y0134453D01*
X0148373Y0134487D01*
X0148473D01*
X0148490Y0134453D01*
Y0134420D01*
X0148357D01*
X0148193Y0134453D02*
X0148260D01*
Y0134387D01*
X0148243Y0134353D01*
X0148143D01*
X0148127Y0134387D01*
Y0134520D01*
X0148143Y0134553D01*
X0148243D01*
X0148260Y0134520D01*
X0126810Y0099993D02*
X0126843Y0100060D01*
Y0100127D01*
X0126810Y0100193D01*
X0126680Y0100060D02*
X0126547D01*
X0126613Y0100193D01*
X0126647D01*
Y0099993D01*
X0126450D02*
X0126317D01*
X0126450Y0100127D01*
Y0100160D01*
X0126433Y0100193D01*
X0126333D01*
X0126317Y0100160D01*
X0126220Y0100093D02*
X0126087D01*
X0125873Y0099993D02*
Y0100193D01*
X0125857Y0099993D02*
X0125957D01*
X0125990Y0100060D01*
Y0100127D01*
X0125957Y0100193D01*
X0125857D01*
X0125627Y0100093D02*
X0125727D01*
X0125760Y0100127D01*
Y0100160D01*
X0125727Y0100193D01*
X0125627D01*
Y0099993D01*
X0125530Y0100093D02*
X0125397D01*
X0125300Y0100027D02*
X0125283Y0099993D01*
X0125183D01*
X0125167Y0100027D01*
Y0100160D01*
X0125183Y0100193D01*
X0125283D01*
X0125300Y0100160D01*
X0125070Y0100027D02*
X0125053Y0099993D01*
X0124953D01*
X0124937Y0100027D01*
Y0100160D01*
X0124953Y0100193D01*
X0125053D01*
X0125070Y0100160D01*
X0124840Y0100027D02*
X0124823Y0099993D01*
X0124723D01*
X0124707Y0100027D01*
Y0100160D01*
X0124723Y0100193D01*
X0124823D01*
X0124840Y0100160D01*
X0124610Y0099993D02*
X0124543D01*
X0124577D02*
Y0100193D01*
X0124610D02*
X0124543D01*
X0124413Y0099993D02*
X0124380Y0100060D01*
Y0100127D01*
X0124413Y0100193D01*
X0123912Y0100127D02*
X0123845D01*
X0123828Y0100093D01*
X0123795D01*
Y0100127D02*
Y0099993D01*
X0123682D02*
X0123582D01*
X0123565Y0100027D01*
Y0100093D01*
X0123582Y0100127D01*
X0123682D01*
X0123698Y0100093D01*
Y0100060D01*
X0123565D01*
X0123385Y0099927D02*
X0123452D01*
X0123468Y0099960D01*
Y0100127D01*
X0123368D01*
X0123352Y0100093D01*
Y0100027D01*
X0123368Y0099993D01*
X0123468D01*
X0123172Y0099927D02*
X0123238D01*
X0123255Y0099960D01*
Y0100127D01*
X0123155D01*
X0123138Y0100093D01*
Y0100027D01*
X0123155Y0099993D01*
X0123255D01*
X0122925D02*
X0122908Y0100027D01*
Y0100093D01*
X0122925Y0100127D01*
X0123025D01*
X0123042Y0100093D01*
Y0100027D01*
X0123025Y0099993D01*
X0122925D01*
X0122812D02*
X0122695D01*
Y0100193D01*
X0122193Y0100127D02*
X0122260D01*
X0122277Y0100093D01*
Y0100027D01*
X0122293Y0099993D01*
X0122177D01*
X0122160Y0100027D01*
X0122177Y0100060D01*
X0122277D01*
X0122047Y0100127D02*
X0121947D01*
X0122063Y0099993D02*
X0121997D01*
X0121980Y0100027D01*
Y0100193D01*
X0121750Y0100127D02*
X0121817D01*
X0121833Y0100093D01*
Y0100027D01*
X0121850Y0099993D01*
X0121733D01*
X0121717Y0100027D01*
X0121733Y0100060D01*
X0121833D01*
X0121503Y0099993D02*
Y0100193D01*
X0121487Y0099993D02*
X0121587D01*
X0121620Y0100060D01*
Y0100127D01*
X0121587Y0100193D01*
X0121487D01*
X0108320Y0138890D02*
Y0139970D01*
X0109680D01*
Y0138890D01*
X0108320D01*
G54D174*
G01X0138330Y0099670D02*
X0140330D01*
Y0103670D01*
X0138330D01*
Y0099670D01*
X0138530Y0103670D02*
Y0099670D01*
X0131450Y0136190D02*
X0131050D01*
Y0122590D01*
X0144650D01*
Y0136190D01*
X0131250D01*
G54D87*
X0160600Y0142580D03*
X0162600D03*
G54D88*
X0145110Y0117150D03*
G54D121*
X0160880Y0130180D03*
X0159880D03*
X0158880D03*
X0157880D03*
X0156880D03*
X0155150Y0106440D03*
X0148140Y0108550D03*
G54D128*
X0145110Y0116150D03*
Y0115150D03*
Y0114150D03*
Y0113150D03*
Y0112150D03*
X0153610Y0113150D03*
Y0114150D03*
Y0115150D03*
Y0116150D03*
X0159210Y0114160D03*
Y0115160D03*
Y0116160D03*
Y0113160D03*
G54D129*
X0160210Y0112160D03*
Y0117160D03*
G54D130*
X0129620Y0139786D03*
Y0139195D03*
Y0138605D03*
Y0138014D03*
Y0137424D03*
G54D131*
Y0140376D03*
G54D167*
X0124880Y0129650D03*
Y0126650D03*
X0127880D03*
Y0129650D03*
Y0132650D03*
M02*
