*
G04 Mass Parameters ***
*
G04 Image ***
*
%INF:\MUSHTAQ PCB\SAJJAD HUSSAIN\DDL\ICCC-PD-24-PCBR0500\DATA LOGGER-68.SPB*%
%ICAS*%
%MOIN*%
%IPPOS*%
%ASAXBY*%
G74*%FSLAN2X34Y34*%
*
G04 Aperture Definitions ***
*
%ADD10C,0.0600*%
%ADD11R,0.0600X0.0600*%
%ADD12R,0.0320X0.0380*%
%ADD13R,0.0500X0.0500*%
%ADD14R,0.0380X0.0320*%
%ADD15R,0.0800X0.0800*%
%ADD16R,0.1400X0.0800*%
%ADD17R,0.2000X0.4000*%
%ADD18R,0.0800X0.1400*%
%ADD19R,0.1500X0.1500*%
%ADD20R,0.0520X0.0500*%
%ADD21C,0.0700*%
%ADD22R,0.0700X0.0700*%
%ADD23R,0.0900X0.1000*%
%ADD24R,0.0750X0.1100*%
%ADD25R,0.0300X0.0600*%
%ADD26C,0.1000*%
%ADD27R,0.1000X0.1000*%
%ADD28R,0.1200X0.0800*%
%ADD29C,0.0900*%
%ADD30C,0.0300*%
%ADD31R,0.0300X0.0300*%
%ADD32O,0.0800X0.1500*%
%ADD33O,0.1500X0.0800*%
%ADD34C,0.1260*%
%ADD35C,0.1200*%
%ADD36R,0.2300X0.1200*%
%ADD37O,0.1500X0.0900*%
%ADD38C,0.0550*%
%ADD39R,0.0900X0.0500*%
%ADD40R,0.0900X0.1200*%
%ADD41R,0.0500X0.0900*%
%ADD42O,0.1000X0.0240*%
%ADD43R,0.1000X0.0240*%
%ADD44O,0.0240X0.1000*%
%ADD45R,0.0240X0.1000*%
%ADD46R,0.1968X0.5905*%
%ADD47R,0.0880X0.0480*%
%ADD48R,0.0450X0.1500*%
%ADD49R,0.4400X0.3500*%
%ADD50O,0.0700X0.0110*%
%ADD51R,0.0700X0.0110*%
%ADD52O,0.0110X0.0700*%
%ADD53R,0.0110X0.0700*%
%ADD54O,0.0650X0.0160*%
%ADD55R,0.0650X0.0160*%
%ADD56R,0.0201X0.1600*%
%ADD57O,0.1000X0.0250*%
%ADD58R,0.1000X0.0250*%
%ADD59R,0.1400X0.0600*%
%ADD60R,0.1200X0.0900*%
%ADD61O,0.0940X0.0250*%
%ADD62R,0.0940X0.0250*%
%ADD63O,0.0500X0.0150*%
%ADD64R,0.0500X0.0150*%
%ADD65R,0.0870X0.0420*%
%ADD66R,0.3250X0.4250*%
%ADD67O,0.0250X0.0940*%
%ADD68R,0.0250X0.0940*%
%ADD69R,0.0500X0.0200*%
%ADD70R,0.0350X0.0150*%
%ADD71R,0.0580X0.0580*%
%ADD72C,0.0250*%
%ADD73C,0.0120*%
%ADD74C,0.0200*%
%ADD75C,0.0300*%
%ADD76C,0.0500*%
%ADD77C,0.0250*%
%ADD78C,0.0150*%
%ADD79C,0.0100*%
%ADD80C,0.0500*%
%ADD81C,0.0500*%
%ADD82C,0.0600*%
%ADD83R,0.0600X0.0600*%
%ADD84R,0.0500X0.0500*%
%ADD85R,0.0800X0.0800*%
%ADD86R,0.0380X0.0320*%
%ADD87C,0.0700*%
%ADD88R,0.0700X0.0700*%
%ADD89C,0.1000*%
%ADD90R,0.1000X0.1000*%
%ADD91R,0.0600X0.0800*%
%ADD92C,0.0900*%
%ADD93C,0.0300*%
%ADD94R,0.0300X0.0300*%
%ADD95O,0.0800X0.1500*%
%ADD96O,0.1500X0.0800*%
%ADD97C,0.1260*%
%ADD98C,0.1200*%
%ADD99R,0.0320X0.0380*%
%ADD100O,0.1500X0.0900*%
%ADD101C,0.0550*%
%ADD102R,0.0200X0.0500*%
%ADD103O,0.0250X0.0940*%
%ADD104R,0.0250X0.0940*%
%ADD105O,0.0900X0.0160*%
%ADD106R,0.0900X0.0160*%
%ADD107O,0.0250X0.0860*%
%ADD108R,0.0250X0.0860*%
%ADD109R,0.0580X0.0580*%
%ADD110C,0.0250*%
%ADD111C,0.0250*%
%ADD112C,0.0060*%
%ADD113C,0.0080*%
%ADD114C,0.0500*%
%ADD115C,0.0250*%
%ADD116R,0.1400X0.0800*%
%ADD117R,0.2000X0.4000*%
%ADD118R,0.0800X0.1400*%
%ADD119R,0.1500X0.1500*%
%ADD120R,0.0520X0.0500*%
%ADD121C,0.0850*%
%ADD122R,0.0850X0.0850*%
%ADD123R,0.0900X0.1000*%
%ADD124R,0.0750X0.1100*%
%ADD125R,0.0300X0.0600*%
%ADD126R,0.1200X0.1200*%
%ADD127R,0.1200X0.0800*%
%ADD128C,0.0750*%
%ADD129C,0.1100*%
%ADD130C,0.0400*%
%ADD131R,0.0400X0.0400*%
%ADD132O,0.0900X0.1600*%
%ADD133O,0.1600X0.0900*%
%ADD134C,0.1500*%
%ADD135R,0.2300X0.1200*%
%ADD136O,0.1600X0.1000*%
%ADD137R,0.0900X0.0500*%
%ADD138R,0.0900X0.1200*%
%ADD139O,0.1000X0.0240*%
%ADD140R,0.1000X0.0240*%
%ADD141O,0.0240X0.1000*%
%ADD142R,0.0240X0.1000*%
%ADD143R,0.1968X0.5905*%
%ADD144R,0.0880X0.0480*%
%ADD145R,0.0450X0.1500*%
%ADD146R,0.4400X0.3500*%
%ADD147O,0.0700X0.0110*%
%ADD148R,0.0700X0.0110*%
%ADD149O,0.0110X0.0700*%
%ADD150R,0.0110X0.0700*%
%ADD151O,0.0650X0.0160*%
%ADD152R,0.0650X0.0160*%
%ADD153R,0.0201X0.1600*%
%ADD154O,0.1000X0.0250*%
%ADD155R,0.1000X0.0250*%
%ADD156R,0.1400X0.0600*%
%ADD157R,0.0500X0.0900*%
%ADD158R,0.1200X0.0900*%
%ADD159O,0.0940X0.0250*%
%ADD160R,0.0940X0.0250*%
%ADD161O,0.0500X0.0150*%
%ADD162R,0.0500X0.0150*%
%ADD163R,0.0870X0.0420*%
%ADD164R,0.3250X0.4250*%
%ADD165R,0.0500X0.0200*%
%ADD166R,0.0350X0.0150*%
%ADD167C,0.0800*%
%ADD168C,0.0600*%
%ADD169C,0.0300*%
%ADD170C,0.0600*%
%ADD171C,0.0300*%
*
G04 Plot Data ***
*
G54D83*
X0136080Y0099830D03*
Y0098530D03*
G54D84*
X0153730Y0136480D03*
X0154570D03*
X0146400Y0110800D03*
X0145560D03*
X0143490Y0110580D03*
Y0109740D03*
X0142980Y0117350D03*
Y0116510D03*
X0142490Y0110580D03*
Y0109740D03*
X0140150Y0110590D03*
Y0109750D03*
X0139870Y0126810D03*
X0140710D03*
X0139870Y0127990D03*
X0140710D03*
X0139170Y0110590D03*
Y0109750D03*
X0139300Y0117360D03*
Y0116520D03*
X0137450Y0110600D03*
Y0109760D03*
X0136770Y0117360D03*
Y0116520D03*
X0136450Y0109760D03*
Y0110600D03*
X0134270D03*
Y0109760D03*
X0133270Y0110600D03*
Y0109760D03*
X0133460Y0117660D03*
Y0116820D03*
X0146400Y0109800D03*
X0145560D03*
X0143940Y0117360D03*
Y0116520D03*
X0142600Y0124400D03*
X0141760D03*
X0142600Y0126000D03*
X0141760D03*
X0142600Y0127200D03*
X0141760D03*
X0142600Y0128500D03*
X0141760D03*
X0142600Y0129400D03*
X0141760D03*
X0142890Y0134250D03*
Y0133410D03*
X0140800Y0124730D03*
Y0125570D03*
X0142390Y0131200D03*
X0141550D03*
X0142390Y0132100D03*
X0141550D03*
X0140530Y0137030D03*
Y0137870D03*
X0140310Y0117360D03*
Y0116520D03*
X0139840Y0124730D03*
Y0125570D03*
X0139950Y0133840D03*
Y0133000D03*
X0137750Y0117360D03*
Y0116520D03*
X0137610Y0124690D03*
Y0125530D03*
X0138630Y0124700D03*
Y0125540D03*
X0138360Y0133840D03*
Y0133000D03*
X0136000Y0124640D03*
Y0125480D03*
X0135960Y0130450D03*
X0136800D03*
X0134440Y0117660D03*
Y0116820D03*
X0135000Y0124630D03*
Y0125470D03*
X0135410Y0133840D03*
Y0133000D03*
X0133030Y0126420D03*
X0133870D03*
X0133010Y0131790D03*
X0133850D03*
X0133010Y0132700D03*
X0133850D03*
X0130290Y0129060D03*
Y0128220D03*
X0098420Y0135390D03*
X0097580D03*
X0096600Y0134810D03*
Y0133970D03*
X0137160Y0098990D03*
Y0099830D03*
G54D85*
X0090760Y0136040D03*
X0089760D03*
X0088760D03*
X0089790Y0104760D03*
X0090790D03*
X0091790D03*
X0102540Y0115520D03*
X0103540D03*
X0104540D03*
X0142730Y0104270D03*
Y0105270D03*
Y0106270D03*
X0145770Y0129890D03*
X0147090D03*
X0145710Y0131770D03*
X0147030D03*
X0138850Y0121600D03*
Y0120280D03*
X0137200Y0121600D03*
Y0120280D03*
X0133160Y0128250D03*
X0134480D03*
X0133160Y0129890D03*
X0134480D03*
X0122330Y0129620D03*
Y0128300D03*
G54D86*
X0139890Y0130270D03*
Y0130830D03*
X0139030Y0130270D03*
Y0130830D03*
X0135850Y0116990D03*
Y0116430D03*
X0132570Y0117510D03*
Y0116950D03*
X0123620Y0129620D03*
Y0129060D03*
G54D87*
X0160600Y0142580D03*
X0162600D03*
G54D88*
X0145110Y0117150D03*
G54D91*
X0153725Y0137825D03*
X0154925D03*
G54D99*
X0137190Y0126390D03*
X0136630D03*
X0116440Y0127300D03*
X0117000D03*
G54D102*
X0097575Y0134445D03*
X0097945D03*
X0098315D03*
X0098305Y0133325D03*
X0097935D03*
X0097565D03*
G54D103*
X0142983Y0112011D03*
X0142483D03*
X0141983D03*
X0141984Y0114955D03*
X0142484D03*
X0142984D03*
X0143484D03*
X0139663Y0112011D03*
X0139163D03*
X0138663D03*
X0138664Y0114955D03*
X0139164D03*
X0139664D03*
X0140164D03*
X0136949Y0112026D03*
X0136449D03*
X0135949D03*
X0135950Y0114970D03*
X0136450D03*
X0136950D03*
X0137450D03*
X0133773Y0112031D03*
X0133273D03*
X0132773D03*
X0132774Y0114975D03*
X0133274D03*
X0133774D03*
X0134274D03*
G54D104*
X0143483Y0112011D03*
X0140163D03*
X0137449Y0112026D03*
X0134273Y0112031D03*
G54D105*
X0138325Y0129245D03*
Y0128995D03*
Y0128745D03*
Y0128495D03*
Y0128245D03*
Y0127995D03*
Y0127745D03*
Y0127495D03*
Y0127245D03*
X0136125D03*
Y0127495D03*
Y0127745D03*
Y0127995D03*
Y0128245D03*
Y0128495D03*
Y0128745D03*
Y0128995D03*
Y0129245D03*
Y0129495D03*
G54D106*
X0138325D03*
G54D107*
X0149770Y0114180D03*
X0149270D03*
X0148770D03*
Y0116300D03*
X0149270D03*
X0149770D03*
X0150270D03*
G54D108*
Y0114180D03*
G54D121*
X0160880Y0130180D03*
X0159880D03*
X0158880D03*
X0157880D03*
X0156880D03*
X0155150Y0106440D03*
X0148140Y0108550D03*
G54D128*
X0145110Y0116150D03*
Y0115150D03*
Y0114150D03*
Y0113150D03*
Y0112150D03*
X0153610Y0113150D03*
Y0114150D03*
Y0115150D03*
Y0116150D03*
X0159210Y0114160D03*
Y0115160D03*
Y0116160D03*
Y0113160D03*
G54D129*
X0160210Y0112160D03*
Y0117160D03*
G54D130*
X0129620Y0139786D03*
Y0139195D03*
Y0138605D03*
Y0138014D03*
Y0137424D03*
G54D131*
Y0140376D03*
G54D167*
X0124880Y0129650D03*
Y0126650D03*
X0127880D03*
Y0129650D03*
Y0132650D03*
M02*
